<svg width="31" height="31" viewBox="0 0 31 31" fill="none" xmlns="http://www.w3.org/2000/svg">
<g clip-path="url(#clip0_687_45802)">
<path d="M16.5006 25.7863C23.0096 25.7863 28.2863 20.03 28.2863 12.9292H4.71484C4.71484 20.03 9.99149 25.7863 16.5006 25.7863Z" fill="#6CB2FF"/>
<path d="M16.5003 21.5001C17.6837 21.5001 18.6431 20.5407 18.6431 19.3572C18.6431 18.1737 17.6837 17.2144 16.5003 17.2144C15.3168 17.2144 14.3574 18.1737 14.3574 19.3572C14.3574 20.5407 15.3168 21.5001 16.5003 21.5001Z" fill="white"/>
<path d="M3.96918 10.9502L5.24893 12.9942C5.64069 13.6199 6.32694 13.9999 7.06518 13.9999H25.9343C26.6725 13.9999 27.3588 13.6199 27.7505 12.9942L29.0303 10.9502C29.2437 10.6093 29.3569 10.2152 29.3569 9.81303V5.4285C29.3569 4.24503 28.3975 3.28564 27.214 3.28564H5.78543C4.60197 3.28564 3.64258 4.24504 3.64258 5.4285V9.81303C3.64258 10.2152 3.75576 10.6093 3.96918 10.9502Z" fill="#3A97FE" stroke="white" stroke-width="2.14286"/>
<path d="M24.0006 8.64355H19.7148" stroke="white" stroke-width="2.14286" stroke-linecap="round"/>
</g>
<defs>
<clipPath id="clip0_687_45802">
<rect width="30.9999" height="30.9999" fill="white"/>
</clipPath>
</defs>
</svg>
