<svg width="182" height="170" viewBox="0 0 182 170" fill="none" xmlns="http://www.w3.org/2000/svg">
<g clip-path="url(#clip0_223_43734)">
<path d="M163.617 139.095C133.998 148.23 138.325 136.632 111.285 144.378C84.246 152.124 77.5229 171.568 59.0379 169.9C34.5748 167.689 42.9237 142.457 22.2405 129.075C-7.23564 110.01 -5.48879 75.0885 19.9505 61.5993C45.3898 48.11 55.9222 64.5193 71.3649 51.7878C86.8076 39.0601 98.841 -6.78338 125.378 0.854728C177.599 15.8858 138.244 61.8853 165.841 83.0164C187.625 99.6932 186.495 132.04 163.617 139.095Z" fill="url(#paint0_linear_223_43734)"/>
<path d="M136.629 70.3144C136.629 70.3144 117.869 65.7561 119.37 42.968C119.37 42.968 109.85 35.5677 90.1064 35.3819V35.3745C89.9779 35.3745 89.8568 35.3782 89.732 35.3782C89.6073 35.3782 89.4825 35.3745 89.3577 35.3745V35.3819C69.6103 35.5677 60.0944 42.968 60.0944 42.968C61.5954 65.7561 42.8352 70.3144 42.8352 70.3144C53.808 125.858 89.4898 130.327 89.732 130.32C89.9743 130.327 125.656 125.858 136.629 70.3144Z" fill="#699FEF"/>
<path d="M124.999 73.4239C124.999 73.4239 110.892 69.9949 112.023 52.8612C112.023 52.8612 104.863 47.2961 90.0145 47.1549V47.1475C89.9191 47.1475 89.8274 47.1512 89.732 47.1512C89.6366 47.1512 89.5448 47.1475 89.4494 47.1475V47.1549C74.6012 47.2961 67.4414 52.8612 67.4414 52.8612C68.5717 69.9986 54.4648 73.4239 54.4648 73.4239C62.7183 115.192 89.5485 118.554 89.732 118.547C89.9155 118.55 116.746 115.192 124.999 73.4239Z" fill="url(#paint1_linear_223_43734)"/>
<path d="M70.615 109.09H92.1423C94.3625 109.09 96.1644 107.266 96.1644 105.018V46.2391V35.0717C96.1644 32.8241 94.3625 31 92.1423 31H63.0221C60.8019 31 59 32.8241 59 35.0717V69.915V92.0455" fill="url(#paint2_linear_223_43734)"/>
<path d="M58.0037 88.2139V70.8535" stroke="black" stroke-miterlimit="10"/>
<path d="M93.6304 29H62.958C60.2203 29 58 31.2476 58 34.019V70.8536V88.2139C58.5028 89.5031 59.0202 90.7402 59.5597 91.9253V69.7985V34.9552C59.5597 32.7076 61.3616 30.8835 63.5818 30.8835H92.702C94.9222 30.8835 96.7241 32.7076 96.7241 34.9552V46.1226V104.906C96.7241 107.153 94.9222 108.977 92.702 108.977H71.1747C71.8573 109.646 72.5399 110.27 73.2188 110.861H93.6268C96.3645 110.861 98.5847 108.613 98.5847 105.842V46.3864V34.019C98.5884 31.2476 96.3681 29 93.6304 29Z" fill="white"/>
<path d="M94.4047 65.9601V71.9079L90.2908 65.9601H65.9414C63.6955 65.9601 61.8752 64.2661 61.8752 62.1745V54.7407C61.8752 52.8758 63.501 51.3638 65.5047 51.3638H90.7238C92.7569 51.3638 94.401 52.8981 94.401 54.789V65.9601H94.4047Z" fill="white"/>
<path d="M85.5532 78.8069H70.4152C69.0353 78.8069 67.916 77.6739 67.916 76.277V72.5583C67.916 71.1614 69.0353 70.0283 70.4152 70.0283H85.5532C86.9331 70.0283 88.0524 71.1614 88.0524 72.5583V76.277C88.0524 77.6739 86.9331 78.8069 85.5532 78.8069Z" fill="#FFC000"/>
<path d="M87.2963 33.0192H71.7693C71.5234 33.0192 71.3215 32.8186 71.3215 32.566V31.901C71.3215 31.6521 71.5197 31.4478 71.7693 31.4478H87.2963C87.5422 31.4478 87.7441 31.6484 87.7441 31.901V32.566C87.7441 32.8186 87.5422 33.0192 87.2963 33.0192Z" fill="white"/>
<path d="M68.07 33.0189C68.4976 33.0189 68.8443 32.668 68.8443 32.235C68.8443 31.8021 68.4976 31.4512 68.07 31.4512C67.6423 31.4512 67.2957 31.8021 67.2957 32.235C67.2957 32.668 67.6423 33.0189 68.07 33.0189Z" fill="white"/>
<path d="M67.6333 55.4131L67.4278 57.2743L69.2884 56.7468L69.4535 58.021L67.7544 58.1436L68.8663 59.6445L67.7324 60.2575L66.9544 58.6749L66.2718 60.2463L65.0938 59.6445L66.1984 58.1436L64.5103 58.0136L64.7048 56.7505L66.5287 57.278L66.3232 55.4168H67.6333V55.4131Z" fill="#001893"/>
<path d="M73.2041 55.4131L72.9986 57.2743L74.8592 56.7468L75.0243 58.021L73.3252 58.1436L74.4371 59.6445L73.3032 60.2575L72.5252 58.6749L71.8426 60.2463L70.6646 59.6445L71.7692 58.1436L70.0811 58.0136L70.2756 56.7505L72.0995 57.278L71.8939 55.4168H73.2041V55.4131Z" fill="#001893"/>
<path d="M78.7749 55.4131L78.5694 57.2743L80.43 56.7468L80.5951 58.021L78.896 58.1436L80.0079 59.6445L78.874 60.2575L78.096 58.6749L77.4134 60.2463L76.2354 59.6445L77.34 58.1436L75.6519 58.0136L75.8464 56.7505L77.6703 57.278L77.4648 55.4168H78.7749V55.4131Z" fill="#001893"/>
<path d="M84.3457 55.4131L84.1402 57.2743L86.0044 56.7468L86.1696 58.021L84.4705 58.1436L85.5824 59.6445L84.4484 60.2575L83.6704 58.6749L82.9878 60.2463L81.8098 59.6445L82.9144 58.1436L81.2263 58.0136L81.4208 56.7505L83.2447 57.278L83.0392 55.4168H84.3457V55.4131Z" fill="#001893"/>
<path d="M89.9165 55.4131L89.711 57.2743L91.5716 56.7468L91.7367 58.021L90.0376 58.1436L91.1496 59.6445L90.0156 60.2575L89.2376 58.6749L88.555 60.2463L87.377 59.6445L88.4816 58.1436L86.7935 58.0136L86.988 56.7505L88.8119 57.278L88.6064 55.4168H89.9165V55.4131Z" fill="#001893"/>
<path d="M98.7598 74.3008V87.2402C98.7598 87.2402 99.9231 91.9472 100.697 93.1211C101.472 94.2988 96.4368 102.925 94.4991 103.709C92.5614 104.493 85.9777 102.531 85.2034 98.612C84.4291 94.6889 82.7997 88.4662 81.251 88.0724C79.7023 87.6786 77.5334 97.4789 77.5334 102.186C77.5334 105.388 81.6216 112.74 84.2346 117.117C87.7649 118.573 90.121 118.863 90.176 118.863C90.2825 118.866 99.2699 117.744 108.573 108.869C110.07 105.154 111.714 101.506 112.32 97.438C113.479 89.5956 98.7598 74.3008 98.7598 74.3008Z" fill="#FFCBA7"/>
<path d="M118.56 73.9812C123.792 71.8302 126.311 65.7932 124.186 60.4971C122.061 55.2011 116.097 52.6515 110.866 54.8025C105.634 56.9535 103.115 62.9906 105.24 68.2866C107.365 73.5827 113.329 76.1322 118.56 73.9812Z" fill="#F37124"/>
<path d="M116.53 82.4646C116.805 80.7555 115.659 79.1445 113.97 78.8663C112.282 78.5882 110.69 79.7483 110.416 81.4575C110.141 83.1667 111.287 84.7777 112.975 85.0558C114.664 85.3339 116.255 84.1738 116.53 82.4646Z" fill="#FECC15"/>
</g>
<defs>
<linearGradient id="paint0_linear_223_43734" x1="165.666" y1="103.332" x2="-37.4711" y2="74.9018" gradientUnits="userSpaceOnUse">
<stop stop-color="#BDE4FF"/>
<stop offset="1" stop-color="#FAFAFA"/>
</linearGradient>
<linearGradient id="paint1_linear_223_43734" x1="60.8324" y1="47.8415" x2="134.129" y2="123.822" gradientUnits="userSpaceOnUse">
<stop stop-color="#0B56C2"/>
<stop offset="1" stop-color="#5482FA"/>
</linearGradient>
<linearGradient id="paint2_linear_223_43734" x1="59" y1="31" x2="91.7244" y2="88.832" gradientUnits="userSpaceOnUse">
<stop stop-color="#3B81E8"/>
<stop offset="1" stop-color="#CAE3FF"/>
</linearGradient>
<clipPath id="clip0_223_43734">
<rect width="181" height="170" fill="white" transform="translate(0.5)"/>
</clipPath>
</defs>
</svg>
