<svg width="304" height="175" viewBox="0 0 304 175" fill="none" xmlns="http://www.w3.org/2000/svg">
<path d="M152 175C235.671 175 303.5 167.613 303.5 158.5C303.5 149.387 235.671 142 152 142C68.3289 142 0.5 149.387 0.5 158.5C0.5 167.613 68.3289 175 152 175Z" fill="url(#paint0_linear_162_75624)"/>
<path d="M222.5 74.9955C222.5 102.782 206.662 126.838 183.584 138.494C182.278 139.156 180.954 139.774 179.604 140.346C177.437 141.277 175.225 142.1 172.951 142.806H172.942C166.324 144.882 159.297 146 152.004 146C141.842 146 132.186 143.835 123.463 139.935L123.117 139.774C116.366 136.723 110.192 132.635 104.773 127.705C90.4807 114.716 81.5 95.9113 81.5 74.9955C81.5 35.7852 113.07 4 152.004 4C190.939 4 222.5 35.7852 222.5 74.9955Z" fill="url(#paint1_linear_162_75624)"/>
<path opacity="0.5" d="M131.321 41.0401C131.247 41.0215 131.2 41.0029 131.173 40.9936C126.894 39.7089 124.069 36.0411 122.986 30.4091C122.18 26.2293 122.615 22.4777 122.634 22.3194L122.699 21.7981L123.217 21.8074C123.291 21.8074 123.356 21.8074 123.43 21.8074C127.163 21.8074 130.145 19.2754 130.978 18.5027L130.997 18.4841C131.006 18.4841 131.034 18.4561 131.08 18.4003L131.478 18L131.876 18.4003C131.923 18.4468 131.969 18.4841 131.969 18.4841C132.802 19.266 135.794 21.7981 139.526 21.7981C139.6 21.7981 139.665 21.7981 139.739 21.7981L140.258 21.7888L140.322 22.3101C140.341 22.4684 140.767 26.22 139.971 30.3998C138.887 36.0318 136.062 39.6903 131.793 40.9843C131.747 41.0029 131.7 41.0122 131.626 41.0308L131.487 41.068L131.321 41.0401Z" fill="#E1EBF4"/>
<path d="M132.247 39.1969C132.025 39.2807 131.793 39.3645 131.562 39.4296C131.562 39.4296 131.543 39.439 131.46 39.4576C131.386 39.439 131.358 39.4296 131.358 39.4296C122.356 36.73 123.977 23.0735 123.977 23.0735C127.644 23.1666 130.58 20.6811 131.358 19.9456C131.358 19.9456 131.395 19.9084 131.46 19.8525C131.46 19.8525 131.46 19.8618 131.469 19.8618C131.524 19.9084 131.562 19.9456 131.562 19.9456C132.339 20.6717 135.275 23.1666 138.952 23.0735C138.952 23.0735 140.48 36.0318 132.247 39.1969Z" fill="#93CAFF"/>
<path d="M120.131 109.24H119.483C119.501 108.607 119.427 107.452 118.77 106.698C118.362 106.233 117.816 106 117.14 106C116.389 106 115.806 106.251 115.389 106.745C114.759 107.499 114.713 108.607 114.75 109.23H114.102C113.769 109.23 113.5 109.5 113.5 109.835V115.933C113.5 116.268 113.769 116.538 114.102 116.538H120.131C120.464 116.538 120.733 116.268 120.733 115.933V109.835C120.742 109.51 120.474 109.24 120.131 109.24ZM116 107.266C116.26 106.95 116.639 106.801 117.149 106.801C117.593 106.801 117.936 106.94 118.186 107.229C118.677 107.787 118.714 108.737 118.705 109.249H115.547C115.51 108.69 115.556 107.797 116 107.266Z" fill="#93CAFF"/>
<path d="M202.85 97.1163C207.665 104.455 213.605 127.488 220.45 123.194C225.32 120.135 218.214 101.767 216.212 93.042L202.85 97.1163Z" fill="#F9CBCB"/>
<path d="M219.97 101.273C215.937 82.5751 205.333 73.3016 195.868 72.506C194.304 72.3688 201.739 95.1271 205.059 105.073C206.225 105.059 218.036 101.698 219.97 101.273Z" fill="url(#paint2_linear_162_75624)"/>
<path d="M194.043 115.787C192.575 115.018 188.076 114.168 187.445 112.632C186.951 111.397 187.486 109.751 186.553 108.818C185.524 107.803 183.864 107.995 182.41 108.036C180.956 108.077 179.447 108.763 178.802 110.066C178.103 111.479 178.569 113.18 179.228 114.607C179.324 114.813 179.42 115.018 179.584 115.169C179.763 115.348 180.01 115.444 180.256 115.54C182.355 116.349 184.55 116.953 186.457 118.16C187.65 118.914 190.01 119.518 191.039 120.478C192.246 119.189 194.523 117.501 194.043 115.787Z" fill="#FFB092"/>
<path d="M207.802 149.643C196.375 156.145 163.754 159.122 151.215 149.643C146.277 129.45 146.428 101.437 154.041 81.4776C164.193 68.1162 204.441 61.1886 206.65 89.5987C207.651 107.569 218.036 139.148 207.802 149.643Z" fill="url(#paint3_linear_162_75624)"/>
<path opacity="0.2" d="M168.445 152.112C168.431 151.221 168.582 150.26 168.925 149.437C169.309 148.491 170.009 147.86 170.736 147.187C171.655 146.323 172.41 145.212 172.327 143.895C172.273 142.894 171.957 141.92 171.971 140.905C171.984 139.396 172.602 138.065 173.397 136.817C174.207 135.527 175.181 134.334 176.031 133.072C176.415 132.495 177.431 131.165 176.95 130.438C176.649 129.999 175.88 129.862 175.4 129.793C174.385 129.628 173.356 129.628 172.327 129.601C170.229 129.56 168.13 129.56 166.045 129.368C162.245 128.997 157.265 127.845 155.975 123.702C154.604 119.285 157.347 114.964 158.431 110.821C159.062 108.42 158.87 105.896 159.693 103.537C160.475 101.301 161.874 99.3663 163.424 97.6104C164.988 95.827 166.593 94.1946 167.759 92.1094C168.898 90.0654 169.639 87.8019 170.023 85.4973C170.736 81.0664 170.119 76.4845 168.322 72.3828C162.19 74.4817 156.908 77.7329 154.041 81.5191C146.428 101.465 146.277 129.491 151.215 149.684C155.509 152.922 162.149 154.719 169.488 155.391C168.829 154.389 168.459 153.292 168.445 152.112Z" fill="#1A2326"/>
<path d="M184.633 72.8076C184.633 73.8364 182.753 74.6732 180.448 74.6732C178.13 74.6732 176.264 73.8364 176.264 72.8076C176.264 71.7787 178.144 70.9419 180.448 70.9419C182.753 70.9556 184.633 71.7787 184.633 72.8076Z" fill="#1D2149"/>
<path d="M187.033 57.8956C187.033 57.8956 188.995 56.3866 189.9 58.1288C190.805 59.8847 188.72 62.5186 187.033 62.3403V57.8956Z" fill="#F9CBCB"/>
<path opacity="0.1" d="M187.033 58.8836C187.472 58.6504 188.282 58.3898 188.72 59.254C189.297 60.3789 188.131 62.0114 187.019 62.2034L187.033 58.8836Z" fill="#231F20"/>
<path d="M174.234 57.8956C174.234 57.8956 172.273 56.3866 171.367 58.1288C170.462 59.8847 172.547 62.5186 174.234 62.3403V57.8956Z" fill="#F9CBCB"/>
<path opacity="0.1" d="M174.234 62.2034C173.123 62.0114 171.957 60.3789 172.533 59.254C172.972 58.3898 173.782 58.6504 174.22 58.8836L174.234 62.2034Z" fill="#231F20"/>
<path d="M188.501 50.5295C189.694 52.1894 189.653 55.2897 187.609 58.6506C185.565 62.0116 173.658 59.7481 173.658 59.7481C173.658 59.7481 169.131 51.8602 173.946 49.7339C173.946 49.7339 173.795 44.329 179.132 45.0697C184.454 45.7968 186.869 48.2935 188.501 50.5295Z" fill="#1D2149"/>
<path d="M183.329 72.1634C183.329 72.1634 182.259 73.7684 180.421 73.7684C178.555 73.7684 177.252 72.2182 177.252 72.2182C177.252 72.2182 177.321 70.5584 177.376 69.1591C177.417 68.24 177.444 67.4306 177.444 67.2935H183.288L183.316 69.6941L183.329 70.8327V72.1634Z" fill="#F9CBCB"/>
<path opacity="0.1" d="M183.316 69.6804C182.396 70.4486 181.395 70.9425 180.627 70.9425C179.694 70.9425 178.432 70.2154 177.376 69.1591C177.403 68.24 177.444 67.4306 177.444 67.2935H183.288L183.316 69.6804Z" fill="#231F20"/>
<path d="M187.184 53.026C186.759 50.0766 174.509 50.0766 174.083 53.026C174.083 53.026 173.054 63.6987 174.522 65.5918C175.976 67.4849 178.789 69.6798 180.627 69.6798C182.465 69.6798 185.277 67.4849 186.731 65.5918C188.199 63.6987 187.184 53.026 187.184 53.026Z" fill="#F9CBCB"/>
<path opacity="0.1" d="M175.208 54.0005C175.606 53.9868 176.045 53.9457 176.429 53.8085C176.758 53.685 177.019 53.4655 177.335 53.3283C177.856 53.1088 178.13 53.3695 178.528 53.685C179.09 54.124 179.708 54.3983 180.421 54.5492C181.875 54.8648 183.453 54.9471 184.934 54.7825C185.73 54.7001 186.512 54.5081 187.28 54.2474C187.225 53.493 187.184 53.0128 187.184 53.0128C186.759 50.0634 174.509 50.0634 174.083 53.0128C174.083 53.0128 174.056 53.3558 174.001 53.9045C174.399 53.9731 174.783 54.028 175.208 54.0005Z" fill="#231F20"/>
<path opacity="0.1" d="M177.801 61.0377C177.801 61.6962 177.266 62.2312 176.607 62.2312C175.949 62.2312 175.414 61.6962 175.414 61.0377C175.414 60.3792 175.949 59.8442 176.607 59.8442C177.266 59.858 177.801 60.393 177.801 61.0377Z" fill="#231F20"/>
<path opacity="0.1" d="M186.375 61.0377C186.375 61.6962 185.84 62.2312 185.181 62.2312C184.523 62.2312 183.988 61.6962 183.988 61.0377C183.988 60.3792 184.523 59.8442 185.181 59.8442C185.853 59.858 186.375 60.393 186.375 61.0377Z" fill="#231F20"/>
<path d="M184.097 49.1994C182.04 48.7604 179.022 49.6795 177.046 50.434C176.443 50.3105 175.428 50.2557 174.44 50.7632C172.876 51.5726 172.012 53.9458 173.74 53.891C174.714 53.8635 175.812 52.8209 176.594 51.9293C179.282 52.9718 184.742 54.8649 187.335 54.179C190.874 53.2599 187.404 49.899 184.097 49.1994Z" fill="#1D2149"/>
<path d="M180.984 63.7126C180.366 63.7126 179.927 63.109 179.9 63.0816C179.817 62.9581 179.845 62.7935 179.955 62.7112C180.078 62.6289 180.243 62.6563 180.325 62.7661C180.407 62.8895 180.695 63.1776 180.984 63.1776C181.203 63.1639 181.409 62.9993 181.615 62.6701C181.697 62.5466 181.861 62.5054 181.985 62.5877C182.108 62.6701 182.15 62.8347 182.067 62.9581C181.765 63.452 181.395 63.6989 180.997 63.7126C180.997 63.7126 180.997 63.7126 180.984 63.7126Z" fill="#1D2149"/>
<path d="M179.159 66.0172C179.159 66.0172 181.656 65.7017 182.822 66.0446C182.822 66.0446 180.956 68.0886 179.159 66.0172Z" fill="white"/>
<path d="M182.918 56.744C182.918 56.744 185.785 56.9909 186.1 56.744C186.43 56.4971 185.62 55.7975 184.317 55.9346C183.027 56.0855 182.602 56.6891 182.918 56.744Z" fill="#1D2149"/>
<path d="M185.346 58.3217C185.346 58.7881 185.03 59.1585 184.633 59.1585C184.235 59.1585 183.919 58.7881 183.919 58.3217C183.919 57.8553 184.235 57.4849 184.633 57.4849C184.742 57.4849 184.852 57.5123 184.934 57.5672C184.797 57.6083 184.687 57.7592 184.687 57.9376C184.687 58.1433 184.838 58.3217 185.017 58.3217C185.154 58.3217 185.264 58.2256 185.305 58.1022C185.332 58.1708 185.346 58.2394 185.346 58.3217Z" fill="#1D2149"/>
<path d="M175.208 56.744C175.208 56.744 178.075 56.9909 178.391 56.744C178.72 56.4971 177.911 55.7975 176.607 55.9346C175.318 56.0855 174.879 56.6891 175.208 56.744Z" fill="#1D2149"/>
<path d="M177.623 58.3217C177.623 58.7881 177.307 59.1585 176.909 59.1585C176.511 59.1585 176.196 58.7881 176.196 58.3217C176.196 57.8553 176.511 57.4849 176.909 57.4849C177.019 57.4849 177.129 57.5123 177.211 57.5672C177.074 57.6083 176.964 57.7592 176.964 57.9376C176.964 58.1433 177.115 58.3217 177.293 58.3217C177.431 58.3217 177.54 58.2256 177.581 58.1022C177.623 58.1708 177.623 58.2394 177.623 58.3217Z" fill="#1D2149"/>
<path d="M207.103 74.9888C198.255 68.7196 185.991 70.8185 179.708 79.6804C174.797 86.6217 175.03 95.6208 179.584 102.233L146.524 148.943L151.86 152.729L156.195 146.611L161.133 150.109L165.99 143.25L163.589 141.549L167.375 136.199L169.776 137.9L174.289 131.535L171.888 129.834L175.675 124.497L178.075 126.198L182.602 119.819L180.202 118.118L183.988 112.782L186.388 114.483L189.736 109.764C197.692 112.357 206.719 109.613 211.808 102.439C218.063 93.5356 215.965 81.2716 207.103 74.9888ZM197.226 99.1326C195.113 99.503 192.877 99.0777 190.998 97.7471C188.734 96.142 187.513 93.5905 187.541 91.0252C187.541 89.3927 188.021 87.7329 189.05 86.2925C191.67 82.5886 196.814 81.6969 200.518 84.3171C204.222 86.9372 205.1 92.0952 202.48 95.7991C201.163 97.6373 199.27 98.7485 197.226 99.1326Z" fill="#E4ECF4"/>
<path d="M186.923 111.274C185.51 110.423 181.052 109.326 180.517 107.762C180.092 106.5 180.723 104.895 179.831 103.907C178.857 102.837 177.376 101.699 176.745 103.976C175.29 103.948 172.753 103.468 172.026 104.73C171.244 106.102 171.628 107.831 172.204 109.298C172.286 109.504 172.369 109.724 172.519 109.888C172.698 110.08 172.931 110.19 173.164 110.3C175.222 111.219 177.376 111.946 179.2 113.249C180.352 114.072 182.671 114.799 183.645 115.814C184.934 114.566 187.308 113.002 186.923 111.274Z" fill="#F9CBCB"/>
<path d="M213.317 110.011C209.202 108.543 184.344 108.365 179.543 107.144C177.581 108.914 178.542 109.6 177.184 111.877C182.465 117.529 210.587 128.681 219.422 125.389C224.511 121.219 220.917 112.727 213.317 110.011Z" fill="#F9CBCB"/>
<path d="M166.456 122.975C168.102 122.783 172.615 123.633 173.74 122.426C174.659 121.466 174.742 119.723 175.963 119.202C177.293 118.626 179.118 118.201 178.747 120.546C180.078 121.109 182.602 121.74 182.726 123.18C182.863 124.744 181.807 126.157 180.682 127.255C180.517 127.405 180.352 127.57 180.147 127.652C179.913 127.748 179.639 127.762 179.392 127.762C177.142 127.748 174.879 127.515 172.67 127.954C171.285 128.229 168.87 127.94 167.554 128.448C166.895 126.788 165.386 124.388 166.456 122.975Z" fill="#F9CBCB"/>
<path d="M174.193 122.906C167.348 120.89 154.645 112.028 154.645 112.028C154.645 112.028 149.734 104.593 155.797 90.3257C153.218 90.312 152.121 90.216 149.555 90.3532C143.122 103.536 142.957 114.291 144.178 117.981C149.062 132.811 172.657 130.863 176.635 127.557C177.005 126.514 176.155 124.69 174.193 122.906Z" fill="#F9CBCB"/>
<path d="M153.465 105.8C155.221 99.7911 159.611 81.5735 167.183 72.5059C157.869 73.3015 146.249 86.4846 141.86 102.987C144.507 103.097 150.817 105.717 153.465 105.8Z" fill="url(#paint4_linear_162_75624)"/>
<g opacity="0.9">
<path opacity="0.9" d="M171.271 59.3636L171.23 81.5595C170.599 85.6886 167.032 88.8575 162.725 88.8575H90.115C88.7706 88.8575 87.4948 88.542 86.3425 87.9795C83.5989 86.6352 81.6646 83.8916 81.5 80.6815V80.5992L81.5274 59.2813C81.5274 56.524 83.1325 54.1371 85.4508 52.9984C86.3974 52.5458 87.4399 52.2988 88.5511 52.2988L164.261 52.3537C168.143 52.3537 171.271 55.4951 171.271 59.3636Z" fill="url(#paint5_linear_162_75624)"/>
<path opacity="0.9" d="M105.383 79.4883H90.0601V80.3662H105.383V79.4883Z" fill="white"/>
<path opacity="0.9" d="M124.904 79.4883H109.581V80.3662H124.904V79.4883Z" fill="white"/>
<path opacity="0.9" d="M144.425 79.4883H129.102V80.3662H144.425V79.4883Z" fill="white"/>
<path opacity="0.9" d="M163.946 79.4883H148.623V80.3662H163.946V79.4883Z" fill="white"/>
<g opacity="0.9">
<path opacity="0.9" d="M100.129 64.1656L98.0166 66.9504V66.9916L101.378 66.5526V68.0616L98.0166 67.6637V67.7049L100.157 70.3799L98.7574 71.1756L97.4267 68.0616H97.3855L95.9177 71.203L94.6556 70.4074L96.7682 67.6912V67.6363L93.4759 68.0616V66.5526L96.7408 66.9778V66.9367L94.6556 64.2205L96.0137 63.4386L97.3993 66.5251H97.4404L98.7985 63.4111L100.129 64.1656Z" fill="white"/>
</g>
<g opacity="0.9">
<path opacity="0.9" d="M119.472 64.1656L117.359 66.9504V66.9916L120.72 66.5526V68.0616L117.359 67.6637V67.7049L119.499 70.3799L118.1 71.1756L116.769 68.0616H116.728L115.288 71.203L114.026 70.4074L116.138 67.6912V67.6363L112.846 68.0616V66.5526L116.111 66.9778V66.9367L114.026 64.2205L115.384 63.4386L116.769 66.5251H116.81L118.168 63.4111L119.472 64.1656Z" fill="white"/>
</g>
<g opacity="0.9">
<path opacity="0.9" d="M138.828 64.1656L136.715 66.9504V66.9916L140.076 66.5526V68.0616L136.715 67.6637V67.7049L138.855 70.3799L137.456 71.1756L136.125 68.0616H136.084L134.644 71.203L133.382 70.4074L135.494 67.6912V67.6363L132.202 68.0616V66.5526L135.467 66.9778V66.9367L133.382 64.2205L134.74 63.4386L136.125 66.5251H136.167L137.525 63.4111L138.828 64.1656Z" fill="white"/>
</g>
</g>
<path d="M183.17 22.62H180.98V20.43C180.98 20.19 180.79 20 180.55 20C180.31 20 180.12 20.19 180.12 20.43V22.62H177.93C177.69 22.62 177.5 22.81 177.5 23.05C177.5 23.17 177.55 23.28 177.63 23.36C177.71 23.44 177.82 23.49 177.94 23.49H180.13V25.68C180.13 25.8 180.18 25.91 180.26 25.99C180.34 26.07 180.45 26.12 180.57 26.12C180.81 26.12 181 25.93 181 25.69V23.5H183.19C183.43 23.5 183.62 23.31 183.62 23.07C183.6 22.81 183.41 22.62 183.17 22.62Z" fill="#BDDCFD"/>
<path d="M212.17 61.62H209.98V59.43C209.98 59.19 209.79 59 209.55 59C209.31 59 209.12 59.19 209.12 59.43V61.62H206.93C206.69 61.62 206.5 61.81 206.5 62.05C206.5 62.17 206.55 62.28 206.63 62.36C206.71 62.44 206.82 62.49 206.94 62.49H209.13V64.68C209.13 64.8 209.18 64.91 209.26 64.99C209.34 65.07 209.45 65.12 209.57 65.12C209.81 65.12 210 64.93 210 64.69V62.5H212.19C212.43 62.5 212.62 62.31 212.62 62.07C212.6 61.81 212.41 61.62 212.17 61.62Z" fill="#BDDCFD"/>
<defs>
<linearGradient id="paint0_linear_162_75624" x1="151.691" y1="126.882" x2="151.691" y2="164.095" gradientUnits="userSpaceOnUse">
<stop stop-color="#E8E8E8"/>
<stop offset="1" stop-color="#E8E8E8" stop-opacity="0"/>
</linearGradient>
<linearGradient id="paint1_linear_162_75624" x1="142.888" y1="139.5" x2="109.02" y2="20.411" gradientUnits="userSpaceOnUse">
<stop stop-color="#EFF3F9"/>
<stop offset="1" stop-color="#D1E3FC"/>
</linearGradient>
<linearGradient id="paint2_linear_162_75624" x1="205.272" y1="105.26" x2="222.87" y2="71.3953" gradientUnits="userSpaceOnUse">
<stop offset="0.1885" stop-color="#FFBE69"/>
<stop offset="1" stop-color="#FF8F5C"/>
</linearGradient>
<linearGradient id="paint3_linear_162_75624" x1="173.336" y1="156.18" x2="219.562" y2="66.7405" gradientUnits="userSpaceOnUse">
<stop offset="0.130208" stop-color="#FF8F5C"/>
<stop offset="0.84375" stop-color="#FFBE69"/>
</linearGradient>
<linearGradient id="paint4_linear_162_75624" x1="151.876" y1="105.991" x2="169.674" y2="71.101" gradientUnits="userSpaceOnUse">
<stop offset="0.1885" stop-color="#FFBE69"/>
<stop offset="1" stop-color="#FF8F5C"/>
</linearGradient>
<linearGradient id="paint5_linear_162_75624" x1="81.5097" y1="70.575" x2="171.266" y2="70.575" gradientUnits="userSpaceOnUse">
<stop stop-color="#BDDCFD"/>
<stop offset="1" stop-color="#5F98ED"/>
</linearGradient>
</defs>
</svg>
