<svg width="304" height="182" viewBox="0 0 304 182" fill="none" xmlns="http://www.w3.org/2000/svg">
<path d="M152 182C235.671 182 303.5 175.956 303.5 168.5C303.5 161.044 235.671 155 152 155C68.3289 155 0.5 161.044 0.5 168.5C0.5 175.956 68.3289 182 152 182Z" fill="url(#paint0_linear_162_76286)"/>
<g clip-path="url(#clip0_162_76286)">
<path d="M48.1846 158.714C48.1846 158.714 17.9648 129.429 37.1906 94.9744C56.4164 60.52 82.2372 77.847 80.9878 37.7456C79.7384 -2.35589 140.372 -5.80171 159.672 5.82638C178.972 17.4545 178.856 31.4584 218.699 26.8247C258.542 22.1909 266.153 60.8165 255.787 80.5021C241.081 108.432 296.605 103.825 261.618 158.713H48.1846V158.714Z" fill="url(#paint1_linear_162_76286)"/>
<path opacity="0.3" d="M180.892 89.804C180.892 89.804 187.313 62.6318 208.975 59.6447C208.975 59.6447 213.19 59.1275 214.593 63.7612C215.996 68.395 207.616 68.4286 202.437 70.2921C197.256 72.1556 185.181 80.0567 180.892 89.804Z" fill="url(#paint2_linear_162_76286)"/>
<path opacity="0.3" d="M180.4 84.7194C180.4 84.7194 178.148 62.2117 193.955 54.2242C193.955 54.2242 197.048 52.7196 199.346 55.9006C201.644 59.0816 195.232 61.3116 191.756 64.102C188.28 66.8925 181.113 76.1226 180.4 84.7194Z" fill="url(#paint3_linear_162_76286)"/>
<path d="M63.5247 138.278C60.1801 130.67 72.311 124.133 72.311 124.133C72.311 124.133 88.296 129.298 90.5911 127.882C92.8862 126.466 77.7874 120.801 77.7874 120.801C81.5126 117.162 95.7973 113.827 95.7973 113.827C95.7973 113.827 105.432 127.103 107.308 125.166C109.184 123.228 98.1761 113.845 98.1761 113.845C103.031 111.873 110.353 113.492 110.353 113.492C120.897 117.24 115.533 130.566 115.533 130.566C115.533 130.566 118.971 135.095 125.802 137.968C125.802 137.968 127.175 138.409 129.088 139.496L128.022 140.353C127.705 140.138 127.386 139.939 127.067 139.76C127.065 139.758 127.063 139.757 127.061 139.757C127.056 139.754 127.051 139.752 127.046 139.749C126.841 139.644 126.547 139.494 126.186 139.313C126.186 139.313 126.185 139.313 126.185 139.312C126.184 139.312 126.184 139.312 126.183 139.312C125.344 138.937 124.745 138.644 124.332 138.416C124.331 138.415 124.329 138.415 124.328 138.414C121.741 137.201 118.235 135.728 116.857 135.936C116.857 135.936 116.842 135.676 116.692 135.264C116.744 135.478 116.799 135.702 116.857 135.936C118.181 141.306 109.583 149.293 103.661 152.34C97.7388 155.386 98.7998 152.173 99.6619 147.649C100.525 143.126 106.753 139.126 107.712 136.853C108.671 134.58 105.46 135.66 102.282 138.646C99.1035 141.631 100.139 146.376 95.0842 151.298C90.0308 156.221 77.5673 149.295 77.5673 149.295C82.2911 147.427 87.3887 139.895 86.5996 138.385C85.8106 136.874 75.8805 145.074 74.0016 145.941C72.1255 146.808 66.8693 145.887 63.5247 138.278Z" fill="url(#paint4_linear_162_76286)"/>
<path d="M216.255 147.426C221.133 141.679 212.286 132.862 212.286 132.862C212.286 132.862 197.056 133.22 195.428 131.396C193.8 129.572 208.39 128.551 208.39 128.551C206.096 124.426 194.547 117.835 194.547 117.835C194.547 117.835 182.732 126.882 181.604 124.714C180.477 122.546 192.475 117.237 192.475 117.237C188.768 114.268 181.984 113.782 181.984 113.782C171.848 114.315 173.056 127.281 173.056 127.281C173.056 127.281 168.894 130.328 162.213 131.06C162.213 131.06 160.905 131.088 158.962 131.539L159.666 132.559C159.998 132.454 160.326 132.363 160.65 132.29C160.652 132.289 160.654 132.289 160.656 132.289C160.661 132.289 160.666 132.288 160.67 132.287C160.877 132.248 161.17 132.194 161.531 132.131H161.532C161.533 132.131 161.533 132.131 161.533 132.131C162.36 132.023 162.957 131.923 163.375 131.832C163.376 131.832 163.378 131.831 163.379 131.831C165.942 131.445 169.37 131.071 170.514 131.608C170.514 131.608 170.596 131.386 170.832 131.067C170.731 131.24 170.625 131.419 170.514 131.608C167.971 135.933 173.371 145.096 177.729 149.274C182.086 153.452 181.997 150.385 182.42 146.231C182.843 142.077 178.467 136.992 178.223 134.768C177.979 132.545 180.489 134.313 182.477 137.729C184.465 141.144 182.335 145.001 185.451 150.585C188.567 156.168 201.193 153.37 201.193 153.37C197.572 150.526 195.095 142.663 196.172 141.554C197.25 140.445 203.754 150.138 205.162 151.376C206.569 152.616 211.376 153.173 216.255 147.426Z" fill="url(#paint5_linear_162_76286)"/>
<path opacity="0.5" d="M94.8795 36.0933C99.908 27.6693 114.517 34.8238 114.517 34.8238C114.517 34.8238 120.505 53.6996 123.442 54.9307C126.379 56.1609 121.479 37.7937 121.479 37.7937C127.535 38.8723 140.538 50.2883 140.538 50.2883C140.538 50.2883 134.369 68.6334 137.519 69.1045C140.668 69.5757 142.151 52.5826 142.151 52.5826C147.378 55.8864 150.84 64.0217 150.84 64.0217C154.463 76.7072 137.961 80.6961 137.961 80.6961C137.961 80.6961 135.96 87.1003 137.878 95.6223C137.878 95.6223 138.396 97.242 138.66 99.8223L137.104 99.3876C137.094 98.9357 137.067 98.4943 137.02 98.0644C137.021 98.0615 137.02 98.0596 137.019 98.0567C137.018 98.0509 137.017 98.0442 137.017 98.0385C136.977 97.7688 136.92 97.384 136.846 96.9148C136.846 96.9138 136.846 96.9138 136.846 96.9129C136.846 96.9119 136.845 96.9119 136.846 96.911C136.631 95.8487 136.503 95.0734 136.438 94.5207C136.438 94.5188 136.438 94.5168 136.438 94.5159C135.832 91.2015 134.846 86.8288 133.7 85.6494C133.7 85.6494 133.94 85.4556 134.233 85.0305C134.062 85.2282 133.886 85.4335 133.7 85.6494C129.44 90.6027 115.859 87.8305 108.866 84.2379C101.874 80.6453 105.694 79.4602 110.639 77.186C115.583 74.9118 123.702 78.1446 126.548 77.5065C129.393 76.8684 126.152 74.529 121.1 73.5262C116.049 72.5235 112.191 76.7705 103.99 75.2976C95.7877 73.8246 93.9078 57.1204 93.9078 57.1204C98.9449 60.3715 109.687 60.097 110.6 58.3045C111.513 56.5121 96.8132 52.6085 94.6911 51.4004C92.5681 50.1923 89.851 44.5184 94.8795 36.0933Z" fill="url(#paint6_linear_162_76286)"/>
<path d="M151.027 51.5125C151.027 50.9685 151.124 50.4647 151.319 50.0031C151.513 49.5416 151.789 49.1414 152.145 48.8027C152.5 48.4649 152.927 48.2011 153.427 48.0111C153.925 47.822 154.489 47.7261 155.115 47.7261C155.741 47.7261 156.309 47.8211 156.816 48.0111C157.324 48.2011 157.756 48.4649 158.111 48.8027C158.467 49.1414 158.741 49.5416 158.937 50.0031C159.131 50.4647 159.229 50.9685 159.229 51.5125C159.229 52.0566 159.132 52.5566 158.937 53.0095C158.741 53.4633 158.467 53.8596 158.111 54.1974C157.755 54.5361 157.324 54.8 156.816 54.9891C156.309 55.1781 155.741 55.2741 155.115 55.2741C154.489 55.2741 153.925 55.1791 153.427 54.9891C152.927 54.7991 152.5 54.5352 152.145 54.1974C151.789 53.8596 151.514 53.4633 151.319 53.0095C151.124 52.5556 151.027 52.0566 151.027 51.5125ZM158.162 44.4702H152.068L151.205 23.6802H159.025L158.162 44.4702Z" fill="url(#paint7_linear_162_76286)"/>
<path d="M132.626 31.1887C132.626 30.7713 132.701 30.3846 132.85 30.0305C132.999 29.6764 133.21 29.3693 133.483 29.1093C133.756 28.8502 134.084 28.6477 134.467 28.5019C134.851 28.357 135.282 28.2831 135.763 28.2831C136.243 28.2831 136.679 28.356 137.069 28.5019C137.459 28.6477 137.79 28.8502 138.063 29.1093C138.336 29.3693 138.546 29.6764 138.696 30.0305C138.845 30.3855 138.92 30.7713 138.92 31.1887C138.92 31.6061 138.845 31.9899 138.696 32.3373C138.546 32.6856 138.336 32.9898 138.063 33.2489C137.79 33.5089 137.458 33.7114 137.069 33.8563C136.679 34.0012 136.243 34.0751 135.763 34.0751C135.282 34.0751 134.85 34.0021 134.467 33.8563C134.084 33.7104 133.756 33.508 133.483 33.2489C133.21 32.9898 132.999 32.6856 132.85 32.3373C132.701 31.9899 132.626 31.607 132.626 31.1887ZM138.102 25.7844H133.424L132.762 9.82861H138.764L138.102 25.7844Z" fill="#AEC3FF"/>
<path d="M223.486 58.1491C223.486 57.7317 223.561 57.345 223.71 56.9909C223.859 56.6368 224.07 56.3298 224.343 56.0697C224.616 55.8106 224.944 55.6082 225.327 55.4623C225.711 55.3174 226.142 55.2435 226.623 55.2435C227.103 55.2435 227.539 55.3165 227.928 55.4623C228.318 55.6082 228.649 55.8106 228.922 56.0697C229.195 56.3298 229.405 56.6368 229.555 56.9909C229.704 57.346 229.779 57.7317 229.779 58.1491C229.779 58.5665 229.704 58.9504 229.555 59.2977C229.405 59.6461 229.195 59.9502 228.922 60.2093C228.649 60.4694 228.317 60.6718 227.928 60.8167C227.539 60.9626 227.102 61.0355 226.623 61.0355C226.142 61.0355 225.71 60.9626 225.327 60.8167C224.944 60.6709 224.616 60.4684 224.343 60.2093C224.07 59.9502 223.859 59.6461 223.71 59.2977C223.56 58.9504 223.486 58.5675 223.486 58.1491ZM228.962 52.7448H224.284L223.622 36.7891H229.624L228.962 52.7448Z" fill="#AEC3FF"/>
<path d="M213.197 98.7541C212.22 100.565 211.002 102.393 209.754 103.881V103.882C208.447 105.44 207.109 106.625 205.979 107.026L205.971 107.028C205.912 107.049 205.853 107.068 205.796 107.083C205.793 107.085 205.79 107.085 205.787 107.085C205.786 107.086 205.786 107.086 205.786 107.086C205.556 107.15 205.338 107.18 205.13 107.171C201.424 107.005 197.518 99.0679 197.518 99.0679C197.518 99.0679 197.62 98.1266 198.341 97.4625C198.969 96.883 199.454 96.7313 199.454 96.7313C199.454 96.7313 203.445 100.823 204.42 101.118C205.033 101.302 205.839 98.4442 206.994 94.8563C208.15 91.2675 212.209 90.3828 212.209 90.3828C212.209 90.3828 216.318 92.9775 213.197 98.7541Z" fill="#AEC3FF"/>
<path d="M209.754 103.881C208.447 105.44 207.109 106.624 205.979 107.025L205.971 107.028L205.796 107.083L205.786 107.086C205.786 107.086 205.786 107.086 205.787 107.085C205.828 107.058 207.037 106.432 207.226 105.27C207.42 104.083 206.162 103.112 209.323 101.277C211.165 100.208 209.754 103.881 209.754 103.881Z" fill="#94B0ED"/>
<path d="M206.861 158.316H215.546C216.168 157.895 215.378 153.776 215.378 153.776C215.378 153.776 213.007 152.877 212.598 154.703C212.188 156.529 209.579 157.109 208.199 157.332C207.254 157.485 206.955 158.003 206.861 158.316Z" fill="#24406D"/>
<path d="M220.106 115.617C220.106 115.617 219.832 120.676 219.49 126.538C219.243 130.741 218.962 135.358 218.722 138.815C218.69 139.274 218.657 139.712 218.627 140.127C218.619 140.255 218.609 140.383 218.6 140.51C217.978 148.263 215.898 155.055 215.898 155.055C213.456 155.569 212.353 154.629 212.353 154.629C212.353 154.629 210.671 134.94 210.048 127C209.589 121.154 209.198 112.644 209.198 112.644L220.106 115.617Z" fill="#FF9E55"/>
<path d="M219.49 126.538C219.243 130.741 218.962 135.358 218.722 138.815C217.125 135.055 213.863 120.401 213.863 120.401L219.49 126.538Z" fill="#ED7D2B"/>
<path d="M219.742 158.316H228.428C229.05 157.895 228.26 153.776 228.26 153.776C228.26 153.776 225.889 152.877 225.48 154.703C225.07 156.529 222.46 157.109 221.08 157.332C220.135 157.485 219.836 158.003 219.742 158.316Z" fill="#24406D"/>
<path d="M211.557 114.612C211.557 114.612 217.76 130.026 219.742 135.869C221.155 140.031 225.138 154.632 225.138 154.632C225.138 154.632 226.87 155.158 228.326 154.141C228.326 154.141 229.808 139.224 226.814 135.018C225.226 132.786 226.419 111.82 219.981 111.641C213.541 111.46 211.557 114.612 211.557 114.612Z" fill="#FF9E55"/>
<path d="M224.258 109.654C224.232 111.845 224.208 113.454 224.213 113.861C224.231 115.187 223.381 115.487 222.505 115.689C222.505 115.689 221.696 115.863 220.676 116.036C219.676 116.203 218.471 116.368 217.619 116.362C213.265 116.327 209.62 115.047 209.62 115.047C208.8 115.047 208.427 113.782 208.293 112.015C208.201 110.82 208.571 98.893 208.618 95.9145C208.649 93.7785 209.824 91.8047 210.152 91.5168C213.193 88.8319 222.167 89.1706 223.782 91.0226C224.182 91.4803 224.298 95.8963 224.311 100.733C224.319 103.846 224.287 107.134 224.258 109.654Z" fill="#AEC3FF"/>
<path d="M218.87 89.9594C217.724 91.1992 213.876 91.0149 213.99 89.9335C214.006 89.8001 214.03 89.0085 214.043 88.8857C214.053 88.7868 214.062 88.6909 214.07 88.5997C214.096 88.3329 214.117 88.0978 214.134 87.8935C214.185 87.3004 214.203 86.979 214.203 86.979C214.203 86.979 214.204 86.979 214.206 86.979C214.317 86.9483 216.791 86.2468 218.021 85.9561C218.434 85.8582 218.708 85.8074 218.703 85.8429C218.327 88.6026 219.244 89.5526 218.87 89.9594Z" fill="#F9CBCB"/>
<path d="M218.153 86.7698C218.153 86.7698 217.119 87.8176 214.135 87.8934C214.186 87.3004 214.204 86.979 214.204 86.979C214.204 86.979 214.205 86.979 214.207 86.979C214.318 86.9482 216.792 86.2468 218.022 85.9561C218.238 86.0443 217.951 86.621 218.153 86.7698Z" fill="#ED975D"/>
<path d="M213.446 86.8324C213.446 86.8324 214.202 87.103 215.165 87.2326C216.574 87.4226 218.426 87.3103 219.007 85.609C219.987 82.7447 221.239 81.028 218.355 79.8583C216.812 79.2326 215.824 79.199 215.153 79.438C214.571 79.6443 214.227 80.0559 213.966 80.4638C213.407 81.3398 212.28 86.3306 213.446 86.8324Z" fill="#F9CBCB"/>
<path d="M214.183 78.2469C213.153 78.9224 213.489 80.5057 214.703 80.7187C215.431 80.8464 216.041 80.8723 216.394 81.0287C217.111 81.3473 217.728 81.6841 217.558 82.7952C217.5 83.1733 217.316 83.633 218.29 83.4046C218.45 83.3672 218.565 83.3787 218.644 83.4257C219.047 83.6646 218.531 84.8247 218.376 85.0761C218.376 85.0761 218.152 85.9071 218.649 86.3121C218.709 86.3601 219.686 86.7871 222.04 83.1896C222.41 82.6254 222.764 81.353 222.192 80.1276C221.621 78.9032 220.029 77.3535 217.029 77.3535C216.25 77.3526 215.076 77.6615 214.183 78.2469Z" fill="#233862"/>
<path d="M224.258 109.654C223.819 111.687 223.931 111.708 223.259 111.175C220.52 109.001 221.32 107.862 221.929 105.979C222.537 104.095 220.401 101.149 221.929 99.8929C223.422 98.6656 224.274 100.644 224.311 100.733C224.319 103.846 224.287 107.134 224.258 109.654Z" fill="#94B0ED"/>
<path d="M75.7643 134.875C83.6256 132.5 104.942 128.296 127.319 130.489" stroke="#EBEBEB" stroke-width="0.5"/>
<path d="M107.575 45.1558C113.421 50.9223 127.305 67.6293 136.076 88.3254" stroke="#EBEBEB" stroke-width="0.5"/>
<path d="M161.324 123.91C169.361 125.6 190.077 132.148 208.651 144.815" stroke="#EBEBEB" stroke-width="0.5"/>
<path d="M175.918 85.5312C177.705 80.1623 184.181 67.1371 195.794 57.9882" stroke="#EBEBEB" stroke-width="0.3"/>
<path d="M182.303 82.6216C185.74 78.1264 196.105 67.918 210.064 63.0464" stroke="#EBEBEB" stroke-width="0.3"/>
<path d="M224.19 109.392C224.19 109.392 223.158 111.078 222.481 111.018C221.805 110.959 220.891 110.706 220.364 111.209C219.836 111.712 218.987 113.007 219.224 113.353C219.462 113.698 220.417 113.392 221.103 113.014C221.789 112.636 222.87 113.2 223.446 112.771C224.022 112.342 225.401 110.637 225.401 110.637L224.19 109.392Z" fill="#F9CBCB"/>
<path d="M223.782 91.0225C223.782 91.0225 232.35 99.0723 231.237 104.427C230.73 106.867 229.157 108.925 224.964 112.258C224.964 112.258 222.98 110.889 222.545 109.778C222.545 109.778 226.351 104.427 226.204 103.515C226.024 102.4 223.426 99.6029 222.494 99.1683C221.562 98.7336 221.647 91.9561 223.782 91.0225Z" fill="#AEC3FF"/>
<path d="M222.481 111.018C222.481 111.018 221.578 110.624 221.288 110.455C220.997 110.286 221.062 110.559 221.15 110.697C221.239 110.834 221.481 111.139 221.836 111.172C222.191 111.203 222.481 111.018 222.481 111.018Z" fill="#F9CBCB"/>
<path d="M71.8199 93.5266C71.5104 92.9298 78.5783 90.7822 78.6898 96.6692C78.6898 96.6692 91.9309 96.3439 85.6088 88.9763C83.4203 86.4258 83.6452 84.3166 83.7106 82.3534C83.7769 80.3901 82.3478 74.6835 77.4462 75.2583C77.4462 75.2583 76.1631 74.7372 74.561 75.5663C70.9194 77.4519 62.7587 95.6972 71.8199 93.5266Z" fill="#163560"/>
<path d="M93.4667 98.93C93.4667 98.93 94.3288 97.6202 95.0227 97.5943C95.7176 97.5684 97.0035 97.2085 96.9007 97.4657C96.7979 97.7229 96.0002 97.7478 95.9233 97.9023C95.8464 98.0568 97.1064 98.2871 97.4668 98.313C97.8272 98.3389 98.6758 98.313 98.6499 98.4925C98.624 98.6719 97.1198 99.4175 96.0578 99.3148C94.9968 99.2121 93.6839 99.6228 93.6839 99.6228L93.4667 98.93Z" fill="#F9CBCB"/>
<path d="M81.0022 99.3538C81.0022 99.3538 81.4703 100.28 82.3209 101.344C83.3454 102.625 84.9245 104.104 86.9072 104.396C87.8539 104.536 88.7804 104.332 89.6319 103.955C89.6338 103.954 89.6348 103.954 89.6348 103.954C92.0423 102.887 93.8531 100.432 93.8531 100.432C94.2779 99.2761 93.583 98.4931 93.583 98.4931C93.583 98.4931 88.7208 99.5851 88.2575 99.3538C87.7943 99.1226 84.9475 92.8163 84.4343 91.7665C83.3444 89.5336 81.6144 88.8936 81.6144 88.8936L81.0022 99.3538Z" fill="#AEC3FF"/>
<path d="M82.3209 101.344C83.3454 102.625 84.9245 104.104 86.9072 104.396C87.8539 104.536 88.7804 104.332 89.6319 103.955C89.5377 103.968 87.1331 104.264 86.1739 102.552C85.1965 100.806 84.1383 98.0316 82.6861 98.9557C82.0585 99.3549 82.0864 100.346 82.3209 101.344Z" fill="#94B0ED"/>
<path d="M62.8615 151.757C62.8615 151.757 61.3776 153.109 61.6679 154.07C61.9571 155.03 63.2959 155.67 63.4776 156.845C63.6583 158.019 64.382 158.659 65.0336 158.659C65.6852 158.659 68.1389 158.659 68.1389 158.659C68.1389 158.659 68.6185 157.833 67.4604 157.585C66.3023 157.335 65.8659 155.956 65.938 154.675C66.0101 153.394 65.8294 151.687 65.8294 151.687L63.369 151.118L62.8615 151.757Z" fill="#1D3356"/>
<path d="M75.4192 152.331C75.4192 152.331 74.8858 158.058 75.5365 158.378L83.8721 158.361C83.8721 158.361 83.8721 157.4 82.5333 157.186C81.1944 156.973 78.8426 156.19 78.4438 154.447C78.0469 152.704 75.4192 152.331 75.4192 152.331Z" fill="#1D3356"/>
<path d="M69.0068 95.4908C69.0068 95.4908 68.8828 97.2392 69.0068 99.3378C69.0894 100.729 70.4984 102.592 70.6983 103.052C71.2 104.208 71.7661 104.396 71.7661 104.396L76.1429 105.467L77.6817 105.843L82.5352 104.396C82.5352 104.396 84.7457 98.2352 83.8577 94.7683C82.9706 91.3004 81.6145 88.8928 81.6145 88.8928C81.6145 88.8928 78.3246 87.5964 72.4985 88.5647L69.0068 95.4908Z" fill="#AEC3FF"/>
<path d="M70.2879 99.9058C70.3706 101.297 70.4984 102.592 70.6983 103.053C71.2 104.208 71.7661 104.397 71.7661 104.397L76.1429 105.467L78.044 104.91C78.044 104.91 71.6979 103.949 72.4014 98.499L70.2879 99.9058Z" fill="#F2CCAA"/>
<path d="M82.2267 105.331C82.2267 105.331 84.6304 112.8 84.7841 115.343C84.9389 117.886 80.1901 151.467 79.9988 152.639C79.8191 153.743 78.4448 154.448 78.4448 154.448C78.4448 154.448 77.8133 154.82 76.9108 154.566C75.6595 154.213 75.2645 153.79 75.2645 153.79C75.2645 153.79 73.3942 129.84 74.5513 121.285C75.7085 112.729 75.7229 105.331 75.7229 105.331H82.2267Z" fill="url(#paint8_linear_162_76286)"/>
<path d="M72.0438 105.108C72.0438 105.108 68.3782 110.019 68.0361 113.34C67.6939 116.66 67.4998 128.32 66.7722 131.557C66.0437 134.794 63.369 141.021 63.369 151.116C63.369 151.116 63.6467 151.695 64.506 152.003C64.7808 152.101 65.148 152.196 65.5055 152.279C66.2138 152.441 66.9404 152.096 67.2634 151.446C69.0721 147.81 74.833 136.084 75.129 133.65C75.3385 131.927 77.1569 120.527 81.1253 113.837C82.0777 112.23 80.5409 105.843 80.5409 105.843L72.0438 105.108Z" fill="url(#paint9_linear_162_76286)"/>
<path d="M82.6101 104.179C82.6101 104.179 81.6452 104.941 79.7288 104.979C77.4394 105.025 71.7661 104.397 71.7661 104.397C71.7661 104.397 71.5143 105.1 71.5239 105.842C71.5239 105.842 78.4524 107.586 82.4669 106.097C82.4679 106.097 82.985 105.124 82.6101 104.179Z" fill="#233862"/>
<path d="M79.2328 105.768C79.2328 105.117 79.7019 104.587 80.2776 104.587C80.8533 104.587 81.3223 105.117 81.3223 105.768C81.3223 106.418 80.8533 106.948 80.2776 106.948C79.7019 106.949 79.2328 106.419 79.2328 105.768ZM79.5798 105.768C79.5798 106.228 79.8931 106.603 80.2785 106.603C80.6639 106.603 80.9772 106.228 80.9772 105.768C80.9772 105.307 80.6639 104.933 80.2785 104.933C79.8931 104.933 79.5798 105.308 79.5798 105.768Z" fill="white"/>
<path d="M65.0442 106.17L70.6704 111.061C71.077 111.414 71.693 111.372 72.0477 110.966L79.2271 102.734C79.5808 102.329 79.5385 101.713 79.1319 101.359L73.5057 96.4685C73.0991 96.1153 72.4821 96.1576 72.1284 96.5635L64.949 104.795C64.5944 105.201 64.6376 105.816 65.0442 106.17Z" fill="url(#paint10_linear_162_76286)"/>
<path d="M73.3673 105.552C73.4471 105.573 76.3563 105.914 76.3563 106.514C76.3573 107.208 75.5038 108.138 74.7003 108.094C74.3745 108.075 72.8742 106.698 72.8742 106.698L73.3673 105.552Z" fill="#F9CBCB"/>
<path d="M74.8608 88.247C75.1914 87.4458 75.3846 86.2252 75.3798 84.7148L75.5999 84.758L79.2944 85.4883C79.2944 85.4883 79.2107 86.6493 79.2079 87.7433C79.2079 87.7519 79.2079 87.7615 79.2079 87.7701C79.2031 88.7201 79.8508 89.6729 78.3246 90.0501C77.8527 90.1662 74.1659 89.9301 74.8608 88.247Z" fill="#F9CBCB"/>
<path d="M79.2944 85.4881C79.2944 85.4881 79.2098 86.6491 79.2079 87.743C77.1406 87.6845 76.0478 85.8018 75.5999 84.7578L79.2944 85.4881Z" fill="#E8945B"/>
<path d="M79.9844 86.5235C79.9844 86.5235 75.0924 86.6041 75.0896 83.5622C75.0857 80.5194 74.4523 78.4813 77.5759 78.3009C80.6995 78.1205 81.3069 79.2806 81.5558 80.2959C81.8038 81.312 81.2569 86.4246 79.9844 86.5235Z" fill="#F9CBCB"/>
<path d="M79.8038 78.2271C79.8038 78.2271 78.464 81.7967 76.4092 82.3244C74.3534 82.8522 73.4624 82.3024 73.4624 82.3024C73.4624 82.3024 75.0386 81.052 75.3664 78.869C75.3654 78.8681 78.7936 76.5277 79.8038 78.2271Z" fill="#163560"/>
<path d="M79.4712 78.5168C79.4712 78.5168 80.464 78.8872 80.8734 79.6107C81.2733 80.3179 81.6135 81.2544 81.5347 82.404C81.5347 82.404 82.5438 79.9782 81.4097 78.606C80.2074 77.1503 79.4712 78.5168 79.4712 78.5168Z" fill="#163560"/>
<path d="M73.3673 105.552C73.3673 105.552 74.0641 105.329 74.5302 105.394C74.9963 105.459 75.3404 105.384 75.3404 105.515C75.3404 105.645 74.7388 105.706 74.6109 105.768C74.4841 105.831 73.3673 105.552 73.3673 105.552Z" fill="url(#paint11_linear_162_76286)"/>
<path d="M72.4975 88.5645C72.4975 88.5645 69.025 88.8072 67.6939 92.0381C66.3628 95.269 63.837 100.692 63.837 101.605C63.837 102.518 65.2479 105.33 72.8243 106.948C72.8243 106.948 73.6075 106.125 73.5605 105.474C73.5605 105.474 68.8309 101.418 68.8434 100.944C68.8674 100.048 69.619 98.8635 73.7709 94.7163C74.9012 93.5897 72.4975 88.5645 72.4975 88.5645Z" fill="#AEC3FF"/>
<path d="M169.81 61.1274H132.286C131.379 61.1274 130.508 61.4873 129.866 62.1283L103.333 88.6192C102.691 89.2602 102.33 90.1286 102.33 91.0344V128.499C102.33 129.405 102.691 130.274 103.333 130.914L129.867 157.406C130.509 158.047 131.379 158.407 132.287 158.407H169.811C170.718 158.407 171.589 158.047 172.23 157.406L198.764 130.914C199.406 130.273 199.766 129.405 199.766 128.499V91.0354C199.766 90.1295 199.406 89.2602 198.764 88.6201L172.23 62.1273C171.588 61.4873 170.718 61.1274 169.81 61.1274Z" fill="url(#paint12_linear_162_76286)"/>
<path d="M167.171 153.538H134.926C133.612 153.538 132.378 153.027 131.449 152.1L108.648 129.335C107.719 128.409 107.207 127.175 107.207 125.864V93.6701C107.207 92.3584 107.718 91.1263 108.648 90.1984L131.448 67.4345C132.377 66.5075 133.611 65.9961 134.925 65.9961H167.17C168.484 65.9961 169.719 66.5066 170.647 67.4345L193.447 90.1984C194.376 91.1253 194.888 92.3584 194.888 93.6701V125.864C194.888 127.175 194.377 128.408 193.447 129.335L170.647 152.099C169.719 153.027 168.484 153.538 167.171 153.538ZM134.926 69.3344C134.506 69.3344 134.11 69.4976 133.813 69.795L111.013 92.5599C110.716 92.8564 110.552 93.2508 110.552 93.6711V125.865C110.552 126.284 110.715 126.678 111.013 126.976L133.813 149.741C134.11 150.037 134.505 150.2 134.926 150.2H167.171C167.592 150.2 167.987 150.037 168.284 149.741L191.084 126.977C191.381 126.68 191.544 126.286 191.544 125.866V93.6721C191.544 93.2527 191.381 92.8583 191.084 92.5609L168.284 69.797C167.987 69.5004 167.591 69.3364 167.171 69.3364H134.926V69.3344Z" fill="#FFE5D4"/>
<path d="M155.609 111.331L165.45 101.516C165.716 101.26 165.928 100.953 166.074 100.615C166.22 100.276 166.296 99.9118 166.3 99.5432C166.303 99.1746 166.232 98.8091 166.092 98.4679C165.952 98.1268 165.746 97.8169 165.484 97.5562C165.223 97.2956 164.912 97.0895 164.57 96.9499C164.228 96.8103 163.861 96.7401 163.492 96.7433C163.122 96.7465 162.757 96.823 162.417 96.9685C162.077 97.114 161.77 97.3255 161.513 97.5906L151.67 107.403L141.828 97.5906C141.572 97.3255 141.265 97.114 140.925 96.9685C140.585 96.823 140.22 96.7465 139.85 96.7433C139.481 96.7401 139.114 96.8103 138.772 96.9499C138.43 97.0895 138.119 97.2956 137.858 97.5562C137.596 97.8169 137.389 98.1268 137.249 98.4679C137.11 98.8091 137.039 99.1746 137.042 99.5432C137.046 99.9118 137.122 100.276 137.268 100.615C137.414 100.953 137.626 101.26 137.892 101.516L147.733 111.329L137.892 121.144C137.626 121.4 137.414 121.707 137.268 122.045C137.122 122.384 137.046 122.748 137.042 123.117C137.039 123.485 137.11 123.851 137.249 124.192C137.389 124.533 137.596 124.843 137.858 125.104C138.119 125.364 138.43 125.571 138.772 125.71C139.114 125.85 139.481 125.92 139.85 125.917C140.22 125.914 140.585 125.837 140.925 125.692C141.265 125.546 141.572 125.335 141.828 125.069L151.67 115.257L161.513 125.069C161.77 125.335 162.077 125.546 162.417 125.692C162.757 125.837 163.122 125.914 163.492 125.917C163.861 125.92 164.228 125.85 164.57 125.71C164.912 125.571 165.223 125.364 165.484 125.104C165.746 124.843 165.952 124.533 166.092 124.192C166.232 123.851 166.303 123.485 166.3 123.117C166.296 122.748 166.22 122.384 166.074 122.045C165.928 121.707 165.716 121.4 165.45 121.144L155.609 111.329V111.331Z" fill="#FFE5D4"/>
</g>
<defs>
<linearGradient id="paint0_linear_162_76286" x1="151.691" y1="142.631" x2="151.691" y2="173.078" gradientUnits="userSpaceOnUse">
<stop stop-color="#E8E8E8"/>
<stop offset="1" stop-color="#E8E8E8" stop-opacity="0"/>
</linearGradient>
<linearGradient id="paint1_linear_162_76286" x1="68.6344" y1="49.3446" x2="331.868" y2="159.062" gradientUnits="userSpaceOnUse">
<stop stop-color="#CEE5FF"/>
<stop offset="1" stop-color="#E0EEFF" stop-opacity="0"/>
</linearGradient>
<linearGradient id="paint2_linear_162_76286" x1="211.787" y1="77.9695" x2="173.869" y2="72.3774" gradientUnits="userSpaceOnUse">
<stop stop-color="#ABDCFF"/>
<stop offset="1" stop-color="#73B2FF"/>
</linearGradient>
<linearGradient id="paint3_linear_162_76286" x1="198.122" y1="72.6206" x2="175.914" y2="70.7713" gradientUnits="userSpaceOnUse">
<stop stop-color="#ABDCFF"/>
<stop offset="1" stop-color="#73B2FF"/>
</linearGradient>
<linearGradient id="paint4_linear_162_76286" x1="65.8922" y1="131.038" x2="121.835" y2="127.198" gradientUnits="userSpaceOnUse">
<stop stop-color="#489EFC"/>
<stop offset="1" stop-color="#CEE9FF"/>
</linearGradient>
<linearGradient id="paint5_linear_162_76286" x1="212.581" y1="138.271" x2="147.726" y2="125.837" gradientUnits="userSpaceOnUse">
<stop stop-color="#ABDCFF"/>
<stop offset="1" stop-color="#73B2FF"/>
</linearGradient>
<linearGradient id="paint6_linear_162_76286" x1="146.169" y1="73.22" x2="79.158" y2="65.5149" gradientUnits="userSpaceOnUse">
<stop stop-color="#ABDCFF"/>
<stop offset="1" stop-color="#73B2FF"/>
</linearGradient>
<linearGradient id="paint7_linear_162_76286" x1="154.271" y1="55.4554" x2="173.555" y2="42.5527" gradientUnits="userSpaceOnUse">
<stop offset="0.1885" stop-color="#FFBE69"/>
<stop offset="1" stop-color="#FF8F5C"/>
</linearGradient>
<linearGradient id="paint8_linear_162_76286" x1="74.6675" y1="132.134" x2="84.5356" y2="118.972" gradientUnits="userSpaceOnUse">
<stop stop-color="#214D87"/>
<stop offset="1" stop-color="#3760C0"/>
</linearGradient>
<linearGradient id="paint9_linear_162_76286" x1="68.0859" y1="120.62" x2="75.215" y2="123.912" gradientUnits="userSpaceOnUse">
<stop stop-color="#4969AC"/>
<stop offset="1" stop-color="#4270C5"/>
</linearGradient>
<linearGradient id="paint10_linear_162_76286" x1="70.5461" y1="111.387" x2="77.3623" y2="94.1841" gradientUnits="userSpaceOnUse">
<stop offset="0.1885" stop-color="#FFBE69"/>
<stop offset="1" stop-color="#FF8F5C"/>
</linearGradient>
<linearGradient id="paint11_linear_162_76286" x1="74.1477" y1="105.78" x2="74.1881" y2="105.26" gradientUnits="userSpaceOnUse">
<stop offset="0.1885" stop-color="#FFBE69"/>
<stop offset="1" stop-color="#FF8F5C"/>
</linearGradient>
<linearGradient id="paint12_linear_162_76286" x1="140.87" y1="158.965" x2="184.142" y2="47.2582" gradientUnits="userSpaceOnUse">
<stop offset="0.1885" stop-color="#FFBE69"/>
<stop offset="1" stop-color="#FF8F5C"/>
</linearGradient>
<clipPath id="clip0_162_76286">
<rect width="249" height="159" fill="white" transform="translate(27.5)"/>
</clipPath>
</defs>
</svg>
