<?xml version="1.0" encoding="utf-8"?>
<!-- Generator: Adobe Illustrator 25.2.0, SVG Export Plug-In . SVG Version: 6.00 Build 0)  -->
<svg version="1.1" id="Layer_1" xmlns="http://www.w3.org/2000/svg" xmlns:xlink="http://www.w3.org/1999/xlink" x="0px" y="0px"
	 viewBox="0 0 1265.8 1205.3" style="enable-background:new 0 0 1265.8 1205.3;" xml:space="preserve">
<style type="text/css">
	.st0{fill:#F2F2F2;}
	.st1{fill:none;stroke:#000000;stroke-width:0.9223;stroke-miterlimit:10;}
	.st2{fill:#292728;}
	.st3{fill:url(#SVGID_1_);}
	.st4{fill:url(#SVGID_2_);}
	.st5{fill:url(#SVGID_3_);}
	.st6{fill:url(#SVGID_4_);}
	.st7{fill:url(#SVGID_5_);}
	.st8{fill:url(#SVGID_6_);}
	.st9{fill:url(#SVGID_7_);}
	.st10{fill:url(#SVGID_8_);}
	.st11{fill:url(#SVGID_9_);}
	.st12{fill:url(#SVGID_10_);}
	.st13{fill:url(#SVGID_11_);}
	.st14{fill:url(#SVGID_12_);}
	.st15{fill:url(#SVGID_13_);}
	.st16{fill:url(#SVGID_14_);}
	.st17{fill:url(#SVGID_15_);}
	.st18{fill:url(#SVGID_16_);}
	.st19{fill:url(#SVGID_17_);}
	.st20{fill:url(#SVGID_18_);}
	.st21{fill:url(#SVGID_19_);}
	.st22{fill:url(#SVGID_20_);}
	.st23{fill:url(#SVGID_21_);}
	.st24{fill:url(#SVGID_22_);}
	.st25{fill:url(#SVGID_23_);}
	.st26{fill:url(#SVGID_24_);}
	.st27{fill:url(#SVGID_25_);}
	.st28{fill:url(#SVGID_26_);}
	.st29{fill-rule:evenodd;clip-rule:evenodd;fill:url(#SVGID_27_);}
	.st30{clip-path:url(#SVGID_30_);fill:url(#SVGID_31_);}
</style>
<rect x="93.5" y="63.8" class="st0" width="1077.8" height="1077.8"/>
<g>
	<g>
		<path class="st1" d="M774.2,836.9H489.8c-61.4,0-111.1-49.7-111.1-111.1V441.3c0-61.4,49.7-111.1,111.1-111.1h284.4
			c61.4,0,111.1,49.7,111.1,111.1v284.4C885.3,787.1,835.6,836.9,774.2,836.9z"/>
	</g>
</g>
<g>
	<g>
		<g>
			<path class="st2" d="M709.7,449.7c-0.3,1.6-0.5,3.1-0.6,4.6c-0.1,5,1.5,9.3,4.8,12.6c3.3,3.3,7.6,5,12.8,5H743l-18.5,80.4h1.1
				c6.1,0,11.8-2.2,17-6.4c5.2-4.3,8.6-9.5,9.9-15.5l13.6-58.5h38.3l0.2-0.7c0.3-1.5,0.5-3.1,0.5-4.7c0.1-5-1.5-9.2-4.8-12.5
				c-3.3-3.3-7.6-5-12.8-5h-77.7L709.7,449.7z"/>
			<path class="st2" d="M503.1,471.8l52.2-0.1c6,0,11.7-2.1,16.8-6.3c5.2-4.2,8.4-9.5,9.8-15.5l0.3-1.1l-73.8-0.1l0,0.1h-1.3
				c-6,0-11.7,2.1-16.9,6.4c-5,4.1-8.3,9-9.4,13.1h0l-19.3,83.8h1.1c6.1,0,11.8-2.2,17-6.4c5.2-4.3,8.6-9.5,9.9-15.5l4.2-18.2
				l38.4,0c6,0,11.8-2.3,17-6.5c5.2-4.2,8.6-9.4,9.9-15.4l0.2-1.1l-60.2,0L503.1,471.8z"/>
			<path class="st2" d="M688.8,453.9c-3.3-3.3-7.6-5-12.9-5l-73.6-0.1l-23.8,103.3h0l0,0.1h1.1c6.1,0,11.8-2.2,17-6.4
				c5.2-4.3,8.6-9.5,9.9-15.5l4.3-18.4l51,0c6,0,11.3-0.7,16.5-4.9c5.2-4.2,8.8-10.8,10.3-16.9l4.5-19.2c0.3-1.5,0.5-3.1,0.5-4.7
				C693.8,461.4,692.2,457.2,688.8,453.9z M665.8,489.1l-49.7,0l4-17.3l49.7,0L665.8,489.1z"/>
		</g>
		<g>
			<g>
				
					<linearGradient id="SVGID_1_" gradientUnits="userSpaceOnUse" x1="608.3265" y1="500.1821" x2="656.7302" y2="616.8763" gradientTransform="matrix(1 0 0 -1 0 1208)">
					<stop  offset="0" style="stop-color:#FBAE17"/>
					<stop  offset="1" style="stop-color:#F16322"/>
				</linearGradient>
				<path class="st3" d="M596.5,736.2C596.5,736.2,596.5,736.2,596.5,736.2C596.6,736.2,596.6,736.2,596.5,736.2
					C596.6,736.2,596.6,736.2,596.5,736.2z"/>
				
					<linearGradient id="SVGID_2_" gradientUnits="userSpaceOnUse" x1="586.1218" y1="428.5566" x2="782.9152" y2="637.4435" gradientTransform="matrix(1 0 0 -1 0 1208)">
					<stop  offset="0" style="stop-color:#FBAE17"/>
					<stop  offset="1" style="stop-color:#F16322"/>
				</linearGradient>
				<path class="st4" d="M730.5,623.7c0.5,1.2,0.9,2.4,1.3,3.6C731.4,626.1,730.9,624.9,730.5,623.7z"/>
				
					<linearGradient id="SVGID_3_" gradientUnits="userSpaceOnUse" x1="579.7831" y1="582.46" x2="738.0057" y2="582.46" gradientTransform="matrix(1 0 0 -1 0 1208)">
					<stop  offset="0" style="stop-color:#FBAE17"/>
					<stop  offset="1" style="stop-color:#F16322"/>
				</linearGradient>
				<path class="st5" d="M730.5,623.7c0.5,1.2,0.9,2.4,1.3,3.6C731.4,626.1,730.9,624.9,730.5,623.7z"/>
				
					<linearGradient id="SVGID_4_" gradientUnits="userSpaceOnUse" x1="583.0297" y1="431.4696" x2="779.8232" y2="640.3565" gradientTransform="matrix(1 0 0 -1 0 1208)">
					<stop  offset="0" style="stop-color:#FBAE17"/>
					<stop  offset="1" style="stop-color:#F16322"/>
				</linearGradient>
				<path class="st6" d="M728.7,619.4c0.5,1.2,1,2.4,1.5,3.6C729.7,621.7,729.2,620.5,728.7,619.4z"/>
				
					<linearGradient id="SVGID_5_" gradientUnits="userSpaceOnUse" x1="579.7831" y1="586.84" x2="738.0057" y2="586.84" gradientTransform="matrix(1 0 0 -1 0 1208)">
					<stop  offset="0" style="stop-color:#FBAE17"/>
					<stop  offset="1" style="stop-color:#F16322"/>
				</linearGradient>
				<path class="st7" d="M728.7,619.4c0.5,1.2,1,2.4,1.5,3.6C729.7,621.7,729.2,620.5,728.7,619.4z"/>
				
					<linearGradient id="SVGID_6_" gradientUnits="userSpaceOnUse" x1="588.6377" y1="426.1863" x2="785.4312" y2="635.0732" gradientTransform="matrix(1 0 0 -1 0 1208)">
					<stop  offset="0" style="stop-color:#FBAE17"/>
					<stop  offset="1" style="stop-color:#F16322"/>
				</linearGradient>
				<path class="st8" d="M731.8,627.4c0.4,1.2,0.8,2.5,1.1,3.8C732.6,629.9,732.2,628.6,731.8,627.4z"/>
				
					<linearGradient id="SVGID_7_" gradientUnits="userSpaceOnUse" x1="579.7831" y1="578.73" x2="738.0057" y2="578.73" gradientTransform="matrix(1 0 0 -1 0 1208)">
					<stop  offset="0" style="stop-color:#FBAE17"/>
					<stop  offset="1" style="stop-color:#F16322"/>
				</linearGradient>
				<path class="st9" d="M731.8,627.4c0.4,1.2,0.8,2.5,1.1,3.8C732.6,629.9,732.2,628.6,731.8,627.4z"/>
				
					<linearGradient id="SVGID_8_" gradientUnits="userSpaceOnUse" x1="594.0272" y1="421.109" x2="790.8205" y2="629.9958" gradientTransform="matrix(1 0 0 -1 0 1208)">
					<stop  offset="0" style="stop-color:#FBAE17"/>
					<stop  offset="1" style="stop-color:#F16322"/>
				</linearGradient>
				<path class="st10" d="M734.1,635.9c0.3,1.3,0.5,2.6,0.7,3.9C734.6,638.5,734.3,637.2,734.1,635.9z"/>
				
					<linearGradient id="SVGID_9_" gradientUnits="userSpaceOnUse" x1="579.7831" y1="570.14" x2="738.0057" y2="570.14" gradientTransform="matrix(1 0 0 -1 0 1208)">
					<stop  offset="0" style="stop-color:#FBAE17"/>
					<stop  offset="1" style="stop-color:#F16322"/>
				</linearGradient>
				<path class="st11" d="M734.1,635.9c0.3,1.3,0.5,2.6,0.7,3.9C734.6,638.5,734.3,637.2,734.1,635.9z"/>
				
					<linearGradient id="SVGID_10_" gradientUnits="userSpaceOnUse" x1="591.626" y1="423.371" x2="788.4194" y2="632.2579" gradientTransform="matrix(1 0 0 -1 0 1208)">
					<stop  offset="0" style="stop-color:#FBAE17"/>
					<stop  offset="1" style="stop-color:#F16322"/>
				</linearGradient>
				<path class="st12" d="M733.2,632c0.3,1.3,0.6,2.5,0.9,3.8C733.8,634.5,733.5,633.3,733.2,632z"/>
				
					<linearGradient id="SVGID_11_" gradientUnits="userSpaceOnUse" x1="579.7831" y1="574.075" x2="738.0057" y2="574.075" gradientTransform="matrix(1 0 0 -1 0 1208)">
					<stop  offset="0" style="stop-color:#FBAE17"/>
					<stop  offset="1" style="stop-color:#F16322"/>
				</linearGradient>
				<path class="st13" d="M733.2,632c0.3,1.3,0.6,2.5,0.9,3.8C733.8,634.5,733.5,633.3,733.2,632z"/>
				
					<linearGradient id="SVGID_12_" gradientUnits="userSpaceOnUse" x1="685.6339" y1="476.9406" x2="736.9142" y2="600.5698" gradientTransform="matrix(1 0 0 -1 0 1208)">
					<stop  offset="0" style="stop-color:#FBAE17"/>
					<stop  offset="1" style="stop-color:#F16322"/>
				</linearGradient>
				<path class="st14" d="M730.2,622.9c0.1,0.3,0.2,0.5,0.3,0.8C730.4,623.5,730.3,623.2,730.2,622.9z"/>
				
					<linearGradient id="SVGID_13_" gradientUnits="userSpaceOnUse" x1="579.7831" y1="584.66" x2="738.0057" y2="584.66" gradientTransform="matrix(1 0 0 -1 0 1208)">
					<stop  offset="0" style="stop-color:#FBAE17"/>
					<stop  offset="1" style="stop-color:#F16322"/>
				</linearGradient>
				<path class="st15" d="M730.2,622.9c0.1,0.3,0.2,0.5,0.3,0.8C730.4,623.5,730.3,623.2,730.2,622.9z"/>
				
					<linearGradient id="SVGID_14_" gradientUnits="userSpaceOnUse" x1="682.8023" y1="478.1151" x2="734.0826" y2="601.7443" gradientTransform="matrix(1 0 0 -1 0 1208)">
					<stop  offset="0" style="stop-color:#FBAE17"/>
					<stop  offset="1" style="stop-color:#F16322"/>
				</linearGradient>
				<path class="st16" d="M728.6,619.3C728.6,619.4,728.7,619.4,728.6,619.3C728.7,619.4,728.6,619.4,728.6,619.3z"/>
				
					<linearGradient id="SVGID_15_" gradientUnits="userSpaceOnUse" x1="688.601" y1="588.635" x2="768.6791" y2="588.635" gradientTransform="matrix(1 0 0 -1 0 1208)">
					<stop  offset="0" style="stop-color:#FBAE17"/>
					<stop  offset="1" style="stop-color:#F16322"/>
				</linearGradient>
				<path class="st17" d="M728.6,619.3C728.6,619.4,728.7,619.4,728.6,619.3C728.7,619.4,728.6,619.4,728.6,619.3z"/>
				
					<linearGradient id="SVGID_16_" gradientUnits="userSpaceOnUse" x1="688.3085" y1="475.8312" x2="739.5886" y2="599.4604" gradientTransform="matrix(1 0 0 -1 0 1208)">
					<stop  offset="0" style="stop-color:#FBAE17"/>
					<stop  offset="1" style="stop-color:#F16322"/>
				</linearGradient>
				<path class="st18" d="M731.8,627.3C731.8,627.4,731.8,627.4,731.8,627.3C731.8,627.4,731.8,627.4,731.8,627.3z"/>
				
					<linearGradient id="SVGID_17_" gradientUnits="userSpaceOnUse" x1="579.7831" y1="580.635" x2="728.9597" y2="580.635" gradientTransform="matrix(1 0 0 -1 0 1208)">
					<stop  offset="0" style="stop-color:#FBAE17"/>
					<stop  offset="1" style="stop-color:#F16322"/>
				</linearGradient>
				<path class="st19" d="M731.8,627.3C731.8,627.4,731.8,627.4,731.8,627.3C731.8,627.4,731.8,627.4,731.8,627.3z"/>
				
					<linearGradient id="SVGID_18_" gradientUnits="userSpaceOnUse" x1="693.2669" y1="473.7745" x2="744.5471" y2="597.4037" gradientTransform="matrix(1 0 0 -1 0 1208)">
					<stop  offset="0" style="stop-color:#FBAE17"/>
					<stop  offset="1" style="stop-color:#F16322"/>
				</linearGradient>
				<path class="st20" d="M734.1,635.8C734.1,635.8,734.1,635.9,734.1,635.8C734.1,635.9,734.1,635.8,734.1,635.8z"/>
				
					<linearGradient id="SVGID_19_" gradientUnits="userSpaceOnUse" x1="579.7831" y1="572.145" x2="704.0969" y2="572.145" gradientTransform="matrix(1 0 0 -1 0 1208)">
					<stop  offset="0" style="stop-color:#FBAE17"/>
					<stop  offset="1" style="stop-color:#F16322"/>
				</linearGradient>
				<path class="st21" d="M734.1,635.8C734.1,635.8,734.1,635.9,734.1,635.8C734.1,635.9,734.1,635.8,734.1,635.8z"/>
				
					<linearGradient id="SVGID_20_" gradientUnits="userSpaceOnUse" x1="690.8719" y1="474.768" x2="742.1522" y2="598.3972" gradientTransform="matrix(1 0 0 -1 0 1208)">
					<stop  offset="0" style="stop-color:#FBAE17"/>
					<stop  offset="1" style="stop-color:#F16322"/>
				</linearGradient>
				<path class="st22" d="M732.9,631.2c0.1,0.3,0.2,0.6,0.2,0.9C733.1,631.7,733,631.4,732.9,631.2z"/>
				
					<linearGradient id="SVGID_21_" gradientUnits="userSpaceOnUse" x1="579.7831" y1="576.405" x2="738.0057" y2="576.405" gradientTransform="matrix(1 0 0 -1 0 1208)">
					<stop  offset="0" style="stop-color:#FBAE17"/>
					<stop  offset="1" style="stop-color:#F16322"/>
				</linearGradient>
				<path class="st23" d="M732.9,631.2c0.1,0.3,0.2,0.6,0.2,0.9C733.1,631.7,733,631.4,732.9,631.2z"/>
				
					<linearGradient id="SVGID_22_" gradientUnits="userSpaceOnUse" x1="663.9699" y1="462.0408" x2="663.9699" y2="601.2562" gradientTransform="matrix(1 0 0 -1 0 1208)">
					<stop  offset="0" style="stop-color:#FBAE17"/>
					<stop  offset="1" style="stop-color:#F16322"/>
				</linearGradient>
				<path class="st24" d="M658.9,575.1c-0.5,0-1.1,0-1.7,0c-1,0-1.9,0-2.9,0h-53.8h-10.1l0.5,3.9c1.4,8.1,5,15.4,10.2,21.3
					c7.9,9,19.6,14.7,32.6,14.7c0.2,0,18.7,0.1,18.7,0.1c1.4,0,5.8,0.1,6.6,0.1c7.9,0,15.3,2.4,21.4,6.4c10.6,7,17.6,19,17.6,32.6
					c0,13.8-7.2,26-18,32.9c-6.1,3.9-13.3,6.1-21,6.1c-0.8,0-5.1,0.1-6.5,0.1c0,0-18.5,0.1-18.7,0.1c-13,0-24.7,5.7-32.6,14.8
					c-4.7,5.3-8,11.8-9.7,18.9v0c0,0,0,0,0,0c0,0-1.5,6.1-1.5,6.1s68.4,0,68.9,0c43.7,0,79.1-35.4,79.1-79.1
					S702.6,575.1,658.9,575.1z"/>
				
					<linearGradient id="SVGID_23_" gradientUnits="userSpaceOnUse" x1="618.42" y1="518.5" x2="618.42" y2="518.5" gradientTransform="matrix(1 0 0 -1 0 1208)">
					<stop  offset="0" style="stop-color:#FBAE17"/>
					<stop  offset="1" style="stop-color:#F16322"/>
				</linearGradient>
				<path class="st25" d="M618.4,689.5L618.4,689.5L618.4,689.5z"/>
				
					<linearGradient id="SVGID_24_" gradientUnits="userSpaceOnUse" x1="618.42" y1="518.5" x2="618.42" y2="518.5" gradientTransform="matrix(1 0 0 -1 0 1208)">
					<stop  offset="0" style="stop-color:#FBAE17"/>
					<stop  offset="1" style="stop-color:#F16322"/>
				</linearGradient>
				<path class="st26" d="M618.4,689.5L618.4,689.5L618.4,689.5z"/>
				
					<linearGradient id="SVGID_25_" gradientUnits="userSpaceOnUse" x1="548.805" y1="520.2826" x2="548.805" y2="618.3267" gradientTransform="matrix(1 0 0 -1 0 1208)">
					<stop  offset="0" style="stop-color:#FBAE17"/>
					<stop  offset="1" style="stop-color:#F16322"/>
				</linearGradient>
				<path class="st27" d="M568.8,654.2c0-3.2,0.1-13.3,0.1-13.3l-0.1-11v-10.1c-1.3,0.1-2.5,0.3-3.7,0.5c0,0-0.1,0-0.2,0
					c-0.6,0.1-1.1,0.2-1.7,0.3c-0.2,0-0.5,0.1-0.7,0.1c-0.9,0.2-1.8,0.5-2.8,0.7c-0.2,0.1-0.4,0.1-0.6,0.2c-0.7,0.2-1.4,0.5-2.1,0.7
					c-0.3,0.1-0.6,0.3-0.9,0.4c-0.6,0.2-1.1,0.5-1.7,0.7c-0.3,0.2-0.7,0.3-1,0.5c-0.5,0.3-1.1,0.5-1.6,0.8c-0.3,0.2-0.6,0.3-0.9,0.5
					c-0.5,0.3-1.1,0.6-1.6,1c-0.3,0.2-0.5,0.3-0.8,0.5c-0.8,0.5-1.5,1-2.3,1.6l0,0c-1.3,1-2.5,2-3.7,3.1c-0.1,0.1-0.1,0.1-0.2,0.2
					c-0.5,0.5-1.1,1-1.6,1.6c0,0,0,0-0.1,0.1c-1.1,1.2-2.1,2.4-3.1,3.6c-0.1,0.1-0.2,0.2-0.2,0.3c-0.4,0.6-0.8,1.1-1.2,1.7
					c0,0-0.1,0.1-0.1,0.2c0,0,0,0,0,0.1c-0.9,1.3-1.7,2.6-2.4,4c-0.1,0.2-0.2,0.3-0.2,0.5c-0.3,0.6-0.6,1.1-0.8,1.7
					c-0.1,0.1-0.1,0.3-0.2,0.4c-0.3,0.7-0.6,1.4-0.9,2.2c0,0,0,0,0,0c-0.3,0.7-0.5,1.4-0.7,2.1c-0.1,0.2-0.1,0.4-0.2,0.6
					c-0.2,0.6-0.3,1.1-0.5,1.7c0,0.2-0.1,0.4-0.2,0.6c-0.2,0.8-0.3,1.5-0.5,2.3c0,0,0,0.1,0,0.1c-0.1,0.7-0.2,1.5-0.3,2.2
					c0,0.2,0,0.5-0.1,0.7c-0.1,0.6-0.1,1.2-0.2,1.7c0,0.2,0,0.5,0,0.7c0,0.8-0.1,1.6-0.1,2.4c0,0.1,0,6.8,0,11h0
					c0,6.1-0.1,38.2-0.1,38.2l0.1,11v10.1c1.3-0.1,2.5-0.3,3.7-0.5c0,0,0.1,0,0.2,0c0.6-0.1,1.1-0.2,1.7-0.3c0.2,0,0.5-0.1,0.7-0.1
					c0.9-0.2,1.8-0.5,2.8-0.7c0.2-0.1,0.4-0.1,0.6-0.2c0.7-0.2,1.4-0.5,2.1-0.7c0.3-0.1,0.6-0.3,0.9-0.4c0.6-0.2,1.1-0.5,1.7-0.7
					c0.3-0.2,0.7-0.3,1-0.5c0.5-0.3,1.1-0.5,1.6-0.8c0.3-0.2,0.6-0.3,0.9-0.5c0.5-0.3,1.1-0.6,1.6-1c0.3-0.2,0.5-0.3,0.8-0.5
					c0.8-0.5,1.5-1,2.3-1.6l0,0c1.3-1,2.5-2,3.7-3.1c0.1-0.1,0.1-0.1,0.2-0.2c0.5-0.5,1.1-1,1.6-1.6c0,0,0,0,0.1-0.1
					c1.1-1.2,2.1-2.4,3.1-3.6c0.1-0.1,0.2-0.2,0.2-0.3c0.4-0.6,0.8-1.1,1.2-1.7c0,0,0.1-0.1,0.1-0.2c0,0,0,0,0-0.1
					c0.9-1.3,1.7-2.6,2.4-4c0.1-0.2,0.2-0.3,0.2-0.5c0.3-0.6,0.6-1.1,0.8-1.7c0.1-0.1,0.1-0.3,0.2-0.4c0.3-0.7,0.6-1.4,0.9-2.2
					c0,0,0,0,0,0c0.3-0.7,0.5-1.4,0.7-2.1c0.1-0.2,0.1-0.4,0.2-0.6c0.2-0.6,0.3-1.1,0.5-1.7c0-0.2,0.1-0.4,0.2-0.6
					c0.2-0.8,0.3-1.5,0.5-2.3c0,0,0-0.1,0-0.1c0.1-0.7,0.2-1.5,0.3-2.2c0-0.2,0-0.5,0.1-0.7c0.1-0.6,0.1-1.2,0.2-1.7
					c0-0.2,0-0.5,0-0.7c0-0.8,0.1-1.6,0.1-2.4C568.8,690,568.8,658.4,568.8,654.2L568.8,654.2z"/>
				
					<linearGradient id="SVGID_26_" gradientUnits="userSpaceOnUse" x1="609.995" y1="517.0406" x2="609.995" y2="608.1122" gradientTransform="matrix(1 0 0 -1 0 1208)">
					<stop  offset="0" style="stop-color:#F16322"/>
					<stop  offset="1" style="stop-color:#FBAE17"/>
				</linearGradient>
				<path class="st28" d="M629.9,638v-10.1c-1.3,0.1-2.5,0.3-3.7,0.5c0,0-0.1,0-0.2,0c-0.6,0.1-1.1,0.2-1.7,0.3
					c-0.2,0-0.5,0.1-0.7,0.1c-0.9,0.2-1.8,0.5-2.8,0.7c-0.2,0.1-0.4,0.1-0.6,0.2c-0.7,0.2-1.4,0.5-2.1,0.7c-0.3,0.1-0.6,0.3-0.9,0.4
					c-0.6,0.2-1.1,0.5-1.7,0.7c-0.3,0.2-0.7,0.3-1,0.5c-0.5,0.3-1.1,0.5-1.6,0.8c-0.3,0.2-0.6,0.3-0.9,0.5c-0.5,0.3-1.1,0.6-1.6,1
					c-0.3,0.2-0.5,0.3-0.8,0.5c-0.8,0.5-1.5,1-2.3,1.6l0,0c-1.3,1-2.5,2-3.7,3.1c-0.1,0.1-0.1,0.1-0.2,0.2c-0.5,0.5-1.1,1-1.6,1.6
					c0,0,0,0-0.1,0.1c-1.1,1.2-2.1,2.4-3.1,3.6c-0.1,0.1-0.2,0.2-0.2,0.3c-0.4,0.6-0.8,1.1-1.2,1.7c0,0-0.1,0.1-0.1,0.2
					c0,0,0,0,0,0.1c-0.9,1.3-1.7,2.6-2.4,4c-0.1,0.2-0.2,0.3-0.2,0.5c-0.3,0.6-0.6,1.1-0.8,1.7c-0.1,0.1-0.1,0.3-0.2,0.4
					c-0.3,0.7-0.6,1.4-0.9,2.2c0,0,0,0,0,0c-0.3,0.7-0.5,1.4-0.7,2.1c-0.1,0.2-0.1,0.4-0.2,0.6c-0.2,0.6-0.3,1.1-0.5,1.7
					c0,0.2-0.1,0.4-0.2,0.6c-0.2,0.8-0.3,1.5-0.5,2.3c0,0,0,0.1,0,0.1c-0.1,0.7-0.2,1.5-0.3,2.2c0,0.2,0,0.5-0.1,0.7
					c-0.1,0.6-0.1,1.2-0.2,1.7c0,0.2,0,0.5,0,0.7c0,0.8-0.1,1.6-0.1,2.4c0,0.1,0-1.3,0,2.9h0c0,6.1-0.1,38.2-0.1,38.2l0.1,11v10.1
					c1.3-0.1,2.5-0.3,3.7-0.5c0,0,0.1,0,0.2,0c0.6-0.1,1.1-0.2,1.7-0.3c0.2,0,0.5-0.1,0.7-0.1c0.9-0.2,1.8-0.5,2.8-0.7
					c0.2-0.1,0.4-0.1,0.6-0.2c0.7-0.2,1.4-0.5,2.1-0.7c0.3-0.1,0.6-0.3,0.9-0.4c0.6-0.2,1.1-0.5,1.7-0.7c0.3-0.2,0.7-0.3,1-0.5
					c0.5-0.3,1.1-0.5,1.6-0.8c0.3-0.2,0.6-0.3,0.9-0.5c0.5-0.3,1.1-0.6,1.6-1c0.3-0.2,0.5-0.3,0.8-0.5c0.8-0.5,1.5-1,2.3-1.6l0,0
					c1.3-1,2.5-2,3.7-3.1c0.1-0.1,0.1-0.1,0.2-0.2c0.5-0.5,1.1-1,1.6-1.6c0,0,0,0,0.1-0.1c1.1-1.2,2.1-2.4,3.1-3.6
					c0.1-0.1,0.2-0.2,0.2-0.3c0.4-0.6,0.8-1.1,1.2-1.7c0,0,0.1-0.1,0.1-0.2c0,0,0,0,0-0.1c0.9-1.3,1.7-2.6,2.4-4
					c0.1-0.2,0.2-0.3,0.2-0.5c0.3-0.6,0.6-1.1,0.8-1.7c0.1-0.1,0.1-0.3,0.2-0.4c0.3-0.7,0.6-1.4,0.9-2.2c0,0,0,0,0,0
					c0.3-0.7,0.5-1.4,0.7-2.1c0.1-0.2,0.1-0.4,0.2-0.6c0.2-0.6,0.3-1.1,0.5-1.7c0-0.2,0.1-0.4,0.2-0.6c0.2-0.8,0.3-1.5,0.5-2.3
					c0,0,0-0.1,0-0.1c0.1-0.7,0.2-1.5,0.3-2.2c0-0.2,0-0.5,0.1-0.7c0.1-0.6,0.1-1.2,0.2-1.7c0-0.2,0-0.5,0-0.7
					c0-0.8,0.1-1.6,0.1-2.4C630,690,629.9,638,629.9,638z"/>
				<g>
					<g>
						
							<linearGradient id="SVGID_27_" gradientUnits="userSpaceOnUse" x1="548.8" y1="520.2826" x2="548.8" y2="618.3267" gradientTransform="matrix(1 0 0 -1 0 1208)">
							<stop  offset="0" style="stop-color:#FBAE17"/>
							<stop  offset="1" style="stop-color:#F16322"/>
						</linearGradient>
						<path id="SVGID_29_" class="st29" d="M547.9,575.1c-11.1,0.5-19.8,10.2-19.3,21.8s9.9,20.6,21,20.1s19.8-10.2,19.3-21.8
							C568.5,583.6,559.1,574.6,547.9,575.1"/>
					</g>
					<g>
						<defs>
							<path id="SVGID_28_" d="M547.9,575.1c-11.1,0.5-19.8,10.2-19.3,21.8s9.9,20.6,21,20.1s19.8-10.2,19.3-21.8
								C568.5,583.6,559.1,574.6,547.9,575.1"/>
						</defs>
						<clipPath id="SVGID_30_">
							<use xlink:href="#SVGID_28_"  style="overflow:visible;"/>
						</clipPath>
						
							<linearGradient id="SVGID_31_" gradientUnits="userSpaceOnUse" x1="548.8" y1="520.2826" x2="548.8" y2="618.3267" gradientTransform="matrix(1 0 0 -1 0 1208)">
							<stop  offset="0" style="stop-color:#FBAE17"/>
							<stop  offset="1" style="stop-color:#F16322"/>
						</linearGradient>
						<rect x="528.2" y="574.6" class="st30" width="41.3" height="42.8"/>
					</g>
				</g>
			</g>
		</g>
	</g>
</g>
</svg>
