<?xml version="1.0" encoding="utf-8"?>
<!-- Generator: Adobe Illustrator 25.2.0, SVG Export Plug-In . SVG Version: 6.00 Build 0)  -->
<svg version="1.1" id="Layer_1" xmlns="http://www.w3.org/2000/svg" xmlns:xlink="http://www.w3.org/1999/xlink" x="0px" y="0px"
	 viewBox="0 0 1909.7 1205.3" style="enable-background:new 0 0 1909.7 1205.3;" xml:space="preserve">
<style type="text/css">
	.st0{fill:#F2F2F2;}
	.st1{fill:url(#SVGID_1_);}
	.st2{fill:url(#SVGID_2_);}
	.st3{fill:url(#SVGID_3_);}
	.st4{fill:url(#SVGID_4_);}
	.st5{fill:url(#SVGID_5_);}
	.st6{fill:url(#SVGID_6_);}
	.st7{fill:url(#SVGID_7_);}
	.st8{fill:url(#SVGID_8_);}
	.st9{fill:url(#SVGID_9_);}
	.st10{fill:url(#SVGID_10_);}
	.st11{fill:url(#SVGID_11_);}
	.st12{fill:url(#SVGID_12_);}
	.st13{fill:url(#SVGID_13_);}
	.st14{fill:url(#SVGID_14_);}
	.st15{fill:url(#SVGID_15_);}
	.st16{fill:url(#SVGID_16_);}
	.st17{fill:url(#SVGID_17_);}
	.st18{fill:url(#SVGID_18_);}
	.st19{fill:url(#SVGID_19_);}
	.st20{fill:url(#SVGID_20_);}
	.st21{fill:url(#SVGID_21_);}
	.st22{fill:url(#SVGID_22_);}
	.st23{fill:url(#SVGID_23_);}
	.st24{fill:url(#SVGID_24_);}
	.st25{fill:url(#SVGID_25_);}
	.st26{fill:url(#SVGID_26_);}
	.st27{fill-rule:evenodd;clip-rule:evenodd;fill:url(#SVGID_27_);}
	.st28{clip-path:url(#SVGID_29_);fill:url(#SVGID_30_);}
	.st29{fill:#292728;}
</style>
<rect x="70.4" y="63.8" class="st0" width="1745.2" height="1077.8"/>
<g>
	<g>
		
			<linearGradient id="SVGID_1_" gradientUnits="userSpaceOnUse" x1="1315.4205" y1="536.457" x2="1386.3453" y2="707.4462" gradientTransform="matrix(1 0 0 -1 0 1208)">
			<stop  offset="0" style="stop-color:#FBAE17"/>
			<stop  offset="1" style="stop-color:#F16322"/>
		</linearGradient>
		<path class="st1" d="M1298.2,713.2C1298.2,713.2,1298.2,713.2,1298.2,713.2C1298.2,713.1,1298.2,713.1,1298.2,713.2
			C1298.2,713.1,1298.2,713.1,1298.2,713.2z"/>
		
			<linearGradient id="SVGID_2_" gradientUnits="userSpaceOnUse" x1="1282.8828" y1="431.5033" x2="1571.24" y2="737.5806" gradientTransform="matrix(1 0 0 -1 0 1208)">
			<stop  offset="0" style="stop-color:#FBAE17"/>
			<stop  offset="1" style="stop-color:#F16322"/>
		</linearGradient>
		<path class="st2" d="M1494.4,548.3c0.7,1.7,1.3,3.5,1.9,5.3C1495.7,551.8,1495.1,550.1,1494.4,548.3z"/>
		
			<linearGradient id="SVGID_3_" gradientUnits="userSpaceOnUse" x1="1273.5895" y1="657.02" x2="1505.4296" y2="657.02" gradientTransform="matrix(1 0 0 -1 0 1208)">
			<stop  offset="0" style="stop-color:#FBAE17"/>
			<stop  offset="1" style="stop-color:#F16322"/>
		</linearGradient>
		<path class="st3" d="M1494.4,548.3c0.7,1.7,1.3,3.5,1.9,5.3C1495.7,551.8,1495.1,550.1,1494.4,548.3z"/>
		
			<linearGradient id="SVGID_4_" gradientUnits="userSpaceOnUse" x1="1278.3485" y1="435.775" x2="1566.7057" y2="741.8524" gradientTransform="matrix(1 0 0 -1 0 1208)">
			<stop  offset="0" style="stop-color:#FBAE17"/>
			<stop  offset="1" style="stop-color:#F16322"/>
		</linearGradient>
		<path class="st4" d="M1491.7,542c0.8,1.7,1.5,3.5,2.2,5.2C1493.2,545.4,1492.5,543.7,1491.7,542z"/>
		
			<linearGradient id="SVGID_5_" gradientUnits="userSpaceOnUse" x1="1273.5895" y1="663.4349" x2="1505.4296" y2="663.4349" gradientTransform="matrix(1 0 0 -1 0 1208)">
			<stop  offset="0" style="stop-color:#FBAE17"/>
			<stop  offset="1" style="stop-color:#F16322"/>
		</linearGradient>
		<path class="st5" d="M1491.7,542c0.8,1.7,1.5,3.5,2.2,5.2C1493.2,545.4,1492.5,543.7,1491.7,542z"/>
		
			<linearGradient id="SVGID_6_" gradientUnits="userSpaceOnUse" x1="1286.5563" y1="428.0426" x2="1574.9135" y2="734.1199" gradientTransform="matrix(1 0 0 -1 0 1208)">
			<stop  offset="0" style="stop-color:#FBAE17"/>
			<stop  offset="1" style="stop-color:#F16322"/>
		</linearGradient>
		<path class="st6" d="M1496.3,553.7c0.6,1.8,1.1,3.7,1.6,5.5C1497.5,557.3,1496.9,555.5,1496.3,553.7z"/>
		
			<linearGradient id="SVGID_7_" gradientUnits="userSpaceOnUse" x1="1273.5895" y1="651.56" x2="1505.4296" y2="651.56" gradientTransform="matrix(1 0 0 -1 0 1208)">
			<stop  offset="0" style="stop-color:#FBAE17"/>
			<stop  offset="1" style="stop-color:#F16322"/>
		</linearGradient>
		<path class="st7" d="M1496.3,553.7c0.6,1.8,1.1,3.7,1.6,5.5C1497.5,557.3,1496.9,555.5,1496.3,553.7z"/>
		
			<linearGradient id="SVGID_8_" gradientUnits="userSpaceOnUse" x1="1294.464" y1="420.5928" x2="1582.8209" y2="726.6701" gradientTransform="matrix(1 0 0 -1 0 1208)">
			<stop  offset="0" style="stop-color:#FBAE17"/>
			<stop  offset="1" style="stop-color:#F16322"/>
		</linearGradient>
		<path class="st8" d="M1499.7,566.2c0.4,1.9,0.8,3.8,1.1,5.8C1500.4,570,1500.1,568,1499.7,566.2z"/>
		
			<linearGradient id="SVGID_9_" gradientUnits="userSpaceOnUse" x1="1273.5895" y1="638.965" x2="1505.4296" y2="638.965" gradientTransform="matrix(1 0 0 -1 0 1208)">
			<stop  offset="0" style="stop-color:#FBAE17"/>
			<stop  offset="1" style="stop-color:#F16322"/>
		</linearGradient>
		<path class="st9" d="M1499.7,566.2c0.4,1.9,0.8,3.8,1.1,5.8C1500.4,570,1500.1,568,1499.7,566.2z"/>
		
			<linearGradient id="SVGID_10_" gradientUnits="userSpaceOnUse" x1="1290.9398" y1="423.9128" x2="1579.2971" y2="729.9901" gradientTransform="matrix(1 0 0 -1 0 1208)">
			<stop  offset="0" style="stop-color:#FBAE17"/>
			<stop  offset="1" style="stop-color:#F16322"/>
		</linearGradient>
		<path class="st10" d="M1498.3,560.5c0.5,1.8,0.9,3.7,1.3,5.5C1499.2,564.2,1498.8,562.3,1498.3,560.5z"/>
		
			<linearGradient id="SVGID_11_" gradientUnits="userSpaceOnUse" x1="1273.5895" y1="644.725" x2="1505.4296" y2="644.725" gradientTransform="matrix(1 0 0 -1 0 1208)">
			<stop  offset="0" style="stop-color:#FBAE17"/>
			<stop  offset="1" style="stop-color:#F16322"/>
		</linearGradient>
		<path class="st11" d="M1498.3,560.5c0.5,1.8,0.9,3.7,1.3,5.5C1499.2,564.2,1498.8,562.3,1498.3,560.5z"/>
		
			<linearGradient id="SVGID_12_" gradientUnits="userSpaceOnUse" x1="1428.6925" y1="502.4037" x2="1503.8322" y2="683.5549" gradientTransform="matrix(1 0 0 -1 0 1208)">
			<stop  offset="0" style="stop-color:#FBAE17"/>
			<stop  offset="1" style="stop-color:#F16322"/>
		</linearGradient>
		<path class="st12" d="M1493.9,547.2c0.1,0.4,0.3,0.8,0.5,1.2C1494.2,548,1494.1,547.6,1493.9,547.2z"/>
		
			<linearGradient id="SVGID_13_" gradientUnits="userSpaceOnUse" x1="1273.5895" y1="660.245" x2="1505.4296" y2="660.245" gradientTransform="matrix(1 0 0 -1 0 1208)">
			<stop  offset="0" style="stop-color:#FBAE17"/>
			<stop  offset="1" style="stop-color:#F16322"/>
		</linearGradient>
		<path class="st13" d="M1493.9,547.2c0.1,0.4,0.3,0.8,0.5,1.2C1494.2,548,1494.1,547.6,1493.9,547.2z"/>
		
			<linearGradient id="SVGID_14_" gradientUnits="userSpaceOnUse" x1="1424.5442" y1="504.1245" x2="1499.6838" y2="685.2755" gradientTransform="matrix(1 0 0 -1 0 1208)">
			<stop  offset="0" style="stop-color:#FBAE17"/>
			<stop  offset="1" style="stop-color:#F16322"/>
		</linearGradient>
		<path class="st14" d="M1491.7,541.9C1491.7,541.9,1491.7,542,1491.7,541.9C1491.7,541.9,1491.7,541.9,1491.7,541.9z"/>
		
			<linearGradient id="SVGID_15_" gradientUnits="userSpaceOnUse" x1="1273.5895" y1="666.0601" x2="1433.7457" y2="666.0601" gradientTransform="matrix(1 0 0 -1 0 1208)">
			<stop  offset="0" style="stop-color:#FBAE17"/>
			<stop  offset="1" style="stop-color:#F16322"/>
		</linearGradient>
		<path class="st15" d="M1491.7,541.9C1491.7,541.9,1491.7,542,1491.7,541.9C1491.7,541.9,1491.7,541.9,1491.7,541.9z"/>
		
			<linearGradient id="SVGID_16_" gradientUnits="userSpaceOnUse" x1="1432.6121" y1="500.7779" x2="1507.752" y2="681.929" gradientTransform="matrix(1 0 0 -1 0 1208)">
			<stop  offset="0" style="stop-color:#FBAE17"/>
			<stop  offset="1" style="stop-color:#F16322"/>
		</linearGradient>
		<path class="st16" d="M1496.3,553.6C1496.3,553.7,1496.3,553.7,1496.3,553.6C1496.3,553.7,1496.3,553.6,1496.3,553.6z"/>
		
			<linearGradient id="SVGID_17_" gradientUnits="userSpaceOnUse" x1="1273.5895" y1="654.34" x2="1492.1744" y2="654.34" gradientTransform="matrix(1 0 0 -1 0 1208)">
			<stop  offset="0" style="stop-color:#FBAE17"/>
			<stop  offset="1" style="stop-color:#F16322"/>
		</linearGradient>
		<path class="st17" d="M1496.3,553.6C1496.3,553.7,1496.3,553.7,1496.3,553.6C1496.3,553.7,1496.3,553.6,1496.3,553.6z"/>
		
			<linearGradient id="SVGID_18_" gradientUnits="userSpaceOnUse" x1="1439.8689" y1="497.7678" x2="1515.0085" y2="678.919" gradientTransform="matrix(1 0 0 -1 0 1208)">
			<stop  offset="0" style="stop-color:#FBAE17"/>
			<stop  offset="1" style="stop-color:#F16322"/>
		</linearGradient>
		<path class="st18" d="M1499.6,566C1499.7,566.1,1499.7,566.1,1499.6,566C1499.7,566.1,1499.7,566.1,1499.6,566z"/>
		
			<linearGradient id="SVGID_19_" gradientUnits="userSpaceOnUse" x1="1273.5895" y1="641.9" x2="1433.7457" y2="641.9" gradientTransform="matrix(1 0 0 -1 0 1208)">
			<stop  offset="0" style="stop-color:#FBAE17"/>
			<stop  offset="1" style="stop-color:#F16322"/>
		</linearGradient>
		<path class="st19" d="M1499.6,566C1499.7,566.1,1499.7,566.1,1499.6,566C1499.7,566.1,1499.7,566.1,1499.6,566z"/>
		
			<linearGradient id="SVGID_20_" gradientUnits="userSpaceOnUse" x1="1436.364" y1="499.2216" x2="1511.5039" y2="680.3727" gradientTransform="matrix(1 0 0 -1 0 1208)">
			<stop  offset="0" style="stop-color:#FBAE17"/>
			<stop  offset="1" style="stop-color:#F16322"/>
		</linearGradient>
		<path class="st20" d="M1498,559.2c0.1,0.4,0.2,0.9,0.4,1.3C1498.2,560.1,1498.1,559.6,1498,559.2z"/>
		
			<linearGradient id="SVGID_21_" gradientUnits="userSpaceOnUse" x1="1273.5895" y1="648.15" x2="1505.4296" y2="648.15" gradientTransform="matrix(1 0 0 -1 0 1208)">
			<stop  offset="0" style="stop-color:#FBAE17"/>
			<stop  offset="1" style="stop-color:#F16322"/>
		</linearGradient>
		<path class="st21" d="M1498,559.2c0.1,0.4,0.2,0.9,0.4,1.3C1498.2,560.1,1498.1,559.6,1498,559.2z"/>
		
			<linearGradient id="SVGID_22_" gradientUnits="userSpaceOnUse" x1="1396.9635" y1="480.5723" x2="1396.9635" y2="684.5614" gradientTransform="matrix(1 0 0 -1 0 1208)">
			<stop  offset="0" style="stop-color:#FBAE17"/>
			<stop  offset="1" style="stop-color:#F16322"/>
		</linearGradient>
		<path class="st22" d="M1389.5,477c-0.8,0-1.6,0-2.4,0.1c-1.4,0-2.8-0.1-4.3-0.1h-78.9h-14.9l0.8,5.7c2,11.9,7.3,22.6,14.9,31.2
			c11.6,13.2,28.7,21.6,47.7,21.6c0.2,0,27.3,0.1,27.3,0.1c2,0,8.4,0.1,9.7,0.1c11.6,0,22.4,3.5,31.4,9.4
			c15.6,10.2,25.8,27.8,25.8,47.8c0,20.3-10.6,38.1-26.4,48.2c-8.9,5.7-19.4,9-30.8,9c-1.2,0-7.5,0.1-9.5,0.1c0,0-27.1,0.1-27.3,0.1
			c-19.1,0-36.2,8.4-47.8,21.7c-6.8,7.8-11.8,17.3-14.1,27.7c0,0,0,0,0,0c0,0,0,0,0,0c0,0-2.2,9-2.2,9s100.2,0,101,0
			c64,0,115.9-51.9,115.9-115.9S1453.5,477,1389.5,477z"/>
		
			<linearGradient id="SVGID_23_" gradientUnits="userSpaceOnUse" x1="1330.2133" y1="563.3" x2="1330.2133" y2="563.3" gradientTransform="matrix(1 0 0 -1 0 1208)">
			<stop  offset="0" style="stop-color:#FBAE17"/>
			<stop  offset="1" style="stop-color:#F16322"/>
		</linearGradient>
		<path class="st23" d="M1330.2,644.7L1330.2,644.7L1330.2,644.7z"/>
		
			<linearGradient id="SVGID_24_" gradientUnits="userSpaceOnUse" x1="1330.2133" y1="563.3" x2="1330.2133" y2="563.3" gradientTransform="matrix(1 0 0 -1 0 1208)">
			<stop  offset="0" style="stop-color:#FBAE17"/>
			<stop  offset="1" style="stop-color:#F16322"/>
		</linearGradient>
		<path class="st24" d="M1330.2,644.7L1330.2,644.7L1330.2,644.7z"/>
		
			<linearGradient id="SVGID_25_" gradientUnits="userSpaceOnUse" x1="1228.1832" y1="565.9126" x2="1228.1832" y2="709.5744" gradientTransform="matrix(1 0 0 -1 0 1208)">
			<stop  offset="0" style="stop-color:#FBAE17"/>
			<stop  offset="1" style="stop-color:#F16322"/>
		</linearGradient>
		<path class="st25" d="M1257.4,593c0-4.7,0.1-19.5,0.1-19.5l-0.2-16.2v-14.8c-1.8,0.1-3.6,0.4-5.4,0.7c-0.1,0-0.2,0-0.2,0
			c-0.8,0.1-1.7,0.3-2.5,0.5c-0.4,0.1-0.7,0.1-1.1,0.2c-1.4,0.3-2.7,0.7-4,1.1c-0.3,0.1-0.6,0.2-0.9,0.3c-1,0.3-2,0.7-3,1
			c-0.5,0.2-0.9,0.4-1.4,0.5c-0.8,0.3-1.7,0.7-2.5,1c-0.5,0.2-0.9,0.4-1.4,0.7c-0.8,0.4-1.6,0.8-2.3,1.2c-0.4,0.2-0.9,0.5-1.4,0.7
			c-0.8,0.5-1.6,0.9-2.4,1.4c-0.4,0.2-0.8,0.5-1.1,0.7c-1.1,0.7-2.3,1.5-3.3,2.3l0,0c-1.9,1.4-3.7,2.9-5.4,4.5
			c-0.1,0.1-0.2,0.2-0.3,0.3c-0.8,0.8-1.6,1.5-2.3,2.3c0,0-0.1,0.1-0.1,0.1c-1.6,1.7-3.1,3.5-4.5,5.3c-0.1,0.1-0.2,0.3-0.3,0.4
			c-0.6,0.8-1.2,1.6-1.8,2.5c-0.1,0.1-0.1,0.2-0.2,0.2c0,0,0,0.1-0.1,0.1c-1.3,1.9-2.4,3.9-3.5,5.9c-0.1,0.2-0.2,0.4-0.3,0.7
			c-0.4,0.8-0.8,1.7-1.2,2.5c-0.1,0.2-0.2,0.4-0.3,0.6c-0.5,1-0.9,2.1-1.3,3.2c0,0,0,0,0,0.1c-0.4,1-0.7,2-1.1,3.1
			c-0.1,0.3-0.2,0.6-0.3,0.9c-0.3,0.8-0.5,1.7-0.7,2.5c-0.1,0.3-0.1,0.6-0.2,0.9c-0.3,1.1-0.5,2.2-0.7,3.3c0,0,0,0.1,0,0.1
			c-0.2,1.1-0.4,2.2-0.5,3.2c0,0.3-0.1,0.7-0.1,1c-0.1,0.8-0.2,1.7-0.2,2.5c0,0.3-0.1,0.7-0.1,1c-0.1,1.2-0.1,2.3-0.1,3.5
			c0,0.2,0,10,0.1,16.1h0c0,8.9-0.1,55.9-0.1,55.9l0.2,16.2v14.8c1.8-0.1,3.6-0.4,5.4-0.7c0.1,0,0.2,0,0.2,0
			c0.8-0.1,1.7-0.3,2.5-0.5c0.4-0.1,0.7-0.1,1.1-0.2c1.4-0.3,2.7-0.7,4.1-1.1c0.3-0.1,0.6-0.2,0.9-0.3c1-0.3,2-0.7,3-1
			c0.5-0.2,0.9-0.4,1.4-0.5c0.8-0.3,1.7-0.7,2.5-1c0.5-0.2,0.9-0.4,1.4-0.7c0.8-0.4,1.6-0.8,2.3-1.2c0.4-0.2,0.9-0.5,1.4-0.7
			c0.8-0.5,1.6-0.9,2.4-1.4c0.4-0.2,0.8-0.5,1.1-0.7c1.1-0.7,2.3-1.5,3.3-2.3l0,0c1.9-1.4,3.7-2.9,5.4-4.5c0.1-0.1,0.2-0.2,0.3-0.3
			c0.8-0.8,1.6-1.5,2.3-2.3c0,0,0.1-0.1,0.1-0.1c1.6-1.7,3.1-3.5,4.5-5.3c0.1-0.1,0.2-0.3,0.3-0.4c0.6-0.8,1.2-1.6,1.8-2.5
			c0.1-0.1,0.1-0.2,0.2-0.2c0,0,0-0.1,0.1-0.1c1.3-1.9,2.4-3.9,3.5-5.9c0.1-0.2,0.2-0.4,0.3-0.7c0.4-0.8,0.8-1.7,1.2-2.5
			c0.1-0.2,0.2-0.4,0.3-0.6c0.5-1,0.9-2.1,1.3-3.2c0,0,0,0,0-0.1c0.4-1,0.7-2,1.1-3.1c0.1-0.3,0.2-0.6,0.3-0.9
			c0.3-0.8,0.5-1.7,0.7-2.5c0.1-0.3,0.1-0.6,0.2-0.9c0.3-1.1,0.5-2.2,0.7-3.3c0,0,0-0.1,0-0.1c0.2-1.1,0.4-2.2,0.5-3.2
			c0-0.3,0.1-0.7,0.1-1c0.1-0.8,0.2-1.7,0.2-2.5c0-0.3,0.1-0.7,0.1-1c0.1-1.2,0.1-2.3,0.1-3.5C1257.5,645.4,1257.5,599.1,1257.4,593
			L1257.4,593L1257.4,593z"/>
		
			<linearGradient id="SVGID_26_" gradientUnits="userSpaceOnUse" x1="1317.8186" y1="561.1623" x2="1317.8186" y2="694.6074" gradientTransform="matrix(1 0 0 -1 0 1208)">
			<stop  offset="0" style="stop-color:#F16322"/>
			<stop  offset="1" style="stop-color:#FBAE17"/>
		</linearGradient>
		<path class="st26" d="M1347,569.2v-14.8c-1.8,0.1-3.6,0.4-5.4,0.7c-0.1,0-0.2,0-0.2,0c-0.8,0.1-1.7,0.3-2.5,0.5
			c-0.4,0.1-0.7,0.1-1.1,0.2c-1.4,0.3-2.7,0.7-4.1,1.1c-0.3,0.1-0.6,0.2-0.9,0.3c-1,0.3-2,0.7-3,1c-0.5,0.2-0.9,0.4-1.4,0.5
			c-0.8,0.3-1.7,0.7-2.5,1c-0.5,0.2-0.9,0.4-1.4,0.7c-0.8,0.4-1.6,0.8-2.3,1.2c-0.4,0.2-0.9,0.5-1.4,0.7c-0.8,0.5-1.6,0.9-2.4,1.4
			c-0.4,0.2-0.8,0.5-1.1,0.7c-1.1,0.7-2.3,1.5-3.3,2.3l0,0c-1.9,1.4-3.7,2.9-5.4,4.5c-0.1,0.1-0.2,0.2-0.3,0.3
			c-0.8,0.8-1.6,1.5-2.3,2.3c0,0-0.1,0.1-0.1,0.1c-1.6,1.7-3.1,3.5-4.5,5.3c-0.1,0.1-0.2,0.3-0.3,0.4c-0.6,0.8-1.2,1.6-1.8,2.5
			c-0.1,0.1-0.1,0.2-0.2,0.2c0,0,0,0.1-0.1,0.1c-1.3,1.9-2.4,3.9-3.5,5.9c-0.1,0.2-0.2,0.4-0.3,0.7c-0.4,0.8-0.8,1.7-1.2,2.5
			c-0.1,0.2-0.2,0.4-0.3,0.6c-0.5,1-0.9,2.1-1.3,3.2c0,0,0,0,0,0.1c-0.4,1-0.7,2-1.1,3.1c-0.1,0.3-0.2,0.6-0.3,0.9
			c-0.3,0.8-0.5,1.7-0.7,2.5c-0.1,0.3-0.1,0.6-0.2,0.9c-0.3,1.1-0.5,2.2-0.7,3.3c0,0,0,0.1,0,0.1c-0.2,1.1-0.4,2.2-0.5,3.2
			c0,0.3-0.1,0.7-0.1,1c-0.1,0.8-0.2,1.7-0.2,2.5c0,0.3-0.1,0.7-0.1,1c-0.1,1.2-0.1,2.3-0.1,3.5c0,0.2,0-1.8,0.1,4.3h0
			c0,8.9-0.1,55.9-0.1,55.9l0.2,16.2v14.8c1.8-0.1,3.6-0.4,5.4-0.7c0.1,0,0.2,0,0.2,0c0.8-0.1,1.7-0.3,2.5-0.5
			c0.4-0.1,0.7-0.1,1.1-0.2c1.4-0.3,2.7-0.7,4-1.1c0.3-0.1,0.6-0.2,0.9-0.3c1-0.3,2-0.7,3-1c0.5-0.2,0.9-0.4,1.4-0.5
			c0.8-0.3,1.7-0.7,2.5-1c0.5-0.2,0.9-0.4,1.4-0.7c0.8-0.4,1.6-0.8,2.3-1.2c0.4-0.2,0.9-0.5,1.4-0.7c0.8-0.5,1.6-0.9,2.4-1.4
			c0.4-0.2,0.8-0.5,1.1-0.7c1.1-0.7,2.3-1.5,3.3-2.3l0,0c1.9-1.4,3.7-2.9,5.4-4.5c0.1-0.1,0.2-0.2,0.3-0.3c0.8-0.8,1.6-1.5,2.3-2.3
			c0,0,0.1-0.1,0.1-0.1c1.6-1.7,3.1-3.5,4.5-5.3c0.1-0.1,0.2-0.3,0.3-0.4c0.6-0.8,1.2-1.6,1.8-2.5c0.1-0.1,0.1-0.2,0.2-0.2
			c0,0,0-0.1,0.1-0.1c1.3-1.9,2.4-3.9,3.5-5.9c0.1-0.2,0.2-0.4,0.3-0.7c0.4-0.8,0.8-1.7,1.2-2.5c0.1-0.2,0.2-0.4,0.3-0.6
			c0.5-1,0.9-2.1,1.3-3.2c0,0,0,0,0-0.1c0.4-1,0.7-2,1.1-3.1c0.1-0.3,0.2-0.6,0.3-0.9c0.3-0.8,0.5-1.7,0.7-2.5
			c0.1-0.3,0.1-0.6,0.2-0.9c0.3-1.1,0.5-2.2,0.7-3.3c0,0,0-0.1,0-0.1c0.2-1.1,0.4-2.2,0.5-3.2c0-0.3,0.1-0.7,0.1-1
			c0.1-0.8,0.2-1.7,0.2-2.5c0-0.3,0.1-0.7,0.1-1c0.1-1.2,0.1-2.3,0.1-3.5C1347.2,645.4,1347,569.2,1347,569.2z"/>
		<g>
			<g>
				
					<linearGradient id="SVGID_27_" gradientUnits="userSpaceOnUse" x1="1228.1985" y1="565.9126" x2="1228.1985" y2="709.5744" gradientTransform="matrix(1 0 0 -1 0 1208)">
					<stop  offset="0" style="stop-color:#FBAE17"/>
					<stop  offset="1" style="stop-color:#F16322"/>
				</linearGradient>
				<path id="SVGID_59_" class="st27" d="M1226.9,477.1c-16.3,0.7-29,15-28.3,31.9c0.7,16.9,14.5,30.1,30.8,29.5s29-15,28.3-31.9
					C1257,489.6,1243.2,476.4,1226.9,477.1"/>
			</g>
			<g>
				<defs>
					<path id="SVGID_28_" d="M1226.9,477.1c-16.3,0.7-29,15-28.3,31.9c0.7,16.9,14.5,30.1,30.8,29.5s29-15,28.3-31.9
						C1257,489.6,1243.2,476.4,1226.9,477.1"/>
				</defs>
				<clipPath id="SVGID_29_">
					<use xlink:href="#SVGID_28_"  style="overflow:visible;"/>
				</clipPath>
				
					<linearGradient id="SVGID_30_" gradientUnits="userSpaceOnUse" x1="1228.1932" y1="565.9126" x2="1228.1932" y2="709.5744" gradientTransform="matrix(1 0 0 -1 0 1208)">
					<stop  offset="0" style="stop-color:#FBAE17"/>
					<stop  offset="1" style="stop-color:#F16322"/>
				</linearGradient>
				<rect x="1198" y="476.4" class="st28" width="60.5" height="62.7"/>
			</g>
		</g>
	</g>
	<g>
		<path class="st29" d="M935.4,479.2c-0.8,3.7-1.2,7-1.3,10.2c-0.2,11.2,3.4,20.7,10.8,28.2c7.3,7.4,16.9,11.2,28.6,11.2h36.3
			l-41.4,179.8h2.5c13.6,0,26.4-4.8,38.1-14.3c11.7-9.5,19.2-21.2,22.2-34.7l30.3-130.8h85.7l0.4-1.6c0.7-3.4,1.1-7,1.2-10.5
			c0.2-11.1-3.4-20.5-10.7-27.9c-7.3-7.5-17-11.2-28.7-11.2H935.8L935.4,479.2z"/>
		<path class="st29" d="M473.7,528.8l116.6-0.2c13.4,0,26.1-4.7,37.7-14.1c11.5-9.4,18.8-21.2,22-34.5l0.6-2.5l-164.9-0.2l-0.1,0.3
			h-2.9c-13.4,0-26.1,4.8-37.7,14.2c-11.2,9.1-18.5,20.2-21.1,29.3h-0.1l-43.2,187.4h2.5c13.6,0,26.4-4.8,38-14.3
			c11.7-9.5,19.2-21.2,22.2-34.7l9.4-40.7l85.8,0.1c13.4,0,26.4-5,38.1-14.5c11.7-9.4,19.2-21,22.2-34.5l0.5-2.5l-134.6-0.1
			L473.7,528.8z"/>
		<path class="st29" d="M888.8,488.7c-7.4-7.5-17.1-11.2-28.8-11.2l-164.6-0.2l-53.1,231h0.1l-0.1,0.3h2.5c13.6,0,26.4-4.8,38-14.3
			c11.7-9.5,19.2-21.2,22.2-34.7l9.6-41.2l113.9,0.1c13.4,0,25.3-1.6,36.9-10.9c11.5-9.4,19.8-24.1,23-37.8l10-42.8
			c0.7-3.4,1.1-6.9,1.2-10.5C899.9,505.5,896.3,496.1,888.8,488.7z M837.5,567.3l-111-0.1l8.9-38.7l111.1,0.1L837.5,567.3z"/>
	</g>
</g>
</svg>
