<svg xmlns="http://www.w3.org/2000/svg" xmlns:xlink="http://www.w3.org/1999/xlink" viewBox="0 0 1124.76 236.78"><defs><style>.cls-1,.cls-27,.cls-29{fill:url(#linear-gradient);}.cls-1{clip-rule:evenodd;}.cls-2{isolation:isolate;}.cls-3{mix-blend-mode:overlay;fill:url(#linear-gradient-2);}.cls-4{fill:url(#linear-gradient-3);}.cls-5{fill:url(#linear-gradient-4);}.cls-6{fill:url(#linear-gradient-5);}.cls-7{fill:url(#linear-gradient-6);}.cls-8{fill:url(#linear-gradient-7);}.cls-9{fill:url(#linear-gradient-8);}.cls-10{fill:url(#linear-gradient-9);}.cls-11{fill:url(#linear-gradient-10);}.cls-12{fill:url(#linear-gradient-11);}.cls-13{fill:url(#linear-gradient-12);}.cls-14{fill:url(#linear-gradient-13);}.cls-15{fill:url(#linear-gradient-14);}.cls-16{fill:url(#linear-gradient-15);}.cls-17{fill:url(#linear-gradient-16);}.cls-18{fill:url(#linear-gradient-17);}.cls-19{fill:url(#linear-gradient-18);}.cls-20{fill:url(#linear-gradient-19);}.cls-21{fill:url(#linear-gradient-20);}.cls-22{fill:url(#linear-gradient-21);}.cls-23{fill:url(#linear-gradient-22);}.cls-24{fill:url(#linear-gradient-23);}.cls-25{fill:url(#linear-gradient-24);}.cls-26{fill:url(#linear-gradient-25);}.cls-28{fill:url(#linear-gradient-27);}.cls-29{fill-rule:evenodd;}.cls-30{clip-path:url(#clip-path);}.cls-31{fill:url(#linear-gradient-29);}.cls-32{fill:#292728;}</style><linearGradient id="linear-gradient" x1="847.53" y1="165.04" x2="847.53" y2="21.38" gradientUnits="userSpaceOnUse"><stop offset="0" stop-color="#fbae17"/><stop offset="1" stop-color="#f16322"/></linearGradient><linearGradient id="linear-gradient-2" x1="934.75" y1="194.5" x2="1005.67" y2="23.51" xlink:href="#linear-gradient"/><linearGradient id="linear-gradient-3" x1="902.21" y1="299.45" x2="1190.57" y2="-6.63" xlink:href="#linear-gradient"/><linearGradient id="linear-gradient-4" x1="892.92" y1="73.93" x2="1124.76" y2="73.93" xlink:href="#linear-gradient"/><linearGradient id="linear-gradient-5" x1="897.68" y1="295.18" x2="1186.04" y2="-10.89" xlink:href="#linear-gradient"/><linearGradient id="linear-gradient-6" x1="892.92" y1="67.52" x2="1124.76" y2="67.52" xlink:href="#linear-gradient"/><linearGradient id="linear-gradient-7" x1="905.89" y1="302.92" x2="1194.25" y2="-3.16" xlink:href="#linear-gradient"/><linearGradient id="linear-gradient-8" x1="892.92" y1="79.4" x2="1124.76" y2="79.4" xlink:href="#linear-gradient"/><linearGradient id="linear-gradient-9" x1="913.8" y1="310.36" x2="1202.15" y2="4.29" xlink:href="#linear-gradient"/><linearGradient id="linear-gradient-10" x1="892.92" y1="91.99" x2="1124.76" y2="91.99" xlink:href="#linear-gradient"/><linearGradient id="linear-gradient-11" x1="910.27" y1="307.05" x2="1198.63" y2="0.97" xlink:href="#linear-gradient"/><linearGradient id="linear-gradient-12" x1="892.92" y1="86.23" x2="1124.76" y2="86.23" xlink:href="#linear-gradient"/><linearGradient id="linear-gradient-13" x1="1048.02" y1="228.55" x2="1123.16" y2="47.4" xlink:href="#linear-gradient"/><linearGradient id="linear-gradient-14" x1="892.92" y1="70.71" x2="1124.76" y2="70.71" xlink:href="#linear-gradient"/><linearGradient id="linear-gradient-15" x1="1043.88" y1="226.83" x2="1119.02" y2="45.68" xlink:href="#linear-gradient"/><linearGradient id="linear-gradient-16" x1="892.92" y1="64.89" x2="1053.59" y2="64.89" xlink:href="#linear-gradient"/><linearGradient id="linear-gradient-17" x1="1051.94" y1="230.18" x2="1127.08" y2="49.03" xlink:href="#linear-gradient"/><linearGradient id="linear-gradient-18" x1="892.92" y1="76.61" x2="1111.51" y2="76.61" xlink:href="#linear-gradient"/><linearGradient id="linear-gradient-19" x1="1059.2" y1="233.19" x2="1134.34" y2="52.04" xlink:href="#linear-gradient"/><linearGradient id="linear-gradient-20" x1="892.92" y1="89.06" x2="1075.08" y2="89.06" xlink:href="#linear-gradient"/><linearGradient id="linear-gradient-21" x1="1055.69" y1="231.73" x2="1130.83" y2="50.58" xlink:href="#linear-gradient"/><linearGradient id="linear-gradient-22" x1="892.92" y1="82.8" x2="1124.76" y2="82.8" xlink:href="#linear-gradient"/><linearGradient id="linear-gradient-23" x1="1016.3" y1="250.38" x2="1016.3" y2="46.4" xlink:href="#linear-gradient"/><linearGradient id="linear-gradient-24" x1="949.54" y1="168.31" x2="949.54" y2="168.31" xlink:href="#linear-gradient"/><linearGradient id="linear-gradient-25" x1="949.07" y1="168.31" x2="950.01" y2="168.31" xlink:href="#linear-gradient"/><linearGradient id="linear-gradient-27" x1="937.18" y1="169.79" x2="937.18" y2="36.35" gradientUnits="userSpaceOnUse"><stop offset="0" stop-color="#f16322"/><stop offset="1" stop-color="#fbae17"/></linearGradient><clipPath id="clip-path" transform="translate(0 0.65)"><path class="cls-1" d="M846.25,0C829.94.7,817.3,15,818,31.94s14.49,30.15,30.8,29.47,29-15,28.25-31.91S862.56-.65,846.25,0"/></clipPath><linearGradient id="linear-gradient-29" x1="847.53" y1="165.69" x2="847.53" y2="22.03" xlink:href="#linear-gradient"/></defs><g class="cls-2"><g id="Layer_2" data-name="Layer 2"><g id="Layer_1-2" data-name="Layer 1"><path class="cls-3" d="M917.49,236.11v0l0-.13Z" transform="translate(0 0.65)"/><path class="cls-4" d="M1113.72,71.3c.67,1.73,1.31,3.49,1.9,5.27C1115,74.79,1114.39,73,1113.72,71.3Z" transform="translate(0 0.65)"/><path class="cls-5" d="M1113.72,71.3c.67,1.73,1.31,3.49,1.9,5.27C1115,74.79,1114.39,73,1113.72,71.3Z" transform="translate(0 0.65)"/><path class="cls-6" d="M1111.06,64.91c.78,1.71,1.51,3.46,2.21,5.22C1112.57,68.37,1111.84,66.62,1111.06,64.91Z" transform="translate(0 0.65)"/><path class="cls-7" d="M1111.06,64.91c.78,1.71,1.51,3.46,2.21,5.22C1112.57,68.37,1111.84,66.62,1111.06,64.91Z" transform="translate(0 0.65)"/><path class="cls-8" d="M1115.65,76.65c.59,1.81,1.13,3.65,1.64,5.5C1116.78,80.3,1116.24,78.46,1115.65,76.65Z" transform="translate(0 0.65)"/><path class="cls-9" d="M1115.65,76.65c.59,1.81,1.13,3.65,1.64,5.5C1116.78,80.3,1116.24,78.46,1115.65,76.65Z" transform="translate(0 0.65)"/><path class="cls-10" d="M1119,89.11c.4,1.89.74,3.82,1.06,5.77C1119.74,92.93,1119.4,91,1119,89.11Z" transform="translate(0 0.65)"/><path class="cls-11" d="M1119,89.11c.4,1.89.74,3.82,1.06,5.77C1119.74,92.93,1119.4,91,1119,89.11Z" transform="translate(0 0.65)"/><path class="cls-12" d="M1117.64,83.45c.48,1.83.93,3.68,1.33,5.56C1118.57,87.13,1118.12,85.28,1117.64,83.45Z" transform="translate(0 0.65)"/><path class="cls-13" d="M1117.64,83.45c.48,1.83.93,3.68,1.33,5.56C1118.57,87.13,1118.12,85.28,1117.64,83.45Z" transform="translate(0 0.65)"/><path class="cls-14" d="M1113.27,70.13l.45,1.17Z" transform="translate(0 0.65)"/><path class="cls-15" d="M1113.27,70.13l.45,1.17Z" transform="translate(0 0.65)"/><path class="cls-16" d="M1111,64.87l0,0Z" transform="translate(0 0.65)"/><path class="cls-17" d="M1111,64.87l0,0Z" transform="translate(0 0.65)"/><path class="cls-18" d="M1115.62,76.57l0,.08Z" transform="translate(0 0.65)"/><path class="cls-19" d="M1115.62,76.57l0,.08Z" transform="translate(0 0.65)"/><path class="cls-20" d="M1119,89l0,.1Z" transform="translate(0 0.65)"/><path class="cls-21" d="M1119,89l0,.1Z" transform="translate(0 0.65)"/><path class="cls-22" d="M1117.29,82.15c.12.43.24.87.35,1.3C1117.53,83,1117.41,82.59,1117.29,82.15Z" transform="translate(0 0.65)"/><path class="cls-23" d="M1117.29,82.15c.12.43.24.87.35,1.3C1117.53,83,1117.41,82.59,1117.29,82.15Z" transform="translate(0 0.65)"/><path class="cls-24" d="M1008.84,0c-.81,0-1.61,0-2.42.06-1.42,0-2.84-.06-4.28-.06H908.4l.77,5.66a63.26,63.26,0,0,0,14.92,31.21A63.35,63.35,0,0,0,971.8,58.48l27.34.11c2,0,8.43.12,9.7.12a57.21,57.21,0,0,1,0,114.42c-1.23,0-7.49.12-9.48.12l-27.34.11a63.62,63.62,0,0,0-62,49.45v.06l-2.21,9h101a115.92,115.92,0,0,0,0-231.84Z" transform="translate(0 0.65)"/><polygon class="cls-25" points="949.54 168.31 949.54 168.31 949.54 168.31 949.54 168.31"/><polygon class="cls-26" points="949.54 168.31 949.54 168.31 949.54 168.31 949.54 168.31"/><path class="cls-27" d="M876.76,115.92c0-4.74.1-19.47.1-19.47l-.19-16.15V65.51c-1.83.14-3.64.39-5.43.68a2,2,0,0,0-.23,0c-.84.14-1.67.33-2.5.5-.35.07-.7.13-1,.21-1.36.32-2.71.67-4,1.07-.31.09-.6.21-.9.3-1,.33-2,.67-3,1-.46.17-.91.36-1.36.54-.84.34-1.66.68-2.48,1l-1.42.67c-.79.38-1.56.78-2.33,1.19-.46.24-.91.48-1.35.73-.81.46-1.61.94-2.4,1.43l-1.11.69c-1.14.75-2.26,1.52-3.34,2.33h0a65,65,0,0,0-5.4,4.53l-.29.28c-.8.76-1.58,1.53-2.34,2.33a.94.94,0,0,1-.1.1,64.94,64.94,0,0,0-4.49,5.31l-.33.43c-.6.82-1.19,1.65-1.76,2.49l-.17.24-.06.1a64,64,0,0,0-3.46,5.89c-.12.22-.22.44-.33.66-.42.82-.82,1.66-1.2,2.51-.09.2-.19.41-.28.62-.46,1-.89,2.1-1.3,3.18a.64.64,0,0,1,0,.07c-.38,1-.73,2.06-1,3.1-.09.28-.18.57-.26.86-.25.83-.48,1.67-.7,2.51-.07.29-.15.58-.22.87-.26,1.1-.5,2.22-.71,3.34,0,.05,0,.1,0,.14-.19,1.07-.35,2.15-.49,3.24,0,.33-.08.67-.11,1-.1.84-.17,1.69-.23,2.54,0,.34,0,.68-.07,1-.07,1.16-.11,2.32-.11,3.5,0,.16,0,10,.06,16.11h0c0,8.91-.11,56-.11,56l.19,16.15v14.79c1.84-.14,3.64-.39,5.43-.69H824c.84-.15,1.67-.33,2.5-.51.35-.07.7-.13,1.05-.21,1.37-.31,2.71-.67,4-1.07.31-.09.6-.2.9-.3,1-.32,2-.66,3-1,.46-.17.91-.36,1.36-.54.84-.33,1.67-.68,2.48-1.05.48-.21,1-.44,1.42-.66.79-.38,1.57-.78,2.34-1.19.45-.24.9-.48,1.34-.73.82-.46,1.61-.94,2.4-1.44.37-.23.75-.45,1.11-.69,1.14-.74,2.26-1.51,3.34-2.32h0a61.63,61.63,0,0,0,5.4-4.53l.3-.28c.79-.75,1.57-1.53,2.33-2.33a.94.94,0,0,0,.1-.1,63.3,63.3,0,0,0,4.49-5.31l.33-.43c.6-.81,1.19-1.64,1.76-2.49,0-.08.11-.15.17-.23l.06-.1a65.58,65.58,0,0,0,3.47-5.9l.33-.65c.41-.83.81-1.66,1.19-2.51.1-.21.19-.41.28-.62.46-1.05.9-2.11,1.3-3.19a.14.14,0,0,0,0-.07c.38-1,.73-2,1.06-3.09.09-.29.17-.58.26-.86.24-.83.47-1.67.69-2.51.07-.29.15-.58.22-.87.26-1.11.5-2.22.71-3.35,0,0,0-.09,0-.14.19-1.07.35-2.15.49-3.23l.12-1c.09-.85.16-1.69.22-2.54,0-.35.06-.69.08-1,.06-1.16.1-2.33.1-3.5,0-.16,0-46.46-.06-52.59Z" transform="translate(0 0.65)"/><path class="cls-28" d="M966.32,92.12V77.33c-1.83.15-3.64.4-5.43.69a1.79,1.79,0,0,0-.23,0c-.84.14-1.67.32-2.5.5l-1,.21c-1.36.32-2.71.67-4,1.07-.31.09-.6.2-.9.3-1,.33-2,.67-3,1-.46.17-.91.36-1.36.54-.84.34-1.67.68-2.48,1l-1.42.67c-.79.38-1.57.77-2.33,1.18l-1.35.74c-.81.46-1.61.94-2.4,1.43l-1.11.69c-1.14.75-2.26,1.52-3.34,2.33h0a63.44,63.44,0,0,0-5.4,4.53l-.3.28c-.79.76-1.57,1.53-2.33,2.33l-.1.1a64.94,64.94,0,0,0-4.49,5.31l-.33.43c-.6.82-1.19,1.65-1.76,2.49l-.17.24-.06.09a63.2,63.2,0,0,0-3.46,5.9l-.34.65c-.41.83-.81,1.67-1.19,2.52-.09.2-.19.41-.28.62-.46,1-.9,2.1-1.3,3.18,0,0,0,.05,0,.07-.38,1-.73,2-1,3.1-.09.28-.18.57-.26.86-.25.83-.48,1.66-.7,2.51-.07.29-.15.58-.22.87-.26,1.1-.5,2.21-.71,3.34,0,0,0,.1,0,.14-.19,1.07-.35,2.15-.49,3.24,0,.33-.08.67-.11,1-.1.84-.17,1.69-.23,2.54,0,.34-.06.68-.07,1-.07,1.16-.11,2.32-.11,3.49,0,.17,0-1.83.06,4.29H908c0,8.91-.11,56-.11,56l.19,16.15v14.79c1.83-.14,3.64-.39,5.43-.69h.23c.84-.15,1.67-.33,2.5-.51l1-.21c1.36-.31,2.71-.67,4-1.07.31-.09.6-.2.9-.3,1-.32,2-.66,3-1,.46-.17.91-.36,1.36-.54.84-.33,1.67-.68,2.48-1.05.48-.21,1-.44,1.42-.66.79-.38,1.57-.78,2.33-1.19.46-.24.91-.48,1.35-.73q1.22-.69,2.4-1.44l1.11-.69c1.14-.74,2.26-1.51,3.34-2.32h0a61.63,61.63,0,0,0,5.4-4.53l.3-.28c.79-.75,1.57-1.53,2.33-2.33a.94.94,0,0,0,.1-.1,63.3,63.3,0,0,0,4.49-5.31l.33-.43c.6-.81,1.19-1.64,1.76-2.49,0-.08.11-.15.17-.23l.06-.1a63.2,63.2,0,0,0,3.46-5.9c.12-.21.23-.43.34-.65.41-.83.81-1.66,1.19-2.51.09-.21.19-.41.28-.62.46-1.05.9-2.11,1.3-3.19a.64.64,0,0,0,0-.07q.57-1.53,1.05-3.09c.09-.29.18-.58.26-.86.25-.83.48-1.67.7-2.51.07-.29.15-.58.22-.87.26-1.11.5-2.22.71-3.35,0,0,0-.09,0-.14.19-1.07.35-2.15.49-3.23,0-.34.08-.68.11-1,.1-.85.17-1.69.23-2.54,0-.35.06-.69.07-1,.07-1.16.11-2.33.11-3.5C966.51,168.35,966.32,92.12,966.32,92.12Z" transform="translate(0 0.65)"/><path class="cls-29" d="M846.25,0C829.94.7,817.3,15,818,31.94s14.49,30.15,30.8,29.47,29-15,28.25-31.91S862.56-.65,846.25,0" transform="translate(0 0.65)"/><g class="cls-30"><rect class="cls-31" x="817.3" width="60.46" height="62.74"/></g><path class="cls-32" d="M554.74,2.2a53.25,53.25,0,0,0-1.26,10.21c-.18,11.23,3.42,20.72,10.75,28.23s16.94,11.17,28.65,11.17h36.33L587.83,231.56h2.47c13.57,0,26.42-4.8,38.07-14.35s19.16-21.2,22.16-34.66L680.86,51.81h85.7l.37-1.62a61.4,61.4,0,0,0,1.2-10.51c.18-11.11-3.43-20.48-10.69-27.87S740.44.58,728.73.58H555.1Z" transform="translate(0 0.65)"/><path class="cls-32" d="M93,51.75l116.63-.18c13.45,0,26.13-4.75,37.66-14.12a62.82,62.82,0,0,0,22-34.53l.6-2.46L105,.28l-.12.3H102c-13.46,0-26.07,4.8-37.66,14.23C53.15,23.94,45.82,35,43.24,44.12h-.06L0,231.56H2.46c13.58,0,26.43-4.8,38-14.35S59.7,196,62.7,182.55l9.43-40.72,85.82.06c13.45,0,26.37-5,38.08-14.47s19.16-21,22.16-34.47l.54-2.46L84.08,90.37Z" transform="translate(0 0.65)"/><path class="cls-32" d="M508.14,11.69C500.75,4.24,491.08.46,479.37.46L314.81.28l-53.15,231h.06l-.06.3h2.47c13.57,0,26.36-4.8,38-14.35s19.22-21.2,22.22-34.66l9.55-41.2,113.93.12c13.39,0,25.35-1.56,36.94-10.87s19.76-24.14,23-37.77l10-42.82A54.83,54.83,0,0,0,519,39.5C519.19,28.45,515.59,19.08,508.14,11.69ZM456.79,90.31l-111-.06,8.95-38.74,111.05.12Z" transform="translate(0 0.65)"/></g></g></g></svg>