<svg xmlns="http://www.w3.org/2000/svg" xmlns:xlink="http://www.w3.org/1999/xlink" viewBox="0 0 343.62 287.42"><defs><style>.cls-1,.cls-28,.cls-30{fill:url(#linear-gradient);}.cls-1{clip-rule:evenodd;}.cls-2{isolation:isolate;}.cls-3{fill:#292728;}.cls-4{mix-blend-mode:overlay;fill:url(#linear-gradient-2);}.cls-5{fill:url(#linear-gradient-3);}.cls-6{fill:url(#linear-gradient-4);}.cls-7{fill:url(#linear-gradient-5);}.cls-8{fill:url(#linear-gradient-6);}.cls-9{fill:url(#linear-gradient-7);}.cls-10{fill:url(#linear-gradient-8);}.cls-11{fill:url(#linear-gradient-9);}.cls-12{fill:url(#linear-gradient-10);}.cls-13{fill:url(#linear-gradient-11);}.cls-14{fill:url(#linear-gradient-12);}.cls-15{fill:url(#linear-gradient-13);}.cls-16{fill:url(#linear-gradient-14);}.cls-17{fill:url(#linear-gradient-15);}.cls-18{fill:url(#linear-gradient-16);}.cls-19{fill:url(#linear-gradient-17);}.cls-20{fill:url(#linear-gradient-18);}.cls-21{fill:url(#linear-gradient-19);}.cls-22{fill:url(#linear-gradient-20);}.cls-23{fill:url(#linear-gradient-21);}.cls-24{fill:url(#linear-gradient-22);}.cls-25{fill:url(#linear-gradient-23);}.cls-26{fill:url(#linear-gradient-24);}.cls-27{fill:url(#linear-gradient-25);}.cls-29{fill:url(#linear-gradient-27);}.cls-30{fill-rule:evenodd;}.cls-31{clip-path:url(#clip-path);}</style><linearGradient id="linear-gradient" x1="87.29" y1="238.91" x2="87.29" y2="140.86" gradientUnits="userSpaceOnUse"><stop offset="0" stop-color="#fbae17"/><stop offset="1" stop-color="#f16322"/></linearGradient><linearGradient id="linear-gradient-2" x1="146.82" y1="259.01" x2="195.22" y2="142.31" xlink:href="#linear-gradient"/><linearGradient id="linear-gradient-3" x1="124.61" y1="330.63" x2="321.41" y2="121.75" xlink:href="#linear-gradient"/><linearGradient id="linear-gradient-4" x1="118.27" y1="176.73" x2="276.49" y2="176.73" xlink:href="#linear-gradient"/><linearGradient id="linear-gradient-5" x1="121.52" y1="327.72" x2="318.31" y2="118.83" xlink:href="#linear-gradient"/><linearGradient id="linear-gradient-6" x1="118.27" y1="172.35" x2="276.49" y2="172.35" xlink:href="#linear-gradient"/><linearGradient id="linear-gradient-7" x1="127.12" y1="333" x2="323.92" y2="124.11" xlink:href="#linear-gradient"/><linearGradient id="linear-gradient-8" x1="118.27" y1="180.46" x2="276.49" y2="180.46" xlink:href="#linear-gradient"/><linearGradient id="linear-gradient-9" x1="132.52" y1="338.08" x2="329.31" y2="129.19" xlink:href="#linear-gradient"/><linearGradient id="linear-gradient-10" x1="118.27" y1="189.05" x2="276.49" y2="189.05" xlink:href="#linear-gradient"/><linearGradient id="linear-gradient-11" x1="130.11" y1="335.82" x2="326.91" y2="126.93" xlink:href="#linear-gradient"/><linearGradient id="linear-gradient-12" x1="118.27" y1="185.12" x2="276.49" y2="185.12" xlink:href="#linear-gradient"/><linearGradient id="linear-gradient-13" x1="224.12" y1="282.25" x2="275.4" y2="158.62" xlink:href="#linear-gradient"/><linearGradient id="linear-gradient-14" x1="118.27" y1="174.53" x2="276.49" y2="174.53" xlink:href="#linear-gradient"/><linearGradient id="linear-gradient-15" x1="221.29" y1="281.07" x2="272.57" y2="157.44" xlink:href="#linear-gradient"/><linearGradient id="linear-gradient-16" x1="118.27" y1="170.56" x2="227.92" y2="170.56" xlink:href="#linear-gradient"/><linearGradient id="linear-gradient-17" x1="226.79" y1="283.36" x2="278.08" y2="159.73" xlink:href="#linear-gradient"/><linearGradient id="linear-gradient-18" x1="118.27" y1="178.55" x2="267.45" y2="178.55" xlink:href="#linear-gradient"/><linearGradient id="linear-gradient-19" x1="231.75" y1="285.41" x2="283.03" y2="161.78" xlink:href="#linear-gradient"/><linearGradient id="linear-gradient-20" x1="118.27" y1="187.05" x2="242.59" y2="187.05" xlink:href="#linear-gradient"/><linearGradient id="linear-gradient-21" x1="229.36" y1="284.42" x2="280.64" y2="160.79" xlink:href="#linear-gradient"/><linearGradient id="linear-gradient-22" x1="118.27" y1="182.78" x2="276.49" y2="182.78" xlink:href="#linear-gradient"/><linearGradient id="linear-gradient-23" x1="202.47" y1="297.15" x2="202.47" y2="157.93" xlink:href="#linear-gradient"/><linearGradient id="linear-gradient-24" x1="156.91" y1="240.69" x2="156.91" y2="240.69" xlink:href="#linear-gradient"/><linearGradient id="linear-gradient-25" x1="156.59" y1="240.69" x2="157.23" y2="240.69" xlink:href="#linear-gradient"/><linearGradient id="linear-gradient-27" x1="148.47" y1="242.15" x2="148.47" y2="151.08" gradientUnits="userSpaceOnUse"><stop offset="0" stop-color="#f16322"/><stop offset="1" stop-color="#fbae17"/></linearGradient><clipPath id="clip-path"><path class="cls-1" d="M86.42,126.29c-11.13.46-19.76,10.21-19.28,21.78s9.89,20.57,21,20.11S107.92,158,107.44,146.4s-9.89-20.58-21-20.11"/></clipPath></defs><g class="cls-2"><g id="Layer_2" data-name="Layer 2"><g id="Layer_1-2" data-name="Layer 1"><path class="cls-3" d="M248.16.86a24.07,24.07,0,0,0-.57,4.57,17,17,0,0,0,4.81,12.62,17.27,17.27,0,0,0,12.82,5h16.25L263,103.46h1.1a26.52,26.52,0,0,0,17-6.42A27.51,27.51,0,0,0,291,81.54l13.57-58.49h38.33l.17-.72a27.39,27.39,0,0,0,.53-4.71,16.7,16.7,0,0,0-4.78-12.46A17.31,17.31,0,0,0,326,.13H248.32Z"/><path class="cls-3" d="M41.62,23l52.17-.08a26.27,26.27,0,0,0,16.84-6.31,28.12,28.12,0,0,0,9.84-15.45l.27-1.1L47,0l-.05.13H45.62A26.28,26.28,0,0,0,28.77,6.5c-5,4.09-8.27,9-9.43,13.11h0L0,103.46H1.1a26.38,26.38,0,0,0,17-6.42,27.56,27.56,0,0,0,9.94-15.5l4.22-18.22,38.39,0c6,0,11.79-2.26,17-6.47A27.13,27.13,0,0,0,97.6,41.45l.25-1.1L37.61,40.3Z"/><path class="cls-3" d="M227.31,5.1a17.41,17.41,0,0,0-12.87-5L140.83,0,117.05,103.33h0l0,.13h1.1a26.4,26.4,0,0,0,17-6.42,27.51,27.51,0,0,0,9.94-15.5l4.27-18.43,51,0c6,0,11.33-.7,16.52-4.86a32.13,32.13,0,0,0,10.29-16.9l4.49-19.15a24.18,24.18,0,0,0,.53-4.71A16.48,16.48,0,0,0,227.31,5.1Zm-23,35.17-49.65,0,4-17.33,49.68,0Z"/><path class="cls-4" d="M135,287.4v0s0-.06,0-.09Z"/><path class="cls-5" d="M269,174.93c.46,1.18.9,2.38,1.3,3.6C269.86,177.31,269.42,176.11,269,174.93Z"/><path class="cls-6" d="M269,174.93c.46,1.18.9,2.38,1.3,3.6C269.86,177.31,269.42,176.11,269,174.93Z"/><path class="cls-7" d="M267.14,170.57c.54,1.17,1,2.36,1.51,3.56C268.17,172.93,267.68,171.74,267.14,170.57Z"/><path class="cls-8" d="M267.14,170.57c.54,1.17,1,2.36,1.51,3.56C268.17,172.93,267.68,171.74,267.14,170.57Z"/><path class="cls-9" d="M270.28,178.58c.4,1.23.77,2.49,1.12,3.75C271.05,181.07,270.68,179.81,270.28,178.58Z"/><path class="cls-10" d="M270.28,178.58c.4,1.23.77,2.49,1.12,3.75C271.05,181.07,270.68,179.81,270.28,178.58Z"/><path class="cls-11" d="M272.56,187.08c.27,1.3.51,2.61.72,3.94C273.07,189.69,272.83,188.38,272.56,187.08Z"/><path class="cls-12" d="M272.56,187.08c.27,1.3.51,2.61.72,3.94C273.07,189.69,272.83,188.38,272.56,187.08Z"/><path class="cls-13" d="M271.63,183.22c.33,1.25.64,2.51.91,3.79C272.27,185.73,272,184.47,271.63,183.22Z"/><path class="cls-14" d="M271.63,183.22c.33,1.25.64,2.51.91,3.79C272.27,185.73,272,184.47,271.63,183.22Z"/><path class="cls-15" d="M268.65,174.13c.11.26.21.53.31.8C268.86,174.66,268.76,174.39,268.65,174.13Z"/><path class="cls-16" d="M268.65,174.13c.11.26.21.53.31.8C268.86,174.66,268.76,174.39,268.65,174.13Z"/><path class="cls-17" d="M267.13,170.54v0Z"/><path class="cls-18" d="M267.13,170.54v0Z"/><path class="cls-19" d="M270.26,178.53l0,.05Z"/><path class="cls-20" d="M270.26,178.53l0,.05Z"/><path class="cls-21" d="M272.54,187a.19.19,0,0,1,0,.07A.19.19,0,0,0,272.54,187Z"/><path class="cls-22" d="M272.54,187a.19.19,0,0,1,0,.07A.19.19,0,0,0,272.54,187Z"/><path class="cls-23" d="M271.4,182.33c.08.3.16.6.23.89C271.56,182.93,271.48,182.63,271.4,182.33Z"/><path class="cls-24" d="M271.4,182.33c.08.3.16.6.23.89C271.56,182.93,271.48,182.63,271.4,182.33Z"/><path class="cls-25" d="M197.38,126.27c-.55,0-1.1,0-1.65,0-1,0-1.94,0-2.92,0h-64l.52,3.86a43.42,43.42,0,0,0,42.74,36.05l18.66.07c1.38,0,5.75.09,6.62.09a39,39,0,0,1,0,78.08c-.84,0-5.11.09-6.47.09l-18.66.07A43.42,43.42,0,0,0,130,278.33h0v0s-1.51,6.12-1.51,6.12h68.93a79.11,79.11,0,0,0,0-158.22Z"/><polygon class="cls-26" points="156.91 240.69 156.91 240.69 156.91 240.69 156.91 240.69"/><polygon class="cls-27" points="156.91 240.69 156.91 240.69 156.91 240.69 156.91 240.69"/><path class="cls-28" d="M107.24,205.38c0-3.23.07-13.29.07-13.29l-.13-11V171c-1.25.1-2.48.27-3.7.47h-.16c-.58.1-1.14.23-1.71.35l-.71.14c-.93.21-1.86.46-2.76.73l-.62.2c-.7.23-1.39.46-2.07.72-.31.11-.62.24-.93.36-.57.23-1.13.47-1.69.72l-1,.46c-.54.25-1.07.53-1.59.81-.31.16-.62.32-.92.5-.56.31-1.1.64-1.64,1l-.76.47c-.77.51-1.54,1-2.28,1.59h0a45.35,45.35,0,0,0-3.68,3.1,1.8,1.8,0,0,0-.2.19c-.55.51-1.08,1-1.6,1.59l-.06.07A44.13,44.13,0,0,0,76.06,188l-.22.29c-.42.56-.82,1.13-1.2,1.7l-.12.16a.43.43,0,0,1,0,.07,43.68,43.68,0,0,0-2.37,4l-.22.45c-.29.56-.56,1.14-.82,1.71-.06.15-.13.28-.19.43-.31.71-.61,1.44-.88,2.17l0,.05c-.26.7-.5,1.4-.72,2.11l-.18.59c-.17.57-.32,1.14-.47,1.71l-.15.6q-.27,1.13-.48,2.28s0,.06,0,.09c-.13.73-.24,1.47-.33,2.21,0,.23-.06.46-.08.69-.07.58-.12,1.15-.16,1.74,0,.23,0,.46,0,.7,0,.79-.07,1.58-.07,2.38,0,.11,0,6.82,0,11h0c0,6.08-.07,38.18-.07,38.18l.13,11v10.09c1.25-.1,2.48-.27,3.7-.47h.17c.57-.1,1.13-.22,1.7-.34l.72-.15c.93-.21,1.85-.45,2.76-.73l.61-.2c.7-.22,1.39-.45,2.07-.71l.93-.37c.57-.23,1.14-.47,1.69-.72.33-.14.65-.3,1-.45.54-.26,1.07-.53,1.6-.81l.92-.5c.55-.31,1.09-.64,1.63-1l.76-.47c.78-.51,1.54-1,2.28-1.59h0a43.59,43.59,0,0,0,3.68-3.09l.21-.19q.81-.78,1.59-1.59a.23.23,0,0,1,.07-.07,42.54,42.54,0,0,0,3.06-3.63,3.15,3.15,0,0,0,.22-.29c.42-.56.82-1.12,1.21-1.7l.11-.16a.16.16,0,0,0,0-.07,42.39,42.39,0,0,0,2.37-4c.08-.15.15-.3.22-.45.29-.56.56-1.13.82-1.71l.19-.42c.31-.72.61-1.44.89-2.18v-.05c.26-.69.5-1.4.72-2.11l.18-.59c.17-.56.33-1.13.47-1.71l.15-.59c.18-.75.35-1.51.49-2.28,0,0,0-.07,0-.1.13-.73.24-1.46.34-2.21,0-.23.05-.46.07-.69.07-.57.12-1.15.16-1.73,0-.24,0-.47,0-.7,0-.79.07-1.59.07-2.39,0-.11,0-31.71,0-35.89Z"/><path class="cls-29" d="M168.36,189.14V179.05c-1.25.09-2.48.26-3.7.47h-.16c-.57.09-1.14.22-1.7.34l-.72.14c-.93.22-1.85.46-2.76.73l-.61.21c-.7.22-1.4.45-2.08.71l-.93.37c-.57.23-1.13.46-1.69.71l-1,.46q-.81.39-1.59.81l-.92.5c-.55.31-1.1.64-1.63,1-.26.15-.51.3-.76.47-.78.51-1.54,1-2.28,1.59h0a43.29,43.29,0,0,0-3.68,3.09l-.2.19c-.54.52-1.08,1-1.59,1.59l-.07.07a44.13,44.13,0,0,0-3.07,3.62l-.22.3c-.41.55-.81,1.12-1.2,1.7l-.12.16a.21.21,0,0,1,0,.06,41.6,41.6,0,0,0-2.36,4c-.08.14-.15.29-.23.44-.28.57-.56,1.14-.82,1.72l-.19.42c-.31.71-.61,1.44-.88,2.17l0,0c-.26.7-.49,1.4-.72,2.11-.06.2-.12.4-.17.59-.17.57-.33,1.14-.48,1.72l-.15.59q-.27,1.13-.48,2.28s0,.06,0,.1c-.13.73-.24,1.46-.33,2.2,0,.23-.05.46-.08.69-.06.58-.12,1.16-.16,1.74,0,.23,0,.47,0,.7-.05.79-.08,1.59-.08,2.39,0,.11,0-1.26.05,2.92h0c0,6.08-.08,38.18-.08,38.18l.13,11v10.09c1.26-.1,2.49-.27,3.71-.47h.16c.57-.1,1.13-.22,1.7-.34l.72-.15c.93-.21,1.85-.45,2.76-.73l.61-.2c.7-.22,1.39-.45,2.08-.71l.92-.37c.57-.23,1.14-.47,1.7-.72l1-.45q.79-.39,1.59-.81l.92-.5c.55-.31,1.09-.64,1.63-1l.76-.47c.78-.51,1.54-1,2.28-1.59h0a43.73,43.73,0,0,0,3.69-3.09,1.8,1.8,0,0,1,.2-.19q.81-.78,1.59-1.59a.46.46,0,0,1,.07-.07,42.66,42.66,0,0,0,3.07-3.63l.22-.29c.41-.56.81-1.12,1.2-1.7l.11-.16a.16.16,0,0,0,0-.07,42.39,42.39,0,0,0,2.37-4l.23-.45q.42-.84.81-1.71c.07-.14.13-.28.19-.42.32-.72.61-1.44.89-2.18l0-.05c.25-.69.49-1.4.71-2.11.07-.19.12-.39.18-.59.17-.56.33-1.13.47-1.71,0-.2.11-.39.15-.59.18-.75.35-1.51.49-2.28a.34.34,0,0,0,0-.1c.14-.73.24-1.46.34-2.21,0-.23.05-.46.08-.69.06-.57.11-1.15.15-1.73,0-.24,0-.47,0-.7,0-.79.07-1.59.07-2.39C168.49,241.16,168.36,189.14,168.36,189.14Z"/><path class="cls-30" d="M86.42,126.29c-11.13.46-19.76,10.21-19.28,21.78s9.89,20.57,21,20.11S107.92,158,107.44,146.4s-9.89-20.58-21-20.11"/><g class="cls-31"><rect class="cls-28" x="66.66" y="125.82" width="41.26" height="42.81"/></g></g></g></g></svg>