<svg width="40" height="40" viewBox="0 0 40 40" fill="none" xmlns="http://www.w3.org/2000/svg">
<path d="M0 20C0 8.9543 8.9543 0 20 0C31.0457 0 40 8.9543 40 20C40 31.0457 31.0457 40 20 40C8.9543 40 0 31.0457 0 20Z" fill="#F8F8F8"/>
<path d="M20 14.6846C21.6274 14.6846 22.7252 15.3876 23.3511 15.975L25.7971 13.5868C24.2948 12.1905 22.34 11.3335 20 11.3335C16.6104 11.3335 13.683 13.2787 12.2578 16.1098L15.06 18.2861C15.763 16.1965 17.7082 14.6846 20 14.6846Z" fill="#EA4335"/>
<path d="M28.32 20.1928C28.32 19.4802 28.2622 18.9602 28.137 18.4209H20V21.6372H24.7763C24.68 22.4365 24.16 23.6402 23.0044 24.449L25.7393 26.5676C27.3763 25.0557 28.32 22.8313 28.32 20.1928Z" fill="#4285F4"/>
<path d="M15.0703 21.7143C14.8873 21.175 14.7814 20.5973 14.7814 20.0002C14.7814 19.4032 14.8873 18.8254 15.0607 18.2862L12.2584 16.1099C11.671 17.2847 11.334 18.6039 11.334 20.0002C11.334 21.3965 11.671 22.7158 12.2584 23.8906L15.0703 21.7143Z" fill="#FBBC05"/>
<path d="M20.0002 28.6669C22.3402 28.6669 24.3046 27.8966 25.7394 26.5677L23.0046 24.4492C22.2728 24.9595 21.2905 25.3158 20.0002 25.3158C17.7083 25.3158 15.7631 23.804 15.0698 21.7144L12.2676 23.8907C13.6928 26.7218 16.6105 28.6669 20.0002 28.6669Z" fill="#34A853"/>
</svg>
