<svg width="31" height="31" viewBox="0 0 31 31" fill="none" xmlns="http://www.w3.org/2000/svg">
<g clip-path="url(#clip0_687_45755)">
<path fill-rule="evenodd" clip-rule="evenodd" d="M17.4316 5.78098C17.4316 7.14493 18.5425 8.25053 19.913 8.25053C21.2829 8.25053 22.3939 7.14493 22.3939 5.78098C22.3939 4.41762 21.2829 3.31201 19.913 3.31201C18.5425 3.31201 17.4316 4.41762 17.4316 5.78098Z" fill="#4464ED"/>
<path fill-rule="evenodd" clip-rule="evenodd" d="M9.9286 23.119C8.5469 23.119 7.42773 22.0046 7.42773 20.6301V5.84977C7.42773 4.47525 8.5469 3.36084 9.9286 3.36084C11.3097 3.36084 12.4295 4.47525 12.4295 5.84977V20.6301C12.4295 22.0046 11.3097 23.119 9.9286 23.119Z" fill="#4464ED"/>
<mask id="mask0_687_45755" style="mask-type:alpha" maskUnits="userSpaceOnUse" x="7" y="10" width="11" height="14">
<path fill-rule="evenodd" clip-rule="evenodd" d="M7.42773 10.7671H17.4312V23.1285H7.42773V10.7671Z" fill="white"/>
</mask>
<g mask="url(#mask0_687_45755)">
<path fill-rule="evenodd" clip-rule="evenodd" d="M7.42773 20.6488V15.7262C7.42773 12.9871 9.6584 10.7671 12.4106 10.7671H14.9392C16.3156 10.7671 17.4312 11.8774 17.4312 13.2472V13.2725C17.4312 14.6423 16.3156 15.752 14.9392 15.752H14.9032C13.5268 15.752 12.4112 16.8623 12.4112 18.2321V20.6488C12.4112 22.0222 11.2897 23.1336 9.90972 23.1289C8.53746 23.1231 7.42773 22.0145 7.42773 20.6488Z" fill="#4464ED"/>
</g>
<mask id="mask1_687_45755" style="mask-type:alpha" maskUnits="userSpaceOnUse" x="7" y="3" width="11" height="13">
<path fill-rule="evenodd" clip-rule="evenodd" d="M7.42773 3.36035H17.4312V15.7222H7.42773V3.36035Z" fill="white"/>
</mask>
<g mask="url(#mask1_687_45755)">
<path fill-rule="evenodd" clip-rule="evenodd" d="M7.42773 5.84049V10.7632C7.42773 13.5022 9.6584 15.7222 12.4106 15.7222H14.9392C16.3156 15.7222 17.4312 14.6119 17.4312 13.2421V13.2169C17.4312 11.847 16.3156 10.7373 14.9392 10.7373H14.9032C13.5268 10.7373 12.4112 9.62702 12.4112 8.2572V5.84049C12.4112 4.46714 11.2897 3.35567 9.90972 3.36037C8.53746 3.36624 7.42773 4.47478 7.42773 5.84049Z" fill="#4464ED"/>
</g>
<mask id="mask2_687_45755" style="mask-type:alpha" maskUnits="userSpaceOnUse" x="12" y="10" width="11" height="14">
<path fill-rule="evenodd" clip-rule="evenodd" d="M12.4297 10.7671H22.4326V23.1285H12.4297V10.7671Z" fill="white"/>
</mask>
<g mask="url(#mask2_687_45755)">
<path fill-rule="evenodd" clip-rule="evenodd" d="M22.4326 20.6488V15.7262C22.4326 12.9871 20.2019 10.7671 17.4503 10.7671H14.9211C13.5453 10.7671 12.4297 11.8774 12.4297 13.2472V13.2725C12.4297 14.6423 13.5453 15.752 14.9211 15.752H14.9577C16.3335 15.752 17.4497 16.8623 17.4497 18.2321V20.6488C17.4497 22.0222 18.5707 23.1336 19.9512 23.1289C21.3234 23.1231 22.4326 22.0145 22.4326 20.6488Z" fill="#4464ED"/>
</g>
<path fill-rule="evenodd" clip-rule="evenodd" d="M8.54413 24.8857L8.54274 24.891H8.48936C8.24371 24.891 8.01192 24.9773 7.79978 25.1476C7.59572 25.3113 7.46122 25.5105 7.41501 25.6743H7.41293L6.62305 29.0461L6.66811 29.0454C6.91654 29.0454 7.15133 28.9591 7.3644 28.7872C7.57862 28.6164 7.71543 28.4064 7.77089 28.1643L7.94352 27.4321L9.51449 27.4327C9.75991 27.4327 9.99678 27.3424 10.211 27.1725C10.425 27.0026 10.5613 26.7939 10.6166 26.5525L10.6265 26.5082L8.16213 26.5064L8.32644 25.811L10.4608 25.808C10.7062 25.808 10.9385 25.7229 11.1502 25.5541C11.3614 25.3852 11.4936 25.1728 11.5527 24.9332L11.5634 24.8887L8.54413 24.8857Z" fill="#4464ED"/>
<path fill-rule="evenodd" clip-rule="evenodd" d="M16.3573 26.5056L14.3329 26.5038L14.4966 25.8073L16.5212 25.8091L16.3573 26.5056ZM17.2938 25.0906C17.1584 24.9568 16.9822 24.8891 16.7695 24.8891L13.7682 24.8857L12.7988 29.0407H12.8L12.7988 29.0461L12.8435 29.0454C13.091 29.0454 13.3247 28.9589 13.5375 28.787C13.7509 28.6162 13.887 28.4062 13.9425 28.1641L14.1165 27.4235L16.1943 27.4253C16.4384 27.4253 16.6564 27.3976 16.8678 27.2296C17.078 27.0618 17.2279 26.7949 17.2873 26.5499L17.4699 25.78C17.4833 25.7192 17.4906 25.6556 17.492 25.5909C17.4955 25.3926 17.4291 25.2239 17.2938 25.0906Z" fill="#4464ED"/>
<path fill-rule="evenodd" clip-rule="evenodd" d="M23.47 25.0879C23.3361 24.954 23.158 24.8857 22.9423 24.8857H21.6073H21.5233H19.7445L19.738 24.9155C19.7238 24.9808 19.7161 25.0411 19.715 25.0988C19.7115 25.3014 19.7777 25.4724 19.9124 25.607C20.0467 25.7407 20.2246 25.8087 20.4406 25.8087H21.1097L20.3476 29.0461L20.3929 29.0454C20.6429 29.0454 20.8786 28.9588 21.0935 28.7869C21.309 28.6159 21.4466 28.4056 21.5022 28.1629L22.0606 25.8087H23.6386L23.6449 25.7794C23.6588 25.7175 23.6658 25.6539 23.667 25.5902C23.6705 25.3903 23.6047 25.2211 23.47 25.0879Z" fill="#4464ED"/>
</g>
<defs>
<clipPath id="clip0_687_45755">
<rect width="30.9999" height="30.9999" fill="white"/>
</clipPath>
</defs>
</svg>
