<svg width="303" height="288" viewBox="0 0 303 288" fill="none" xmlns="http://www.w3.org/2000/svg">
<path d="M49.962 167.835H22.0039L23.5271 150.372H51.4852L49.962 167.835Z" fill="#7FBBFF"/>
<path d="M50.5267 148L49.7621 157.118L48.9974 168.078H22.1074L23.6367 148H50.5267Z" fill="#FAFAFA"/>
<path d="M47.9539 150.372L49.4772 167.835H21.5252L20.002 150.372H22.3808L23.2062 149.064H30.7373L31.8175 150.372H47.9539Z" fill="#85C0FF"/>
<path d="M92.9827 138H63.2344V167.816H92.9827V138Z" fill="#C8D8FF"/>
<path d="M93.7351 138H92.9766V167.816H93.7351V138Z" fill="#D1DDFC"/>
<path d="M90.2267 140.761H65.9766V165.067H90.2267V140.761Z" fill="#FFFEFE"/>
<path d="M66.2089 140.761H65.9844V165.067H66.2089V140.761Z" fill="#D1DDFC"/>
<path d="M78.3329 156.424C80.9438 156.424 83.0604 153.723 83.0604 150.39C83.0604 147.058 80.9438 144.356 78.3329 144.356C75.722 144.356 73.6055 147.058 73.6055 150.39C73.6055 153.723 75.722 156.424 78.3329 156.424Z" fill="#D1DDFC"/>
<path d="M75.8614 159.472H80.8438V154.479H75.8614V159.472Z" fill="#D1DDFC"/>
<path d="M69.0605 165.067H87.3149V163.364C87.3149 160.128 84.6933 157.5 81.4648 157.5H74.9107C71.6822 157.5 69.0605 160.128 69.0605 163.364V165.067Z" fill="#D1DDFC"/>
<path d="M68.5996 154.921C68.5996 155.919 70.3959 156.722 70.3959 156.722C70.3959 156.722 72.1922 155.913 72.1922 154.921C72.1922 154.447 71.5307 154.185 71.1059 154.307C70.6326 154.441 70.3959 154.994 70.3959 154.994C70.3959 154.994 69.9529 154.404 69.5038 154.264C69.0548 154.112 68.5996 154.423 68.5996 154.921Z" fill="#D1DDFC"/>
<path d="M84.7539 150.488C84.7539 151.795 87.1146 152.854 87.1146 152.854C87.1146 152.854 89.4753 151.795 89.4753 150.488C89.4753 149.867 88.6075 149.521 88.0492 149.679C87.4302 149.855 87.1146 150.579 87.1146 150.579C87.1146 150.579 86.532 149.807 85.9434 149.618C85.3486 149.429 84.7539 149.831 84.7539 150.488Z" fill="#D1DDFC"/>
<path d="M17.3382 208.636C14.9661 208.969 12.7677 207.303 12.4388 204.929C12.1063 202.552 13.769 200.348 16.1374 200.019C18.5094 199.685 20.7079 201.352 21.0367 203.725C21.3692 206.099 19.7103 208.303 17.3382 208.636ZM16.4551 202.307C15.343 202.463 14.5671 203.496 14.7222 204.611C14.8774 205.725 15.9083 206.503 17.0167 206.347C18.1289 206.192 18.9048 205.159 18.7496 204.048C18.5981 202.929 17.5673 202.152 16.4551 202.307Z" fill="#9BD0FF"/>
<path d="M15.7063 191.354L14.0742 191.582L15.5392 202.105L17.1713 201.876L15.7063 191.354Z" fill="#9BD0FF"/>
<path d="M17.0492 190L13.9863 190.428L14.2141 192.064L17.2769 191.636L17.0492 190Z" fill="#9BD0FF"/>
<path d="M17.3448 192.101L14.4648 192.503L14.6926 194.139L17.5725 193.736L17.3448 192.101Z" fill="#9BD0FF"/>
<path d="M17.7659 195.066L15.252 195.418L15.4797 197.054L17.9937 196.702L17.7659 195.066Z" fill="#9BD0FF"/>
<path d="M15.0605 178.421C15.0787 178.603 15.103 178.785 15.1394 178.962C15.3639 180.136 15.989 181.194 16.8446 181.985C17.8338 182.897 19.1386 183.463 20.5283 183.463H71.8019C74.3993 183.463 76.3655 181.492 76.408 178.962C76.408 178.785 76.408 178.603 76.3898 178.421C76.2684 177.034 75.5948 175.769 74.6056 174.862C73.6164 173.95 72.3117 173.384 70.922 173.384H19.6483C16.875 173.384 14.8177 175.641 15.0605 178.421Z" fill="#407BFF"/>
<path d="M15.0605 178.421C15.0787 178.603 15.103 178.785 15.1394 178.962C15.3639 180.136 15.989 181.194 16.8446 181.985C17.8338 182.897 19.1386 183.463 20.5283 183.463H71.8019C74.3993 183.463 76.3655 181.492 76.408 178.962C76.408 178.785 76.408 178.603 76.3898 178.421C76.2684 177.034 75.5948 175.769 74.6056 174.862C73.6164 173.95 72.3117 173.384 70.922 173.384H19.6483C16.875 173.384 14.8177 175.641 15.0605 178.421Z" fill="#E7EEFF"/>
<path d="M76.407 178.962C76.407 179.126 76.3948 179.29 76.3706 179.448C76.2128 178.135 75.5513 176.942 74.6046 176.079C73.6154 175.166 72.3107 174.601 70.921 174.601L16.3945 174.686C17.2138 173.877 18.3547 173.384 19.6473 173.384H70.921C72.3107 173.384 73.6154 173.95 74.6046 174.862C75.5938 175.769 76.2735 177.034 76.3949 178.421C76.407 178.603 76.4131 178.785 76.407 178.962Z" fill="#407BFF"/>
<path opacity="0.5" d="M76.407 178.962C76.407 179.126 76.3948 179.29 76.3706 179.448C76.2128 178.135 75.5513 176.942 74.6046 176.079C73.6154 175.166 72.3107 174.601 70.921 174.601L16.3945 174.686C17.2138 173.877 18.3547 173.384 19.6473 173.384H70.921C72.3107 173.384 73.6154 173.95 74.6046 174.862C75.5938 175.769 76.2735 177.034 76.3949 178.421C76.407 178.603 76.4131 178.785 76.407 178.962Z" fill="white"/>
<path d="M67.5856 175.817L67.798 178.275L70.0798 177.423L70.6199 178.64L68.2835 179.418L69.9584 181.48L68.9146 182.259L67.2821 180.118L66.0441 182.259L64.8972 181.48L66.1898 179.418L63.7441 178.64L64.0719 177.435L66.5236 178.256L66.3112 175.823H67.5856V175.817Z" fill="#407BFF"/>
<path d="M53.5602 175.817L53.7726 178.275L56.0544 177.423L56.5945 178.64L54.2581 179.418L55.933 181.48L54.8892 182.259L53.2567 180.118L52.0188 182.259L50.8718 181.48L52.1644 179.418L49.7188 178.64L50.0465 177.435L52.4982 178.256L52.2858 175.823H53.5602V175.817Z" fill="#407BFF"/>
<path d="M39.5367 175.817L39.7491 178.275L42.0309 177.423L42.571 178.64L40.2346 179.418L41.9096 181.48L40.8658 182.259L39.2333 180.118L37.9953 182.259L36.8484 181.48L38.141 179.418L35.6953 178.64L36.023 177.435L38.4747 178.256L38.2623 175.823H39.5367V175.817Z" fill="#407BFF"/>
<path d="M25.5172 175.817L25.7296 178.275L28.0114 177.423L28.5515 178.64L26.2151 179.418L27.89 181.48L26.8462 182.259L25.2138 180.118L23.9758 182.259L22.8288 181.48L24.1214 179.418L21.6758 178.64L22.0035 177.435L24.4552 178.256L24.2428 175.823H25.5172V175.817Z" fill="#407BFF"/>
<path d="M59.5004 171H57.1094V171.608H59.5004V171Z" fill="#407BFF"/>
<path d="M69.7747 171H61.9766V171.608H69.7747V171Z" fill="#407BFF"/>
<path d="M151.692 288C235.258 288 303.001 281.648 303.001 273.812C303.001 265.975 235.258 259.623 151.692 259.623C68.1262 259.623 0.382812 265.975 0.382812 273.812C0.382812 281.648 68.1262 288 151.692 288Z" fill="#E8E8E8"/>
<path d="M100.032 133.934L98.877 136.495C97.7551 134.175 96.6231 131.829 95.0156 129.815C90.2399 123.833 82.1085 121.699 74.4794 121.202C66.8536 120.702 59.0772 121.46 51.6424 119.685C49.5325 119.184 47.1681 118.167 46.6456 116.059C46.5384 115.623 46.525 115.18 46.582 114.744C49.921 113.948 53.3001 113.341 56.7161 112.988C62.0277 112.441 67.433 112.511 72.691 113.512C77.0213 114.337 81.2344 115.814 85.0991 117.946C88.9103 120.044 92.39 122.796 95.1596 126.163C96.5963 127.908 97.7752 129.812 98.8569 131.792C99.2488 132.507 99.6272 133.222 100.032 133.934Z" fill="url(#paint0_linear_687_45055)"/>
<path d="M101.737 130.15L100.169 133.621L100.029 133.93C99.6267 133.222 99.2449 132.503 98.8531 131.792C97.7714 129.811 96.5925 127.908 95.1558 126.163C92.3861 122.793 88.9065 120.044 85.0953 117.946C81.2305 115.814 77.0174 114.337 72.6871 113.512C67.4292 112.508 62.0238 112.437 56.7123 112.988C53.2963 113.34 49.9171 113.951 46.5781 114.743C46.5882 114.643 46.6049 114.545 46.6284 114.448C46.7958 113.592 47.2245 112.763 47.7402 112.048C50.2888 108.507 54.7799 106.949 59.0867 106.281C72.5431 104.194 86.9004 109.289 96.0533 119.392C98.8162 122.44 101.187 126.065 101.737 130.15Z" fill="url(#paint1_linear_687_45055)"/>
<path d="M100.173 133.621L100.033 133.93C99.6306 133.222 99.2488 132.503 98.857 131.792C97.7753 129.811 96.5964 127.908 95.1597 126.163C92.39 122.793 88.9104 120.044 85.0992 117.946C81.2344 115.814 77.0213 114.337 72.691 113.512C67.4331 112.508 62.0277 112.437 56.7162 112.988C53.3002 113.34 49.921 113.951 46.582 114.743C46.5921 114.643 46.6088 114.545 46.6323 114.448C50.5808 113.518 54.5929 112.844 58.6385 112.545C63.8563 112.159 69.1612 112.397 74.2751 113.565C78.5652 114.542 82.718 116.163 86.4924 118.432C90.2199 120.671 93.5789 123.561 96.2012 127.042C97.5944 128.898 98.6895 130.923 99.8014 132.95C99.922 133.178 100.046 133.4 100.173 133.621Z" fill="white"/>
<path d="M95.7236 127.089L93.4998 128.805C93.6003 126.23 93.7008 123.625 93.2285 121.091C91.8253 113.559 85.6497 107.842 79.1526 103.804C72.6588 99.7664 65.4417 96.7689 59.7148 91.6936C58.0906 90.257 56.4797 88.243 57.0088 86.1384C57.1193 85.702 57.3136 85.3059 57.5715 84.9468C60.8903 85.8229 64.159 86.8768 67.3372 88.1792C72.2804 90.1999 77.0193 92.8114 81.1854 96.1781C84.6182 98.9507 87.6424 102.24 90.0503 105.943C92.4281 109.591 94.2065 113.66 95.0672 117.939C95.5159 120.158 95.6633 122.39 95.6867 124.649C95.7001 125.461 95.7001 126.27 95.7236 127.089Z" fill="url(#paint2_linear_687_45055)"/>
<path d="M99.0017 124.555L95.9909 126.881L95.723 127.089C95.6996 126.274 95.6995 125.461 95.6895 124.649C95.6661 122.39 95.5187 120.154 95.0699 117.939C94.2059 113.659 92.4276 109.591 90.0531 105.942C87.6418 102.24 84.6176 98.9505 81.1882 96.1779C77.0187 92.8146 72.2831 90.2031 67.34 88.1791C64.1618 86.8801 60.8931 85.8227 57.5742 84.9466C57.6312 84.8627 57.6914 84.7821 57.7584 84.7083C58.3077 84.0336 59.0746 83.5033 59.865 83.1139C63.7766 81.1905 68.4686 81.9357 72.5846 83.3757C85.4381 87.8803 95.7129 99.1486 99.0486 112.38C100.047 116.375 100.435 120.692 99.0017 124.555Z" fill="url(#paint3_linear_687_45055)"/>
<path d="M95.9909 126.881L95.723 127.089C95.6995 126.274 95.6995 125.462 95.6895 124.649C95.666 122.39 95.5187 120.155 95.0699 117.939C94.2059 113.66 92.4275 109.591 90.0531 105.943C87.6418 102.24 84.6176 98.9507 81.1882 96.1781C77.0187 92.8148 72.2831 90.2033 67.34 88.1793C64.1618 86.8802 60.8931 85.8229 57.5742 84.9468C57.6312 84.8629 57.6914 84.7823 57.7584 84.7085C61.6801 85.7491 65.5349 87.0481 69.2456 88.6928C74.0313 90.8142 78.5994 93.5264 82.5647 96.9703C85.8902 99.857 88.7972 103.244 91.0578 107.03C93.2949 110.766 94.9025 114.898 95.5823 119.208C95.9407 121.504 95.9574 123.807 95.9842 126.119C95.9809 126.371 95.9842 126.623 95.9909 126.881Z" fill="white"/>
<path d="M217.82 184.767L218.286 187.066C219.625 185.388 220.982 183.692 222.66 182.353C227.65 178.376 234.656 178.154 240.952 179.168C247.245 180.178 253.427 182.242 259.8 182.179C261.609 182.162 263.719 181.776 264.533 180.158C264.7 179.822 264.794 179.466 264.827 179.101C262.259 177.835 259.623 176.711 256.91 175.791C252.694 174.358 248.286 173.411 243.825 173.247C240.152 173.116 236.454 173.532 232.918 174.546C229.431 175.542 226.092 177.134 223.216 179.359C221.725 180.51 220.412 181.84 219.17 183.249C218.721 183.753 218.279 184.266 217.82 184.767Z" fill="url(#paint4_linear_687_45055)"/>
<path d="M217.133 181.376L217.762 184.491L217.819 184.77C218.278 184.266 218.72 183.756 219.169 183.249C220.415 181.839 221.728 180.514 223.215 179.359C226.091 177.133 229.427 175.546 232.917 174.545C236.453 173.532 240.154 173.115 243.825 173.246C248.285 173.408 252.693 174.357 256.909 175.791C259.622 176.714 262.258 177.835 264.826 179.1C264.836 179.016 264.84 178.933 264.84 178.849C264.863 178.12 264.669 177.368 264.381 176.69C262.964 173.337 259.602 171.236 256.223 169.893C245.67 165.694 233.054 167.168 223.74 173.683C220.931 175.65 218.335 178.157 217.133 181.376Z" fill="url(#paint5_linear_687_45055)"/>
<path d="M217.762 184.488L217.819 184.766C218.277 184.263 218.72 183.753 219.168 183.246C220.414 181.836 221.727 180.51 223.214 179.355C226.091 177.13 229.426 175.542 232.916 174.542C236.453 173.528 240.153 173.112 243.824 173.243C248.285 173.404 252.692 174.354 256.908 175.787C259.621 176.71 262.257 177.831 264.826 179.097C264.836 179.013 264.839 178.929 264.839 178.845C261.801 177.355 258.663 176.059 255.428 175.066C251.255 173.78 246.898 172.991 242.524 172.988C238.857 172.984 235.177 173.532 231.69 174.676C228.244 175.804 224.979 177.529 222.203 179.872C220.726 181.121 219.46 182.564 218.184 184.008C218.046 184.172 217.906 184.33 217.762 184.488Z" fill="white"/>
<path d="M222.879 177.718L224.369 179.527C224.764 177.412 225.163 175.278 226.017 173.307C228.552 167.443 234.631 163.942 240.659 161.868C246.687 159.79 253.107 158.696 258.703 155.635C260.291 154.769 261.972 153.433 261.932 151.62C261.922 151.244 261.838 150.885 261.694 150.546C258.834 150.64 255.981 150.892 253.154 151.358C248.76 152.083 244.427 153.325 240.414 155.285C237.112 156.9 234.045 159.015 231.399 161.576C228.79 164.1 226.593 167.077 225.099 170.397C224.326 172.116 223.79 173.905 223.354 175.738C223.2 176.395 223.05 177.057 222.879 177.718Z" fill="url(#paint6_linear_687_45055)"/>
<path d="M220.681 175.046L222.701 177.496L222.882 177.714C223.052 177.056 223.203 176.395 223.361 175.734C223.796 173.901 224.332 172.112 225.105 170.394C226.599 167.074 228.796 164.096 231.405 161.572C234.051 159.008 237.118 156.896 240.421 155.282C244.433 153.322 248.766 152.08 253.16 151.355C255.987 150.888 258.837 150.636 261.7 150.542C261.67 150.465 261.633 150.388 261.596 150.314C261.275 149.663 260.749 149.089 260.18 148.626C257.357 146.333 253.401 146.068 249.791 146.474C238.508 147.75 228.069 154.997 222.908 165.137C221.348 168.205 220.229 171.642 220.681 175.046Z" fill="url(#paint7_linear_687_45055)"/>
<path d="M222.701 177.496L222.882 177.714C223.053 177.056 223.204 176.395 223.361 175.734C223.796 173.901 224.332 172.112 225.106 170.393C226.599 167.074 228.796 164.096 231.405 161.572C234.051 159.008 237.119 156.896 240.421 155.282C244.433 153.322 248.767 152.08 253.161 151.355C255.987 150.888 258.837 150.636 261.701 150.542C261.67 150.465 261.634 150.388 261.597 150.314C258.214 150.431 254.842 150.77 251.52 151.418C247.236 152.251 243.02 153.61 239.158 155.671C235.92 157.4 232.932 159.615 230.391 162.27C227.879 164.892 225.809 167.953 224.459 171.33C223.743 173.129 223.304 174.999 222.855 176.875C222.802 177.083 222.751 177.288 222.701 177.496Z" fill="white"/>
<path d="M252.329 262.52C252.376 262.006 252.741 261.577 253.247 261.493L256.522 260.936C257.768 260.724 258.596 259.506 258.318 258.254C258.056 257.079 256.841 256.371 255.658 256.572L252.718 257.072C252.115 257.176 251.542 256.767 251.439 256.163L250.323 249.584C250.22 248.979 250.628 248.405 251.231 248.301L254.295 247.781C255.541 247.57 256.368 246.351 256.09 245.099C255.829 243.924 254.614 243.216 253.431 243.417L250.491 243.917C249.888 244.022 249.315 243.612 249.212 243.008L245.049 218.431C244.513 215.275 245.333 211.982 247.477 209.609C250.454 206.31 251.951 201.731 251.151 197.005C249.667 188.244 240.909 182.548 232.138 185.072C225.403 187.012 220.852 193.568 221.361 200.573C221.756 205.997 224.888 210.418 229.208 212.758C231.954 214.245 233.796 216.994 234.318 220.079L241.542 262.735C242.025 265.591 244.593 267.733 247.467 267.438C250.129 267.156 252.095 265.031 252.329 262.52ZM236.499 200.442C233.049 201.03 229.774 198.704 229.188 195.246C228.602 191.789 230.929 188.503 234.379 187.915C237.828 187.328 241.1 189.661 241.683 193.118C242.269 196.579 239.948 199.855 236.499 200.442Z" fill="url(#paint8_linear_687_45055)"/>
<path d="M207.912 266.836H109.92C99.9096 266.836 91.7949 258.703 91.7949 248.67V48.9062H226.037V248.667C226.037 258.703 217.923 266.836 207.912 266.836Z" fill="white"/>
<path d="M214.621 30.5591H103.205C95.6399 30.5591 89.5078 36.7017 89.5078 44.2844V253.729C89.5078 257.864 91.3397 261.58 94.2333 264.098C94.3304 264.178 94.4275 264.262 94.5247 264.346C96.8857 266.293 99.9132 267.454 103.205 267.454H214.624C217.913 267.454 220.94 266.293 223.305 264.346C226.369 261.828 228.328 258.005 228.328 253.729V44.2844C228.325 36.7017 222.186 30.5591 214.621 30.5591ZM225.421 248.378C225.421 256.34 218.613 262.792 210.213 262.792H107.619C99.22 262.792 92.4114 256.34 92.4114 248.378V57.8721C92.4114 52.921 96.6479 48.9099 101.869 48.9099H215.964C221.188 48.9099 225.421 52.921 225.421 57.8721V248.378Z" fill="url(#paint9_linear_687_45055)"/>
<path d="M111.592 40.1727C111.592 42.6096 109.616 44.5901 107.185 44.5901C104.753 44.5901 102.777 42.6096 102.777 40.1727C102.777 37.7324 104.753 35.7554 107.185 35.7554C109.616 35.7554 111.592 37.7358 111.592 40.1727Z" fill="white"/>
<path d="M110.164 40.1725C110.164 41.8206 108.828 43.1599 107.184 43.1599C105.539 43.1599 104.203 41.8206 104.203 40.1725C104.203 38.5244 105.539 37.1851 107.184 37.1851C108.831 37.1851 110.164 38.5244 110.164 40.1725Z" fill="url(#paint10_linear_687_45055)"/>
<path d="M120.614 40.1725C120.614 41.8206 119.277 43.1599 117.633 43.1599C115.989 43.1599 114.652 41.8206 114.652 40.1725C114.652 38.5244 115.989 37.1851 117.633 37.1851C119.277 37.1851 120.614 38.5244 120.614 40.1725Z" fill="white"/>
<path d="M119.602 61.1413H101.838C101.303 61.1413 100.867 60.7049 100.867 60.1679V59.9866C100.867 59.4496 101.303 59.0132 101.838 59.0132H119.602C120.137 59.0132 120.573 59.4496 120.573 59.9866V60.1679C120.573 60.7049 120.141 61.1413 119.602 61.1413Z" fill="url(#paint11_linear_687_45055)"/>
<path d="M119.602 66.9313H101.838C101.303 66.9313 100.867 66.495 100.867 65.9579V65.7767C100.867 65.2396 101.303 64.8032 101.838 64.8032H119.602C120.137 64.8032 120.573 65.2396 120.573 65.7767V65.9579C120.573 66.495 120.141 66.9313 119.602 66.9313Z" fill="url(#paint12_linear_687_45055)"/>
<path d="M119.602 72.7184H101.838C101.303 72.7184 100.867 72.2821 100.867 71.745V71.5638C100.867 71.0267 101.303 70.5903 101.838 70.5903H119.602C120.137 70.5903 120.573 71.0267 120.573 71.5638V71.745C120.573 72.2821 120.141 72.7184 119.602 72.7184Z" fill="url(#paint13_linear_687_45055)"/>
<path d="M67.3565 219.991C67.39 219.951 67.447 220.008 67.4135 220.048C66.1877 221.582 67.1121 223.64 67.7919 225.177C68.1503 225.99 68.2742 226.842 68.3679 227.718C68.455 228.544 68.5521 229.491 69.1081 230.159C69.6908 230.853 70.6654 231.166 71.4758 231.488C71.5395 231.515 71.516 231.615 71.4457 231.595C70.6453 231.37 69.8348 231.085 69.1617 230.585C68.8368 230.347 68.5187 230.091 68.311 229.742C68.0699 229.34 67.9493 228.917 67.8857 228.453C67.8187 227.97 67.812 227.487 67.7785 227C67.7383 226.456 67.6077 225.953 67.4838 225.426C67.2561 224.479 66.8709 223.563 66.747 222.593C66.6265 221.68 66.747 220.72 67.3565 219.991Z" fill="url(#paint14_linear_687_45055)"/>
<path d="M64.3068 210.086C64.6986 209.314 65.3617 208.713 66.1789 208.427C67.3946 207.998 68.6538 208.119 69.9064 208.283C69.9599 208.29 69.9599 208.374 69.9064 208.367C68.8615 208.266 67.7831 208.152 66.7549 208.421C65.9009 208.646 65.0469 209.23 64.7187 210.075C64.4374 210.804 64.347 211.593 64.4541 212.368C64.5747 213.227 64.9665 214.026 65.3416 214.798C65.8038 215.748 66.6645 216.5 67.3644 217.275C67.3879 217.302 67.3511 217.336 67.3276 217.312C66.9458 216.957 66.5774 216.591 66.2224 216.205C65.8708 215.825 65.556 215.409 65.2043 215.03C64.5546 214.332 64.1393 213.493 63.9953 212.549C63.8681 211.73 63.9216 210.841 64.3068 210.086Z" fill="url(#paint15_linear_687_45055)"/>
<path d="M67.3565 217.406C64.3424 223.526 68.4885 223.432 68.666 227.768C68.9205 233.921 76.8074 230.83 78.3815 230.786C79.9555 230.742 82.2797 229.745 84.1887 227.322C86.0976 224.898 89.0783 225.251 88.7065 222.028C88.6596 221.629 88.5826 221.27 88.4788 220.938C88.6663 219.615 88.1238 218.319 87.3033 217.299C86.4794 216.272 85.1097 215.872 84.3963 214.741C83.7098 213.65 83.6227 212.311 83.0835 211.156C82.5309 209.971 81.5162 208.917 80.5081 208.112C79.8082 207.551 79.0479 207.081 78.2676 206.645C77.2127 205.927 76.1577 205.497 75.3908 205.413C71.5327 204.987 70.8529 206.773 69.6439 207.474C68.4349 208.176 65.9968 207.303 64.8849 210.109C63.7697 212.912 67.3565 217.406 67.3565 217.406ZM79.2321 207.383C79.778 207.756 80.3005 208.162 80.7827 208.615C81.265 209.072 81.6903 209.572 82.0286 210.146C82.3635 210.72 82.5711 211.327 82.7486 211.965C83.0735 213.117 83.2476 214.379 83.9844 215.359C84.7446 216.373 85.9369 216.822 86.9249 217.554C87.9128 218.286 88.3482 219.487 88.4018 220.686C87.099 217.037 82.6314 217.242 82.3467 213.16C82.1726 210.73 80.7995 208.743 79.2321 207.383Z" fill="#1F367A"/>
<path d="M49.4844 261.882C49.4844 261.882 50.2848 268.307 50.2848 268.653C50.2848 268.767 52.9841 268.955 56.725 269.045C64.2134 269.22 75.868 268.988 78.4133 266.927C82.5761 263.557 81.6953 251.577 80.5299 243.427C79.8768 238.872 79.1367 235.512 79.1367 235.512C78.363 230.259 80.2787 223.079 74.3877 226.647C66.4104 233.263 71.5444 257.68 69.1566 258.841C68.5638 259.126 53.6606 261.12 49.4844 261.882Z" fill="url(#paint16_linear_687_45055)"/>
<path d="M227.313 252.742C226.787 255.115 217.865 248.348 213.803 249.184C211.579 249.644 207.199 252.44 204.476 253.527C192.741 258.186 177.443 267.296 167.098 269.303C153.179 271.995 110.382 268.901 110.382 268.901L107.793 254.46C107.793 254.46 121.768 244.588 132.85 246.999C143.932 249.419 160.463 258.774 167.797 254.276C172.6 251.335 190.346 247.109 202.202 245.532C204.396 245.243 206.392 245.042 208.059 244.954C208.059 244.954 209.955 238.99 212.085 238.51C214.922 237.875 216.774 241.611 220.36 244.77C224.51 248.422 228.003 249.617 227.313 252.742Z" fill="#F9CBCB"/>
<path d="M107.797 254.457L110.386 268.897C110.386 268.897 134.757 270.659 152.701 270.364C158.535 270.27 163.685 269.961 167.098 269.3C168.032 269.119 169.027 268.89 170.069 268.618C179.58 266.151 193.174 260.26 203.586 256.024C205.327 255.316 206.211 253.366 205.602 251.58L204.513 248.401L203.803 246.32C203.298 244.837 201.878 243.853 200.314 243.92C186.144 244.541 170.822 249.868 166.304 252.637C163.297 254.48 158.438 254.034 153.149 252.752C145.547 250.912 137.061 247.337 131.937 246.367C123.015 244.682 107.797 254.457 107.797 254.457Z" fill="url(#paint17_linear_687_45055)"/>
<path d="M150.908 256.736L152.697 270.364C158.531 270.27 163.681 269.961 167.094 269.3C168.028 269.119 169.023 268.89 170.065 268.618C170.339 268.37 174.767 262.778 175.922 257.508C177.074 252.238 174.382 251.013 179.834 250.758C185.286 250.499 189.583 245.394 193.752 245.891C197.148 246.293 202.379 249.569 204.509 248.401L203.799 246.32C203.294 244.837 201.874 243.853 200.31 243.92C186.14 244.541 170.818 249.868 166.3 252.637C163.293 254.48 158.433 254.034 153.145 252.752C151.946 254.896 150.908 256.736 150.908 256.736Z" fill="#E6E7E8"/>
<path d="M165.878 267.622C154.143 273.446 125.442 267.031 110.535 268.73C109.949 263.483 109.919 260.405 109.668 255.303C115.994 251.527 121.627 245.774 129.909 246.348C138.192 246.915 156.531 257.512 156.474 248.865C156.36 233.847 157.529 224.365 162.877 211.623C163.674 209.72 164.555 207.743 165.553 205.665C166.407 203.879 162.583 201.775 162.984 199.831C163.242 198.582 166.521 197.716 168.919 196.401C172.955 194.182 179.137 193.524 181.247 194.86C183.27 196.139 173.413 200.002 171.364 204.403C170.761 206.038 170.664 209.881 170.56 212.697C169.914 229.313 175.915 262.634 165.878 267.622Z" fill="#F9CBCB"/>
<path d="M107.723 254.279C107.837 256.639 108.255 258.834 108.727 261.026C109.273 263.57 109.896 266.121 110.211 268.941C119.317 269.478 151.17 273.506 164.757 269.196C165.651 268.911 166.465 268.592 167.191 268.233C176.528 263.594 173.853 233.914 173.95 216.423C173.963 214.301 172.376 212.516 170.272 212.264L164.08 211.535C163.98 211.522 163.882 211.515 163.779 211.512C161.97 211.431 160.296 212.529 159.683 214.258C155.664 225.573 156.371 235.089 156.478 248.871C156.518 254.974 147.553 251.285 139.361 248.385C135.942 247.176 132.66 246.102 130.225 245.934C121.936 245.354 114.049 250.499 107.723 254.279Z" fill="url(#paint18_linear_687_45055)"/>
<path d="M108.725 261.026C109.271 263.57 109.893 266.122 110.208 268.941C119.314 269.478 151.167 273.506 164.754 269.196C154.934 269.666 139.874 270.304 133.139 266.833C128.233 264.302 123.095 265.826 118.554 267.612C113.698 269.522 113.139 254.481 108.996 253.343L108.725 261.026Z" fill="#E6E7E8"/>
<path d="M73.9745 253.618C74.1085 253.813 74.2492 254.007 74.3865 254.199C78.6263 260.016 84.2728 263.574 89.8288 265.736C90.9575 266.175 92.0827 266.555 93.1913 266.89C102.317 269.619 110.355 268.955 110.355 268.955C111.099 266.961 111.487 264.903 111.48 262.768C111.47 259.778 110.687 256.646 108.995 253.343C108.995 253.343 105.234 246.727 100.646 240.145C99.1793 238.04 97.6254 235.939 96.0882 234.059C93.5496 230.957 91.3292 227.967 89.2461 227.127C83.814 224.949 79.266 225.506 79.266 225.506L72.799 228.027C69.0247 236.801 69.3294 246.938 73.9745 253.618Z" fill="url(#paint19_linear_687_45055)"/>
<path d="M74.3867 254.195C78.6266 260.012 84.273 263.57 89.8291 265.732C90.9577 266.172 92.083 266.551 93.1915 266.887C93.0877 265.51 92.9571 263.728 92.6892 261.882C92.2404 258.794 87.0427 240.537 87.0427 240.537L81.2757 239.943C81.2757 239.943 79.6681 249.086 81.0144 252.044C82.3608 255.001 83.774 258.73 81.7847 259.052C80.4049 259.274 76.9454 256.051 74.3867 254.195Z" fill="#FFE8DB"/>
<path d="M89.8301 265.732C100.246 269.787 110.356 268.948 110.356 268.948C111.1 266.954 111.488 264.896 111.482 262.762C105.658 263.195 104.412 265.511 101.719 265.413C99.0232 265.316 99.3112 261.748 100.225 257.844C101.14 253.937 99.3614 248.973 100.467 243.914C100.785 242.447 100.795 241.188 100.647 240.138C99.1806 238.033 97.6266 235.932 96.0894 234.052C94.3077 235.737 92.7069 237.281 92.6265 237.449C92.4557 237.795 90.2922 260.774 89.8301 265.732Z" fill="#FFE8DB"/>
<path d="M79.2737 225.506C79.066 234.005 73.7042 234.579 72.7966 228.027L72.023 225.348L70.4992 220.068L70.2949 219.34L74.8027 217.437L75.9983 219.581L77.4484 222.223L79.2737 225.506Z" fill="#F9CBCB"/>
<path d="M77.4487 222.223C76.8793 222.864 76.1928 223.569 75.6 224.016C74.3307 224.972 72.0333 225.348 72.0333 225.348H72.0199L70.4961 220.068L72.4787 219.209L75.9952 219.585L77.4487 222.223Z" fill="#F9BDBD"/>
<path d="M66.6374 212.637C66.6374 212.637 65.0065 224.432 70.9711 224.301C76.9391 224.173 78.2854 217.796 78.2854 217.796C78.2854 217.796 80.7938 216.04 79.8494 214.318C78.9049 212.596 77.5419 214.792 77.5419 214.792C77.5419 214.792 71.9724 213.587 70.7467 209.585C70.1037 211.291 67.4781 209.857 66.6374 212.637Z" fill="#F9CBCB"/>
<path d="M66.4956 214.151C66.8004 213.892 68.5385 213.956 68.7328 211.311C68.7328 211.311 69.6672 213.667 71.8541 214.506C71.8541 214.506 71.4756 212.415 72.2158 211.771C72.2158 211.771 72.8521 213.956 74.463 215.604C76.0739 217.249 76.1777 219.864 76.0906 220.478C76.0906 220.478 78.2239 216.487 77.323 213.14C76.4255 209.794 74.5567 209.149 74.5567 209.149C74.5567 209.149 69.1079 207.558 67.0717 210.619C65.8526 212.455 66.4956 214.151 66.4956 214.151Z" fill="#1F367A"/>
<path d="M228.76 251.174C228.455 250.815 227.802 250.14 226.924 249.284C226.867 249.227 226.814 249.174 226.754 249.116C226.713 249.076 226.666 249.033 226.626 248.992C225.782 248.17 224.761 247.203 223.656 246.179C223.629 246.156 223.602 246.132 223.579 246.106C223.003 245.568 222.403 245.021 221.794 244.471C221.73 244.414 221.666 244.353 221.603 244.296C221.013 243.763 220.421 243.232 219.831 242.709C219.754 242.641 219.68 242.574 219.607 242.511C219.356 242.289 219.108 242.071 218.863 241.856C218.816 241.816 218.766 241.772 218.719 241.728C218.441 241.487 218.167 241.252 217.895 241.02C217.815 240.953 217.738 240.886 217.661 240.819C217.447 240.638 217.236 240.46 217.028 240.285C216.961 240.228 216.894 240.171 216.827 240.117C216.572 239.906 216.325 239.701 216.08 239.503C216.013 239.449 215.95 239.399 215.886 239.345C215.695 239.191 215.511 239.043 215.33 238.902C215.266 238.852 215.203 238.802 215.139 238.751C214.918 238.577 214.704 238.412 214.499 238.261C214.456 238.228 214.416 238.201 214.372 238.167C214.208 238.046 214.051 237.932 213.9 237.828C213.85 237.791 213.796 237.758 213.749 237.724C213.575 237.603 213.408 237.496 213.26 237.402C213.24 237.388 213.223 237.382 213.203 237.368C213.076 237.291 212.959 237.227 212.855 237.174C212.822 237.157 212.791 237.14 212.761 237.127C212.647 237.076 212.547 237.036 212.47 237.019C211.968 236.922 211.388 237.435 210.809 238.254L210.805 238.258C209.154 240.587 207.617 244.981 207.617 244.981C208.558 245.575 209.128 244.877 210.893 246.062C211.529 246.492 211.834 247.055 211.964 247.606C212.182 248.526 213.002 249.241 213.947 249.402C214.295 249.459 214.674 249.543 215.082 249.654C215.266 249.701 215.454 249.758 215.648 249.818C216 249.925 216.372 250.056 216.753 250.204C216.931 250.271 217.112 250.345 217.293 250.426C217.725 250.607 218.167 250.815 218.622 251.05C218.813 251.151 219.011 251.255 219.205 251.365C219.7 251.644 220.203 251.956 220.709 252.302C220.826 252.382 220.946 252.466 221.067 252.554C221.264 252.695 221.455 252.829 221.646 252.953C222.065 253.228 222.463 253.47 222.849 253.678C222.969 253.742 223.086 253.806 223.207 253.866C226.777 255.655 228.813 254.497 229.195 253.03C229.352 252.399 229.215 251.711 228.76 251.174Z" fill="#1F367A"/>
<path d="M182.192 193.047C181.74 193.074 180.842 193.195 179.673 193.38C179.596 193.393 179.526 193.403 179.446 193.417C179.389 193.427 179.332 193.437 179.275 193.443C178.153 193.625 176.817 193.86 175.39 194.125C175.357 194.132 175.323 194.138 175.29 194.145C174.543 194.283 173.776 194.43 172.999 194.585C172.918 194.601 172.835 194.618 172.754 194.632C172.004 194.783 171.251 194.934 170.507 195.092C170.413 195.112 170.32 195.132 170.222 195.152C169.908 195.219 169.596 195.286 169.288 195.353C169.228 195.367 169.168 195.38 169.107 195.394C168.759 195.471 168.421 195.548 168.086 195.622C167.989 195.645 167.892 195.665 167.794 195.689C167.53 195.749 167.272 195.81 167.017 195.87C166.934 195.89 166.85 195.911 166.77 195.931C166.458 196.005 166.157 196.082 165.865 196.156C165.785 196.176 165.708 196.196 165.631 196.216C165.403 196.276 165.182 196.333 164.968 196.391C164.894 196.411 164.817 196.431 164.743 196.451C164.482 196.525 164.231 196.595 163.997 196.666C163.946 196.679 163.899 196.696 163.853 196.709C163.662 196.766 163.484 196.824 163.317 196.881C163.26 196.901 163.203 196.918 163.149 196.938C162.955 197.005 162.774 197.069 162.62 197.132C162.6 197.142 162.583 197.149 162.563 197.156C162.429 197.21 162.312 197.263 162.212 197.314C162.181 197.33 162.151 197.344 162.121 197.361C162.017 197.418 161.927 197.475 161.87 197.525C161.505 197.857 161.569 198.606 161.867 199.526V199.529C162.711 202.154 165.574 205.588 165.574 205.588C166.619 205.484 166.013 204.648 167.945 203.96C168.645 203.711 169.258 203.802 169.754 204.017C170.588 204.379 171.616 204.154 172.282 203.513C172.527 203.278 172.811 203.03 173.133 202.775C173.277 202.661 173.427 202.547 173.588 202.429C173.876 202.218 174.188 202.006 174.523 201.795C174.677 201.697 174.837 201.6 175.005 201.503C175.393 201.274 175.812 201.05 176.254 200.831C176.442 200.741 176.636 200.65 176.833 200.563C177.332 200.338 177.865 200.13 178.424 199.935C178.555 199.888 178.689 199.845 178.826 199.801C179.047 199.73 179.261 199.657 179.469 199.583C179.925 199.418 180.34 199.247 180.722 199.069C180.842 199.015 180.959 198.958 181.07 198.901C184.509 197.163 184.787 194.917 183.873 193.772C183.478 193.292 182.868 193.004 182.192 193.047Z" fill="#1F367A"/>
<path d="M56.2152 268.095C57.8562 268.32 59.0585 265.51 59.735 266.188C60.1737 266.628 61.4229 267.726 63.4223 268.226C63.7137 268.3 64.0184 268.36 64.3399 268.407C64.9628 268.491 65.6427 268.515 66.3828 268.447C67.2134 268.374 67.6588 268.135 67.8464 267.813C68.5195 266.675 66.0446 264.47 66.0446 264.47C66.0446 264.47 65.3915 264.134 64.4638 263.752C62.7324 263.033 60.0364 262.14 58.7973 262.906C56.8883 264.084 54.5775 267.87 56.2152 268.095Z" fill="#F9CBCB"/>
<path d="M64.334 269.246C64.334 269.592 90.6942 271.626 94.5087 268.538C95.0312 268.115 95.4799 267.534 95.8584 266.83V266.826C100.182 258.794 95.7278 234.324 95.7278 234.324C94.9541 229.071 85.972 223.673 82.1408 229.403C78.8554 234.314 81.1963 242.675 82.6766 250.865C83.0082 252.688 83.3096 254.356 83.5206 255.773C83.8956 258.304 83.976 260.012 83.3866 260.294C83.1254 260.425 80.1648 260.744 76.5948 261.127C72.9812 261.513 68.7413 261.966 66.0353 262.352C65.265 262.459 64.6588 263.02 64.4679 263.745C64.4278 263.896 64.4043 264.054 64.401 264.215C64.3842 265.349 64.3641 266.853 64.3507 267.921C64.3474 268.092 64.3474 268.253 64.3474 268.401C64.3373 268.864 64.334 269.176 64.334 269.246Z" fill="url(#paint20_linear_687_45055)"/>
<path d="M38.0599 256.464L39.4866 255.441L32.0383 254.937L30.3906 256.004L38.0599 256.464Z" fill="white"/>
<path d="M164.251 231.729C164.251 231.729 164.241 231.605 164.023 231.394C164.171 231.602 164.251 231.729 164.251 231.729Z" fill="#F58C4F"/>
<path d="M139.357 248.382C139.357 248.382 148.547 255.035 151.692 254.42C154.76 253.826 158.671 254.921 158.799 254.968C158.698 254.89 156.35 252.823 157.482 251.141C158.651 249.406 158.732 246.767 158.028 241.048C157.322 235.328 157.131 228.96 160.661 229.927C162.821 230.518 163.685 231.061 164.026 231.394C163.336 230.397 161.186 227.5 159.247 226.97C156.9 226.332 158.092 223.113 159.375 218.743C160.406 215.225 163.042 212.684 163.779 211.509C161.97 211.428 160.296 212.526 159.683 214.255C155.664 225.57 156.37 235.086 156.478 248.868C156.514 254.967 147.549 251.279 139.357 248.382Z" fill="#E6E7E8"/>
<path d="M68.3285 268.669H57.9901C57.9867 268.447 57.9566 268.219 57.8862 267.991L50.3442 242.887C50.0294 241.833 49.0615 241.114 47.9631 241.114H19.2653C17.5974 241.114 16.4052 242.725 16.8841 244.327L24.4261 269.431C24.7409 270.485 25.7088 271.203 26.8073 271.203H50.6892H55.5051H68.3285C68.5328 271.203 68.6969 271.039 68.6969 270.834V269.038C68.6969 268.837 68.5294 268.669 68.3285 268.669Z" fill="url(#paint21_linear_687_45055)"/>
<path d="M52.8926 195.162C52.8926 193.618 54.1418 192.362 55.6857 192.362C57.2262 192.362 58.4788 193.614 58.4788 195.162C58.4788 196.706 57.2296 197.961 55.6857 197.961C54.1418 197.961 52.8926 196.709 52.8926 195.162ZM59.5705 203.332C60.4446 203.332 61.1546 202.62 61.1546 201.744C61.1546 200.868 60.4446 200.156 59.5705 200.156C58.6964 200.156 57.9865 200.868 57.9865 201.744C57.9865 202.62 58.6964 203.332 59.5705 203.332Z" fill="url(#paint22_linear_687_45055)"/>
<path d="M220.12 64.3639C231.399 64.3639 240.542 55.5108 240.542 44.5899C240.542 33.669 231.399 24.8159 220.12 24.8159C208.841 24.8159 199.697 33.669 199.697 44.5899C199.697 55.5108 208.841 64.3639 220.12 64.3639Z" fill="url(#paint23_linear_687_45055)"/>
<path d="M219.818 46.6712C224.196 46.6712 227.745 43.2342 227.745 38.9945C227.745 34.7548 224.196 31.3179 219.818 31.3179C215.44 31.3179 211.891 34.7548 211.891 38.9945C211.891 43.2342 215.44 46.6712 219.818 46.6712Z" fill="white"/>
<path d="M227.089 46.735C226.449 46.2516 225.558 46.2684 224.932 46.7652C223.565 47.8427 221.824 48.4939 219.918 48.4939C218.076 48.4939 216.385 47.8863 215.042 46.8659C214.403 46.3792 213.495 46.3892 212.879 46.9028C211.278 48.232 210.307 50.1453 210.307 52.636V52.8609C210.307 54.1465 211.385 55.1904 212.715 55.1904H227.531C228.86 55.1904 229.939 54.1465 229.939 52.8609V52.636C229.935 50.0379 228.847 48.0642 227.089 46.735Z" fill="white"/>
<path d="M213.183 151.14C213.035 151.14 212.905 151.062 212.878 150.955C212.848 150.834 212.958 150.717 213.126 150.693C213.133 150.693 213.799 150.603 214.941 150.418C215.108 150.391 215.276 150.468 215.313 150.589C215.35 150.71 215.246 150.831 215.078 150.858C213.926 151.042 213.246 151.136 213.24 151.136C213.223 151.136 213.203 151.14 213.183 151.14Z" fill="#3A67B3"/>
<path d="M66.5015 31.7502C65.4465 32.2672 64.4184 32.8009 63.4438 33.3312C63.3065 33.4051 63.2797 33.546 63.3835 33.6467C63.4438 33.7038 63.5376 33.7374 63.6314 33.7374C63.6983 33.7374 63.762 33.7239 63.8189 33.6904C64.7868 33.1634 65.8049 32.6364 66.8498 32.1228C66.9904 32.0523 67.0273 31.9147 66.9335 31.8107C66.8364 31.7066 66.6421 31.6797 66.5015 31.7502Z" fill="#3A67B3"/>
<path d="M46.8835 53.488C46.8869 53.3638 46.7529 53.2597 46.5788 53.2563C46.5754 53.2563 46.5721 53.2563 46.5721 53.2563C46.4046 53.2563 46.264 53.3537 46.2606 53.4745C46.2539 53.6323 46.2539 53.7901 46.2539 53.9478C46.2539 54.693 46.3142 55.4516 46.4314 56.2035C46.4482 56.3176 46.5855 56.4015 46.7395 56.4015C46.7496 56.4015 46.763 56.4015 46.7764 56.4015C46.9472 56.3881 47.0711 56.2773 47.051 56.1531C46.9371 55.418 46.8768 54.6762 46.8768 53.9478C46.8735 53.7968 46.8768 53.6424 46.8835 53.488Z" fill="#3A67B3"/>
<path d="M47.6967 58.7914C47.6566 58.6705 47.4891 58.5967 47.3217 58.6269C47.1542 58.6571 47.0504 58.7779 47.0939 58.8988C47.3819 59.7614 47.7537 60.6409 48.1924 61.5102C48.2393 61.6009 48.3565 61.6579 48.4838 61.6579C48.5206 61.6579 48.5541 61.6546 48.5909 61.6445C48.7517 61.6009 48.8354 61.4733 48.7785 61.3558C48.3431 60.4999 47.9781 59.6372 47.6967 58.7914Z" fill="#3A67B3"/>
<path d="M46.8707 51.0275C46.8874 51.0309 46.9042 51.0309 46.9209 51.0309C47.0716 51.0309 47.2022 50.9537 47.229 50.8429C47.4266 49.9769 47.7146 49.1042 48.0797 48.2516C48.1299 48.1341 48.0395 48.0065 47.8754 47.9696C47.7113 47.9327 47.5371 47.9998 47.4869 48.1173C47.1118 48.99 46.8205 49.8796 46.6162 50.7657C46.586 50.8899 46.6999 51.0074 46.8707 51.0275Z" fill="#3A67B3"/>
<path d="M89.9954 23.5738C90.0322 23.5738 90.0724 23.5704 90.1093 23.557C91.2513 23.2381 92.4268 22.9159 93.6123 22.6071C93.7731 22.5634 93.8568 22.4359 93.7999 22.3184C93.7396 22.2009 93.5621 22.1405 93.4014 22.1841C92.2124 22.4963 91.0302 22.8152 89.8849 23.1374C89.7241 23.181 89.6437 23.3119 89.7074 23.4294C89.7543 23.5201 89.8715 23.5738 89.9954 23.5738Z" fill="#3A67B3"/>
<path d="M97.0387 21.724C97.0722 21.724 97.1057 21.7206 97.1392 21.7105C98.3013 21.4252 99.4969 21.1433 100.693 20.868C100.857 20.8311 100.947 20.7035 100.897 20.5861C100.847 20.4686 100.672 20.4014 100.505 20.4384C99.3027 20.7136 98.1037 20.9989 96.9382 21.2842C96.7741 21.3245 96.6871 21.4521 96.744 21.5696C96.7909 21.6669 96.9115 21.724 97.0387 21.724Z" fill="#3A67B3"/>
<path d="M51.0223 43.0928C50.8749 43.029 50.684 43.0626 50.5936 43.17C49.9338 43.9588 49.341 44.7711 48.8286 45.5767C48.7583 45.6908 48.8253 45.8217 48.9827 45.8754C49.0262 45.8888 49.0698 45.8956 49.1133 45.8956C49.2305 45.8956 49.3444 45.8452 49.398 45.7647C49.897 44.9725 50.4797 44.1803 51.1294 43.4016C51.2165 43.2942 51.1696 43.1565 51.0223 43.0928Z" fill="#3A67B3"/>
<path d="M60.9421 35.0568C60.8316 34.9628 60.634 34.9494 60.5034 35.0299C59.5255 35.6274 58.5877 36.2383 57.7103 36.8526C57.5864 36.9399 57.583 37.0809 57.7036 37.1715C57.7639 37.2185 57.8476 37.2386 57.928 37.2386C58.005 37.2386 58.082 37.2185 58.1457 37.1748C59.0131 36.5706 59.9441 35.9631 60.912 35.3723C61.0359 35.2918 61.0526 35.1508 60.9421 35.0568Z" fill="#3A67B3"/>
<path d="M64.1082 72.2248C62.9494 71.8321 61.8409 71.4192 60.8094 70.9963C60.6621 70.9359 60.4712 70.9728 60.3841 71.0802C60.3004 71.1876 60.3506 71.3252 60.5013 71.3856C61.5462 71.8153 62.6715 72.2315 63.8436 72.631C63.8872 72.6444 63.9307 72.6511 63.9742 72.6511C64.0915 72.6511 64.202 72.6041 64.2556 72.5235C64.3326 72.4094 64.2656 72.2752 64.1082 72.2248Z" fill="#3A67B3"/>
<path d="M50.2498 63.8028C50.1694 63.692 49.9785 63.6517 49.8278 63.7121C49.6771 63.7726 49.6201 63.9068 49.7005 64.0176C50.2866 64.7997 50.9899 65.5583 51.8004 66.2833C51.8606 66.337 51.9511 66.3673 52.0415 66.3673C52.1085 66.3673 52.1788 66.3505 52.2357 66.3169C52.3697 66.2397 52.3898 66.0987 52.2826 66.0014C51.5023 65.2965 50.8158 64.558 50.2498 63.8028Z" fill="#3A67B3"/>
<path d="M57.6814 69.5699C56.6398 69.0395 55.6719 68.4823 54.8045 67.9151C54.6773 67.8311 54.4797 67.8379 54.3658 67.9318C54.2519 68.0225 54.2586 68.1668 54.3859 68.2507C55.2734 68.8348 56.2614 69.402 57.323 69.9425C57.3766 69.9693 57.4402 69.9828 57.5005 69.9828C57.5976 69.9828 57.6947 69.9492 57.755 69.8888C57.8555 69.7814 57.822 69.6404 57.6814 69.5699Z" fill="#3A67B3"/>
<path d="M55.5345 38.7894C55.4072 38.7055 55.2097 38.7155 55.0958 38.8062C54.2418 39.4976 53.438 40.2025 52.7046 40.9108C52.6008 41.0115 52.6309 41.1525 52.7682 41.2263C52.8251 41.2565 52.8888 41.2699 52.9558 41.2699C53.0495 41.2699 53.1433 41.2397 53.2036 41.1793C53.9236 40.4845 54.7173 39.7863 55.558 39.1049C55.6718 39.0143 55.6618 38.8733 55.5345 38.7894Z" fill="#3A67B3"/>
<path d="M104.185 20.0897C104.215 20.0897 104.245 20.0863 104.272 20.0796C105.454 19.8279 106.667 19.5761 107.869 19.3344C108.033 19.3009 108.13 19.1767 108.087 19.0592C108.04 18.9384 107.869 18.8679 107.705 18.9014C106.496 19.1431 105.284 19.3949 104.098 19.6466C103.934 19.6802 103.84 19.8077 103.887 19.9252C103.927 20.0259 104.051 20.0897 104.185 20.0897Z" fill="#3A67B3"/>
<path d="M244.788 91.5357C245.95 91.9318 247.059 92.348 248.083 92.7743C248.134 92.7944 248.187 92.8045 248.238 92.8045C248.345 92.8045 248.449 92.7642 248.509 92.6937C248.596 92.5863 248.542 92.4487 248.395 92.3883C247.357 91.9553 246.231 91.5323 245.053 91.1295C244.899 91.0758 244.711 91.1262 244.637 91.2369C244.564 91.3477 244.631 91.482 244.788 91.5357Z" fill="#3A67B3"/>
<path d="M250.042 120.118C250.92 120.577 251.7 121.242 252.367 122.088C252.424 122.162 252.531 122.202 252.638 122.202C252.691 122.202 252.742 122.192 252.792 122.172C252.943 122.111 252.993 121.974 252.909 121.866C252.199 120.963 251.359 120.252 250.411 119.755C250.273 119.681 250.076 119.705 249.975 119.805C249.875 119.903 249.905 120.044 250.042 120.118Z" fill="#3A67B3"/>
<path d="M243.217 120.185C243.277 120.185 243.338 120.171 243.388 120.148C244.443 119.641 245.598 119.365 246.73 119.345C246.901 119.342 247.038 119.238 247.035 119.117C247.032 118.993 246.888 118.899 246.717 118.899C245.468 118.919 244.198 119.221 243.043 119.775C242.899 119.842 242.862 119.983 242.956 120.087C243.02 120.151 243.117 120.185 243.217 120.185Z" fill="#3A67B3"/>
<path d="M111.405 18.643C111.432 18.643 111.459 18.6396 111.482 18.6362C112.675 18.4147 113.897 18.1932 115.113 17.9817C115.28 17.9515 115.384 17.8307 115.344 17.7098C115.304 17.589 115.136 17.5151 114.969 17.5453C113.75 17.7568 112.524 17.9783 111.328 18.2032C111.161 18.2334 111.06 18.3576 111.104 18.4785C111.141 18.5758 111.268 18.643 111.405 18.643Z" fill="#3A67B3"/>
<path d="M155.744 13.4399C155.751 13.4399 155.761 13.4399 155.767 13.4399C157.017 13.3728 158.263 13.3124 159.505 13.262C159.676 13.2553 159.806 13.1479 159.796 13.0237C159.786 12.8995 159.646 12.8022 159.468 12.8122C158.222 12.8659 156.973 12.9264 155.721 12.9935C155.55 13.0036 155.419 13.111 155.433 13.2352C155.449 13.3493 155.583 13.4399 155.744 13.4399Z" fill="#3A67B3"/>
<path d="M262.5 104.677C262.554 104.757 262.664 104.808 262.781 104.808C262.825 104.808 262.868 104.801 262.912 104.787C263.069 104.734 263.136 104.603 263.063 104.489C262.543 103.683 261.954 102.871 261.311 102.075C261.224 101.968 261.033 101.931 260.886 101.995C260.738 102.058 260.688 102.196 260.775 102.304C261.412 103.086 261.991 103.885 262.5 104.677Z" fill="#3A67B3"/>
<path d="M251.191 94.2275C252.222 94.7713 253.173 95.3452 254.017 95.9326C254.077 95.9763 254.154 95.9964 254.235 95.9964C254.315 95.9964 254.399 95.9729 254.459 95.9293C254.58 95.8387 254.576 95.6977 254.453 95.6104C253.588 95.0096 252.617 94.4222 251.562 93.865C251.422 93.7911 251.227 93.8146 251.127 93.9153C251.02 94.0127 251.05 94.1536 251.191 94.2275Z" fill="#3A67B3"/>
<path d="M148.269 13.9165C148.279 13.9165 148.289 13.9165 148.302 13.9165C149.548 13.8225 150.794 13.7386 152.04 13.6581C152.21 13.648 152.338 13.5372 152.321 13.413C152.304 13.2888 152.153 13.1982 151.983 13.2083C150.733 13.2888 149.484 13.3728 148.238 13.4667C148.068 13.4802 147.944 13.5909 147.96 13.7118C147.977 13.8326 148.111 13.9165 148.269 13.9165Z" fill="#3A67B3"/>
<path d="M118.693 17.3738C118.716 17.3738 118.74 17.3704 118.76 17.3671C119.965 17.1724 121.194 16.9811 122.42 16.7965C122.588 16.7696 122.698 16.6521 122.661 16.5313C122.628 16.4104 122.464 16.3299 122.293 16.3567C121.067 16.5414 119.831 16.7327 118.626 16.9274C118.458 16.9542 118.351 17.0751 118.391 17.1959C118.421 17.3033 118.552 17.3738 118.693 17.3738Z" fill="#3A67B3"/>
<path d="M126.034 16.273C126.054 16.273 126.074 16.273 126.094 16.2697C127.313 16.1018 128.549 15.9374 129.765 15.783C129.935 15.7628 130.046 15.6453 130.016 15.5211C129.986 15.4003 129.825 15.3164 129.654 15.3399C128.435 15.4943 127.196 15.6588 125.973 15.83C125.806 15.8535 125.696 15.9709 125.726 16.0918C125.756 16.1992 125.886 16.273 126.034 16.273Z" fill="#3A67B3"/>
<path d="M140.814 14.5511C140.828 14.5511 140.841 14.5511 140.855 14.5478C142.094 14.4303 143.333 14.3195 144.572 14.2121C144.743 14.1987 144.863 14.0846 144.843 13.9637C144.823 13.8395 144.666 13.7489 144.498 13.7657C143.256 13.8697 142.013 13.9839 140.771 14.1013C140.6 14.1181 140.479 14.2289 140.503 14.3531C140.526 14.4672 140.66 14.5511 140.814 14.5511Z" fill="#3A67B3"/>
<path d="M133.4 15.3365C133.417 15.3365 133.433 15.3365 133.45 15.3332C134.679 15.1888 135.912 15.0512 137.147 14.9237C137.318 14.9069 137.435 14.7928 137.409 14.6686C137.385 14.5444 137.228 14.4604 137.057 14.4772C135.821 14.6081 134.585 14.7458 133.35 14.8901C133.179 14.9102 133.065 15.0244 133.092 15.1486C133.119 15.256 133.249 15.3365 133.4 15.3365Z" fill="#3A67B3"/>
<path d="M79.5475 26.3733C78.4055 26.7728 77.2769 27.1823 76.1885 27.5918C76.0344 27.6488 75.9775 27.7865 76.0579 27.8939C76.1148 27.9711 76.222 28.0147 76.3325 28.0147C76.3827 28.0147 76.4296 28.008 76.4765 27.9879C77.5582 27.5817 78.6801 27.1722 79.8155 26.7761C79.9695 26.7224 80.0365 26.5881 79.9595 26.4774C79.8891 26.3666 79.7016 26.3196 79.5475 26.3733Z" fill="#3A67B3"/>
<path d="M253.173 134.762C253.019 134.705 252.832 134.749 252.755 134.86C252.212 135.622 251.546 136.377 250.782 137.109C250.678 137.206 250.705 137.347 250.842 137.424C250.899 137.454 250.963 137.471 251.03 137.471C251.124 137.471 251.217 137.441 251.278 137.381C252.065 136.629 252.748 135.853 253.307 135.068C253.384 134.957 253.327 134.819 253.173 134.762Z" fill="#3A67B3"/>
<path d="M244.229 128.351C243.009 127.931 242.038 127.415 241.342 126.817C241.231 126.723 241.034 126.71 240.903 126.79C240.772 126.871 240.756 127.012 240.866 127.106C241.623 127.754 242.665 128.307 243.961 128.757C244.004 128.771 244.048 128.781 244.095 128.781C244.212 128.781 244.322 128.734 244.376 128.653C244.45 128.539 244.383 128.405 244.229 128.351Z" fill="#3A67B3"/>
<path d="M255.059 129.576C254.884 129.566 254.74 129.664 254.727 129.788C254.65 130.671 254.442 131.547 254.108 132.396C254.061 132.517 254.158 132.641 254.322 132.675C254.349 132.681 254.379 132.685 254.406 132.685C254.54 132.685 254.667 132.621 254.704 132.52C255.049 131.641 255.263 130.731 255.343 129.818C255.36 129.694 255.229 129.586 255.059 129.576Z" fill="#3A67B3"/>
<path d="M254.899 127.328C254.912 127.328 254.925 127.328 254.942 127.324C255.113 127.307 255.23 127.193 255.21 127.072C255.046 126.2 254.765 125.3 254.376 124.401C254.326 124.283 254.152 124.216 253.988 124.253C253.824 124.29 253.733 124.417 253.783 124.535C254.162 125.411 254.436 126.284 254.594 127.133C254.611 127.247 254.745 127.328 254.899 127.328Z" fill="#3A67B3"/>
<path d="M71.0269 74.2187C69.8179 73.92 68.639 73.6078 67.5271 73.2889C67.3664 73.2419 67.1855 73.299 67.1219 73.4165C67.0583 73.5306 67.1353 73.6615 67.2961 73.7085C68.418 74.0307 69.6069 74.3463 70.8259 74.645C70.8594 74.6517 70.8929 74.6584 70.9264 74.6584C71.057 74.6584 71.1776 74.598 71.2211 74.5074C71.278 74.3865 71.191 74.259 71.0269 74.2187Z" fill="#3A67B3"/>
<path d="M251.692 129.244C251.662 129.123 251.501 129.04 251.331 129.063C250.115 129.221 248.886 129.241 247.7 129.123C247.53 129.107 247.372 129.191 247.349 129.315C247.325 129.439 247.442 129.55 247.613 129.57C248.149 129.624 248.695 129.65 249.241 129.65C249.968 129.65 250.708 129.603 251.441 129.506C251.612 129.483 251.723 129.365 251.692 129.244Z" fill="#3A67B3"/>
<path d="M257.87 126.794C256.895 127.371 255.86 127.855 254.792 128.231C254.638 128.284 254.574 128.419 254.648 128.533C254.701 128.613 254.812 128.66 254.926 128.66C254.973 128.66 255.02 128.654 255.063 128.637C256.172 128.244 257.25 127.741 258.261 127.143C258.395 127.066 258.415 126.922 258.305 126.828C258.198 126.727 258.004 126.713 257.87 126.794Z" fill="#3A67B3"/>
<path d="M266.05 112.35C266.037 112.226 265.879 112.132 265.715 112.145C265.545 112.155 265.417 112.266 265.431 112.387C265.498 112.954 265.531 113.528 265.531 114.092C265.531 114.414 265.521 114.74 265.498 115.059C265.488 115.183 265.622 115.287 265.792 115.294C265.799 115.294 265.802 115.294 265.809 115.294C265.973 115.294 266.111 115.2 266.121 115.079C266.144 114.753 266.154 114.421 266.154 114.089C266.154 113.518 266.121 112.931 266.05 112.35Z" fill="#3A67B3"/>
<path d="M265.415 117.533C265.247 117.51 265.083 117.587 265.05 117.711C264.809 118.59 264.477 119.456 264.065 120.282C264.008 120.4 264.089 120.527 264.253 120.571C264.286 120.581 264.323 120.584 264.36 120.584C264.487 120.584 264.608 120.527 264.651 120.437C265.076 119.587 265.415 118.701 265.663 117.798C265.696 117.677 265.586 117.557 265.415 117.533Z" fill="#3A67B3"/>
<path d="M256.978 97.6277C256.867 97.5337 256.673 97.5203 256.539 97.5975C256.405 97.6781 256.388 97.819 256.499 97.913C257.302 98.6146 258.063 99.3295 258.763 100.044C258.823 100.108 258.92 100.138 259.017 100.138C259.077 100.138 259.141 100.125 259.198 100.098C259.339 100.028 259.372 99.8867 259.272 99.786C258.562 99.061 257.791 98.336 256.978 97.6277Z" fill="#3A67B3"/>
<path d="M262.959 122.621C262.808 122.561 262.621 122.601 262.534 122.709C261.924 123.494 261.228 124.236 260.464 124.911C260.354 125.008 260.374 125.149 260.508 125.226C260.565 125.26 260.635 125.277 260.705 125.277C260.796 125.277 260.886 125.25 260.946 125.193C261.733 124.498 262.453 123.736 263.08 122.927C263.16 122.819 263.106 122.682 262.959 122.621Z" fill="#3A67B3"/>
<path d="M265.183 109.92C265.203 109.92 265.226 109.92 265.25 109.917C265.417 109.89 265.524 109.772 265.487 109.648C265.226 108.775 264.888 107.889 264.476 107.02C264.419 106.902 264.245 106.839 264.081 106.879C263.917 106.919 263.83 107.047 263.887 107.164C264.288 108.02 264.623 108.886 264.878 109.742C264.908 109.849 265.039 109.92 265.183 109.92Z" fill="#3A67B3"/>
<path d="M248.34 139.116C247.503 139.72 246.569 140.321 245.571 140.899C245.437 140.976 245.417 141.117 245.524 141.214C245.584 141.271 245.675 141.298 245.768 141.298C245.835 141.298 245.906 141.281 245.963 141.248C246.981 140.66 247.928 140.049 248.782 139.432C248.903 139.344 248.903 139.2 248.782 139.113C248.658 139.029 248.464 139.029 248.34 139.116Z" fill="#3A67B3"/>
<path d="M242.567 142.483C241.572 142.963 240.504 143.436 239.392 143.893C239.241 143.953 239.191 144.091 239.275 144.198C239.332 144.272 239.439 144.312 239.546 144.312C239.6 144.312 239.65 144.302 239.7 144.282C240.822 143.819 241.904 143.339 242.912 142.855C243.056 142.785 243.093 142.647 242.999 142.543C242.902 142.442 242.707 142.412 242.567 142.483Z" fill="#3A67B3"/>
<path d="M222.168 149.045C220.979 149.303 219.766 149.552 218.567 149.78C218.4 149.81 218.303 149.934 218.346 150.055C218.383 150.156 218.51 150.223 218.648 150.223C218.675 150.223 218.701 150.22 218.728 150.216C219.934 149.985 221.153 149.736 222.348 149.478C222.512 149.441 222.606 149.317 222.556 149.199C222.506 149.075 222.332 149.008 222.168 149.045Z" fill="#3A67B3"/>
<path d="M85.4816 76.9575C84.2358 76.7763 83.0067 76.585 81.8245 76.3903C81.657 76.3634 81.4896 76.4373 81.4527 76.5581C81.4159 76.6789 81.5197 76.7998 81.6872 76.8266C82.8761 77.0213 84.1119 77.2126 85.361 77.3973C85.3811 77.4006 85.4012 77.4006 85.4247 77.4006C85.5687 77.4006 85.6993 77.3268 85.7294 77.2194C85.7562 77.1019 85.6491 76.9844 85.4816 76.9575Z" fill="#3A67B3"/>
<path d="M78.1875 75.7526C76.9517 75.521 75.7394 75.2793 74.584 75.0343C74.4199 74.9973 74.2457 75.0678 74.1988 75.1853C74.1486 75.3028 74.2457 75.4304 74.4098 75.4639C75.5719 75.7123 76.791 75.954 78.0335 76.1856C78.0602 76.189 78.087 76.1923 78.1105 76.1923C78.2478 76.1923 78.3751 76.1252 78.4119 76.0245C78.4554 75.907 78.355 75.7828 78.1875 75.7526Z" fill="#3A67B3"/>
<path d="M72.8885 28.8903C71.7833 29.3435 70.6949 29.8067 69.6533 30.2733C69.506 30.3371 69.4624 30.478 69.5529 30.5821C69.6131 30.6492 69.7136 30.6895 69.8174 30.6895C69.8744 30.6895 69.9313 30.6794 69.9815 30.6559C71.0164 30.1927 72.0981 29.7295 73.1933 29.2797C73.344 29.2193 73.3942 29.0817 73.3105 28.9743C73.2267 28.8668 73.0359 28.8266 72.8885 28.8903Z" fill="#3A67B3"/>
<path d="M86.3984 24.1541C85.2363 24.5032 84.0742 24.8657 82.9523 25.2316C82.7949 25.282 82.7245 25.4162 82.7949 25.527C82.8451 25.6109 82.959 25.6613 83.0795 25.6613C83.1231 25.6613 83.1666 25.6546 83.2068 25.6411C84.3254 25.2786 85.4808 24.9195 86.6395 24.5704C86.7969 24.5234 86.874 24.3891 86.807 24.275C86.74 24.1575 86.5592 24.1038 86.3984 24.1541Z" fill="#3A67B3"/>
<path d="M240.828 121.722C240.678 121.661 240.49 121.698 240.403 121.806C239.76 122.611 239.422 123.481 239.422 124.323C239.422 124.384 239.425 124.447 239.429 124.511C239.435 124.632 239.573 124.726 239.74 124.726C239.743 124.726 239.75 124.726 239.753 124.726C239.924 124.719 240.058 124.615 240.051 124.491C240.048 124.434 240.045 124.38 240.045 124.323C240.045 123.561 240.356 122.766 240.942 122.031C241.029 121.92 240.979 121.782 240.828 121.722Z" fill="#3A67B3"/>
<path d="M229.248 147.303C228.109 147.618 226.923 147.927 225.731 148.219C225.567 148.259 225.48 148.387 225.537 148.504C225.581 148.598 225.701 148.655 225.832 148.655C225.865 148.655 225.899 148.652 225.932 148.642C227.134 148.347 228.323 148.038 229.472 147.719C229.633 147.675 229.713 147.544 229.65 147.43C229.586 147.316 229.408 147.259 229.248 147.303Z" fill="#3A67B3"/>
<path d="M241.482 90.4847C241.606 90.4847 241.723 90.431 241.77 90.3438C241.834 90.2296 241.753 90.0987 241.596 90.0517C240.474 89.7329 239.285 89.4207 238.059 89.122C237.899 89.0817 237.721 89.1454 237.664 89.2629C237.611 89.3804 237.698 89.508 237.862 89.5482C239.077 89.8436 240.256 90.1524 241.368 90.4713C241.405 90.4814 241.442 90.4847 241.482 90.4847Z" fill="#3A67B3"/>
<path d="M236.094 145.155C235.013 145.541 233.871 145.92 232.705 146.286C232.548 146.336 232.474 146.467 232.544 146.581C232.595 146.665 232.708 146.716 232.829 146.716C232.869 146.716 232.913 146.709 232.953 146.696C234.128 146.326 235.277 145.944 236.369 145.554C236.523 145.501 236.587 145.363 236.51 145.252C236.436 145.145 236.248 145.098 236.094 145.155Z" fill="#3A67B3"/>
<path d="M234.383 88.7529C234.517 88.7529 234.641 88.6891 234.681 88.5918C234.728 88.4709 234.634 88.3467 234.47 88.3132C233.308 88.0681 232.085 87.8298 230.84 87.6049C230.672 87.5747 230.505 87.6486 230.461 87.7694C230.418 87.8902 230.521 88.0111 230.685 88.0413C231.925 88.2662 233.137 88.5045 234.296 88.7462C234.323 88.7495 234.353 88.7529 234.383 88.7529Z" fill="#3A67B3"/>
<path d="M163.3 13.1213C163.136 13.1213 162.995 13.0273 162.989 12.9064C162.982 12.7822 163.116 12.6782 163.287 12.6715C163.909 12.6513 164.532 12.6345 165.155 12.6178C165.319 12.6144 165.47 12.7117 165.477 12.8326C165.484 12.9568 165.35 13.0608 165.179 13.0642C164.559 13.081 163.936 13.0978 163.317 13.1179C163.307 13.1213 163.303 13.1213 163.3 13.1213Z" fill="#3A67B3"/>
<path d="M169.586 13.3125L181.287 14.0476L177.771 7.88818L169.586 13.3125Z" fill="url(#paint24_linear_687_45055)"/>
<path d="M180.373 15.9943L195.611 11.3387L176.723 10.4458L180.373 15.9943Z" fill="url(#paint25_linear_687_45055)"/>
<path d="M195.628 11.3186L172.154 0L175.5 5.64252L195.628 11.3186Z" fill="url(#paint26_linear_687_45055)"/>
<path d="M195.611 11.3386L176.683 10.4961L169.586 13.3123L175.5 5.55176L195.611 11.3386Z" fill="url(#paint27_linear_687_45055)"/>
<path d="M262.93 69.1971C262.93 69.14 262.93 69.0796 262.927 69.0259C262.923 68.9219 262.917 68.8178 262.91 68.7171C262.91 68.6903 262.907 68.6668 262.907 68.6399C262.89 68.4419 262.866 68.2472 262.833 68.0525C262.763 67.6228 262.655 67.2033 262.515 66.8038C262.475 66.6863 262.431 66.5689 262.384 66.4547C262.364 66.4111 262.347 66.3641 262.327 66.3205C262.26 66.1661 262.19 66.015 262.116 65.8673L262.046 65.7331C261.791 65.2598 261.49 64.8133 261.142 64.4072C261.101 64.3602 261.061 64.3165 261.021 64.2696C260.917 64.1521 260.807 64.0346 260.693 63.9238C260.609 63.8399 260.525 63.7593 260.438 63.6821C259.099 62.4704 257.32 61.7319 255.371 61.7319C253.425 61.7319 251.647 62.4704 250.304 63.6821C250.217 63.7593 250.133 63.8399 250.05 63.9238C249.936 64.0346 249.825 64.1521 249.721 64.2696C249.681 64.3165 249.641 64.3602 249.601 64.4072C249.256 64.8133 248.951 65.2598 248.697 65.7331L248.626 65.8673C248.549 66.015 248.479 66.1661 248.415 66.3205C248.395 66.3641 248.378 66.4111 248.358 66.4547C248.312 66.5689 248.268 66.6863 248.228 66.8038C248.087 67.2033 247.98 67.6228 247.91 68.0525C247.879 68.2438 247.853 68.4419 247.836 68.6399C247.833 68.6668 247.833 68.6903 247.833 68.7171C247.826 68.8178 247.819 68.9219 247.816 69.0259C247.813 69.083 247.812 69.14 247.812 69.1971C247.812 69.224 247.812 69.2542 247.812 69.281C247.812 69.3918 247.816 69.4992 247.819 69.61C247.826 69.8214 247.846 70.0296 247.873 70.2343C247.896 70.4324 247.93 70.627 247.97 70.8217C247.99 70.9191 248.013 71.0131 248.037 71.107C248.077 71.2715 248.124 71.4326 248.174 71.5904C248.255 71.8354 248.345 72.0771 248.449 72.3121C248.466 72.349 248.479 72.3826 248.496 72.4195C248.573 72.584 248.653 72.7451 248.737 72.8995C248.757 72.9364 248.777 72.97 248.797 73.0035C248.894 73.1747 248.998 73.3426 249.109 73.5037C249.219 73.6682 249.34 73.8293 249.464 73.987C249.634 74.2019 249.819 74.4066 250.016 74.6047C250.224 74.8128 250.441 75.0108 250.673 75.1921C251.962 76.2158 253.59 76.8268 255.358 76.8301C255.361 76.8301 255.365 76.8301 255.371 76.8301C255.375 76.8301 255.381 76.8301 255.385 76.8301C257.153 76.8268 258.781 76.2158 260.07 75.1921C260.301 75.0108 260.519 74.8128 260.726 74.6047C260.921 74.41 261.105 74.2052 261.279 73.987C261.406 73.8293 261.523 73.6682 261.634 73.5037C261.744 73.3426 261.848 73.1747 261.945 73.0035C261.965 72.97 261.986 72.933 262.006 72.8995C262.093 72.7417 262.173 72.584 262.247 72.4195C262.264 72.3826 262.277 72.349 262.294 72.3121C262.398 72.0771 262.488 71.8354 262.568 71.5904C262.619 71.4326 262.665 71.2715 262.706 71.107C262.729 71.0131 262.753 70.9157 262.773 70.8217C262.813 70.6304 262.846 70.4324 262.87 70.2343C262.897 70.0296 262.913 69.8214 262.923 69.61C262.93 69.5026 262.93 69.3918 262.93 69.281C262.93 69.2508 262.93 69.224 262.93 69.1971ZM262.103 68.0491C262.14 68.2405 262.166 68.4385 262.183 68.6365C262.187 68.6634 262.187 68.6869 262.19 68.7138H260.137C260.103 68.0559 260.02 67.4147 259.882 66.8005H261.751C261.905 67.2033 262.026 67.6195 262.103 68.0491ZM259.467 69.3146C259.467 69.9356 259.417 70.5364 259.32 71.107H257.9C257.95 70.523 257.977 69.9154 257.977 69.2978C257.977 69.2642 257.977 69.2307 257.977 69.1938H259.467C259.467 69.2374 259.467 69.2743 259.467 69.3146ZM251.269 69.3146C251.269 69.2743 251.269 69.234 251.272 69.1938H252.762C252.762 69.2273 252.762 69.2609 252.762 69.2978C252.762 69.9154 252.789 70.523 252.839 71.107H251.419C251.319 70.5364 251.269 69.9356 251.269 69.3146ZM257.384 69.2978C257.384 69.9221 257.354 70.5297 257.3 71.107H255.659V69.1938H257.384C257.384 69.2307 257.384 69.2642 257.384 69.2978ZM253.348 69.2978C253.348 69.2642 253.348 69.2307 253.348 69.1938H255.073V71.107H253.432C253.379 70.5297 253.348 69.9221 253.348 69.2978ZM255.663 62.8531C255.964 63.0041 256.249 63.38 256.493 63.9238H255.663V62.8531ZM255.073 62.8531V63.9238H254.243C254.49 63.38 254.772 63.0041 255.073 62.8531ZM255.073 64.4072V66.3205H253.58C253.7 65.5954 253.857 64.9476 254.048 64.4072H255.073ZM255.073 66.8038V68.7171H253.358C253.379 68.0491 253.429 67.4047 253.509 66.8038H255.073ZM255.073 71.5904V73.5037H253.841C253.69 72.9398 253.569 72.2919 253.486 71.5904H255.073ZM255.073 73.987V75.7459C254.658 75.5412 254.276 74.9034 253.981 73.987H255.073ZM255.663 75.7459V73.987H256.754C256.456 74.9034 256.078 75.5378 255.663 75.7459ZM255.663 73.5037V71.5904H257.253C257.17 72.2919 257.049 72.9364 256.898 73.5037H255.663ZM255.663 68.7138V66.8005H257.227C257.307 67.4013 257.357 68.0424 257.377 68.7138H255.663ZM255.663 66.3205V64.4072H256.684C256.875 64.9442 257.036 65.5954 257.153 66.3205H255.663ZM257.351 64.4072H258.198C258.543 64.9543 258.831 65.6021 259.045 66.3205H257.762C257.662 65.629 257.525 64.9845 257.351 64.4072ZM257.19 63.9238C257.049 63.5311 256.895 63.1921 256.728 62.9068C257.14 63.1484 257.518 63.4942 257.86 63.9238H257.19ZM254.008 62.9068C253.841 63.1921 253.687 63.5311 253.546 63.9238H252.876C253.214 63.4908 253.596 63.1451 254.008 62.9068ZM253.385 64.4072C253.211 64.9845 253.074 65.629 252.97 66.3205H251.687C251.902 65.6021 252.19 64.9577 252.535 64.4072H253.385ZM252.903 66.8038C252.829 67.4147 252.782 68.0558 252.766 68.7171H251.282C251.319 68.0458 251.413 67.4047 251.557 66.8038H252.903ZM252.883 71.5904C252.957 72.2684 253.067 72.9129 253.204 73.5037H252.143C251.872 72.9331 251.654 72.2886 251.506 71.5904H252.883ZM253.325 73.987C253.372 74.1515 253.419 74.3093 253.469 74.4637C253.636 74.9739 253.827 75.4002 254.035 75.7459C253.402 75.3868 252.839 74.7758 252.391 73.9904H253.325V73.987ZM256.697 75.7426C256.905 75.3968 257.096 74.9705 257.263 74.4603C257.314 74.3059 257.361 74.1482 257.407 73.9837H258.342C257.893 74.7725 257.33 75.3834 256.697 75.7426ZM257.531 73.5037C257.669 72.9129 257.779 72.2718 257.853 71.5904H259.229C259.079 72.2886 258.864 72.9297 258.593 73.5037H257.531ZM257.97 68.7138C257.953 68.0559 257.906 67.4114 257.833 66.8005H259.179C259.323 67.4013 259.417 68.0424 259.454 68.7138H257.97ZM261.215 65.7331C261.242 65.7767 261.269 65.8237 261.296 65.8673C261.383 66.015 261.463 66.1661 261.537 66.3205H259.758C259.568 65.6324 259.313 64.9879 258.995 64.4072H260.16C260.566 64.8033 260.921 65.2463 261.215 65.7331ZM259.611 63.9238H258.707C258.462 63.5479 258.194 63.2189 257.906 62.937C258.395 63.1317 258.861 63.3834 259.29 63.6821C259.397 63.7593 259.504 63.8399 259.611 63.9238ZM251.45 63.6821C251.878 63.3834 252.34 63.1317 252.833 62.937C252.548 63.2156 252.28 63.5479 252.032 63.9238H251.128C251.232 63.8399 251.339 63.7593 251.45 63.6821ZM249.44 65.8673C249.467 65.8237 249.494 65.7767 249.52 65.7331C249.819 65.2463 250.174 64.8033 250.579 64.4072H251.744C251.426 64.9845 251.172 65.629 250.981 66.3205H249.202C249.273 66.1661 249.353 66.0117 249.44 65.8673ZM248.549 68.6365C248.569 68.4385 248.596 68.2438 248.633 68.0491C248.71 67.6161 248.831 67.1999 248.988 66.8005H250.857C250.719 67.4114 250.636 68.0525 250.602 68.7138H248.546C248.546 68.6869 248.549 68.6634 248.549 68.6365ZM248.697 70.8217C248.65 70.6304 248.616 70.4324 248.586 70.2343C248.556 70.0296 248.539 69.8214 248.526 69.61C248.522 69.4992 248.519 69.3918 248.519 69.281C248.519 69.2542 248.519 69.224 248.519 69.1971H250.582C250.582 69.2374 250.579 69.2777 250.579 69.3179C250.579 69.9289 250.626 70.5297 250.713 71.1104H248.764C248.744 71.0131 248.72 70.9157 248.697 70.8217ZM249.631 73.0035C249.608 72.97 249.584 72.933 249.564 72.8995C249.467 72.7417 249.373 72.584 249.289 72.4195C249.269 72.3826 249.253 72.349 249.236 72.3121C249.119 72.0771 249.015 71.8354 248.924 71.5904H250.807C250.94 72.2684 251.138 72.9096 251.389 73.5037H249.989C249.862 73.3426 249.745 73.1747 249.631 73.0035ZM251.081 74.6013C250.843 74.41 250.619 74.2052 250.411 73.9837H251.614C251.714 74.1851 251.825 74.3798 251.939 74.5677C252.176 74.9504 252.434 75.2827 252.709 75.5747C252.441 75.4606 252.183 75.3331 251.932 75.1887C251.637 75.0142 251.349 74.8195 251.081 74.6013ZM259.655 74.6013C259.387 74.8161 259.099 75.0142 258.801 75.1887C258.553 75.3331 258.292 75.4606 258.024 75.5747C258.298 75.2861 258.56 74.9504 258.794 74.5677C258.911 74.3798 259.018 74.1851 259.119 73.9837H260.321C260.117 74.2052 259.892 74.41 259.655 74.6013ZM261.5 72.3121C261.483 72.349 261.463 72.3826 261.446 72.4195C261.363 72.584 261.269 72.7451 261.172 72.8995C261.148 72.9364 261.128 72.97 261.105 73.0035C260.994 73.1747 260.874 73.3426 260.746 73.5037H259.347C259.598 72.9129 259.795 72.2684 259.929 71.5904H261.811C261.721 71.8388 261.617 72.0805 261.5 72.3121ZM260.016 71.107C260.107 70.5263 260.15 69.9255 260.15 69.3146C260.15 69.2743 260.15 69.234 260.147 69.1938H262.21C262.21 69.2206 262.21 69.2508 262.21 69.2777C262.21 69.3884 262.207 69.4958 262.203 69.6066C262.193 69.8181 262.173 70.0262 262.143 70.231C262.116 70.429 262.079 70.627 262.036 70.8184C262.012 70.9157 261.989 71.0097 261.962 71.1037H260.016V71.107Z" fill="#ABD5F5"/>
<path d="M68.5774 51.7426L81.642 51.6989C81.1798 51.0142 80.3459 50.5543 79.3948 50.5577L78.5542 50.561V48.6914C78.5709 48.6276 78.581 48.5638 78.581 48.4967L78.5743 46.3954C78.5676 44.6466 77.1476 43.2301 75.3994 43.2368L70.7442 43.2536C68.9961 43.2603 67.5861 44.6836 67.5928 46.4324L67.6062 50.6013L66.7991 50.6047C65.848 50.608 65.0174 51.0712 64.5586 51.7594L67.6096 51.7493L68.5774 51.7426ZM70.9385 44.7675L75.2185 44.754C76.2333 44.7507 77.0605 45.5731 77.0639 46.5901L77.0672 48.0973V50.5677L69.1166 50.5946L69.1032 46.617C69.1032 45.5999 69.9237 44.7708 70.9385 44.7675Z" fill="#ABD5F5"/>
<path d="M82.0313 52.9377C82.0313 52.6692 81.9811 52.4141 81.8906 52.1758L64.3216 52.2362C64.2312 52.4779 64.1843 52.733 64.1877 53.0015L64.1944 55.2068C64.2078 59.6846 68.2165 63.3031 73.143 63.2863C75.6079 63.2796 77.8316 62.3632 79.4425 60.8896C81.0534 59.4161 82.0447 57.3853 82.038 55.1464L82.0313 52.9377ZM73.1329 59.9229C71.4852 59.9296 70.1456 58.5937 70.1389 56.9422C70.1355 55.2907 71.4651 53.9481 73.1128 53.9414C74.7606 53.938 76.1035 55.2706 76.1069 56.9221C76.1102 58.5735 74.7806 59.9162 73.1329 59.9229Z" fill="#ABD5F5"/>
<path d="M73.0768 55.5525C72.7118 55.576 72.4204 55.8781 72.4104 56.2439C72.4037 56.5091 72.5443 56.7441 72.7553 56.8683L72.6314 58.4895C72.6281 58.5567 72.6783 58.6137 72.7453 58.6137L73.5055 58.6104C73.5725 58.6104 73.6227 58.5533 73.6194 58.4862L73.4854 56.8649C73.6897 56.7407 73.827 56.5158 73.827 56.2574C73.827 55.8546 73.4854 55.529 73.0768 55.5525Z" fill="#ABD5F5"/>
<path d="M268.824 210.435C268.844 210.703 267.554 217.497 267.832 217.561C268.784 217.886 269.674 216.715 270.123 215.852C271.55 212.697 269.755 208.602 265.937 208.803C263.874 208.796 262.005 209.837 261.104 211.734C258.201 218.205 264.42 223.539 270.143 219.162H271.851C267.541 224.338 259.028 222.049 259.142 214.879C259.115 212.324 260.307 209.76 262.417 208.468C264.621 207.075 268.412 207.242 270.207 209.226C271.982 210.908 272.337 214.191 271.212 216.413C270.582 218.01 267.176 220.491 266.245 218.081C264.189 220.347 261.315 218.366 261.526 215.486C261.299 212.482 264.473 207.816 267.052 211.374L267.203 210.431H268.824V210.435ZM263.271 215.903C263.14 217.309 264.353 218.561 265.471 217.4C266.252 216.369 267.029 213.086 266.205 211.905C264.979 210.713 263.807 212.267 263.559 213.677C263.368 214.486 263.271 215.228 263.271 215.903Z" fill="#ABD5F5"/>
<path d="M282.959 145.614C283.053 145.769 283.083 145.953 283.04 146.135C282.983 146.373 282.805 146.558 282.568 146.628L280.284 147.296C280.046 147.367 279.801 147.306 279.62 147.135C279.443 146.964 279.373 146.719 279.429 146.48L279.995 144.164C280.052 143.926 280.23 143.741 280.468 143.671C280.705 143.6 280.95 143.661 281.131 143.832L282.849 145.48C282.892 145.52 282.929 145.564 282.959 145.614ZM279.972 146.712C279.979 146.726 279.989 146.736 279.995 146.742C280.012 146.759 280.062 146.796 280.136 146.776L282.42 146.108C282.494 146.088 282.514 146.027 282.521 146.004C282.527 145.98 282.534 145.917 282.48 145.866L280.762 144.218C280.709 144.164 280.645 144.178 280.622 144.185C280.598 144.191 280.541 144.215 280.521 144.289L279.955 146.605C279.945 146.652 279.959 146.689 279.972 146.712Z" fill="url(#paint28_linear_687_45055)"/>
<path d="M30.143 114.972C30.2367 115.127 30.2669 115.311 30.2233 115.493C30.1664 115.731 29.9889 115.916 29.7511 115.986L27.4671 116.654C27.2293 116.725 26.9848 116.664 26.804 116.493C26.6265 116.322 26.5561 116.077 26.6131 115.838L27.1791 113.522C27.236 113.284 27.4135 113.099 27.6513 113.029C27.8891 112.958 28.1335 113.019 28.3144 113.19L30.0324 114.838C30.076 114.878 30.1128 114.922 30.143 114.972ZM27.1556 116.07C27.1623 116.083 27.1724 116.093 27.1791 116.1C27.1958 116.117 27.2461 116.154 27.3197 116.134L29.6038 115.466C29.6774 115.446 29.6976 115.385 29.7042 115.362C29.7109 115.338 29.7176 115.274 29.6641 115.224L27.946 113.576C27.8924 113.522 27.8288 113.536 27.8053 113.542C27.7819 113.549 27.725 113.573 27.7049 113.646L27.1389 115.963C27.1288 116.01 27.1422 116.046 27.1556 116.07Z" fill="url(#paint29_linear_687_45055)"/>
<path d="M32.2113 212.862C32.3051 213.016 32.3352 213.201 32.2917 213.382C32.2348 213.62 32.0573 213.805 31.8195 213.875L29.5354 214.543C29.2977 214.614 29.0532 214.553 28.8723 214.382C28.6948 214.211 28.6245 213.966 28.6814 213.728L29.2474 211.411C29.3044 211.173 29.4819 210.989 29.7196 210.918C29.9574 210.848 30.2019 210.908 30.3827 211.079L32.1008 212.727C32.1443 212.768 32.1812 212.811 32.2113 212.862ZM29.224 213.959C29.2307 213.973 29.2407 213.983 29.2474 213.989C29.2642 214.006 29.3144 214.046 29.3881 214.023L31.6721 213.355C31.7458 213.335 31.7659 213.274 31.7726 213.251C31.7793 213.227 31.786 213.164 31.7324 213.113L30.0144 211.465C29.9608 211.411 29.8971 211.425 29.8737 211.432C29.8503 211.438 29.7933 211.462 29.7732 211.536L29.2072 213.852C29.1972 213.899 29.2072 213.936 29.224 213.959Z" fill="url(#paint30_linear_687_45055)"/>
<path d="M100.555 10.5031C100.649 10.6575 100.679 10.8422 100.635 11.0234C100.579 11.2617 100.401 11.4463 100.163 11.5168L97.8792 12.1848C97.6414 12.2553 97.3969 12.1949 97.2161 12.0237C97.0386 11.8525 96.9683 11.6075 97.0252 11.3691L97.5912 9.05306C97.6481 8.81474 97.8256 8.63012 98.0634 8.55963C98.3012 8.48914 98.5456 8.54956 98.7265 8.72075L100.445 10.3689C100.488 10.4091 100.525 10.4561 100.555 10.5031ZM97.5677 11.6041C97.5744 11.6175 97.5845 11.6276 97.5912 11.6343C97.6079 11.6511 97.6582 11.6914 97.7318 11.6679L100.016 10.9999C100.09 10.9798 100.11 10.9194 100.116 10.8959C100.123 10.8724 100.13 10.8086 100.076 10.7582L98.3581 9.11012C98.3045 9.05642 98.2409 9.06984 98.2174 9.07656C98.194 9.08327 98.1371 9.10677 98.117 9.18061L97.551 11.4967C97.5409 11.5403 97.5543 11.5773 97.5677 11.6041Z" fill="url(#paint31_linear_687_45055)"/>
<path d="M244.772 17.6696C244.866 17.824 244.896 18.0087 244.852 18.1899C244.795 18.4282 244.618 18.6129 244.38 18.6833L242.096 19.3513C241.858 19.4218 241.614 19.3614 241.433 19.1902C241.255 19.019 241.185 18.774 241.242 18.5356L241.808 16.2196C241.865 15.9812 242.042 15.7966 242.28 15.7261C242.518 15.6556 242.762 15.7161 242.943 15.8873L244.661 17.5354C244.705 17.5756 244.742 17.6226 244.772 17.6696ZM241.785 18.7706C241.791 18.784 241.801 18.7941 241.808 18.8008C241.825 18.8176 241.875 18.8579 241.949 18.8344L244.233 18.1664C244.306 18.1463 244.326 18.0859 244.333 18.0624C244.34 18.0389 244.347 17.9751 244.293 17.9247L242.575 16.2766C242.521 16.2229 242.458 16.2363 242.434 16.2431C242.411 16.2498 242.354 16.2733 242.334 16.3471L241.768 18.6632C241.758 18.7102 241.771 18.7438 241.785 18.7706Z" fill="url(#paint32_linear_687_45055)"/>
<path d="M243.741 105.7L244.581 104.858C244.772 104.667 244.772 104.358 244.581 104.166C244.39 103.975 244.082 103.975 243.891 104.166L243.051 105.009L242.21 104.166C242.019 103.975 241.711 103.975 241.52 104.166C241.329 104.358 241.329 104.667 241.52 104.858L242.361 105.7L241.523 106.54C241.333 106.731 241.333 107.04 241.523 107.231C241.617 107.325 241.745 107.375 241.868 107.375C241.992 107.375 242.12 107.328 242.213 107.231L243.051 106.392L243.888 107.231C243.982 107.325 244.109 107.375 244.233 107.375C244.357 107.375 244.484 107.328 244.578 107.231C244.769 107.04 244.769 106.731 244.578 106.54L243.741 105.7Z" fill="url(#paint33_linear_687_45055)"/>
<path d="M151.162 23.5735L152.003 22.731C152.194 22.5396 152.194 22.2308 152.003 22.0395C151.812 21.8482 151.504 21.8482 151.313 22.0395L150.473 22.882L149.632 22.0395C149.441 21.8482 149.133 21.8482 148.942 22.0395C148.751 22.2308 148.751 22.5396 148.942 22.731L149.783 23.5735L148.945 24.4126C148.754 24.604 148.754 24.9128 148.945 25.1041C149.039 25.1981 149.166 25.2484 149.29 25.2484C149.414 25.2484 149.541 25.2014 149.635 25.1041L150.473 24.2649L151.31 25.1041C151.404 25.1981 151.531 25.2484 151.655 25.2484C151.779 25.2484 151.906 25.2014 152 25.1041C152.191 24.9128 152.191 24.604 152 24.4126L151.162 23.5735Z" fill="url(#paint34_linear_687_45055)"/>
<path d="M37.7269 97.5476L38.5675 96.7051C38.7584 96.5138 38.7584 96.2049 38.5675 96.0136C38.3766 95.8223 38.0685 95.8223 37.8776 96.0136L37.037 96.8561L36.1964 96.0136C36.0055 95.8223 35.6973 95.8223 35.5065 96.0136C35.3156 96.2049 35.3156 96.5138 35.5065 96.7051L36.3471 97.5476L35.5098 98.3868C35.3189 98.5781 35.3189 98.8869 35.5098 99.0782C35.6036 99.1722 35.7308 99.2226 35.8548 99.2226C35.9787 99.2226 36.1059 99.1756 36.1997 99.0782L37.037 98.2391L37.8742 99.0782C37.968 99.1722 38.0953 99.2226 38.2192 99.2226C38.3431 99.2226 38.4703 99.1756 38.5641 99.0782C38.755 98.8869 38.755 98.5781 38.5641 98.3868L37.7269 97.5476Z" fill="url(#paint35_linear_687_45055)"/>
<path d="M260.735 196.099C259.677 196.099 258.816 195.236 258.816 194.175C258.816 193.115 259.677 192.252 260.735 192.252C261.794 192.252 262.654 193.115 262.654 194.175C262.654 195.236 261.79 196.099 260.735 196.099ZM260.735 192.856C260.009 192.856 259.419 193.447 259.419 194.175C259.419 194.904 260.012 195.494 260.735 195.494C261.462 195.494 262.052 194.904 262.052 194.175C262.052 193.447 261.462 192.856 260.735 192.856Z" fill="url(#paint36_linear_687_45055)"/>
<path d="M7.91899 165.456C6.86069 165.456 6 164.593 6 163.533C6 162.472 6.86069 161.609 7.91899 161.609C8.97728 161.609 9.83799 162.472 9.83799 163.533C9.83799 164.593 8.97393 165.456 7.91899 165.456ZM7.91899 162.214C7.19225 162.214 6.60282 162.804 6.60282 163.533C6.60282 164.261 7.1956 164.852 7.91899 164.852C8.64572 164.852 9.23517 164.261 9.23517 163.533C9.23517 162.804 8.64572 162.214 7.91899 162.214Z" fill="url(#paint37_linear_687_45055)"/>
<path d="M19.4424 74.5747C18.3841 74.5747 17.5234 73.7121 17.5234 72.6514C17.5234 71.5907 18.3841 70.728 19.4424 70.728C20.5007 70.728 21.3614 71.5907 21.3614 72.6514C21.3581 73.7121 20.4974 74.5747 19.4424 74.5747ZM19.4424 71.3322C18.7157 71.3322 18.1263 71.923 18.1263 72.6514C18.1263 73.3798 18.7157 73.9705 19.4424 73.9705C20.1692 73.9705 20.7586 73.3798 20.7586 72.6514C20.7586 71.923 20.1692 71.3322 19.4424 71.3322Z" fill="url(#paint38_linear_687_45055)"/>
<g clip-path="url(#clip0_687_45055)">
<path d="M149.56 180.846C149.56 180.846 161.523 182.951 176.148 169.656C188.464 158.459 193.513 140.459 198.575 111.791C175.09 106.143 165.333 91.5405 165.333 91.5405H165.332C165.332 91.5405 151.162 101.93 127.158 99.2219C122.094 127.888 120.671 146.528 128.408 161.254C137.595 178.74 149.558 180.846 149.56 180.846C149.558 180.846 149.56 180.846 149.56 180.846Z" fill="url(#paint39_linear_687_45055)"/>
<path d="M150.94 172.556C150.077 172.302 142.337 169.69 135.856 157.351C129.913 146.039 130.465 130.967 134.185 108.059C147.294 108.202 157.299 104.937 163.425 102.142C168.197 106.875 176.459 113.35 188.943 117.707C184.591 140.498 179.946 154.847 170.487 163.446C160.139 172.854 152.136 172.648 150.94 172.556Z" fill="url(#paint40_linear_687_45055)"/>
<path d="M154.171 131.29H152.768V131.647H154.171V131.29Z" fill="#407BFF"/>
<path d="M160.199 131.29H155.623V131.647H160.199V131.29Z" fill="#407BFF"/>
<path d="M168.573 125.203L167.686 135.37C167.608 136.287 166.8 137.029 165.884 137.029C164.969 137.029 164.293 136.287 164.375 135.37L165.261 125.203C165.55 121.918 163.114 119.247 159.838 119.247H156.206C152.926 119.247 150.028 121.918 149.739 125.203L149.376 129.354H146.064L146.428 125.203C146.873 120.089 151.392 115.93 156.494 115.93H160.123C165.229 115.927 169.018 120.089 168.573 125.203Z" fill="#407BFF"/>
<g opacity="0.5">
<path opacity="0.5" d="M168.573 125.203L167.686 135.37C167.608 136.287 166.8 137.029 165.884 137.029C164.969 137.029 164.293 136.287 164.375 135.37L165.261 125.203C165.55 121.918 163.114 119.247 159.838 119.247H156.206C152.926 119.247 150.028 121.918 149.739 125.203L149.376 129.354H146.064L146.428 125.203C146.873 120.089 151.392 115.93 156.494 115.93H160.123C165.229 115.927 169.018 120.089 168.573 125.203Z" fill="white"/>
</g>
<path d="M168.812 134.996L167.082 154.803C166.971 156.055 165.871 157.071 164.621 157.071H144.844C143.594 157.071 142.668 156.058 142.778 154.803L144.509 134.996C144.58 134.186 145.068 133.476 145.738 133.073C146.104 132.852 146.528 132.728 146.97 132.728H166.747C167.174 132.728 167.566 132.849 167.886 133.052C168.509 133.452 168.883 134.172 168.812 134.996Z" fill="#407BFF"/>
<path d="M148.244 143.648L153.383 151.569L170.329 134.596C170.478 134.447 170.272 134.215 170.108 134.347L153.959 147.025L150.911 142.1L148.244 143.648Z" fill="white"/>
</g>
<defs>
<linearGradient id="paint0_linear_687_45055" x1="95.719" y1="127.53" x2="36.5387" y2="112.266" gradientUnits="userSpaceOnUse">
<stop stop-color="#ABDCFF"/>
<stop offset="1" stop-color="#73B2FF"/>
</linearGradient>
<linearGradient id="paint1_linear_687_45055" x1="96.911" y1="122.906" x2="37.7307" y2="107.642" gradientUnits="userSpaceOnUse">
<stop stop-color="#ABDCFF"/>
<stop offset="1" stop-color="#73B2FF"/>
</linearGradient>
<linearGradient id="paint2_linear_687_45055" x1="94.9228" y1="119.404" x2="49.8224" y2="78.0771" gradientUnits="userSpaceOnUse">
<stop stop-color="#ABDCFF"/>
<stop offset="1" stop-color="#73B2FF"/>
</linearGradient>
<linearGradient id="paint3_linear_687_45055" x1="98.1456" y1="115.886" x2="53.0449" y2="74.5592" gradientUnits="userSpaceOnUse">
<stop stop-color="#ABDCFF"/>
<stop offset="1" stop-color="#73B2FF"/>
</linearGradient>
<linearGradient id="paint4_linear_687_45055" x1="222.511" y1="180.363" x2="273.45" y2="178.906" gradientUnits="userSpaceOnUse">
<stop stop-color="#ABDCFF"/>
<stop offset="1" stop-color="#73B2FF"/>
</linearGradient>
<linearGradient id="paint5_linear_687_45055" x1="222.396" y1="176.381" x2="273.335" y2="174.924" gradientUnits="userSpaceOnUse">
<stop stop-color="#ABDCFF"/>
<stop offset="1" stop-color="#73B2FF"/>
</linearGradient>
<linearGradient id="paint6_linear_687_45055" x1="224.952" y1="171.618" x2="269.259" y2="146.385" gradientUnits="userSpaceOnUse">
<stop stop-color="#ABDCFF"/>
<stop offset="1" stop-color="#73B2FF"/>
</linearGradient>
<linearGradient id="paint7_linear_687_45055" x1="222.981" y1="168.159" x2="267.289" y2="142.926" gradientUnits="userSpaceOnUse">
<stop stop-color="#ABDCFF"/>
<stop offset="1" stop-color="#73B2FF"/>
</linearGradient>
<linearGradient id="paint8_linear_687_45055" x1="236.074" y1="191.252" x2="243.508" y2="266.165" gradientUnits="userSpaceOnUse">
<stop offset="0.1885" stop-color="#FFBE69"/>
<stop offset="1" stop-color="#FF8F5C"/>
</linearGradient>
<linearGradient id="paint9_linear_687_45055" x1="158.917" y1="-6.06271" x2="158.917" y2="321.231" gradientUnits="userSpaceOnUse">
<stop stop-color="#ABDCFF"/>
<stop offset="1" stop-color="#73B2FF"/>
</linearGradient>
<linearGradient id="paint10_linear_687_45055" x1="107.184" y1="-6.06279" x2="107.184" y2="321.231" gradientUnits="userSpaceOnUse">
<stop stop-color="#ABDCFF"/>
<stop offset="1" stop-color="#73B2FF"/>
</linearGradient>
<linearGradient id="paint11_linear_687_45055" x1="110.722" y1="-6.06283" x2="110.722" y2="321.231" gradientUnits="userSpaceOnUse">
<stop stop-color="#ABDCFF"/>
<stop offset="1" stop-color="#73B2FF"/>
</linearGradient>
<linearGradient id="paint12_linear_687_45055" x1="110.722" y1="-6.06284" x2="110.722" y2="321.23" gradientUnits="userSpaceOnUse">
<stop stop-color="#ABDCFF"/>
<stop offset="1" stop-color="#73B2FF"/>
</linearGradient>
<linearGradient id="paint13_linear_687_45055" x1="110.722" y1="-6.06268" x2="110.722" y2="321.231" gradientUnits="userSpaceOnUse">
<stop stop-color="#ABDCFF"/>
<stop offset="1" stop-color="#73B2FF"/>
</linearGradient>
<linearGradient id="paint14_linear_687_45055" x1="66.7039" y1="225.788" x2="71.5155" y2="225.788" gradientUnits="userSpaceOnUse">
<stop stop-color="#326AB3"/>
<stop offset="1" stop-color="#003780"/>
</linearGradient>
<linearGradient id="paint15_linear_687_45055" x1="63.9327" y1="212.728" x2="69.9457" y2="212.728" gradientUnits="userSpaceOnUse">
<stop stop-color="#326AB3"/>
<stop offset="1" stop-color="#003780"/>
</linearGradient>
<linearGradient id="paint16_linear_687_45055" x1="58.3394" y1="256.845" x2="79.5413" y2="245.114" gradientUnits="userSpaceOnUse">
<stop offset="0.1885" stop-color="#FFBE69"/>
<stop offset="1" stop-color="#FF8F5C"/>
</linearGradient>
<linearGradient id="paint17_linear_687_45055" x1="107.796" y1="257.157" x2="205.794" y2="257.157" gradientUnits="userSpaceOnUse">
<stop stop-color="#326AB3"/>
<stop offset="1" stop-color="#003780"/>
</linearGradient>
<linearGradient id="paint18_linear_687_45055" x1="182.919" y1="234.109" x2="104.201" y2="259.734" gradientUnits="userSpaceOnUse">
<stop stop-color="#326AB3"/>
<stop offset="1" stop-color="#003780"/>
</linearGradient>
<linearGradient id="paint19_linear_687_45055" x1="70.2051" y1="247.23" x2="111.48" y2="247.23" gradientUnits="userSpaceOnUse">
<stop offset="0.1885" stop-color="#FFBE69"/>
<stop offset="1" stop-color="#FF8F5C"/>
</linearGradient>
<linearGradient id="paint20_linear_687_45055" x1="77.5498" y1="270.472" x2="100.481" y2="224.842" gradientUnits="userSpaceOnUse">
<stop offset="0.1885" stop-color="#FFBE69"/>
<stop offset="1" stop-color="#FF8F5C"/>
</linearGradient>
<linearGradient id="paint21_linear_687_45055" x1="16.7781" y1="256.16" x2="68.6958" y2="256.16" gradientUnits="userSpaceOnUse">
<stop stop-color="#ABDCFF"/>
<stop offset="1" stop-color="#73B2FF"/>
</linearGradient>
<linearGradient id="paint22_linear_687_45055" x1="57.0221" y1="193.301" x2="57.0221" y2="203.285" gradientUnits="userSpaceOnUse">
<stop stop-color="#326AB3"/>
<stop offset="1" stop-color="#003780"/>
</linearGradient>
<linearGradient id="paint23_linear_687_45055" x1="208.751" y1="29.1591" x2="238.653" y2="69.5531" gradientUnits="userSpaceOnUse">
<stop stop-color="#326AB3"/>
<stop offset="1" stop-color="#003780"/>
</linearGradient>
<linearGradient id="paint24_linear_687_45055" x1="169.587" y1="10.9681" x2="181.286" y2="10.9681" gradientUnits="userSpaceOnUse">
<stop stop-color="#ABDCFF"/>
<stop offset="1" stop-color="#73B2FF"/>
</linearGradient>
<linearGradient id="paint25_linear_687_45055" x1="176.721" y1="13.219" x2="195.612" y2="13.219" gradientUnits="userSpaceOnUse">
<stop stop-color="#ABDCFF"/>
<stop offset="1" stop-color="#73B2FF"/>
</linearGradient>
<linearGradient id="paint26_linear_687_45055" x1="172.155" y1="5.65974" x2="195.627" y2="5.65974" gradientUnits="userSpaceOnUse">
<stop stop-color="#ABDCFF"/>
<stop offset="1" stop-color="#73B2FF"/>
</linearGradient>
<linearGradient id="paint27_linear_687_45055" x1="169.587" y1="9.43184" x2="195.613" y2="9.43184" gradientUnits="userSpaceOnUse">
<stop stop-color="#ABDCFF"/>
<stop offset="1" stop-color="#73B2FF"/>
</linearGradient>
<linearGradient id="paint28_linear_687_45055" x1="279.636" y1="144.992" x2="283.405" y2="147.462" gradientUnits="userSpaceOnUse">
<stop stop-color="#96D3FF"/>
<stop offset="1" stop-color="#73B2FF"/>
</linearGradient>
<linearGradient id="paint29_linear_687_45055" x1="26.8195" y1="114.35" x2="30.5883" y2="116.82" gradientUnits="userSpaceOnUse">
<stop stop-color="#96D3FF"/>
<stop offset="1" stop-color="#73B2FF"/>
</linearGradient>
<linearGradient id="paint30_linear_687_45055" x1="28.8877" y1="212.24" x2="32.6565" y2="214.71" gradientUnits="userSpaceOnUse">
<stop stop-color="#96D3FF"/>
<stop offset="1" stop-color="#73B2FF"/>
</linearGradient>
<linearGradient id="paint31_linear_687_45055" x1="97.2315" y1="9.88276" x2="101" y2="12.3527" gradientUnits="userSpaceOnUse">
<stop stop-color="#96D3FF"/>
<stop offset="1" stop-color="#73B2FF"/>
</linearGradient>
<linearGradient id="paint32_linear_687_45055" x1="241.449" y1="17.0493" x2="245.218" y2="19.5193" gradientUnits="userSpaceOnUse">
<stop stop-color="#96D3FF"/>
<stop offset="1" stop-color="#73B2FF"/>
</linearGradient>
<linearGradient id="paint33_linear_687_45055" x1="241.378" y1="105.7" x2="244.723" y2="105.7" gradientUnits="userSpaceOnUse">
<stop offset="0.1885" stop-color="#FFBE69"/>
<stop offset="1" stop-color="#FF8F5C"/>
</linearGradient>
<linearGradient id="paint34_linear_687_45055" x1="148.798" y1="23.5735" x2="152.143" y2="23.5735" gradientUnits="userSpaceOnUse">
<stop offset="0.1885" stop-color="#FFBE69"/>
<stop offset="1" stop-color="#FF8F5C"/>
</linearGradient>
<linearGradient id="paint35_linear_687_45055" x1="35.5488" y1="95.9845" x2="38.8351" y2="99.4171" gradientUnits="userSpaceOnUse">
<stop offset="0.1885" stop-color="#FFBE69"/>
<stop offset="1" stop-color="#FF8F5C"/>
</linearGradient>
<linearGradient id="paint36_linear_687_45055" x1="258.817" y1="194.175" x2="262.652" y2="194.175" gradientUnits="userSpaceOnUse">
<stop stop-color="#326AB3"/>
<stop offset="1" stop-color="#003780"/>
</linearGradient>
<linearGradient id="paint37_linear_687_45055" x1="6.00013" y1="163.533" x2="9.83528" y2="163.533" gradientUnits="userSpaceOnUse">
<stop stop-color="#326AB3"/>
<stop offset="1" stop-color="#003780"/>
</linearGradient>
<linearGradient id="paint38_linear_687_45055" x1="17.5235" y1="72.6518" x2="21.3587" y2="72.6518" gradientUnits="userSpaceOnUse">
<stop stop-color="#326AB3"/>
<stop offset="1" stop-color="#003780"/>
</linearGradient>
<linearGradient id="paint39_linear_687_45055" x1="121.738" y1="129.907" x2="193.148" y2="142.52" gradientUnits="userSpaceOnUse">
<stop stop-color="#5EB4FA"/>
<stop offset="1" stop-color="#6188EA"/>
</linearGradient>
<linearGradient id="paint40_linear_687_45055" x1="129.861" y1="132.541" x2="184.613" y2="142.211" gradientUnits="userSpaceOnUse">
<stop stop-color="white"/>
<stop offset="1" stop-color="#E6F3FB"/>
</linearGradient>
<clipPath id="clip0_687_45055">
<rect width="75.5936" height="89.4279" fill="white" transform="translate(122.982 91.5405)"/>
</clipPath>
</defs>
</svg>
