<svg width="304" height="183" viewBox="0 0 304 183" fill="none" xmlns="http://www.w3.org/2000/svg">
<path d="M152 183C235.671 183 303.5 175.613 303.5 166.5C303.5 157.387 235.671 150 152 150C68.3289 150 0.5 157.387 0.5 166.5C0.5 175.613 68.3289 183 152 183Z" fill="url(#paint0_linear_229_45143)"/>
<g clip-path="url(#clip0_229_45143)">
<path d="M229.021 78.4951C229.021 109.217 211.439 135.813 185.821 148.701C182.054 150.601 178.109 152.203 174.017 153.469H174.007C166.661 155.764 158.861 157 150.765 157C139.485 157 128.766 154.606 119.083 150.294C111.44 146.901 104.449 142.312 98.3354 136.773C82.4693 122.411 72.5 101.62 72.5 78.4951C72.5 35.1428 107.545 0 150.765 0C193.985 0 229.021 35.1428 229.021 78.4951Z" fill="#E4ECF4"/>
<path opacity="0.5" d="M90.0719 51.6706C89.9931 51.6508 89.9438 51.631 89.9142 51.6211C85.3585 50.2561 82.3509 46.3591 81.1972 40.375C80.3393 35.934 80.8028 31.9479 80.8225 31.7797L80.8915 31.2258L81.4437 31.2357C81.5226 31.2357 81.5916 31.2357 81.6705 31.2357C85.6444 31.2357 88.8196 28.5454 89.7071 27.7244L89.7268 27.7046C89.7367 27.7046 89.7663 27.675 89.8156 27.6255L90.2396 27.2002L90.6636 27.6255C90.7129 27.675 90.7622 27.7145 90.7622 27.7145C91.6497 28.5454 94.8347 31.2357 98.8086 31.2357C98.8875 31.2357 98.9566 31.2357 99.0354 31.2357L99.5876 31.2258L99.6567 31.7797C99.6764 31.9479 100.13 35.934 99.282 40.375C98.1282 46.3591 95.1207 50.2462 90.5749 51.6211C90.5255 51.6409 90.4762 51.6508 90.3974 51.6706L90.2494 51.7101L90.0719 51.6706Z" fill="#E1EBF4"/>
<path d="M91.058 49.7022C90.8214 49.7912 90.5748 49.8802 90.3283 49.9495C90.3283 49.9495 90.3086 49.9594 90.2198 49.9791C90.141 49.9594 90.1114 49.9495 90.1114 49.9495C80.5267 47.0811 82.2523 32.571 82.2523 32.571C86.1572 32.6699 89.2831 30.029 90.1114 29.2476C90.1114 29.2476 90.1508 29.208 90.2198 29.1487C90.2198 29.1487 90.2198 29.1586 90.2297 29.1586C90.2889 29.208 90.3283 29.2476 90.3283 29.2476C91.1566 30.0191 94.2825 32.6699 98.1973 32.571C98.1973 32.5809 99.8243 46.3393 91.058 49.7022Z" fill="#BDDCFD"/>
<path d="M170.388 12.789H169.698C169.718 12.1164 169.639 10.8899 168.939 10.0887C168.505 9.60409 167.923 9.34692 167.203 9.34692C166.405 9.34692 165.783 9.61398 165.34 10.1382C164.669 10.9394 164.62 12.1164 164.659 12.7791H163.969C163.614 12.7791 163.328 13.0659 163.328 13.422V19.9006C163.328 20.2567 163.614 20.5435 163.969 20.5435H170.388C170.743 20.5435 171.029 20.2567 171.029 19.9006V13.422C171.029 13.0758 170.743 12.789 170.388 12.789ZM165.981 10.6921C166.257 10.3558 166.661 10.1976 167.203 10.1976C167.677 10.1976 168.042 10.3459 168.308 10.6525C168.83 11.246 168.87 12.2549 168.86 12.7989H165.498C165.458 12.2054 165.507 11.246 165.981 10.6921Z" fill="#BDDCFD"/>
<path d="M168.29 79.7152L178.703 90.2195L222.17 59.1914C222.17 59.1914 225.68 64.6512 226.39 66.2437C227.09 67.8263 199.618 108.548 180.636 116.134C161.654 123.71 157.088 91.812 157.088 91.812L168.29 79.7152Z" fill="#F9CBCB"/>
<path d="M145.768 58.4792C145.768 58.4792 166.821 70.2792 174.542 79.0427C182.273 87.8061 173.043 98.6664 168.142 99.5863C163.251 100.486 138.866 77.0348 145.768 58.4792Z" fill="url(#paint1_linear_229_45143)"/>
<path d="M95.6948 75.551C95.6948 75.551 78.4088 98.2608 87.2638 108.122C91.4251 112.761 100.487 104.512 100.487 104.512L95.6948 75.551Z" fill="#FFB5B5"/>
<path d="M123.088 58.4792C123.088 58.4792 96.3457 64.4633 89.946 76.2237C83.5463 87.9841 98.6334 96.4212 106.512 92.5142C114.401 88.6073 123.088 58.4792 123.088 58.4792Z" fill="url(#paint2_linear_229_45143)"/>
<path d="M172.668 153.789C165.312 156.084 157.512 157.32 149.417 157.32C138.136 157.32 127.417 154.926 117.734 150.614C110.092 147.221 103.1 142.632 96.9865 137.093C96.6216 133.384 96.454 129.319 96.5033 125.046C96.5033 124.61 96.5132 124.165 96.523 123.72V123.602C96.5329 123.166 96.5428 122.721 96.5625 122.266C96.6709 118.715 96.9273 115.046 97.3415 111.337C97.4105 110.704 97.4795 110.081 97.5584 109.448C97.6274 108.913 97.6965 108.379 97.7754 107.845C97.8345 107.45 97.8838 107.054 97.943 106.658C98.0022 106.273 98.0613 105.887 98.1205 105.491C98.2092 104.927 98.298 104.364 98.3966 103.8C98.8502 101.119 99.3827 98.4487 100.014 95.8177C104.905 75.2939 115.229 57.1439 133.018 55.6009C146.784 54.414 157.532 66.392 164.868 82.4748C164.888 82.5143 164.898 82.5539 164.928 82.5935C166.2 85.3827 167.373 88.3006 168.428 91.2975C169.079 93.1274 169.69 94.977 170.262 96.8365C170.588 97.9047 170.893 98.973 171.199 100.051C171.248 100.229 171.298 100.407 171.347 100.595C171.692 101.851 172.018 103.107 172.333 104.373C172.481 105.006 172.639 105.64 172.787 106.273C172.935 106.906 173.073 107.529 173.211 108.162C173.349 108.795 173.477 109.428 173.605 110.061C173.733 110.684 173.861 111.317 173.98 111.94C174.098 112.573 174.216 113.196 174.325 113.819C174.433 114.452 174.542 115.076 174.64 115.699C174.739 116.292 174.828 116.886 174.926 117.469C174.926 117.519 174.936 117.558 174.946 117.598C175.035 118.201 175.114 118.795 175.193 119.398C175.281 120.011 175.36 120.615 175.429 121.218C175.479 121.594 175.518 121.96 175.558 122.326C175.587 122.553 175.617 122.771 175.636 122.988C175.666 123.275 175.696 123.562 175.725 123.849C175.765 124.175 175.794 124.492 175.824 124.808C175.932 125.995 176.031 127.162 176.1 128.31C176.179 129.457 176.228 130.585 176.268 131.692C176.287 132.108 176.297 132.513 176.307 132.919C176.504 142.286 175.321 149.922 172.668 153.789Z" fill="url(#paint3_linear_229_45143)"/>
<path opacity="0.1" d="M172.668 153.789C172.599 153.898 172.52 153.997 172.442 154.105C172.511 154.007 172.589 153.898 172.668 153.789C165.312 156.084 157.512 157.32 149.417 157.32C138.136 157.32 127.417 154.926 117.734 150.614C110.092 147.221 103.1 142.632 96.9865 137.093C96.6216 133.384 96.454 129.319 96.5033 125.046C96.5033 124.611 96.5132 124.165 96.523 123.72V123.602C96.5329 123.166 96.5428 122.721 96.5625 122.266C96.6709 118.715 96.9273 115.046 97.3415 111.337C97.4105 110.704 97.4795 110.081 97.5584 109.448C97.6274 108.913 97.6965 108.379 97.7754 107.845C97.8345 107.45 97.8838 107.054 97.943 106.658C98.0022 106.273 98.0613 105.887 98.1205 105.491C98.2092 104.927 98.298 104.364 98.3966 103.8C98.8502 101.119 99.3827 98.4488 100.014 95.8178C102.597 95.4914 105.25 95.5408 107.715 96.2332C109.283 96.6684 110.821 97.4102 111.936 98.6268C113.286 100.091 113.533 101.901 112.813 103.74C112.034 105.729 110.594 107.41 109.273 109.042C107.952 110.674 106.69 112.375 105.684 114.215C103.416 118.389 102.38 123.176 102.775 127.914C102.962 130.298 103.534 132.652 104.431 134.867C105.279 136.954 106.423 139.121 107.922 140.822C108.514 141.485 109.441 142.434 110.368 142.553C111.166 142.652 111.679 141.89 112.33 141.593C113.119 141.257 114.322 142.068 114.943 142.513C115.742 143.087 116.422 143.809 117.063 144.561C118.306 146.025 119.361 147.686 120.83 148.952C122.023 149.971 123.483 150.535 125.001 150.881C126.52 151.227 128.403 151.504 129.872 150.802C130.572 150.476 131.066 149.892 131.253 149.14C131.49 148.22 131.174 147.281 130.789 146.45C130.385 145.55 129.793 144.669 129.586 143.69C129.409 142.84 129.675 141.86 130.188 141.158C131.204 139.764 133.156 139.457 134.763 139.477C136.854 139.496 138.806 140.06 140.709 140.891C142.613 141.722 144.417 142.751 146.34 143.522C148.361 144.323 150.472 144.749 152.651 144.62C154.603 144.501 156.783 144.135 158.272 142.751C159.475 141.633 160.096 140.07 160.727 138.596C161.131 137.637 161.555 136.687 162.058 135.768C162.679 134.63 163.448 133.582 164.237 132.553C165.036 131.534 165.854 130.535 166.604 129.477C167.353 128.399 167.965 127.261 168.527 126.074C169.592 123.79 170.43 121.376 170.765 118.874C171.396 114.205 170.026 109.715 168.122 105.501C167.166 103.394 166.052 101.357 165.194 99.2104C164.346 97.0739 163.616 94.8781 163.024 92.6625C162.423 90.4272 161.93 88.1621 161.664 85.8575C161.417 83.7903 161.319 81.6539 161.743 79.5965C161.861 79.0327 162.058 78.1821 162.423 77.5293C163.271 79.1217 164.089 80.7735 164.868 82.4748C164.888 82.5144 164.898 82.5539 164.928 82.5935C166.19 85.3927 167.363 88.3105 168.428 91.2976C169.079 93.1274 169.69 94.977 170.262 96.8366C170.588 97.9048 170.893 98.973 171.199 100.051C171.248 100.229 171.298 100.407 171.347 100.595C171.692 101.851 172.018 103.107 172.333 104.373C172.481 105.007 172.639 105.64 172.787 106.273C172.935 106.906 173.073 107.529 173.211 108.162C173.349 108.795 173.477 109.428 173.605 110.061C173.733 110.684 173.861 111.317 173.98 111.94C174.098 112.573 174.216 113.196 174.325 113.819C174.433 114.452 174.542 115.076 174.64 115.699C174.739 116.292 174.828 116.886 174.926 117.469C174.926 117.519 174.936 117.558 174.946 117.598C175.035 118.201 175.114 118.795 175.193 119.398C175.281 120.011 175.36 120.615 175.429 121.218C175.479 121.594 175.518 121.96 175.558 122.326C175.587 122.553 175.617 122.771 175.636 122.988C175.666 123.275 175.696 123.562 175.725 123.849C175.765 124.175 175.794 124.492 175.824 124.808C175.932 125.995 176.031 127.162 176.1 128.31C176.179 129.457 176.228 130.585 176.268 131.692C176.287 132.108 176.297 132.513 176.307 132.919C176.504 142.286 175.321 149.922 172.668 153.789Z" fill="black"/>
<path d="M137.86 44.7505L140.966 58.3902C140.966 58.3902 132.071 62.6829 127.279 57.2527L128.275 45.5714L137.86 44.7505Z" fill="#F9CBCB"/>
<path opacity="0.18" d="M128.305 47.2826C126.5 56.8967 138.609 52.9501 138.629 54.869C138.649 56.6988 136.903 58.0143 135.326 58.7858C134.28 59.3002 133.156 59.6365 132.003 59.8343C136.371 60.6058 140.976 58.3902 140.976 58.3902L137.87 44.7505L128.305 47.2826Z" fill="#390F2A"/>
<path d="M115.702 23.0101C116.136 20.4187 118.02 18.4405 120.376 17.758C121.432 14.7907 124.479 12.9114 127.683 13.4554C129.113 13.6928 130.356 14.395 131.302 15.3644C133.689 13.8214 136.627 13.129 139.654 13.6334C146.093 14.7214 150.442 20.844 149.357 27.3127C148.273 33.7715 142.169 38.1335 135.72 37.0455C131.283 36.2937 127.841 33.1583 126.48 29.1623C125.05 30.3789 122.97 35.3541 120.978 35.0178C117.379 34.4046 115.091 26.6203 115.702 23.0101Z" fill="#1D2149"/>
<path opacity="0.2" d="M132.989 14.4543C134.31 14.2367 135.7 14.2268 137.11 14.4642C144.043 15.6313 148.726 22.2286 147.553 29.1919C147.247 31.0415 146.547 32.7329 145.561 34.1967C147.504 32.4658 148.884 30.0821 149.348 27.3126C150.432 20.8439 146.094 14.7213 139.645 13.6432C137.308 13.2377 135.02 13.5641 132.989 14.4543Z" fill="#EEF7FF"/>
<path opacity="0.2" d="M115.702 23.0101C116.136 20.4187 118.02 18.4504 120.376 17.758C121.432 14.7907 124.479 12.9114 127.683 13.4554C127.9 13.495 128.097 13.5543 128.305 13.6136C126.885 13.5642 125.435 13.851 124.271 14.4643C122.22 15.5523 121.856 18.1239 122.319 20.2703C120.021 20.1516 118.473 22.4166 118.138 24.6125C117.911 26.0565 118.039 27.6984 118.552 29.0733C118.661 29.37 118.809 29.6272 118.976 29.8745C116.501 31.8823 115.229 25.8389 115.702 23.0101Z" fill="#EEF7FF"/>
<path d="M144.516 33.3461C144.516 33.3461 145.364 28.3017 139.102 24.8201C132.85 21.3483 121.688 27.3719 121.688 27.3719C121.688 27.3719 121.441 30.3986 121.254 32.9604C120.445 32.5252 119.114 32.6537 118.513 34.0088C117.596 36.0859 117.99 38.707 121.264 39.2016C121.303 39.528 121.343 39.8544 121.402 40.1808C122.141 45.0966 128.502 51.7038 132.416 52.1094C141.064 53.0094 145.206 39.5774 145.206 39.5774C145.206 39.5774 148.204 38.5982 148.204 34.7407C148.194 30.8931 144.516 33.3461 144.516 33.3461Z" fill="#F9CBCB"/>
<path d="M135.73 23.8212C135.73 23.8212 140.128 33.4452 144.506 33.3463C144.506 33.3463 145.669 21.5661 134.606 20.755C120.662 19.7363 120.248 28.7272 120.248 28.7272C120.248 28.7272 136.154 34.7607 135.73 23.8212Z" fill="#1D2149"/>
<path d="M140.414 32.7627C140.414 32.7627 135.039 33.2177 134.428 32.7627C133.817 32.3077 135.345 30.9724 137.771 31.2494C140.207 31.5263 141.015 32.6638 140.414 32.7627Z" fill="#33143F"/>
<path d="M123.759 32.7627C123.759 32.7627 129.133 33.2177 129.744 32.7627C130.356 32.3077 128.827 30.9724 126.401 31.2494C123.956 31.5263 123.147 32.6638 123.759 32.7627Z" fill="#33143F"/>
<path d="M135.937 35.5916C135.937 36.462 136.539 37.1742 137.268 37.1742C138.008 37.1742 138.599 36.4719 138.599 35.5916C138.599 34.7212 137.998 34.009 137.268 34.009C137.061 34.009 136.864 34.0684 136.696 34.1673C136.953 34.2464 137.15 34.5234 137.15 34.8597C137.15 35.2553 136.874 35.5817 136.539 35.5817C136.292 35.5817 136.075 35.4037 135.986 35.1564C135.957 35.2949 135.937 35.4432 135.937 35.5916Z" fill="#33143F"/>
<path d="M126.007 35.5916C126.007 36.462 126.609 37.1742 127.338 37.1742C128.078 37.1742 128.67 36.4719 128.67 35.5916C128.67 34.7212 128.068 34.009 127.338 34.009C127.131 34.009 126.934 34.0684 126.766 34.1673C127.023 34.2464 127.22 34.5234 127.22 34.8597C127.22 35.2553 126.944 35.5817 126.609 35.5817C126.362 35.5817 126.145 35.4037 126.056 35.1564C126.027 35.2949 126.007 35.4432 126.007 35.5916Z" fill="#33143F"/>
<path d="M137.978 44.6912C137.978 44.6912 133.482 50.3488 127.752 44.6912H137.978Z" fill="#33143F"/>
<path opacity="0.15" d="M138.156 39.1523C138.156 39.9733 138.974 40.6261 139.99 40.6261C141.005 40.6261 141.824 39.9634 141.824 39.1523C141.824 38.3314 141.005 37.6786 139.99 37.6786C138.974 37.6687 138.156 38.3314 138.156 39.1523Z" fill="#E57451"/>
<path opacity="0.15" d="M123.049 39.1523C123.049 39.9733 123.867 40.6261 124.883 40.6261C125.899 40.6261 126.717 39.9634 126.717 39.1523C126.717 38.3314 125.899 37.6786 124.883 37.6786C123.877 37.6687 123.049 38.3314 123.049 39.1523Z" fill="#E57451"/>
<path d="M145.216 34.8695C145.295 34.8695 145.364 34.8299 145.393 34.7508C145.393 34.7409 145.808 33.8408 146.429 33.7023C146.695 33.643 146.971 33.732 147.267 33.9793C147.356 34.0485 147.474 34.0386 147.543 33.9595C147.612 33.8804 147.602 33.7518 147.523 33.6825C147.139 33.3561 146.734 33.2374 146.34 33.3265C145.522 33.5144 145.058 34.553 145.038 34.6024C144.989 34.7013 145.038 34.82 145.137 34.8596C145.157 34.8596 145.186 34.8695 145.216 34.8695Z" fill="#390F2A"/>
<path opacity="0.18" d="M146.202 34.3057C146.202 34.3057 147.346 37.1048 145.019 38.3115C145.019 38.3115 148.48 36.9762 146.202 34.3057Z" fill="#390F2A"/>
<path d="M119.026 34.8695C119.104 34.8695 119.173 34.8299 119.203 34.7508C119.203 34.7409 119.617 33.8408 120.238 33.7023C120.505 33.643 120.781 33.732 121.077 33.9793C121.165 34.0485 121.284 34.0386 121.353 33.9595C121.422 33.8804 121.412 33.7518 121.333 33.6825C120.948 33.3561 120.544 33.2374 120.16 33.3265C119.341 33.5144 118.878 34.553 118.858 34.6024C118.818 34.7013 118.858 34.82 118.956 34.8596C118.976 34.8596 119.006 34.8695 119.026 34.8695Z" fill="#390F2A"/>
<path opacity="0.18" d="M120.495 34.3057C120.495 34.3057 119.351 37.1048 121.678 38.3115C121.678 38.3115 118.207 36.9762 120.495 34.3057Z" fill="#390F2A"/>
<path d="M132.643 38.351C132.614 38.351 132.594 38.351 132.564 38.351C131.499 38.3114 130.74 37.441 130.711 37.4015C130.592 37.263 130.612 37.0553 130.75 36.9366C130.888 36.8179 131.095 36.8377 131.213 36.9761C131.223 36.986 131.815 37.6685 132.594 37.6982C133.018 37.7081 133.452 37.5201 133.846 37.1146C133.974 36.986 134.182 36.986 134.31 37.1146C134.438 37.2432 134.438 37.4509 134.31 37.5795C133.807 38.0839 133.235 38.351 132.643 38.351Z" fill="#33143F"/>
<path d="M110.792 100.763C104.865 106.322 99.3531 109.468 94.9552 110.269C90.0839 111.149 86.5735 109.141 85.4 104.314C84.0787 98.8841 92.6576 89.8635 99.008 84.0674C102.134 81.2089 104.727 79.1417 105.319 78.6669C105.348 78.6372 105.368 78.6273 105.388 78.6174C105.408 78.6076 105.418 78.5878 105.437 78.5878C105.447 78.5779 105.447 78.5779 105.447 78.5779L110.792 100.763Z" fill="#F9CBCB"/>
<path opacity="0.1" d="M110.792 100.763C104.865 106.322 99.3533 109.467 94.9553 110.269C95.5273 108.785 96.0597 107.38 96.3358 107.034C97.3712 105.748 97.9136 104.255 98.2883 102.672C98.6827 101.02 98.8701 99.339 98.8405 97.6476C98.8109 95.976 98.5841 94.3341 98.2981 92.7021C98.0418 91.2383 97.8248 89.7843 97.884 88.3006C97.9333 86.8961 98.2094 85.4916 98.8997 84.2651C98.9292 84.2057 98.9687 84.1464 99.0081 84.0871C99.1363 83.8596 99.2842 83.642 99.442 83.4243C102.4 80.912 104.757 79.102 105.319 78.6767C105.349 78.647 105.368 78.6371 105.388 78.6272C105.408 78.6173 105.418 78.5975 105.437 78.5975C105.447 78.5876 105.447 78.5876 105.447 78.5876L110.792 100.763Z" fill="black"/>
<path d="M124.498 84.74C124.518 83.1277 125.573 81.288 116.738 82.4354C121.451 81.6639 125.386 81.9705 124.163 77.6086C123.167 74.0379 119.163 74.206 111.916 75.0666C111.916 75.0666 111.718 70.942 112.931 67.2922C114.687 62.0203 114.243 54.7306 110.19 55.6901C107.409 56.3429 103.711 73.3356 102.084 74.2456C99.8658 75.4919 97.933 97.44 105.634 102.148C107.025 102.999 108.908 102.969 110.713 103.127C113.05 103.345 124.656 102.405 122.457 97.173C121.688 95.3332 120.564 95.6003 116.442 95.7684C123.305 95.0266 124.715 93.9584 124.212 90.2888C123.975 88.5876 122.812 88.6964 117.852 89.2602C124.942 87.7864 124.478 86.8962 124.498 84.74Z" fill="#F9CBCB"/>
<path opacity="0.25" d="M102.371 82.4652C102.459 81.4563 102.39 80.4375 102.548 79.4286C102.676 78.6077 103.12 78.0241 103.8 77.579C104.55 77.0844 105.25 76.6394 105.605 75.7591C105.999 74.7897 105.98 73.6028 105.871 72.5742C105.763 71.5752 105.556 70.6058 105.684 69.6068C105.704 69.4585 105.733 69.3101 105.763 69.1716C105.753 69.1617 105.743 69.1519 105.733 69.142C105.615 68.9738 105.654 68.7364 105.871 68.687C105.881 68.687 105.891 68.687 105.901 68.6771C106.128 67.9649 106.463 67.2923 106.759 66.5901C107.173 65.601 107.321 64.6119 107.35 63.5437C107.37 62.7524 107.488 61.9413 107.912 61.2588C108.751 59.9038 110.476 59.152 110.762 57.4508C110.871 56.7782 110.703 56.1749 110.378 55.6704C110.309 55.6803 110.249 55.6803 110.18 55.7001C107.4 56.3529 103.702 73.3456 102.075 74.2556C100.97 74.8788 99.935 80.6353 100.132 86.837C101.375 85.7094 102.213 84.1269 102.371 82.4652Z" fill="white"/>
<path d="M108.474 62.6138C108.376 62.6237 108.267 62.683 108.169 62.7226C108.248 62.7424 108.336 62.7622 108.415 62.782C108.652 62.8512 108.879 62.9402 109.115 63.0292C109.697 63.2468 110.269 63.4051 110.88 63.504C111.442 63.593 112.005 63.6425 112.567 63.6722C111.778 63.3062 110.949 62.9996 110.111 62.8017C109.766 62.7226 109.411 62.6534 109.056 62.6237C108.869 62.6039 108.672 62.594 108.474 62.6138Z" fill="#D67A56"/>
<path d="M109.993 68.9342C109.323 69.0034 108.662 69.0331 107.991 69.0331C107.557 69.0331 107.114 69.043 106.69 69.0925C106.887 69.1518 107.094 69.1716 107.271 69.2013C107.696 69.2507 108.129 69.2606 108.553 69.3101C109.707 69.4485 110.841 69.5178 111.995 69.498C111.936 69.4584 111.886 69.409 111.827 69.3694C111.285 68.9243 110.673 68.865 109.993 68.9342Z" fill="#D67A56"/>
<path opacity="0.1" d="M124.498 84.7399C124.518 83.0783 125.573 81.288 116.738 82.4353C121.451 81.6638 125.386 81.9705 124.163 77.6085C123.66 75.8183 122.408 74.9676 120.367 74.6709C120.781 74.9676 121.165 75.3039 121.481 75.7194C122.132 76.57 122.506 77.7569 122.23 78.8251C121.954 79.8835 120.968 80.467 120.012 80.8033C118.976 81.1693 117.872 81.2781 116.797 81.5056C115.781 81.7133 114.795 82.0595 113.809 82.3859C115.249 82.6727 116.698 82.8607 118.128 83.197C119.223 83.4541 120.514 83.7311 121.274 84.641C121.658 85.096 121.865 85.6796 121.708 86.2632C121.56 86.8072 121.136 87.2325 120.672 87.5391C120.13 87.9051 119.489 88.0831 118.868 88.2513C118.168 88.4491 117.467 88.6073 116.758 88.7656C115.476 89.0623 114.194 89.3887 113.02 89.9921C113.316 90.0811 113.661 90.091 113.937 90.1009C114.421 90.1108 114.904 90.0811 115.387 90.0712C116.531 90.0613 117.684 90.3482 118.818 90.4767C119.578 90.5559 120.445 90.6053 121.086 91.0702C121.55 91.4065 121.806 91.9901 121.727 92.5637C121.579 93.6023 120.455 94.1562 119.597 94.5123C118.316 95.0266 116.965 95.3332 115.624 95.6398C115.022 95.7783 114.421 95.9168 113.839 96.0849C113.632 96.1443 113.405 96.2135 113.198 96.2926C114.657 96.8861 116.432 96.3916 117.901 97.0444C118.592 97.351 119.242 97.9543 119.4 98.7258C119.578 99.5765 119.055 100.219 118.394 100.674C117.684 101.159 116.856 101.456 116.048 101.743C115.18 102.059 114.371 102.425 113.543 102.84C113.375 102.93 113.198 103.009 113.03 103.088C117.122 102.791 124.202 101.357 122.447 97.1729C121.678 95.3332 120.554 95.6003 116.432 95.7684C123.295 95.0266 124.705 93.9584 124.202 90.2888C123.966 88.5875 122.802 88.6964 117.842 89.2601C124.942 87.7864 124.479 86.8962 124.498 84.7399Z" fill="black"/>
<path d="M105.743 77.1832C105.743 77.1832 116.136 74.5522 120.357 74.6709C120.357 74.6709 111.255 73.751 105.743 77.1832Z" fill="#D67A56"/>
<g opacity="0.9">
<path opacity="0.9" d="M229.238 56.9426C229.238 56.9426 228.666 56.3096 227.246 54.8853C225.826 53.461 225.224 49.7024 224.209 49.9596C223.193 50.2168 222.237 55.2315 223.804 57.4471C225.372 59.6627 228.646 58.3867 229.238 56.9426Z" fill="#F89A6D"/>
<path opacity="0.9" d="M225.905 42.8478L225.846 91.1654C224.889 97.4165 219.485 102.224 212.977 102.224H167.45C160.498 102.224 154.789 96.7242 154.434 89.8301V89.7016L154.483 42.7489C154.493 36.8935 159.236 32.1359 165.073 32.1458L215.314 32.2348C221.172 32.2249 225.905 36.9924 225.905 42.8478Z" fill="url(#paint4_linear_229_45143)"/>
</g>
<path d="M229.238 56.9426C229.238 56.9426 214.969 55.9139 214.476 58.5548C214.249 59.7912 219.032 60.5627 222.789 60.9781C218.174 60.632 214.121 60.8595 214.496 62.264C214.792 63.3421 218.874 63.9553 222.592 64.5191C220.008 64.3609 214.673 64.2026 214.663 65.3401C214.634 67.2688 219.929 67.6645 223.509 67.8524C221.369 67.8821 215.876 67.9414 215.847 68.98C215.827 69.8998 216.862 70.7406 221.359 70.9681C223.982 71.0966 223.873 71.6011 225.086 71.423C226.013 71.2846 226.999 71.2549 227.69 70.7702C231.052 68.4459 231.18 58.0504 229.238 56.9426Z" fill="#F9CBCB"/>
<path opacity="0.2" d="M216.212 69.1382C216.31 68.6635 217.819 68.3865 217.967 68.4755C217.967 68.4755 217.957 69.7317 217.858 69.9394C217.76 70.157 216.113 69.6229 216.212 69.1382Z" fill="#F9CBCB"/>
<path opacity="0.2" d="M214.979 65.5479C215.077 65.0731 216.586 64.7962 216.734 64.8852C216.734 64.8852 216.724 66.1414 216.626 66.3491C216.527 66.5667 214.88 66.0227 214.979 65.5479Z" fill="#F9CBCB"/>
<path opacity="0.2" d="M214.94 61.9476C215.038 61.4728 216.547 61.1958 216.695 61.2849C216.695 61.2849 216.685 62.541 216.586 62.7487C216.488 62.9663 214.841 62.4223 214.94 61.9476Z" fill="#F9CBCB"/>
<path opacity="0.2" d="M214.979 58.4065C215.077 57.9318 216.586 57.6548 216.734 57.7439C216.734 57.7439 216.724 59 216.626 59.2077C216.527 59.4253 214.88 58.8813 214.979 58.4065Z" fill="#F9CBCB"/>
<path opacity="0.1" d="M222.947 67.8523L227.532 67.1995C227.532 67.1995 228.459 68.7129 227.128 70.1767C227.128 70.1767 229.514 69.1678 229.612 63.8762C229.711 58.5845 229.119 57.8921 229.119 57.8921C229.119 57.8921 229.08 59.534 227.936 60.4341C227.68 60.6319 222.858 60.9583 223.163 60.9781C223.459 60.988 227.759 61.3638 227.759 61.3638L227.699 63.5992L223.213 64.4498L227.739 64.4795L227.611 66.3885L222.947 67.8523Z" fill="#F9CBCB"/>
<path d="M200.515 62.5378L192.482 69.0896C190.964 70.2972 188.829 70.2972 187.311 69.0896L179.211 62.5378" stroke="#E5EFFC" stroke-width="2" stroke-linecap="round" stroke-linejoin="round"/>
<path fill-rule="evenodd" clip-rule="evenodd" d="M198.718 84.568C204.216 84.5833 207.922 80.052 207.922 74.4829V62.0281C207.922 56.459 204.216 51.9277 198.718 51.9277H180.969C175.471 51.9277 171.766 56.459 171.766 62.0281V74.4829C171.766 80.052 175.471 84.5833 180.969 84.568H198.718Z" stroke="#E5EFFB" stroke-width="2" stroke-linecap="round" stroke-linejoin="round"/>
</g>
<defs>
<linearGradient id="paint0_linear_229_45143" x1="151.691" y1="134.882" x2="151.691" y2="172.095" gradientUnits="userSpaceOnUse">
<stop stop-color="#E8E8E8"/>
<stop offset="1" stop-color="#E8E8E8" stop-opacity="0"/>
</linearGradient>
<linearGradient id="paint1_linear_229_45143" x1="157.587" y1="99.8476" x2="178.89" y2="55.8398" gradientUnits="userSpaceOnUse">
<stop offset="0.203125" stop-color="#FF8F5C"/>
<stop offset="0.901042" stop-color="#FFBE69"/>
</linearGradient>
<linearGradient id="paint2_linear_229_45143" x1="102.123" y1="93.6819" x2="117.816" y2="53.6023" gradientUnits="userSpaceOnUse">
<stop stop-color="#FF8F5C"/>
<stop offset="0.583333" stop-color="#FFBE69"/>
</linearGradient>
<linearGradient id="paint3_linear_229_45143" x1="128.072" y1="157.904" x2="181.507" y2="49.902" gradientUnits="userSpaceOnUse">
<stop stop-color="#FF8F5C"/>
<stop offset="0.940443" stop-color="#FFBE69"/>
</linearGradient>
<linearGradient id="paint4_linear_229_45143" x1="151.582" y1="17.5064" x2="229.728" y2="115.972" gradientUnits="userSpaceOnUse">
<stop stop-color="#BDDCFD"/>
<stop offset="1" stop-color="#5F98ED"/>
</linearGradient>
<clipPath id="clip0_229_45143">
<rect width="158" height="157" fill="white" transform="translate(72.5)"/>
</clipPath>
</defs>
</svg>
