<svg width="220" height="196" viewBox="0 0 220 196" fill="none" xmlns="http://www.w3.org/2000/svg">
<path d="M48.5502 118.012H29.8481L30.8671 106.678H49.5691L48.5502 118.012Z" fill="#7FBBFF"/>
<path d="M48.9275 105.139L48.416 111.056L47.9045 118.169H29.917L30.94 105.139H48.9275Z" fill="#FAFAFA"/>
<path d="M47.2063 106.679L48.2252 118.012H29.5272L28.5083 106.679H30.0996L30.6517 105.83H35.6895L36.4121 106.679H47.2063Z" fill="#85C0FF"/>
<path d="M77.3273 98.6494H57.4277V118H77.3273V98.6494Z" fill="#C8D8FF"/>
<path d="M77.8309 98.6494H77.3232V118H77.8309V98.6494Z" fill="#D1DDFC"/>
<path d="M75.4839 100.441H59.2622V116.216H75.4839V100.441Z" fill="#FFFEFE"/>
<path d="M59.4166 100.441H59.2666V116.216H59.4166V100.441Z" fill="#D1DDFC"/>
<path d="M67.5281 110.606C69.2746 110.606 70.6904 108.853 70.6904 106.69C70.6904 104.528 69.2746 102.774 67.5281 102.774C65.7816 102.774 64.3657 104.528 64.3657 106.69C64.3657 108.853 65.7816 110.606 67.5281 110.606Z" fill="#D1DDFC"/>
<path d="M65.8747 112.584H69.2075V109.344H65.8747V112.584Z" fill="#D1DDFC"/>
<path d="M61.3252 116.216H73.5361V115.111C73.5361 113.011 71.7824 111.305 69.6228 111.305H65.2385C63.0789 111.305 61.3252 113.011 61.3252 115.111V116.216Z" fill="#D1DDFC"/>
<path d="M61.0166 109.631C61.0166 110.279 62.2182 110.8 62.2182 110.8C62.2182 110.8 63.4198 110.275 63.4198 109.631C63.4198 109.323 62.9773 109.154 62.6932 109.233C62.3765 109.319 62.2182 109.679 62.2182 109.679C62.2182 109.679 61.9219 109.296 61.6215 109.205C61.3211 109.106 61.0166 109.308 61.0166 109.631Z" fill="#D1DDFC"/>
<path d="M71.8228 106.754C71.8228 107.603 73.4019 108.29 73.4019 108.29C73.4019 108.29 74.981 107.603 74.981 106.754C74.981 106.351 74.4005 106.126 74.027 106.229C73.613 106.343 73.4019 106.813 73.4019 106.813C73.4019 106.813 73.0122 106.312 72.6184 106.189C72.2206 106.067 71.8228 106.328 71.8228 106.754Z" fill="#D1DDFC"/>
<path d="M26.7265 144.492C25.1398 144.709 23.6692 143.627 23.4492 142.087C23.2268 140.544 24.339 139.114 25.9233 138.9C27.51 138.683 28.9806 139.765 29.2006 141.305C29.423 142.846 28.3133 144.276 26.7265 144.492ZM26.1358 140.385C25.3919 140.486 24.8729 141.156 24.9767 141.88C25.0805 142.603 25.77 143.108 26.5115 143.007C27.2555 142.906 27.7745 142.236 27.6707 141.515C27.5694 140.789 26.8798 140.284 26.1358 140.385Z" fill="#9BD0FF"/>
<path d="M25.6357 133.276L24.5435 133.424L25.5239 140.253L26.6161 140.105L25.6357 133.276Z" fill="#9BD0FF"/>
<path d="M26.5346 132.397L24.4849 132.675L24.6373 133.737L26.6871 133.459L26.5346 132.397Z" fill="#9BD0FF"/>
<path d="M26.733 133.761L24.8057 134.022L24.9581 135.084L26.8854 134.822L26.733 133.761Z" fill="#9BD0FF"/>
<path d="M27.0135 135.685L25.3311 135.914L25.4835 136.975L27.1659 136.747L27.0135 135.685Z" fill="#9BD0FF"/>
<path d="M25.2034 124.882C25.2156 125 25.2319 125.119 25.2562 125.233C25.4064 125.995 25.8245 126.682 26.3969 127.195C27.0586 127.787 27.9314 128.154 28.861 128.154H63.1596C64.897 128.154 66.2123 126.875 66.2407 125.233C66.2407 125.119 66.2407 125 66.2285 124.882C66.1473 123.982 65.6967 123.161 65.035 122.573C64.3734 121.98 63.5006 121.613 62.5709 121.613H28.2724C26.4172 121.613 25.0411 123.078 25.2034 124.882Z" fill="#407BFF"/>
<path d="M25.2034 124.882C25.2156 125 25.2319 125.119 25.2562 125.233C25.4064 125.995 25.8245 126.682 26.3969 127.195C27.0586 127.787 27.9314 128.154 28.861 128.154H63.1596C64.897 128.154 66.2123 126.875 66.2407 125.233C66.2407 125.119 66.2407 125 66.2285 124.882C66.1473 123.982 65.6967 123.161 65.035 122.573C64.3734 121.98 63.5006 121.613 62.5709 121.613H28.2724C26.4172 121.613 25.0411 123.078 25.2034 124.882Z" fill="#E7EEFF"/>
<path d="M66.2404 125.233C66.2404 125.34 66.2323 125.446 66.216 125.549C66.1105 124.696 65.668 123.923 65.0347 123.362C64.373 122.77 63.5002 122.403 62.5706 122.403L26.0962 122.458C26.6442 121.933 27.4074 121.613 28.2721 121.613H62.5706C63.5002 121.613 64.373 121.98 65.0347 122.573C65.6964 123.161 66.1511 123.982 66.2323 124.882C66.2404 125 66.2444 125.119 66.2404 125.233Z" fill="#407BFF"/>
<path opacity="0.5" d="M66.2404 125.233C66.2404 125.34 66.2323 125.446 66.216 125.549C66.1105 124.696 65.668 123.923 65.0347 123.362C64.373 122.77 63.5002 122.403 62.5706 122.403L26.0962 122.458C26.6442 121.933 27.4074 121.613 28.2721 121.613H62.5706C63.5002 121.613 64.373 121.98 65.0347 122.573C65.6964 123.161 66.1511 123.982 66.2323 124.882C66.2404 125 66.2444 125.119 66.2404 125.233Z" fill="white"/>
<path d="M60.3382 123.192L60.4803 124.787L62.0067 124.235L62.3679 125.024L60.805 125.529L61.9255 126.868L61.2272 127.373L60.1352 125.983L59.3071 127.373L58.5399 126.868L59.4045 125.529L57.7686 125.024L57.9878 124.242L59.6278 124.775L59.4857 123.196H60.3382V123.192Z" fill="#407BFF"/>
<path d="M50.9569 123.192L51.0989 124.787L52.6253 124.235L52.9866 125.024L51.4237 125.529L52.5441 126.868L51.8459 127.373L50.7539 125.983L49.9258 127.373L49.1585 126.868L50.0232 125.529L48.3872 125.024L48.6064 124.242L50.2464 124.775L50.1044 123.196H50.9569V123.192Z" fill="#407BFF"/>
<path d="M41.575 123.192L41.7171 124.787L43.2435 124.235L43.6048 125.024L42.0419 125.529L43.1623 126.868L42.464 127.373L41.372 125.983L40.5439 127.373L39.7767 126.868L40.6413 125.529L39.0054 125.024L39.2246 124.242L40.8646 124.775L40.7225 123.196H41.575V123.192Z" fill="#407BFF"/>
<path d="M32.1981 123.192L32.3401 124.787L33.8665 124.235L34.2278 125.024L32.6649 125.529L33.7853 126.868L33.0871 127.373L31.9951 125.983L31.167 127.373L30.3997 126.868L31.2644 125.529L29.6284 125.024L29.8476 124.242L31.4877 124.775L31.3456 123.196H32.1981V123.192Z" fill="#407BFF"/>
<path d="M54.9312 120.066H53.3311V120.461H54.9312V120.066Z" fill="#407BFF"/>
<path d="M61.8033 120.066H56.5869V120.461H61.8033V120.066Z" fill="#407BFF"/>
<path d="M198.263 152.719C162.261 162.749 167.52 150.015 134.655 158.519C101.789 167.024 93.6173 188.373 71.1493 186.542C41.415 184.115 51.5628 156.41 26.4229 141.718C-9.40454 120.785 -7.2813 82.4423 23.6395 67.6316C54.5603 52.8208 67.3622 70.8376 86.1324 56.859C104.903 42.8845 119.529 -7.45005 151.783 0.936316C215.258 17.4398 167.422 67.9457 200.966 91.1469C227.444 109.457 226.07 144.973 198.263 152.719Z" fill="url(#paint0_linear_1275_49484)"/>
<path d="M116.601 196C172.5 196 217.816 191.877 217.816 186.791C217.816 181.706 172.5 177.583 116.601 177.583C60.7009 177.583 15.3853 181.706 15.3853 186.791C15.3853 191.877 60.7009 196 116.601 196Z" fill="#E8E8E8"/>
<path d="M82.0449 96.0098L81.272 97.672C80.5215 96.1667 79.7643 94.6439 78.689 93.3368C75.4944 89.4547 70.055 88.0692 64.9517 87.7468C59.8506 87.4222 54.6487 87.9146 49.6753 86.7621C48.2639 86.4375 46.6823 85.7775 46.3328 84.4094C46.2611 84.1262 46.2522 83.8386 46.2902 83.5554C48.5238 83.0391 50.7842 82.6448 53.0693 82.4161C56.6224 82.061 60.2381 82.1067 63.7554 82.7559C66.652 83.2918 69.4703 84.2503 72.0556 85.6337C74.605 86.9952 76.9326 88.7816 78.7853 90.9666C79.7464 92.0994 80.535 93.3346 81.2586 94.6199C81.5207 95.084 81.7738 95.548 82.0449 96.0098Z" fill="url(#paint1_linear_1275_49484)"/>
<path d="M83.1848 93.5547L82.1364 95.8073L82.0423 96.0077C81.7734 95.5481 81.5181 95.0819 81.2559 94.62C80.5323 93.3347 79.7438 92.0995 78.7827 90.9667C76.93 88.7795 74.6023 86.9953 72.0529 85.6338C69.4677 84.2504 66.6494 83.2919 63.7527 82.756C60.2355 82.1046 56.6197 82.0589 53.0667 82.4161C50.7816 82.6449 48.5211 83.0414 46.2876 83.5555C46.2943 83.4901 46.3055 83.427 46.3212 83.3638C46.4332 82.8083 46.72 82.2702 47.065 81.8062C48.7698 79.5079 51.774 78.4971 54.655 78.0635C63.6564 76.7085 73.2604 80.0155 79.3831 86.5727C81.2313 88.5508 82.8174 90.9035 83.1848 93.5547Z" fill="url(#paint2_linear_1275_49484)"/>
<path d="M82.1393 95.8072L82.0452 96.0076C81.7764 95.5479 81.521 95.0817 81.2589 94.6199C80.5353 93.3346 79.7467 92.0994 78.7856 90.9666C76.9329 88.7794 74.6053 86.9952 72.0558 85.6337C69.4706 84.2503 66.6523 83.2918 63.7557 82.7559C60.2384 82.1045 56.6226 82.0588 53.0696 82.416C50.7845 82.6448 48.5241 83.0413 46.2905 83.5554C46.2972 83.49 46.3084 83.4268 46.3241 83.3637C48.9654 82.7602 51.6492 82.3224 54.3555 82.1285C57.8458 81.8779 61.3944 82.0326 64.8153 82.7907C67.6851 83.4247 70.463 84.4769 72.9878 85.9495C75.4812 87.4026 77.7282 89.2783 79.4823 91.5373C80.4143 92.7421 81.1469 94.0557 81.8906 95.3715C81.9713 95.5196 82.0542 95.6634 82.1393 95.8072Z" fill="white"/>
<path d="M79.1609 91.5682L77.6734 92.6814C77.7406 91.0105 77.8078 89.32 77.4919 87.6752C76.5533 82.7867 72.4222 79.0767 68.0761 76.456C63.7322 73.8353 58.9044 71.8899 55.0736 68.596C53.987 67.6636 52.9095 66.3566 53.2634 64.9906C53.3374 64.7074 53.4673 64.4504 53.6398 64.2173C55.8599 64.7859 58.0464 65.4699 60.1724 66.3152C63.4791 67.6266 66.649 69.3215 69.4359 71.5065C71.7322 73.3059 73.7552 75.4408 75.3659 77.8437C76.9565 80.2117 78.1461 82.852 78.7218 85.6296C79.022 87.0696 79.1206 88.5183 79.1363 89.9844C79.1453 90.5116 79.1453 91.0366 79.1609 91.5682Z" fill="url(#paint3_linear_1275_49484)"/>
<path d="M81.3537 89.9229L79.3397 91.4326L79.1605 91.5677C79.1448 91.0383 79.1448 90.5111 79.1381 89.9839C79.1224 88.5178 79.0238 87.0669 78.7236 85.6291C78.1457 82.8515 76.9561 80.2112 75.3677 77.8432C73.7547 75.4403 71.7318 73.3054 69.4377 71.506C66.6486 69.3231 63.4809 67.6283 60.1742 66.3147C58.0482 65.4716 55.8617 64.7854 53.6416 64.2168C53.6797 64.1623 53.72 64.11 53.7648 64.0621C54.1322 63.6242 54.6452 63.28 55.1739 63.0273C57.7906 61.7791 60.9292 62.2627 63.6825 63.1972C72.2806 66.1208 79.1538 73.4339 81.3851 82.0215C82.0527 84.6139 82.3126 87.4155 81.3537 89.9229Z" fill="url(#paint4_linear_1275_49484)"/>
<path d="M79.3397 91.433L79.1605 91.5681C79.1448 91.0387 79.1448 90.5115 79.1381 89.9843C79.1224 88.5182 79.0238 87.0673 78.7236 85.6295C78.1457 82.8519 76.9561 80.2116 75.3677 77.8436C73.7547 75.4407 71.7318 73.3058 69.4377 71.5064C66.6486 69.3235 63.4809 67.6287 60.1742 66.3151C58.0482 65.472 55.8617 64.7858 53.6416 64.2172C53.6797 64.1627 53.72 64.1104 53.7648 64.0625C56.3882 64.7378 58.9667 65.5809 61.4489 66.6484C64.6503 68.0252 67.706 69.7854 70.3585 72.0205C72.5831 73.894 74.5276 76.0921 76.0398 78.5494C77.5363 80.9741 78.6116 83.6558 79.0664 86.453C79.3061 87.9431 79.3173 89.4375 79.3352 90.9385C79.333 91.1019 79.3352 91.2652 79.3397 91.433Z" fill="white"/>
<path d="M160.835 129.001L161.146 130.493C162.042 129.404 162.95 128.304 164.072 127.435C167.41 124.853 172.097 124.709 176.308 125.367C180.518 126.023 184.653 127.363 188.917 127.321C190.126 127.311 191.538 127.06 192.082 126.01C192.194 125.792 192.257 125.561 192.279 125.324C190.561 124.502 188.798 123.773 186.983 123.176C184.163 122.246 181.215 121.631 178.231 121.524C175.773 121.44 173.3 121.71 170.934 122.368C168.602 123.015 166.368 124.047 164.444 125.491C163.447 126.239 162.569 127.101 161.738 128.016C161.438 128.343 161.142 128.676 160.835 129.001Z" fill="url(#paint5_linear_1275_49484)"/>
<path d="M160.375 126.801L160.797 128.822L160.835 129.003C161.142 128.676 161.437 128.345 161.738 128.016C162.571 127.101 163.449 126.241 164.444 125.491C166.368 124.047 168.6 123.016 170.934 122.367C173.3 121.709 175.775 121.439 178.23 121.524C181.214 121.629 184.163 122.245 186.983 123.176C188.798 123.775 190.561 124.502 192.279 125.324C192.286 125.269 192.288 125.215 192.288 125.16C192.304 124.687 192.174 124.199 191.981 123.759C191.034 121.583 188.784 120.219 186.524 119.348C179.465 116.623 171.026 117.579 164.796 121.807C162.916 123.084 161.18 124.711 160.375 126.801Z" fill="url(#paint6_linear_1275_49484)"/>
<path d="M160.796 128.82L160.834 129.001C161.141 128.674 161.437 128.343 161.737 128.014C162.571 127.099 163.449 126.238 164.444 125.489C166.368 124.045 168.599 123.014 170.934 122.365C173.299 121.707 175.775 121.437 178.23 121.522C181.214 121.627 184.162 122.243 186.983 123.173C188.797 123.772 190.561 124.5 192.279 125.321C192.286 125.267 192.288 125.212 192.288 125.158C190.256 124.191 188.157 123.35 185.993 122.705C183.201 121.871 180.287 121.359 177.361 121.356C174.908 121.354 172.446 121.709 170.114 122.452C167.808 123.184 165.624 124.304 163.767 125.825C162.779 126.635 161.932 127.572 161.079 128.508C160.987 128.615 160.893 128.718 160.796 128.82Z" fill="white"/>
<path d="M164.22 124.426L165.217 125.601C165.481 124.228 165.748 122.843 166.319 121.564C168.015 117.758 172.081 115.486 176.114 114.14C180.146 112.791 184.441 112.081 188.184 110.094C189.246 109.532 190.371 108.665 190.344 107.489C190.337 107.245 190.281 107.012 190.185 106.792C188.272 106.853 186.363 107.016 184.472 107.319C181.533 107.789 178.634 108.595 175.95 109.868C173.741 110.915 171.689 112.288 169.919 113.95C168.174 115.588 166.705 117.521 165.706 119.675C165.188 120.79 164.83 121.952 164.538 123.141C164.435 123.568 164.334 123.997 164.22 124.426Z" fill="url(#paint7_linear_1275_49484)"/>
<path d="M162.75 122.692L164.101 124.282L164.222 124.424C164.336 123.997 164.437 123.568 164.543 123.139C164.834 121.949 165.192 120.788 165.71 119.673C166.709 117.518 168.179 115.586 169.924 113.948C171.694 112.283 173.746 110.913 175.954 109.865C178.638 108.593 181.537 107.787 184.476 107.316C186.367 107.013 188.274 106.85 190.189 106.789C190.169 106.739 190.144 106.689 190.12 106.641C189.905 106.218 189.553 105.846 189.172 105.545C187.284 104.057 184.638 103.885 182.223 104.149C174.675 104.977 167.692 109.68 164.24 116.261C163.196 118.252 162.448 120.483 162.75 122.692Z" fill="url(#paint8_linear_1275_49484)"/>
<path d="M164.101 124.282L164.222 124.424C164.336 123.997 164.437 123.568 164.542 123.139C164.834 121.949 165.192 120.788 165.71 119.673C166.709 117.518 168.178 115.586 169.924 113.948C171.693 112.283 173.745 110.913 175.954 109.865C178.638 108.593 181.537 107.787 184.476 107.316C186.367 107.014 188.274 106.85 190.189 106.789C190.169 106.739 190.144 106.689 190.12 106.641C187.857 106.717 185.601 106.937 183.379 107.358C180.513 107.898 177.693 108.78 175.11 110.118C172.943 111.24 170.945 112.678 169.245 114.401C167.565 116.102 166.18 118.089 165.277 120.281C164.798 121.448 164.504 122.662 164.204 123.879C164.168 124.015 164.135 124.147 164.101 124.282Z" fill="white"/>
<path d="M183.921 179.464C183.952 179.13 184.196 178.851 184.535 178.797L186.726 178.435C187.559 178.298 188.112 177.507 187.926 176.695C187.752 175.932 186.939 175.473 186.148 175.603L184.181 175.928C183.778 175.995 183.394 175.73 183.325 175.338L182.579 171.068C182.51 170.676 182.783 170.303 183.186 170.236L185.236 169.898C186.069 169.761 186.623 168.97 186.437 168.157C186.262 167.395 185.449 166.935 184.658 167.066L182.691 167.39C182.288 167.458 181.905 167.192 181.835 166.8L179.051 150.849C178.692 148.801 179.241 146.664 180.675 145.124C182.666 142.983 183.668 140.011 183.132 136.944C182.14 131.258 176.282 127.561 170.414 129.199C165.909 130.459 162.865 134.713 163.205 139.26C163.469 142.78 165.564 145.649 168.454 147.168C170.291 148.133 171.523 149.917 171.873 151.919L176.705 179.603C177.028 181.457 178.746 182.847 180.668 182.655C182.449 182.472 183.764 181.093 183.921 179.464ZM173.331 139.175C171.024 139.556 168.833 138.046 168.441 135.802C168.049 133.559 169.606 131.426 171.913 131.045C174.221 130.663 176.409 132.177 176.799 134.421C177.191 136.667 175.639 138.793 173.331 139.175Z" fill="url(#paint9_linear_1275_49484)"/>
<path d="M154.208 182.264H88.658C81.9619 182.264 76.5337 176.986 76.5337 170.474V40.8262H166.333V170.472C166.333 176.986 160.904 182.264 154.208 182.264Z" fill="white"/>
<path d="M158.695 28.9189H84.1661C79.1053 28.9189 75.0034 32.9056 75.0034 37.8268V173.758C75.0034 176.442 76.2288 178.853 78.1644 180.487C78.2294 180.539 78.2944 180.594 78.3593 180.648C79.9387 181.912 81.9639 182.666 84.1661 182.666H158.698C160.898 182.666 162.923 181.912 164.504 180.648C166.554 179.014 167.865 176.533 167.865 173.758V37.8268C167.863 32.9056 163.756 28.9189 158.695 28.9189ZM165.92 170.285C165.92 175.453 161.366 179.64 155.747 179.64H87.1188C81.5002 179.64 76.9457 175.453 76.9457 170.285V46.6453C76.9457 43.432 79.7797 40.8287 83.2722 40.8287H159.594C163.089 40.8287 165.92 43.432 165.92 46.6453V170.285Z" fill="url(#paint10_linear_1275_49484)"/>
<path d="M89.7763 35.1584C89.7763 36.74 88.4545 38.0253 86.8281 38.0253C85.2016 38.0253 83.8799 36.74 83.8799 35.1584C83.8799 33.5746 85.2016 32.2915 86.8281 32.2915C88.4545 32.2915 89.7763 33.5768 89.7763 35.1584Z" fill="white"/>
<path d="M88.8217 35.1586C88.8217 36.2282 87.9278 37.0974 86.8278 37.0974C85.7279 37.0974 84.834 36.2282 84.834 35.1586C84.834 34.0889 85.7279 33.2197 86.8278 33.2197C87.93 33.2197 88.8217 34.0889 88.8217 35.1586Z" fill="url(#paint11_linear_1275_49484)"/>
<path d="M95.8114 35.1586C95.8114 36.2282 94.9175 37.0974 93.8176 37.0974C92.7176 37.0974 91.8237 36.2282 91.8237 35.1586C91.8237 34.0889 92.7176 33.2197 93.8176 33.2197C94.9175 33.2197 95.8114 34.0889 95.8114 35.1586Z" fill="white"/>
<path d="M95.1346 48.7669H83.2522C82.8938 48.7669 82.6025 48.4837 82.6025 48.1351V48.0175C82.6025 47.6689 82.8938 47.3857 83.2522 47.3857H95.1346C95.493 47.3857 95.7843 47.6689 95.7843 48.0175V48.1351C95.7843 48.4837 95.4953 48.7669 95.1346 48.7669Z" fill="url(#paint12_linear_1275_49484)"/>
<path d="M95.1346 52.5252H83.2522C82.8938 52.5252 82.6025 52.242 82.6025 51.8934V51.7758C82.6025 51.4272 82.8938 51.144 83.2522 51.144H95.1346C95.493 51.144 95.7843 51.4272 95.7843 51.7758V51.8934C95.7843 52.242 95.4953 52.5252 95.1346 52.5252Z" fill="url(#paint13_linear_1275_49484)"/>
<path d="M95.1346 56.2806H83.2522C82.8938 56.2806 82.6025 55.9974 82.6025 55.6488V55.5312C82.6025 55.1826 82.8938 54.8994 83.2522 54.8994H95.1346C95.493 54.8994 95.7843 55.1826 95.7843 55.5312V55.6488C95.7843 55.9974 95.4953 56.2806 95.1346 56.2806Z" fill="url(#paint14_linear_1275_49484)"/>
<path d="M60.1868 151.862C60.2092 151.836 60.2472 151.873 60.2248 151.899C59.4049 152.895 60.0232 154.23 60.478 155.228C60.7177 155.755 60.8006 156.308 60.8633 156.877C60.9216 157.413 60.9865 158.027 61.3584 158.461C61.7482 158.912 62.4001 159.114 62.9423 159.323C62.9849 159.341 62.9692 159.406 62.9221 159.393C62.3867 159.247 61.8446 159.062 61.3943 158.737C61.177 158.583 60.9641 158.417 60.8252 158.19C60.6639 157.929 60.5833 157.655 60.5407 157.354C60.4959 157.04 60.4914 156.727 60.469 156.411C60.4421 156.058 60.3548 155.731 60.2719 155.389C60.1195 154.775 59.8619 154.18 59.779 153.55C59.6984 152.958 59.779 152.335 60.1868 151.862Z" fill="url(#paint15_linear_1275_49484)"/>
<path d="M58.1456 145.433C58.4077 144.932 58.8513 144.542 59.3979 144.357C60.2112 144.078 61.0535 144.157 61.8914 144.263C61.9272 144.268 61.9272 144.322 61.8914 144.318C61.1924 144.252 60.471 144.178 59.7833 144.353C59.212 144.499 58.6407 144.878 58.4212 145.427C58.233 145.899 58.1725 146.411 58.2442 146.915C58.3249 147.472 58.587 147.991 58.8379 148.492C59.147 149.108 59.7228 149.596 60.191 150.1C60.2067 150.117 60.182 150.139 60.1664 150.123C59.911 149.893 59.6645 149.655 59.4271 149.405C59.1918 149.158 58.9813 148.888 58.746 148.642C58.3114 148.189 58.0336 147.644 57.9373 147.032C57.8522 146.501 57.888 145.923 58.1456 145.433Z" fill="url(#paint16_linear_1275_49484)"/>
<path d="M60.1868 150.184C58.1705 154.156 60.944 154.095 61.0627 156.909C61.233 160.902 66.5088 158.896 67.5617 158.868C68.6147 158.839 70.1694 158.192 71.4464 156.62C72.7233 155.047 74.7172 155.275 74.4685 153.184C74.4371 152.925 74.3856 152.692 74.3161 152.476C74.4416 151.618 74.0787 150.777 73.5298 150.115C72.9787 149.448 72.0624 149.189 71.5853 148.455C71.126 147.747 71.0678 146.877 70.7071 146.128C70.3374 145.359 69.6586 144.675 68.9843 144.152C68.5161 143.788 68.0076 143.483 67.4856 143.2C66.7799 142.734 66.0742 142.455 65.5612 142.401C62.9804 142.124 62.5256 143.283 61.7169 143.738C60.9081 144.193 59.2772 143.627 58.5335 145.448C57.7874 147.267 60.1868 150.184 60.1868 150.184ZM68.1308 143.679C68.4959 143.921 68.8454 144.185 69.168 144.479C69.4906 144.775 69.7751 145.1 70.0014 145.472C70.2254 145.845 70.3643 146.239 70.483 146.653C70.7004 147.4 70.8168 148.219 71.3097 148.855C71.8182 149.513 72.6158 149.805 73.2767 150.28C73.9375 150.755 74.2288 151.535 74.2646 152.313C73.3932 149.945 70.4046 150.078 70.2142 147.428C70.0977 145.851 69.1792 144.562 68.1308 143.679Z" fill="#1F367A"/>
<path d="M48.2305 179.05C48.2305 179.05 48.7659 183.219 48.7659 183.444C48.7659 183.518 50.5716 183.64 53.0739 183.699C58.0832 183.812 65.8793 183.662 67.5819 182.324C70.3666 180.137 69.7774 172.362 68.9978 167.072C68.5609 164.116 68.0658 161.936 68.0658 161.936C67.5483 158.526 68.8297 153.866 64.8891 156.182C59.5528 160.476 62.9871 176.322 61.3898 177.076C60.9933 177.261 51.0241 178.555 48.2305 179.05Z" fill="url(#paint17_linear_1275_49484)"/>
<path d="M167.186 173.117C166.834 174.658 160.866 170.266 158.149 170.808C156.661 171.107 153.731 172.921 151.91 173.627C144.06 176.651 133.826 182.563 126.906 183.866C117.595 185.613 88.9671 183.605 88.9671 183.605L87.2354 174.233C87.2354 174.233 96.584 167.826 103.997 169.39C111.41 170.961 122.468 177.032 127.374 174.113C130.587 172.205 142.458 169.462 150.389 168.438C151.856 168.251 153.191 168.12 154.307 168.063C154.307 168.063 155.575 164.192 157 163.881C158.897 163.469 160.136 165.894 162.535 167.943C165.311 170.314 167.648 171.089 167.186 173.117Z" fill="#F9CBCB"/>
<path d="M87.2378 174.23L88.9695 183.602C88.9695 183.602 105.272 184.746 117.275 184.554C121.178 184.493 124.623 184.292 126.906 183.863C127.531 183.746 128.197 183.598 128.893 183.421C135.256 181.82 144.349 177.997 151.314 175.247C152.479 174.788 153.07 173.522 152.663 172.363L151.935 170.3L151.46 168.949C151.121 167.986 150.171 167.348 149.125 167.392C139.647 167.795 129.397 171.252 126.375 173.049C124.364 174.245 121.113 173.956 117.576 173.123C112.49 171.93 106.813 169.609 103.386 168.98C97.4176 167.886 87.2378 174.23 87.2378 174.23Z" fill="url(#paint18_linear_1275_49484)"/>
<path d="M116.077 175.709L117.273 184.554C121.176 184.493 124.621 184.292 126.904 183.863C127.529 183.746 128.194 183.598 128.891 183.421C129.075 183.26 132.036 179.63 132.809 176.21C133.58 172.79 131.779 171.995 135.426 171.829C139.073 171.662 141.947 168.348 144.736 168.671C147.008 168.932 150.507 171.058 151.932 170.3L151.457 168.949C151.119 167.986 150.169 167.348 149.123 167.392C139.644 167.795 129.395 171.252 126.373 173.049C124.361 174.245 121.111 173.956 117.573 173.123C116.771 174.515 116.077 175.709 116.077 175.709Z" fill="#E6E7E8"/>
<path d="M126.091 182.774C118.241 186.554 99.0419 182.391 89.0705 183.493C88.6784 180.088 88.6583 178.091 88.4902 174.779C92.7221 172.329 96.4902 168.595 102.03 168.967C107.571 169.335 119.838 176.213 119.8 170.601C119.724 160.854 120.506 154.7 124.084 146.431C124.617 145.196 125.206 143.912 125.874 142.564C126.445 141.405 123.886 140.039 124.155 138.778C124.328 137.967 126.521 137.405 128.125 136.551C130.825 135.111 134.96 134.684 136.371 135.551C137.725 136.381 131.131 138.889 129.76 141.745C129.357 142.806 129.292 145.3 129.223 147.128C128.79 157.911 132.805 179.537 126.091 182.774Z" fill="#F9CBCB"/>
<path d="M87.1885 174.115C87.2646 175.646 87.5447 177.071 87.8606 178.493C88.2257 180.145 88.6424 181.8 88.853 183.63C94.9443 183.979 116.251 186.593 125.34 183.796C125.938 183.611 126.483 183.404 126.969 183.171C133.215 180.16 131.425 160.898 131.49 149.546C131.499 148.169 130.437 147.01 129.03 146.847L124.888 146.374C124.82 146.365 124.756 146.361 124.686 146.359C123.476 146.306 122.356 147.019 121.946 148.141C119.258 155.484 119.731 161.66 119.802 170.605C119.829 174.566 113.832 172.172 108.352 170.289C106.065 169.505 103.87 168.808 102.241 168.699C96.6962 168.322 91.4203 171.662 87.1885 174.115Z" fill="url(#paint19_linear_1275_49484)"/>
<path d="M87.8584 178.494C88.2236 180.145 88.6403 181.801 88.8508 183.631C94.9421 183.979 116.249 186.593 125.338 183.796C118.77 184.101 108.695 184.515 104.19 182.263C100.908 180.62 97.4714 181.609 94.4336 182.768C91.1852 184.008 90.8111 174.246 88.0399 173.507L87.8584 178.494Z" fill="#E6E7E8"/>
<path d="M64.6133 173.686C64.7029 173.812 64.797 173.939 64.8889 174.063C67.725 177.838 71.5021 180.148 75.2187 181.55C75.9737 181.836 76.7264 182.082 77.468 182.3C83.5727 184.071 88.9494 183.64 88.9494 183.64C89.4467 182.346 89.7066 181.01 89.7021 179.625C89.6954 177.684 89.1711 175.651 88.0398 173.507C88.0398 173.507 85.524 169.214 82.4548 164.942C81.4736 163.576 80.4341 162.212 79.4058 160.992C77.7077 158.979 76.2224 157.038 74.8289 156.494C71.1952 155.08 68.1529 155.441 68.1529 155.441L63.827 157.077C61.3022 162.772 61.5061 169.351 64.6133 173.686Z" fill="url(#paint20_linear_1275_49484)"/>
<path d="M64.8892 174.06C67.7253 177.836 71.5024 180.145 75.219 181.548C75.974 181.833 76.7267 182.079 77.4683 182.297C77.3988 181.404 77.3115 180.247 77.1322 179.049C76.832 177.045 73.3551 165.196 73.3551 165.196L69.4974 164.811C69.4974 164.811 68.4221 170.745 69.3227 172.664C70.2232 174.583 71.1686 177.004 69.8379 177.213C68.9149 177.356 66.6007 175.265 64.8892 174.06Z" fill="#FFE8DB"/>
<path d="M75.2188 181.548C82.186 184.179 88.9494 183.635 88.9494 183.635C89.4467 182.341 89.7066 181.005 89.7021 179.62C85.8063 179.901 84.9729 181.404 83.1717 181.341C81.3683 181.278 81.561 178.962 82.1725 176.428C82.7841 173.893 81.5946 170.671 82.3338 167.388C82.5467 166.436 82.5534 165.619 82.4548 164.937C81.4736 163.571 80.4341 162.207 79.4058 160.987C78.214 162.081 77.1431 163.083 77.0894 163.192C76.9751 163.416 75.5279 178.33 75.2188 181.548Z" fill="#FFE8DB"/>
<path d="M68.1575 155.441C68.0186 160.957 64.432 161.329 63.8248 157.077L63.3073 155.338L62.288 151.912L62.1514 151.439L65.1668 150.204L65.9665 151.596L66.9366 153.31L68.1575 155.441Z" fill="#F9CBCB"/>
<path d="M66.9364 153.31C66.5556 153.726 66.0963 154.184 65.6998 154.474C64.8508 155.094 63.3139 155.338 63.3139 155.338H63.305L62.2856 151.912L63.6119 151.354L65.9642 151.598L66.9364 153.31Z" fill="#F9BDBD"/>
<path d="M59.7047 147.088C59.7047 147.088 58.6137 154.743 62.6036 154.658C66.5958 154.576 67.4964 150.436 67.4964 150.436C67.4964 150.436 69.1743 149.297 68.5426 148.18C67.9108 147.062 66.999 148.487 66.999 148.487C66.999 148.487 63.2735 147.705 62.4535 145.108C62.0234 146.215 60.267 145.284 59.7047 147.088Z" fill="#F9CBCB"/>
<path d="M59.6109 148.071C59.8148 147.904 60.9775 147.945 61.1074 146.228C61.1074 146.228 61.7325 147.758 63.1953 148.302C63.1953 148.302 62.9422 146.945 63.4373 146.527C63.4373 146.527 63.8629 147.945 64.9405 149.015C66.0181 150.082 66.0875 151.779 66.0293 152.178C66.0293 152.178 67.4563 149.588 66.8537 147.416C66.2533 145.244 65.0032 144.825 65.0032 144.825C65.0032 144.825 61.3583 143.793 59.9962 145.78C59.1808 146.971 59.6109 148.071 59.6109 148.071Z" fill="#1F367A"/>
<path d="M168.154 172.1C167.95 171.866 167.513 171.429 166.926 170.873C166.888 170.836 166.852 170.801 166.812 170.764C166.785 170.738 166.754 170.71 166.727 170.684C166.162 170.15 165.479 169.522 164.74 168.858C164.722 168.843 164.704 168.828 164.688 168.81C164.303 168.462 163.902 168.106 163.494 167.749C163.452 167.712 163.409 167.673 163.367 167.636C162.972 167.29 162.576 166.945 162.181 166.605C162.13 166.562 162.081 166.518 162.031 166.477C161.863 166.333 161.698 166.192 161.534 166.052C161.503 166.026 161.469 165.998 161.438 165.969C161.252 165.812 161.068 165.66 160.887 165.51C160.833 165.466 160.781 165.423 160.73 165.379C160.586 165.261 160.445 165.146 160.306 165.033C160.262 164.996 160.217 164.959 160.172 164.924C160.002 164.786 159.836 164.654 159.672 164.525C159.628 164.49 159.585 164.457 159.542 164.423C159.415 164.322 159.292 164.227 159.171 164.135C159.128 164.102 159.085 164.07 159.043 164.037C158.895 163.924 158.752 163.817 158.615 163.719C158.586 163.697 158.559 163.68 158.53 163.658C158.42 163.58 158.315 163.505 158.214 163.438C158.18 163.414 158.145 163.392 158.113 163.37C157.997 163.292 157.885 163.222 157.786 163.161C157.773 163.153 157.761 163.148 157.748 163.139C157.663 163.089 157.584 163.048 157.515 163.013C157.493 163.002 157.472 162.991 157.452 162.983C157.376 162.95 157.309 162.924 157.257 162.913C156.921 162.85 156.534 163.183 156.146 163.715L156.144 163.717C155.04 165.229 154.011 168.08 154.011 168.08C154.641 168.466 155.022 168.013 156.202 168.782C156.628 169.061 156.832 169.427 156.919 169.784C157.065 170.381 157.614 170.845 158.245 170.949C158.478 170.986 158.731 171.041 159.005 171.113C159.128 171.143 159.253 171.18 159.383 171.219C159.619 171.289 159.867 171.374 160.123 171.47C160.241 171.514 160.362 171.562 160.483 171.614C160.772 171.731 161.068 171.866 161.373 172.019C161.5 172.084 161.633 172.152 161.763 172.224C162.094 172.405 162.43 172.607 162.768 172.832C162.847 172.884 162.928 172.938 163.008 172.995C163.14 173.086 163.268 173.174 163.396 173.254C163.676 173.433 163.942 173.59 164.2 173.725C164.281 173.766 164.359 173.808 164.44 173.847C166.828 175.008 168.19 174.256 168.445 173.304C168.551 172.895 168.459 172.448 168.154 172.1Z" fill="#1F367A"/>
<path d="M137.003 134.375C136.701 134.392 136.101 134.471 135.319 134.591C135.267 134.599 135.22 134.606 135.166 134.615C135.128 134.621 135.09 134.628 135.052 134.632C134.302 134.75 133.408 134.902 132.453 135.074C132.431 135.079 132.409 135.083 132.386 135.087C131.887 135.177 131.374 135.272 130.854 135.373C130.8 135.384 130.744 135.394 130.69 135.403C130.189 135.501 129.684 135.599 129.187 135.702C129.124 135.715 129.062 135.728 128.997 135.741C128.786 135.784 128.578 135.828 128.372 135.872C128.331 135.88 128.291 135.889 128.251 135.898C128.018 135.948 127.791 135.998 127.567 136.046C127.502 136.061 127.438 136.074 127.373 136.089C127.196 136.129 127.023 136.168 126.853 136.207C126.797 136.22 126.741 136.233 126.687 136.246C126.479 136.294 126.277 136.344 126.082 136.392C126.028 136.405 125.977 136.418 125.925 136.431C125.773 136.471 125.625 136.508 125.482 136.545C125.432 136.558 125.381 136.571 125.332 136.584C125.157 136.632 124.989 136.678 124.832 136.723C124.798 136.732 124.767 136.743 124.736 136.752C124.608 136.789 124.489 136.826 124.377 136.863C124.339 136.876 124.301 136.887 124.265 136.9C124.135 136.943 124.014 136.985 123.911 137.026C123.898 137.033 123.887 137.037 123.873 137.041C123.784 137.076 123.705 137.111 123.638 137.144C123.618 137.155 123.598 137.163 123.578 137.174C123.508 137.211 123.448 137.248 123.41 137.281C123.165 137.497 123.208 137.982 123.407 138.579V138.582C123.972 140.285 125.887 142.514 125.887 142.514C126.586 142.446 126.181 141.904 127.473 141.457C127.942 141.296 128.352 141.355 128.683 141.494C129.241 141.729 129.929 141.583 130.374 141.167C130.538 141.015 130.728 140.854 130.944 140.688C131.04 140.614 131.141 140.54 131.248 140.464C131.441 140.327 131.649 140.189 131.873 140.052C131.976 139.989 132.084 139.926 132.196 139.862C132.456 139.714 132.736 139.568 133.031 139.427C133.157 139.368 133.287 139.309 133.419 139.253C133.753 139.107 134.109 138.971 134.483 138.845C134.571 138.815 134.66 138.786 134.752 138.758C134.9 138.712 135.043 138.664 135.182 138.616C135.487 138.51 135.765 138.399 136.02 138.283C136.101 138.248 136.179 138.211 136.253 138.174C138.554 137.046 138.74 135.588 138.128 134.845C137.864 134.534 137.456 134.347 137.003 134.375Z" fill="#1F367A"/>
<path d="M52.7334 183.082C53.8312 183.228 54.6354 181.404 55.0879 181.844C55.3814 182.13 56.217 182.842 57.5545 183.167C57.7494 183.215 57.9532 183.254 58.1683 183.284C58.585 183.339 59.0398 183.354 59.5349 183.31C60.0905 183.263 60.3884 183.108 60.5139 182.899C60.9642 182.16 59.3086 180.729 59.3086 180.729C59.3086 180.729 58.8718 180.511 58.2512 180.263C57.093 179.797 55.2896 179.217 54.4607 179.714C53.1837 180.478 51.6379 182.936 52.7334 183.082Z" fill="#F9CBCB"/>
<path d="M58.1636 183.829C58.1636 184.053 75.7967 185.373 78.3484 183.369C78.6979 183.095 78.9981 182.718 79.2512 182.26V182.258C82.1434 177.045 79.1639 161.164 79.1639 161.164C78.6463 157.755 72.6379 154.252 70.0751 157.97C67.8774 161.157 69.4433 166.584 70.4335 171.899C70.6553 173.082 70.8569 174.165 70.9981 175.084C71.249 176.727 71.3027 177.836 70.9085 178.019C70.7337 178.104 68.7533 178.311 66.3652 178.559C63.9479 178.81 61.1118 179.104 59.3016 179.354C58.7864 179.424 58.3809 179.788 58.2532 180.258C58.2263 180.356 58.2106 180.459 58.2084 180.563C58.1972 181.3 58.1837 182.276 58.1748 182.968C58.1725 183.079 58.1725 183.184 58.1725 183.28C58.1658 183.581 58.1636 183.783 58.1636 183.829Z" fill="url(#paint21_linear_1275_49484)"/>
<path d="M40.5887 175.533L41.5431 174.869L36.5607 174.542L35.4585 175.235L40.5887 175.533Z" fill="white"/>
<path d="M125.002 159.48C125.002 159.48 124.995 159.399 124.85 159.262C124.948 159.397 125.002 159.48 125.002 159.48Z" fill="#F58C4F"/>
<path d="M108.35 170.288C108.35 170.288 114.497 174.606 116.601 174.207C118.653 173.821 121.27 174.532 121.355 174.562C121.288 174.512 119.717 173.17 120.474 172.079C121.256 170.952 121.31 169.24 120.84 165.528C120.367 161.816 120.239 157.683 122.6 158.311C124.045 158.694 124.623 159.047 124.852 159.263C124.39 158.616 122.952 156.735 121.655 156.391C120.085 155.977 120.882 153.888 121.74 151.052C122.43 148.769 124.193 147.12 124.686 146.357C123.476 146.305 122.356 147.017 121.946 148.139C119.258 155.483 119.731 161.659 119.802 170.604C119.827 174.562 113.83 172.168 108.35 170.288Z" fill="#E6E7E8"/>
<path d="M60.8362 183.454H53.9205C53.9183 183.31 53.8981 183.162 53.8511 183.014L48.806 166.721C48.5954 166.037 47.948 165.571 47.2131 165.571H28.0163C26.9006 165.571 26.1031 166.616 26.4235 167.656L31.4685 183.948C31.6791 184.633 32.3266 185.099 33.0614 185.099H49.0367H52.2582H60.8362C60.9729 185.099 61.0826 184.992 61.0826 184.859V183.694C61.0826 183.563 60.9706 183.454 60.8362 183.454Z" fill="url(#paint22_linear_1275_49484)"/>
<path d="M50.5107 135.748C50.5107 134.745 51.3464 133.931 52.3791 133.931C53.4096 133.931 54.2475 134.743 54.2475 135.748C54.2475 136.75 53.4119 137.564 52.3791 137.564C51.3464 137.564 50.5107 136.752 50.5107 135.748ZM54.9778 141.05C55.5625 141.05 56.0375 140.588 56.0375 140.02C56.0375 139.451 55.5625 138.989 54.9778 138.989C54.3931 138.989 53.9182 139.451 53.9182 140.02C53.9182 140.588 54.3931 141.05 54.9778 141.05Z" fill="url(#paint23_linear_1275_49484)"/>
<path d="M162.374 50.8588C169.919 50.8588 176.035 45.1131 176.035 38.0253C176.035 30.9376 169.919 25.1919 162.374 25.1919C154.829 25.1919 148.713 30.9376 148.713 38.0253C148.713 45.1131 154.829 50.8588 162.374 50.8588Z" fill="url(#paint24_linear_1275_49484)"/>
<path d="M162.173 39.376C165.101 39.376 167.476 37.1454 167.476 34.3938C167.476 31.6422 165.101 29.4116 162.173 29.4116C159.244 29.4116 156.87 31.6422 156.87 34.3938C156.87 37.1454 159.244 39.376 162.173 39.376Z" fill="white"/>
<path d="M167.036 39.4174C166.608 39.1037 166.012 39.1145 165.593 39.437C164.679 40.1363 163.514 40.5589 162.24 40.5589C161.007 40.5589 159.876 40.1646 158.978 39.5023C158.55 39.1864 157.943 39.193 157.531 39.5263C156.46 40.389 155.81 41.6307 155.81 43.2471V43.3931C155.81 44.2274 156.531 44.905 157.421 44.905H167.332C168.221 44.905 168.943 44.2274 168.943 43.3931V43.2471C168.94 41.561 168.212 40.28 167.036 39.4174Z" fill="white"/>
<path d="M157.734 107.177C157.635 107.177 157.548 107.127 157.53 107.057C157.51 106.979 157.583 106.902 157.696 106.887C157.7 106.887 158.146 106.828 158.91 106.709C159.022 106.691 159.134 106.741 159.159 106.82C159.184 106.898 159.114 106.976 159.002 106.994C158.231 107.114 157.776 107.175 157.772 107.175C157.761 107.175 157.747 107.177 157.734 107.177Z" fill="#3A67B3"/>
<path d="M59.6143 29.6925C58.9086 30.028 58.2209 30.3744 57.5689 30.7186C57.4771 30.7665 57.4592 30.858 57.5286 30.9233C57.5689 30.9604 57.6317 30.9822 57.6944 30.9822C57.7392 30.9822 57.7818 30.9734 57.8199 30.9517C58.4673 30.6096 59.1483 30.2676 59.8473 29.9343C59.9414 29.8886 59.966 29.7992 59.9033 29.7317C59.8383 29.6642 59.7084 29.6467 59.6143 29.6925Z" fill="#3A67B3"/>
<path d="M46.4912 43.7997C46.4934 43.7191 46.4038 43.6516 46.2872 43.6494C46.285 43.6494 46.2827 43.6494 46.2827 43.6494C46.1707 43.6494 46.0765 43.7126 46.0743 43.791C46.0698 43.8934 46.0698 43.9958 46.0698 44.0982C46.0698 44.5818 46.1102 45.0741 46.1886 45.5621C46.1998 45.6362 46.2917 45.6907 46.3948 45.6907C46.4015 45.6907 46.4105 45.6907 46.4195 45.6907C46.5338 45.6819 46.6167 45.61 46.6032 45.5294C46.527 45.0524 46.4867 44.5709 46.4867 44.0982C46.4845 44.0001 46.4867 43.8999 46.4912 43.7997Z" fill="#3A67B3"/>
<path d="M47.0356 47.242C47.0087 47.1636 46.8966 47.1156 46.7845 47.1352C46.6725 47.1549 46.603 47.2333 46.6321 47.3117C46.8249 47.8716 47.0737 48.4423 47.3673 49.0066C47.3987 49.0654 47.4771 49.1024 47.5623 49.1024C47.5869 49.1024 47.6093 49.1002 47.634 49.0937C47.7416 49.0654 47.7976 48.9826 47.7595 48.9064C47.4681 48.3508 47.2238 47.791 47.0356 47.242Z" fill="#3A67B3"/>
<path d="M46.4822 42.2031C46.4934 42.2053 46.5046 42.2053 46.5158 42.2053C46.6166 42.2053 46.7041 42.1552 46.722 42.0833C46.8542 41.5212 47.047 40.9548 47.2913 40.4015C47.3249 40.3252 47.2644 40.2425 47.1546 40.2185C47.0447 40.1945 46.9282 40.2381 46.8946 40.3144C46.6435 40.8808 46.4485 41.4581 46.3118 42.0332C46.2917 42.1138 46.3679 42.19 46.4822 42.2031Z" fill="#3A67B3"/>
<path d="M75.3298 24.3857C75.3545 24.3857 75.3813 24.3835 75.406 24.3748C76.1699 24.1679 76.9563 23.9587 77.7493 23.7583C77.8568 23.73 77.9129 23.6472 77.8748 23.571C77.8344 23.4947 77.7157 23.4555 77.6082 23.4838C76.8129 23.6864 76.0221 23.8934 75.2559 24.1025C75.1484 24.1308 75.0946 24.2158 75.1372 24.292C75.1685 24.3509 75.2469 24.3857 75.3298 24.3857Z" fill="#3A67B3"/>
<path d="M80.0413 23.1852C80.0637 23.1852 80.0861 23.183 80.1085 23.1765C80.8859 22.9913 81.6857 22.8083 82.4855 22.6297C82.5952 22.6057 82.6557 22.5229 82.6221 22.4467C82.5885 22.3704 82.472 22.3269 82.36 22.3508C81.5558 22.5295 80.7537 22.7146 79.9741 22.8998C79.8644 22.9259 79.8061 23.0087 79.8442 23.085C79.8755 23.1482 79.9562 23.1852 80.0413 23.1852Z" fill="#3A67B3"/>
<path d="M49.2601 37.0536C49.1615 37.0122 49.0338 37.034 48.9732 37.1037C48.5317 37.6157 48.135 38.1429 47.7921 38.6657C47.745 38.7398 47.7898 38.8247 47.8952 38.8596C47.9243 38.8683 47.9535 38.8727 47.9826 38.8727C48.061 38.8727 48.1372 38.84 48.1731 38.7877C48.5071 38.2736 48.897 37.7595 49.3318 37.254C49.3901 37.1843 49.3587 37.095 49.2601 37.0536Z" fill="#3A67B3"/>
<path d="M55.8954 31.8379C55.8214 31.7769 55.6893 31.7682 55.6019 31.8205C54.9477 32.2082 54.3205 32.6047 53.7335 33.0034C53.6506 33.06 53.6484 33.1515 53.729 33.2103C53.7694 33.2408 53.8254 33.2539 53.8791 33.2539C53.9307 33.2539 53.9822 33.2408 54.0248 33.2125C54.605 32.8204 55.2278 32.4261 55.8752 32.0427C55.9581 31.9904 55.9693 31.8989 55.8954 31.8379Z" fill="#3A67B3"/>
<path d="M58.0123 55.9602C57.2372 55.7053 56.4956 55.4373 55.8056 55.1629C55.7071 55.1236 55.5794 55.1476 55.5211 55.2173C55.4651 55.287 55.4987 55.3763 55.5995 55.4156C56.2985 55.6944 57.0512 55.9645 57.8353 56.2238C57.8644 56.2325 57.8936 56.2368 57.9227 56.2368C58.0011 56.2368 58.075 56.2063 58.1109 56.1541C58.1624 56.08 58.1176 55.9929 58.0123 55.9602Z" fill="#3A67B3"/>
<path d="M48.7426 50.4945C48.6888 50.4226 48.561 50.3965 48.4602 50.4357C48.3593 50.4749 48.3212 50.562 48.375 50.6339C48.7672 51.1415 49.2379 51.6339 49.7803 52.1044C49.8206 52.1393 49.8811 52.1589 49.9416 52.1589C49.9865 52.1589 50.0335 52.148 50.0716 52.1262C50.1613 52.0761 50.1747 51.9846 50.103 51.9214C49.5808 51.4639 49.1213 50.9847 48.7426 50.4945Z" fill="#3A67B3"/>
<path d="M53.7132 54.2375C53.0165 53.8933 52.3691 53.5317 51.7888 53.1635C51.7037 53.1091 51.5715 53.1134 51.4954 53.1744C51.4192 53.2332 51.4237 53.3269 51.5088 53.3814C52.1025 53.7604 52.7634 54.1286 53.4735 54.4793C53.5094 54.4968 53.5519 54.5055 53.5922 54.5055C53.6572 54.5055 53.7222 54.4837 53.7625 54.4445C53.8297 54.3748 53.8073 54.2833 53.7132 54.2375Z" fill="#3A67B3"/>
<path d="M52.2781 34.2604C52.193 34.206 52.0607 34.2125 51.9845 34.2713C51.413 34.7201 50.8751 35.1776 50.3843 35.6372C50.3148 35.7026 50.335 35.7941 50.4269 35.842C50.465 35.8616 50.5075 35.8703 50.5524 35.8703C50.6151 35.8703 50.6779 35.8507 50.7182 35.8115C51.2001 35.3606 51.7313 34.9074 52.2938 34.4652C52.37 34.4064 52.3633 34.3149 52.2781 34.2604Z" fill="#3A67B3"/>
<path d="M84.8222 22.1243C84.8424 22.1243 84.8625 22.1221 84.8804 22.1177C85.6713 21.9543 86.4822 21.791 87.2865 21.6341C87.3963 21.6123 87.4612 21.5317 87.4321 21.4555C87.4008 21.377 87.2865 21.3313 87.1767 21.3531C86.368 21.5099 85.557 21.6733 84.764 21.8367C84.6542 21.8585 84.5915 21.9413 84.6228 22.0175C84.6497 22.0829 84.7326 22.1243 84.8222 22.1243Z" fill="#3A67B3"/>
<path d="M178.875 68.4934C179.652 68.7505 180.394 69.0206 181.079 69.2973C181.113 69.3104 181.149 69.3169 181.182 69.3169C181.254 69.3169 181.323 69.2908 181.364 69.245C181.422 69.1753 181.386 69.086 181.287 69.0468C180.593 68.7658 179.84 68.4913 179.052 68.2298C178.949 68.195 178.823 68.2277 178.774 68.2996C178.725 68.3714 178.769 68.4586 178.875 68.4934Z" fill="#3A67B3"/>
<path d="M182.39 87.0436C182.977 87.342 183.5 87.7734 183.946 88.3223C183.984 88.3703 184.055 88.3964 184.127 88.3964C184.163 88.3964 184.197 88.3899 184.23 88.3768C184.331 88.3376 184.365 88.2483 184.309 88.1786C183.834 87.5926 183.271 87.1307 182.637 86.8083C182.545 86.7604 182.413 86.7756 182.345 86.841C182.278 86.9042 182.298 86.9957 182.39 87.0436Z" fill="#3A67B3"/>
<path d="M177.824 87.0873C177.864 87.0873 177.905 87.0786 177.938 87.0633C178.644 86.7344 179.417 86.5557 180.174 86.5427C180.288 86.5405 180.38 86.473 180.378 86.3945C180.376 86.3139 180.279 86.2529 180.165 86.2529C179.329 86.266 178.48 86.4621 177.708 86.8215C177.611 86.8651 177.587 86.9566 177.649 87.0241C177.692 87.0655 177.757 87.0873 177.824 87.0873Z" fill="#3A67B3"/>
<path d="M89.6518 21.1855C89.6697 21.1855 89.6876 21.1833 89.7033 21.1811C90.5008 21.0374 91.3185 20.8936 92.1318 20.7563C92.2438 20.7367 92.3132 20.6583 92.2863 20.5799C92.2594 20.5015 92.1474 20.4535 92.0354 20.4731C91.22 20.6104 90.4 20.7542 89.6003 20.9001C89.4882 20.9197 89.421 21.0003 89.4502 21.0788C89.4748 21.1419 89.5599 21.1855 89.6518 21.1855Z" fill="#3A67B3"/>
<path d="M119.311 17.8087C119.316 17.8087 119.322 17.8087 119.327 17.8087C120.162 17.7652 120.996 17.7259 121.827 17.6933C121.941 17.6889 122.028 17.6192 122.022 17.5386C122.015 17.458 121.921 17.3948 121.802 17.4013C120.969 17.4362 120.133 17.4754 119.295 17.519C119.181 17.5255 119.094 17.5952 119.103 17.6758C119.114 17.7499 119.203 17.8087 119.311 17.8087Z" fill="#3A67B3"/>
<path d="M190.724 77.0222C190.76 77.0745 190.834 77.1071 190.913 77.1071C190.942 77.1071 190.971 77.1028 191 77.0941C191.105 77.0592 191.15 76.9743 191.101 76.9002C190.754 76.3773 190.359 75.8502 189.929 75.3338C189.87 75.2641 189.743 75.2402 189.644 75.2816C189.545 75.323 189.512 75.4123 189.57 75.482C189.996 75.9896 190.384 76.5081 190.724 77.0222Z" fill="#3A67B3"/>
<path d="M183.158 70.2404C183.848 70.5933 184.485 70.9658 185.049 71.347C185.09 71.3753 185.141 71.3884 185.195 71.3884C185.249 71.3884 185.305 71.3732 185.345 71.3448C185.426 71.286 185.423 71.1945 185.34 71.1379C184.762 70.7479 184.113 70.3667 183.407 70.0051C183.313 69.9572 183.183 69.9724 183.116 70.0378C183.044 70.1009 183.064 70.1924 183.158 70.2404Z" fill="#3A67B3"/>
<path d="M114.311 18.1184C114.317 18.1184 114.324 18.1184 114.333 18.1184C115.166 18.0574 116 18.0029 116.833 17.9506C116.947 17.9441 117.033 17.8722 117.021 17.7916C117.01 17.711 116.909 17.6522 116.795 17.6587C115.959 17.711 115.124 17.7654 114.29 17.8264C114.176 17.8352 114.093 17.907 114.105 17.9855C114.116 18.0639 114.205 18.1184 114.311 18.1184Z" fill="#3A67B3"/>
<path d="M94.5266 20.3622C94.5423 20.3622 94.558 20.36 94.5714 20.3578C95.3779 20.2315 96.2001 20.1073 97.02 19.9875C97.132 19.97 97.206 19.8938 97.1813 19.8154C97.1589 19.7369 97.0492 19.6847 96.9349 19.7021C96.115 19.8219 95.2883 19.9461 94.4818 20.0724C94.3698 20.0899 94.2981 20.1683 94.325 20.2467C94.3452 20.3164 94.4325 20.3622 94.5266 20.3622Z" fill="#3A67B3"/>
<path d="M99.4374 19.6472C99.4509 19.6472 99.4643 19.6472 99.4778 19.6451C100.293 19.5361 101.12 19.4294 101.933 19.3292C102.047 19.3161 102.121 19.2399 102.101 19.1593C102.081 19.0808 101.973 19.0264 101.859 19.0416C101.044 19.1418 100.215 19.2486 99.3971 19.3597C99.2851 19.3749 99.2112 19.4512 99.2313 19.5296C99.2515 19.5993 99.3389 19.6472 99.4374 19.6472Z" fill="#3A67B3"/>
<path d="M109.324 18.5301C109.333 18.5301 109.342 18.5301 109.35 18.5279C110.179 18.4517 111.008 18.3798 111.837 18.3101C111.951 18.3014 112.032 18.2273 112.019 18.1489C112.005 18.0683 111.9 18.0095 111.788 18.0203C110.957 18.0879 110.126 18.1619 109.294 18.2382C109.18 18.2491 109.1 18.321 109.115 18.4016C109.131 18.4756 109.221 18.5301 109.324 18.5301Z" fill="#3A67B3"/>
<path d="M104.364 19.0395C104.375 19.0395 104.386 19.0395 104.398 19.0374C105.22 18.9437 106.044 18.8544 106.871 18.7716C106.985 18.7607 107.064 18.6866 107.046 18.606C107.03 18.5254 106.925 18.471 106.81 18.4819C105.984 18.5668 105.157 18.6561 104.33 18.7498C104.216 18.7629 104.14 18.8369 104.158 18.9176C104.176 18.9873 104.263 19.0395 104.364 19.0395Z" fill="#3A67B3"/>
<path d="M68.3401 26.2024C67.5762 26.4617 66.8212 26.7274 66.0931 26.9932C65.9901 27.0302 65.952 27.1196 66.0058 27.1893C66.0439 27.2394 66.1155 27.2677 66.1895 27.2677C66.2231 27.2677 66.2544 27.2633 66.2858 27.2503C67.0094 26.9867 67.7599 26.7209 68.5194 26.4638C68.6224 26.429 68.6672 26.3418 68.6157 26.27C68.5686 26.1981 68.4432 26.1676 68.3401 26.2024Z" fill="#3A67B3"/>
<path d="M184.485 96.5475C184.382 96.5105 184.257 96.5388 184.205 96.6107C183.842 97.1052 183.396 97.5954 182.885 98.0703C182.816 98.1335 182.834 98.225 182.925 98.2751C182.964 98.2947 183.006 98.3056 183.051 98.3056C183.114 98.3056 183.176 98.286 183.217 98.2467C183.743 97.7588 184.201 97.2555 184.575 96.7458C184.627 96.6739 184.588 96.5846 184.485 96.5475Z" fill="#3A67B3"/>
<path d="M178.501 92.3872C177.685 92.1149 177.036 91.7794 176.57 91.3916C176.496 91.3306 176.364 91.3219 176.276 91.3742C176.189 91.4265 176.178 91.518 176.252 91.579C176.758 91.9994 177.455 92.3588 178.322 92.6508C178.351 92.6595 178.38 92.666 178.411 92.666C178.49 92.666 178.564 92.6355 178.599 92.5832C178.649 92.5092 178.604 92.422 178.501 92.3872Z" fill="#3A67B3"/>
<path d="M185.746 93.1816C185.63 93.1751 185.534 93.2383 185.525 93.3189C185.473 93.8918 185.334 94.4604 185.11 95.0115C185.079 95.09 185.144 95.1706 185.253 95.1924C185.271 95.1967 185.291 95.1989 185.309 95.1989C185.399 95.1989 185.484 95.1575 185.509 95.0921C185.74 94.5214 185.883 93.931 185.937 93.3385C185.948 93.2579 185.861 93.1882 185.746 93.1816Z" fill="#3A67B3"/>
<path d="M185.639 91.7228C185.648 91.7228 185.657 91.7228 185.668 91.7206C185.782 91.7097 185.861 91.6356 185.847 91.5572C185.738 90.9908 185.549 90.407 185.289 89.8231C185.256 89.7469 185.139 89.7033 185.029 89.7273C184.919 89.7513 184.859 89.834 184.893 89.9103C185.146 90.4789 185.33 91.0453 185.435 91.5964C185.446 91.6705 185.536 91.7228 185.639 91.7228Z" fill="#3A67B3"/>
<path d="M62.6412 57.2547C61.8325 57.0609 61.0439 56.8583 60.3001 56.6513C60.1926 56.6208 60.0716 56.6578 60.0291 56.7341C59.9865 56.8082 60.038 56.8931 60.1456 56.9236C60.8961 57.1328 61.6914 57.3375 62.5068 57.5314C62.5292 57.5358 62.5516 57.5401 62.574 57.5401C62.6614 57.5401 62.742 57.5009 62.7712 57.4421C62.8092 57.3637 62.751 57.2809 62.6412 57.2547Z" fill="#3A67B3"/>
<path d="M183.495 92.9664C183.474 92.888 183.367 92.8335 183.253 92.8488C182.439 92.9511 181.617 92.9642 180.824 92.888C180.71 92.8771 180.605 92.9315 180.589 93.0121C180.573 93.0927 180.652 93.1646 180.766 93.1777C181.124 93.2126 181.49 93.23 181.855 93.23C182.341 93.23 182.836 93.1995 183.327 93.1363C183.441 93.1211 183.515 93.0448 183.495 92.9664Z" fill="#3A67B3"/>
<path d="M187.625 91.3762C186.973 91.7509 186.281 92.0646 185.567 92.3086C185.463 92.3435 185.421 92.4306 185.47 92.5047C185.506 92.557 185.58 92.5875 185.656 92.5875C185.688 92.5875 185.719 92.5831 185.748 92.5722C186.49 92.3174 187.211 91.9906 187.887 91.6028C187.977 91.5527 187.991 91.459 187.917 91.398C187.845 91.3327 187.715 91.324 187.625 91.3762Z" fill="#3A67B3"/>
<path d="M193.099 82.0019C193.09 81.9213 192.985 81.8603 192.875 81.869C192.76 81.8755 192.675 81.9474 192.684 82.0258C192.729 82.394 192.751 82.7665 192.751 83.1325C192.751 83.3416 192.745 83.553 192.729 83.7599C192.722 83.8405 192.812 83.9081 192.926 83.9124C192.931 83.9124 192.933 83.9124 192.938 83.9124C193.047 83.9124 193.139 83.8514 193.146 83.773C193.162 83.5617 193.168 83.346 193.168 83.1303C193.168 82.76 193.146 82.3788 193.099 82.0019Z" fill="#3A67B3"/>
<path d="M192.673 85.366C192.561 85.3508 192.451 85.4009 192.429 85.4815C192.268 86.0522 192.046 86.6143 191.77 87.1502C191.732 87.2264 191.786 87.3092 191.896 87.3375C191.918 87.3441 191.943 87.3463 191.967 87.3463C192.052 87.3463 192.133 87.3092 192.162 87.2504C192.447 86.6992 192.673 86.1241 192.839 85.5381C192.862 85.4597 192.788 85.3813 192.673 85.366Z" fill="#3A67B3"/>
<path d="M187.03 72.4472C186.956 72.3862 186.826 72.3775 186.736 72.4276C186.647 72.4798 186.635 72.5713 186.709 72.6323C187.247 73.0876 187.756 73.5516 188.224 74.0157C188.265 74.0571 188.33 74.0767 188.395 74.0767C188.435 74.0767 188.478 74.068 188.516 74.0505C188.61 74.0048 188.632 73.9133 188.565 73.8479C188.09 73.3774 187.575 72.9068 187.03 72.4472Z" fill="#3A67B3"/>
<path d="M191.032 88.6687C190.931 88.6295 190.806 88.6556 190.747 88.7253C190.339 89.2351 189.873 89.7165 189.362 90.1544C189.288 90.2176 189.302 90.3091 189.391 90.3592C189.43 90.381 189.477 90.3919 189.524 90.3919C189.584 90.3919 189.645 90.3744 189.685 90.3374C190.212 89.8864 190.694 89.3919 191.113 88.8669C191.167 88.7972 191.131 88.7079 191.032 88.6687Z" fill="#3A67B3"/>
<path d="M192.519 80.4244C192.532 80.4244 192.548 80.4244 192.564 80.4222C192.676 80.4048 192.747 80.3286 192.723 80.248C192.548 79.6816 192.321 79.1064 192.046 78.5422C192.008 78.466 191.891 78.4246 191.781 78.4507C191.671 78.4769 191.613 78.5596 191.651 78.6359C191.92 79.1914 192.144 79.7535 192.315 80.309C192.335 80.3787 192.422 80.4244 192.519 80.4244Z" fill="#3A67B3"/>
<path d="M181.252 99.3738C180.692 99.7659 180.067 100.156 179.399 100.531C179.31 100.581 179.296 100.672 179.368 100.735C179.408 100.772 179.469 100.79 179.531 100.79C179.576 100.79 179.623 100.779 179.661 100.757C180.342 100.376 180.976 99.9794 181.548 99.5786C181.628 99.522 181.628 99.4283 181.548 99.3716C181.465 99.3172 181.335 99.3172 181.252 99.3738Z" fill="#3A67B3"/>
<path d="M177.39 101.559C176.724 101.87 176.01 102.177 175.266 102.474C175.165 102.513 175.132 102.602 175.188 102.672C175.226 102.72 175.297 102.746 175.369 102.746C175.405 102.746 175.439 102.739 175.472 102.726C176.223 102.426 176.946 102.114 177.621 101.8C177.717 101.755 177.742 101.665 177.679 101.598C177.614 101.532 177.484 101.513 177.39 101.559Z" fill="#3A67B3"/>
<path d="M163.744 105.817C162.949 105.985 162.138 106.146 161.336 106.294C161.224 106.314 161.159 106.394 161.188 106.473C161.213 106.538 161.298 106.582 161.39 106.582C161.408 106.582 161.426 106.58 161.443 106.577C162.25 106.427 163.065 106.266 163.865 106.098C163.975 106.074 164.038 105.994 164.004 105.917C163.971 105.837 163.854 105.793 163.744 105.817Z" fill="#3A67B3"/>
<path d="M72.3099 59.0319C71.4765 58.9143 70.6543 58.7901 69.8635 58.6637C69.7515 58.6463 69.6395 58.6942 69.6148 58.7727C69.5902 58.8511 69.6596 58.9295 69.7716 58.9469C70.5669 59.0733 71.3936 59.1975 72.2292 59.3173C72.2427 59.3195 72.2561 59.3195 72.2718 59.3195C72.3681 59.3195 72.4555 59.2715 72.4757 59.2018C72.4936 59.1256 72.4219 59.0493 72.3099 59.0319Z" fill="#3A67B3"/>
<path d="M67.4309 58.2499C66.6043 58.0996 65.7933 57.9428 65.0204 57.7837C64.9106 57.7598 64.7941 57.8055 64.7628 57.8818C64.7292 57.958 64.7941 58.0408 64.9039 58.0626C65.6813 58.2238 66.4968 58.3806 67.3279 58.531C67.3458 58.5331 67.3637 58.5353 67.3794 58.5353C67.4713 58.5353 67.5564 58.4917 67.581 58.4264C67.6102 58.3501 67.543 58.2695 67.4309 58.2499Z" fill="#3A67B3"/>
<path d="M63.8868 27.8357C63.1475 28.1298 62.4194 28.4304 61.7227 28.7332C61.6241 28.7746 61.595 28.8661 61.6555 28.9337C61.6958 28.9772 61.763 29.0034 61.8324 29.0034C61.8705 29.0034 61.9086 28.9968 61.9422 28.9816C62.6345 28.681 63.3581 28.3803 64.0906 28.0884C64.1915 28.0492 64.2251 27.9599 64.169 27.8902C64.113 27.8204 63.9853 27.7943 63.8868 27.8357Z" fill="#3A67B3"/>
<path d="M72.9239 24.7623C72.1465 24.9888 71.3691 25.2241 70.6187 25.4616C70.5134 25.4942 70.4663 25.5814 70.5134 25.6533C70.547 25.7077 70.6231 25.7404 70.7038 25.7404C70.7329 25.7404 70.762 25.736 70.7889 25.7273C71.5372 25.4921 72.3101 25.259 73.0852 25.0324C73.1905 25.0019 73.242 24.9148 73.1972 24.8407C73.1524 24.7644 73.0314 24.7296 72.9239 24.7623Z" fill="#3A67B3"/>
<path d="M176.227 88.0842C176.127 88.045 176.001 88.069 175.943 88.1387C175.513 88.6615 175.286 89.2258 175.286 89.7726C175.286 89.8118 175.288 89.8532 175.291 89.8946C175.295 89.973 175.387 90.034 175.499 90.034C175.501 90.034 175.506 90.034 175.508 90.034C175.622 90.0296 175.712 89.9621 175.707 89.8815C175.705 89.8445 175.703 89.8096 175.703 89.7726C175.703 89.2781 175.911 88.7617 176.304 88.2847C176.362 88.2128 176.328 88.1235 176.227 88.0842Z" fill="#3A67B3"/>
<path d="M168.48 104.687C167.719 104.892 166.925 105.092 166.128 105.281C166.018 105.308 165.96 105.39 165.998 105.467C166.027 105.528 166.108 105.565 166.195 105.565C166.218 105.565 166.24 105.563 166.262 105.556C167.067 105.364 167.862 105.164 168.63 104.957C168.738 104.929 168.792 104.844 168.749 104.77C168.706 104.695 168.588 104.658 168.48 104.687Z" fill="#3A67B3"/>
<path d="M176.664 67.8108C176.747 67.8108 176.825 67.7759 176.857 67.7193C176.899 67.6452 176.846 67.5602 176.74 67.5297C175.99 67.3228 175.194 67.1202 174.375 66.9263C174.267 66.9002 174.148 66.9415 174.11 67.0178C174.074 67.094 174.133 67.1768 174.242 67.203C175.056 67.3947 175.844 67.5951 176.588 67.8021C176.613 67.8086 176.637 67.8108 176.664 67.8108Z" fill="#3A67B3"/>
<path d="M173.06 103.292C172.336 103.543 171.572 103.789 170.792 104.026C170.687 104.059 170.638 104.144 170.685 104.218C170.718 104.273 170.795 104.305 170.875 104.305C170.902 104.305 170.931 104.301 170.958 104.292C171.745 104.053 172.513 103.804 173.243 103.551C173.346 103.517 173.389 103.427 173.337 103.355C173.288 103.286 173.163 103.255 173.06 103.292Z" fill="#3A67B3"/>
<path d="M171.915 66.6874C172.004 66.6874 172.087 66.646 172.114 66.5829C172.145 66.5044 172.083 66.4238 171.973 66.402C171.196 66.243 170.378 66.0883 169.544 65.9424C169.432 65.9228 169.32 65.9707 169.291 66.0491C169.262 66.1276 169.332 66.206 169.441 66.2256C170.27 66.3715 171.081 66.5262 171.856 66.6831C171.874 66.6852 171.895 66.6874 171.915 66.6874Z" fill="#3A67B3"/>
<path d="M124.365 17.6022C124.255 17.6022 124.161 17.5412 124.156 17.4628C124.152 17.3822 124.242 17.3147 124.356 17.3103C124.773 17.2972 125.19 17.2863 125.607 17.2754C125.716 17.2733 125.817 17.3364 125.822 17.4149C125.826 17.4955 125.737 17.563 125.622 17.5652C125.208 17.5761 124.791 17.587 124.376 17.6C124.369 17.6022 124.367 17.6022 124.365 17.6022Z" fill="#3A67B3"/>
<path d="M128.57 17.726L136.397 18.2031L134.045 14.2056L128.57 17.726Z" fill="url(#paint25_linear_1275_49484)"/>
<path d="M135.786 19.4668L145.979 16.4452L133.344 15.8657L135.786 19.4668Z" fill="url(#paint26_linear_1275_49484)"/>
<path d="M145.99 16.4318L130.288 9.08594L132.526 12.748L145.99 16.4318Z" fill="url(#paint27_linear_1275_49484)"/>
<path d="M145.979 16.4452L133.317 15.8984L128.57 17.7261L132.526 12.6895L145.979 16.4452Z" fill="url(#paint28_linear_1275_49484)"/>
<path d="M191.011 53.9953C191.011 53.9583 191.011 53.9191 191.009 53.8842C191.007 53.8167 191.002 53.7492 190.998 53.6838C190.998 53.6664 190.995 53.6511 190.995 53.6337C190.984 53.5052 190.968 53.3788 190.946 53.2525C190.899 52.9736 190.827 52.7013 190.733 52.4421C190.706 52.3658 190.677 52.2896 190.646 52.2155C190.632 52.1872 190.621 52.1567 190.608 52.1284C190.563 52.0282 190.516 51.9301 190.467 51.8343L190.42 51.7471C190.249 51.44 190.048 51.1502 189.815 50.8866C189.788 50.8561 189.761 50.8278 189.734 50.7973C189.665 50.7211 189.591 50.6448 189.515 50.5729C189.459 50.5185 189.403 50.4662 189.344 50.4161C188.448 49.6297 187.259 49.1504 185.955 49.1504C184.653 49.1504 183.464 49.6297 182.565 50.4161C182.507 50.4662 182.451 50.5185 182.395 50.5729C182.319 50.6448 182.245 50.7211 182.175 50.7973C182.149 50.8278 182.122 50.8561 182.095 50.8866C181.864 51.1502 181.66 51.44 181.49 51.7471L181.443 51.8343C181.391 51.9301 181.344 52.0282 181.302 52.1284C181.288 52.1567 181.277 52.1872 181.264 52.2155C181.232 52.2896 181.203 52.3658 181.176 52.4421C181.082 52.7013 181.01 52.9736 180.963 53.2525C180.943 53.3767 180.925 53.5052 180.914 53.6337C180.912 53.6511 180.912 53.6664 180.912 53.6838C180.907 53.7492 180.903 53.8167 180.901 53.8842C180.898 53.9213 180.898 53.9583 180.898 53.9953C180.898 54.0128 180.898 54.0324 180.898 54.0498C180.898 54.1217 180.901 54.1914 180.903 54.2633C180.907 54.4005 180.921 54.5356 180.939 54.6685C180.954 54.797 180.977 54.9234 181.004 55.0497C181.017 55.1129 181.033 55.1739 181.049 55.2349C181.075 55.3416 181.107 55.4462 181.14 55.5486C181.194 55.7076 181.255 55.8645 181.324 56.017C181.335 56.0409 181.344 56.0627 181.355 56.0867C181.407 56.1934 181.461 56.298 181.517 56.3982C181.53 56.4222 181.544 56.444 181.557 56.4657C181.622 56.5768 181.691 56.6858 181.765 56.7903C181.839 56.8971 181.92 57.0016 182.003 57.104C182.117 57.2435 182.24 57.3763 182.373 57.5049C182.511 57.6399 182.657 57.7685 182.812 57.8861C183.674 58.5506 184.763 58.947 185.946 58.9492C185.948 58.9492 185.95 58.9492 185.955 58.9492C185.957 58.9492 185.961 58.9492 185.964 58.9492C187.147 58.947 188.235 58.5506 189.098 57.8861C189.252 57.7685 189.398 57.6399 189.537 57.5049C189.667 57.3785 189.79 57.2456 189.907 57.104C189.992 57.0016 190.07 56.8971 190.144 56.7903C190.218 56.6858 190.287 56.5768 190.352 56.4657C190.366 56.444 190.379 56.42 190.393 56.3982C190.451 56.2958 190.505 56.1934 190.554 56.0867C190.565 56.0627 190.574 56.0409 190.585 56.017C190.655 55.8645 190.715 55.7076 190.769 55.5486C190.803 55.4462 190.834 55.3416 190.861 55.2349C190.877 55.1739 190.892 55.1107 190.906 55.0497C190.933 54.9256 190.955 54.797 190.971 54.6685C190.989 54.5356 191 54.4005 191.007 54.2633C191.011 54.1936 191.011 54.1217 191.011 54.0498C191.011 54.0302 191.011 54.0128 191.011 53.9953ZM190.458 53.2503C190.482 53.3745 190.5 53.503 190.511 53.6315C190.514 53.649 190.514 53.6642 190.516 53.6816H189.143C189.12 53.2547 189.064 52.8386 188.972 52.4399H190.222C190.325 52.7013 190.406 52.9715 190.458 53.2503ZM188.695 54.0716C188.695 54.4746 188.661 54.8646 188.596 55.2349H187.646C187.68 54.8558 187.698 54.4615 187.698 54.0607C187.698 54.0389 187.698 54.0171 187.698 53.9932H188.695C188.695 54.0215 188.695 54.0454 188.695 54.0716ZM183.21 54.0716C183.21 54.0454 183.21 54.0193 183.213 53.9932H184.21C184.21 54.0149 184.21 54.0367 184.21 54.0607C184.21 54.4615 184.227 54.8558 184.261 55.2349H183.311C183.244 54.8646 183.21 54.4746 183.21 54.0716ZM187.301 54.0607C187.301 54.4659 187.281 54.8602 187.245 55.2349H186.147V53.9932H187.301C187.301 54.0171 187.301 54.0389 187.301 54.0607ZM184.602 54.0607C184.602 54.0389 184.602 54.0171 184.602 53.9932H185.755V55.2349H184.658C184.622 54.8602 184.602 54.4659 184.602 54.0607ZM186.15 49.878C186.351 49.976 186.542 50.22 186.705 50.5729H186.15V49.878ZM185.755 49.878V50.5729H185.2C185.366 50.22 185.554 49.976 185.755 49.878ZM185.755 50.8866V52.1284H184.756C184.837 51.6578 184.942 51.2374 185.07 50.8866H185.755ZM185.755 52.4421V53.6838H184.608C184.622 53.2503 184.655 52.832 184.709 52.4421H185.755ZM185.755 55.5486V56.7903H184.931C184.83 56.4244 184.749 56.0039 184.693 55.5486H185.755ZM185.755 57.104V58.2456C185.478 58.1127 185.222 57.6988 185.025 57.104H185.755ZM186.15 58.2456V57.104H186.88C186.681 57.6988 186.427 58.1105 186.15 58.2456ZM186.15 56.7903V55.5486H187.214C187.158 56.0039 187.077 56.4222 186.976 56.7903H186.15ZM186.15 53.6816V52.4399H187.196C187.25 52.8298 187.283 53.2459 187.297 53.6816H186.15ZM186.15 52.1284V50.8866H186.833C186.961 51.2352 187.068 51.6578 187.147 52.1284H186.15ZM187.279 50.8866H187.846C188.076 51.2417 188.269 51.6622 188.412 52.1284H187.554C187.487 51.6796 187.395 51.2613 187.279 50.8866ZM187.171 50.5729C187.077 50.3181 186.974 50.098 186.862 49.9129C187.138 50.0697 187.391 50.2941 187.619 50.5729H187.171ZM185.043 49.9129C184.931 50.098 184.828 50.3181 184.734 50.5729H184.286C184.512 50.2919 184.767 50.0675 185.043 49.9129ZM184.626 50.8866C184.51 51.2613 184.418 51.6796 184.348 52.1284H183.49C183.634 51.6622 183.826 51.2439 184.057 50.8866H184.626ZM184.304 52.4421C184.254 52.8386 184.223 53.2547 184.212 53.6838H183.219C183.244 53.2481 183.307 52.832 183.403 52.4421H184.304ZM184.29 55.5486C184.339 55.9887 184.413 56.4069 184.505 56.7903H183.795C183.614 56.42 183.468 56.0017 183.369 55.5486H184.29ZM184.586 57.104C184.617 57.2108 184.649 57.3132 184.682 57.4134C184.794 57.7445 184.922 58.0212 185.061 58.2456C184.637 58.0125 184.261 57.616 183.961 57.1062H184.586V57.104ZM186.842 58.2434C186.981 58.019 187.108 57.7423 187.22 57.4112C187.254 57.311 187.285 57.2086 187.317 57.1019H187.942C187.642 57.6138 187.265 58.0103 186.842 58.2434ZM187.4 56.7903C187.492 56.4069 187.565 55.9908 187.615 55.5486H188.536C188.435 56.0017 188.291 56.4178 188.11 56.7903H187.4ZM187.693 53.6816C187.682 53.2547 187.651 52.8364 187.601 52.4399H188.502C188.598 52.8298 188.661 53.2459 188.686 53.6816H187.693ZM189.864 51.7471C189.882 51.7755 189.9 51.806 189.918 51.8343C189.976 51.9301 190.03 52.0282 190.079 52.1284H188.889C188.762 51.6818 188.592 51.2635 188.379 50.8866H189.158C189.429 51.1437 189.667 51.4313 189.864 51.7471ZM188.791 50.5729H188.186C188.022 50.329 187.843 50.1155 187.651 49.9325C187.978 50.0588 188.289 50.2222 188.576 50.4161C188.648 50.4662 188.719 50.5185 188.791 50.5729ZM183.331 50.4161C183.618 50.2222 183.927 50.0588 184.257 49.9325C184.066 50.1133 183.887 50.329 183.721 50.5729H183.116C183.186 50.5185 183.257 50.4662 183.331 50.4161ZM181.987 51.8343C182.005 51.806 182.023 51.7755 182.041 51.7471C182.24 51.4313 182.478 51.1437 182.749 50.8866H183.529C183.316 51.2613 183.145 51.6796 183.018 52.1284H181.828C181.875 52.0282 181.929 51.928 181.987 51.8343ZM181.391 53.6315C181.405 53.503 181.423 53.3766 181.447 53.2503C181.499 52.9693 181.579 52.6991 181.685 52.4399H182.935C182.843 52.8364 182.787 53.2525 182.765 53.6816H181.389C181.389 53.6642 181.391 53.649 181.391 53.6315ZM181.49 55.0497C181.459 54.9256 181.436 54.797 181.416 54.6685C181.396 54.5356 181.385 54.4005 181.376 54.2633C181.373 54.1914 181.371 54.1217 181.371 54.0498C181.371 54.0324 181.371 54.0128 181.371 53.9953H182.751C182.751 54.0215 182.749 54.0476 182.749 54.0738C182.749 54.4702 182.78 54.8602 182.839 55.2371H181.535C181.521 55.1739 181.506 55.1107 181.49 55.0497ZM182.115 56.4657C182.099 56.444 182.084 56.42 182.07 56.3982C182.005 56.2958 181.942 56.1934 181.886 56.0867C181.873 56.0627 181.862 56.0409 181.851 56.017C181.772 55.8645 181.703 55.7076 181.642 55.5486H182.901C182.991 55.9887 183.123 56.4047 183.291 56.7903H182.355C182.269 56.6858 182.191 56.5768 182.115 56.4657ZM183.085 57.5027C182.926 57.3785 182.776 57.2456 182.637 57.1019H183.441C183.508 57.2326 183.582 57.3589 183.658 57.4809C183.818 57.7293 183.99 57.9449 184.174 58.1345C183.994 58.0604 183.822 57.9776 183.654 57.8839C183.457 57.7707 183.264 57.6443 183.085 57.5027ZM188.82 57.5027C188.641 57.6421 188.448 57.7707 188.249 57.8839C188.083 57.9776 187.908 58.0604 187.729 58.1345C187.913 57.9471 188.087 57.7293 188.244 57.4809C188.323 57.3589 188.394 57.2326 188.462 57.1019H189.266C189.129 57.2456 188.979 57.3785 188.82 57.5027ZM190.054 56.017C190.043 56.0409 190.03 56.0627 190.019 56.0867C189.963 56.1934 189.9 56.298 189.835 56.3982C189.819 56.4222 189.806 56.444 189.79 56.4657C189.716 56.5768 189.635 56.6858 189.55 56.7903H188.614C188.782 56.4069 188.914 55.9887 189.004 55.5486H190.263C190.202 55.7098 190.133 55.8667 190.054 56.017ZM189.062 55.2349C189.122 54.858 189.152 54.4681 189.152 54.0716C189.152 54.0454 189.152 54.0193 189.149 53.9932H190.529C190.529 54.0106 190.529 54.0302 190.529 54.0476C190.529 54.1195 190.527 54.1892 190.525 54.2611C190.518 54.3984 190.505 54.5334 190.485 54.6663C190.467 54.7948 190.442 54.9234 190.413 55.0475C190.397 55.1107 190.381 55.1717 190.364 55.2327H189.062V55.2349Z" fill="#ABD5F5"/>
<path d="M61.0038 42.6673L69.743 42.6389C69.4339 42.1945 68.8761 41.8961 68.2398 41.8983L67.6775 41.9004V40.687C67.6887 40.6456 67.6954 40.6042 67.6954 40.5607L67.691 39.1969C67.6865 38.062 66.7366 37.1426 65.5672 37.147L62.4532 37.1579C61.2838 37.1622 60.3406 38.0859 60.3451 39.2209L60.3541 41.9266L59.8142 41.9288C59.1779 41.9309 58.6223 42.2316 58.3154 42.6782L60.3563 42.6716L61.0038 42.6673ZM62.5831 38.1404L65.4462 38.1317C66.125 38.1295 66.6784 38.6632 66.6806 39.3233L66.6828 40.3014V41.9048L61.3644 41.9222L61.3555 39.3407C61.3555 38.6806 61.9043 38.1426 62.5831 38.1404Z" fill="#ABD5F5"/>
<path d="M70.0027 43.4432C70.0027 43.269 69.9691 43.1034 69.9086 42.9487L58.1561 42.9879C58.0956 43.1448 58.0643 43.3104 58.0665 43.4846L58.071 44.9159C58.08 47.822 60.7616 50.1704 64.057 50.1595C65.7058 50.1552 67.1934 49.5604 68.2709 48.6041C69.3485 47.6477 70.0116 46.3297 70.0072 44.8767L70.0027 43.4432ZM64.0503 47.9767C62.9481 47.981 62.052 47.114 62.0475 46.0422C62.0452 44.9704 62.9346 44.099 64.0368 44.0946C65.139 44.0924 66.0374 44.9573 66.0396 46.0291C66.0419 47.1009 65.1525 47.9723 64.0503 47.9767Z" fill="#ABD5F5"/>
<path d="M64.0126 45.1399C63.7683 45.1552 63.5733 45.3512 63.5666 45.5887C63.5621 45.7608 63.6562 45.9133 63.7974 45.9939L63.7145 47.0461C63.7122 47.0897 63.7459 47.1267 63.7907 47.1267L64.2995 47.1245C64.3443 47.1245 64.3779 47.0875 64.3757 47.0439L64.286 45.9917C64.4227 45.9111 64.5146 45.7652 64.5146 45.5974C64.5146 45.336 64.286 45.1247 64.0126 45.1399Z" fill="#ABD5F5"/>
<path d="M194.954 145.659C194.967 145.834 194.105 150.243 194.291 150.284C194.927 150.496 195.523 149.735 195.823 149.175C196.778 147.128 195.577 144.47 193.023 144.601C191.643 144.596 190.393 145.272 189.79 146.502C187.848 150.702 192.008 154.164 195.837 151.323H196.979C194.096 154.683 188.401 153.197 188.477 148.544C188.459 146.886 189.257 145.221 190.668 144.383C192.142 143.479 194.678 143.588 195.879 144.875C197.067 145.966 197.304 148.097 196.551 149.539C196.13 150.576 193.852 152.186 193.229 150.622C191.853 152.092 189.931 150.807 190.072 148.938C189.92 146.988 192.044 143.96 193.769 146.269L193.87 145.657H194.954V145.659ZM191.24 149.208C191.152 150.121 191.963 150.933 192.711 150.18C193.233 149.511 193.753 147.38 193.202 146.613C192.382 145.84 191.598 146.849 191.432 147.764C191.305 148.289 191.24 148.77 191.24 149.208Z" fill="#ABD5F5"/>
<path d="M204.41 103.591C204.473 103.691 204.493 103.811 204.464 103.928C204.426 104.083 204.307 104.203 204.148 104.249L202.62 104.682C202.461 104.728 202.298 104.689 202.177 104.577C202.058 104.466 202.011 104.307 202.049 104.153L202.428 102.65C202.466 102.495 202.584 102.375 202.744 102.329C202.903 102.284 203.066 102.323 203.187 102.434L204.336 103.503C204.366 103.53 204.39 103.558 204.41 103.591ZM202.412 104.303C202.416 104.312 202.423 104.318 202.428 104.323C202.439 104.333 202.472 104.357 202.522 104.344L204.05 103.911C204.099 103.898 204.112 103.859 204.117 103.843C204.121 103.828 204.126 103.787 204.09 103.754L202.941 102.684C202.905 102.65 202.862 102.658 202.847 102.663C202.831 102.667 202.793 102.682 202.779 102.73L202.401 104.233C202.394 104.264 202.403 104.288 202.412 104.303Z" fill="url(#paint29_linear_1275_49484)"/>
<path d="M35.2936 83.7044C35.3563 83.8046 35.3765 83.9244 35.3474 84.0421C35.3093 84.1967 35.1906 84.3166 35.0315 84.3623L33.5036 84.7958C33.3446 84.8416 33.181 84.8024 33.0601 84.6913C32.9413 84.5801 32.8943 84.4211 32.9324 84.2665L33.311 82.7633C33.3491 82.6086 33.4678 82.4888 33.6269 82.4431C33.7859 82.3973 33.9495 82.4365 34.0704 82.5476L35.2197 83.6173C35.2488 83.6434 35.2735 83.6717 35.2936 83.7044ZM33.2953 84.4168C33.2998 84.4255 33.3065 84.432 33.311 84.4364C33.3222 84.4473 33.3558 84.4712 33.4051 84.4582L34.9329 84.0246C34.9822 84.0116 34.9957 83.9724 35.0001 83.9571C35.0046 83.9419 35.0091 83.9005 34.9733 83.8678L33.824 82.7981C33.7882 82.7633 33.7456 82.772 33.7299 82.7764C33.7142 82.7807 33.6761 82.796 33.6627 82.8439L33.2841 84.3471C33.2774 84.3776 33.2863 84.4015 33.2953 84.4168Z" fill="url(#paint30_linear_1275_49484)"/>
<path d="M36.6769 147.235C36.7396 147.335 36.7598 147.455 36.7307 147.572C36.6926 147.727 36.5739 147.847 36.4148 147.893L34.8869 148.326C34.7279 148.372 34.5643 148.333 34.4434 148.222C34.3246 148.11 34.2776 147.951 34.3157 147.797L34.6943 146.294C34.7324 146.139 34.8511 146.019 35.0102 145.973C35.1692 145.928 35.3327 145.967 35.4537 146.078L36.603 147.148C36.6321 147.174 36.6567 147.202 36.6769 147.235ZM34.6786 147.947C34.6831 147.956 34.6898 147.962 34.6943 147.967C34.7055 147.978 34.7391 148.004 34.7884 147.988L36.3162 147.555C36.3655 147.542 36.379 147.503 36.3834 147.487C36.3879 147.472 36.3924 147.431 36.3566 147.398L35.2073 146.328C35.1715 146.294 35.1289 146.302 35.1132 146.307C35.0975 146.311 35.0594 146.326 35.046 146.374L34.6674 147.877C34.6607 147.908 34.6674 147.932 34.6786 147.947Z" fill="url(#paint31_linear_1275_49484)"/>
<path d="M82.3942 15.9026C82.4569 16.0029 82.4771 16.1227 82.448 16.2403C82.4099 16.395 82.2911 16.5148 82.1321 16.5605L80.6042 16.9941C80.4452 17.0398 80.2816 17.0006 80.1606 16.8895C80.0419 16.7784 79.9949 16.6194 80.033 16.4647L80.4116 14.9615C80.4496 14.8069 80.5684 14.687 80.7274 14.6413C80.8865 14.5955 81.05 14.6348 81.171 14.7459L82.3203 15.8155C82.3494 15.8416 82.374 15.8721 82.3942 15.9026ZM80.3959 16.6172C80.4004 16.6259 80.4071 16.6324 80.4116 16.6368C80.4228 16.6477 80.4564 16.6738 80.5056 16.6586L82.0335 16.2251C82.0828 16.212 82.0962 16.1728 82.1007 16.1575C82.1052 16.1423 82.1097 16.1009 82.0738 16.0682L80.9246 14.9986C80.8887 14.9637 80.8462 14.9724 80.8305 14.9768C80.8148 14.9811 80.7767 14.9964 80.7633 15.0443L80.3847 16.5475C80.3779 16.5758 80.3869 16.5998 80.3959 16.6172Z" fill="url(#paint32_linear_1275_49484)"/>
<path d="M178.864 20.5535C178.927 20.6537 178.947 20.7735 178.918 20.8912C178.88 21.0459 178.761 21.1657 178.602 21.2114L177.074 21.6449C176.915 21.6907 176.752 21.6515 176.631 21.5404C176.512 21.4293 176.465 21.2702 176.503 21.1156L176.882 19.6124C176.92 19.4577 177.039 19.3379 177.198 19.2922C177.357 19.2464 177.52 19.2856 177.641 19.3967L178.79 20.4664C178.82 20.4925 178.844 20.523 178.864 20.5535ZM176.866 21.2681C176.871 21.2768 176.877 21.2833 176.882 21.2877C176.893 21.2986 176.927 21.3247 176.976 21.3095L178.504 20.8759C178.553 20.8629 178.566 20.8237 178.571 20.8084C178.575 20.7932 178.58 20.7518 178.544 20.7191L177.395 19.6494C177.359 19.6146 177.316 19.6233 177.301 19.6277C177.285 19.632 177.247 19.6473 177.233 19.6952L176.855 21.1984C176.848 21.2288 176.857 21.2506 176.866 21.2681Z" fill="url(#paint33_linear_1275_49484)"/>
<path d="M178.174 77.6868L178.737 77.14C178.864 77.0159 178.864 76.8154 178.737 76.6913C178.609 76.5671 178.403 76.5671 178.275 76.6913L177.713 77.2381L177.151 76.6913C177.023 76.5671 176.817 76.5671 176.689 76.6913C176.561 76.8154 176.561 77.0159 176.689 77.14L177.251 77.6868L176.691 78.2315C176.564 78.3556 176.564 78.5561 176.691 78.6802C176.754 78.7412 176.839 78.7739 176.922 78.7739C177.005 78.7739 177.09 78.7434 177.153 78.6802L177.713 78.1356L178.273 78.6802C178.336 78.7412 178.421 78.7739 178.504 78.7739C178.587 78.7739 178.672 78.7434 178.734 78.6802C178.862 78.5561 178.862 78.3556 178.734 78.2315L178.174 77.6868Z" fill="url(#paint34_linear_1275_49484)"/>
<path d="M116.247 24.3856L116.809 23.8388C116.937 23.7146 116.937 23.5142 116.809 23.39C116.682 23.2658 116.476 23.2658 116.348 23.39L115.786 23.9368L115.223 23.39C115.096 23.2658 114.889 23.2658 114.762 23.39C114.634 23.5142 114.634 23.7146 114.762 23.8388L115.324 24.3856L114.764 24.9302C114.636 25.0544 114.636 25.2548 114.764 25.379C114.827 25.44 114.912 25.4726 114.995 25.4726C115.078 25.4726 115.163 25.4421 115.226 25.379L115.786 24.8343L116.346 25.379C116.408 25.44 116.494 25.4726 116.576 25.4726C116.659 25.4726 116.744 25.4421 116.807 25.379C116.935 25.2548 116.935 25.0544 116.807 24.9302L116.247 24.3856Z" fill="url(#paint35_linear_1275_49484)"/>
<path d="M40.3667 72.3948L40.929 71.848C41.0567 71.7239 41.0567 71.5235 40.929 71.3993C40.8013 71.2751 40.5952 71.2751 40.4675 71.3993L39.9052 71.9461L39.3429 71.3993C39.2152 71.2751 39.0091 71.2751 38.8814 71.3993C38.7537 71.5235 38.7537 71.7239 38.8814 71.848L39.4437 72.3948L38.8837 72.9395C38.756 73.0636 38.756 73.2641 38.8837 73.3882C38.9464 73.4492 39.0315 73.4819 39.1144 73.4819C39.1973 73.4819 39.2824 73.4514 39.3452 73.3882L39.9052 72.8436L40.4653 73.3882C40.528 73.4492 40.6131 73.4819 40.696 73.4819C40.7789 73.4819 40.8641 73.4514 40.9268 73.3882C41.0545 73.2641 41.0545 73.0636 40.9268 72.9395L40.3667 72.3948Z" fill="url(#paint36_linear_1275_49484)"/>
<path d="M189.544 136.355C188.836 136.355 188.26 135.796 188.26 135.107C188.26 134.419 188.836 133.859 189.544 133.859C190.252 133.859 190.828 134.419 190.828 135.107C190.828 135.796 190.25 136.355 189.544 136.355ZM189.544 134.251C189.058 134.251 188.663 134.634 188.663 135.107C188.663 135.58 189.06 135.963 189.544 135.963C190.03 135.963 190.424 135.58 190.424 135.107C190.424 134.634 190.03 134.251 189.544 134.251Z" fill="url(#paint37_linear_1275_49484)"/>
<path d="M20.4272 116.468C19.7193 116.468 19.1436 115.908 19.1436 115.22C19.1436 114.532 19.7193 113.972 20.4272 113.972C21.1351 113.972 21.7109 114.532 21.7109 115.22C21.7109 115.908 21.1329 116.468 20.4272 116.468ZM20.4272 114.364C19.9411 114.364 19.5468 114.747 19.5468 115.22C19.5468 115.693 19.9433 116.076 20.4272 116.076C20.9134 116.076 21.3077 115.693 21.3077 115.22C21.3077 114.747 20.9134 114.364 20.4272 114.364Z" fill="url(#paint38_linear_1275_49484)"/>
<path d="M28.1347 57.4853C27.4268 57.4853 26.8511 56.9254 26.8511 56.237C26.8511 55.5486 27.4268 54.9888 28.1347 54.9888C28.8427 54.9888 29.4184 55.5486 29.4184 56.237C29.4162 56.9254 28.8404 57.4853 28.1347 57.4853ZM28.1347 55.3809C27.6486 55.3809 27.2543 55.7643 27.2543 56.237C27.2543 56.7098 27.6486 57.0932 28.1347 57.0932C28.6209 57.0932 29.0152 56.7098 29.0152 56.237C29.0152 55.7643 28.6209 55.3809 28.1347 55.3809Z" fill="url(#paint39_linear_1275_49484)"/>
<g clip-path="url(#clip0_1275_49484)">
<path d="M115.176 126.456C115.176 126.456 123.179 127.822 132.962 119.193C141.2 111.927 144.577 100.245 147.964 81.6391C132.254 77.9729 125.727 68.4961 125.727 68.4961H125.726C125.726 68.4961 116.247 75.2388 100.191 73.4813C96.8033 92.0858 95.851 104.183 101.027 113.741C107.172 125.089 115.175 126.456 115.176 126.456C115.175 126.456 115.176 126.456 115.176 126.456Z" fill="url(#paint40_linear_1275_49484)"/>
<path d="M116.099 121.076C115.521 120.911 110.344 119.216 106.008 111.207C102.033 103.866 102.403 94.0837 104.891 79.2163C113.66 79.3094 120.353 77.1902 124.45 75.3765C127.642 78.4481 133.169 82.6507 141.52 85.4779C138.609 100.27 135.502 109.583 129.174 115.163C122.252 121.269 116.899 121.135 116.099 121.076Z" fill="url(#paint41_linear_1275_49484)"/>
<path d="M118.259 94.2939H117.32V94.5254H118.259V94.2939Z" fill="#407BFF"/>
<path d="M122.291 94.2939H119.23V94.5254H122.291V94.2939Z" fill="#407BFF"/>
<path d="M127.893 90.3431L127.3 96.9419C127.248 97.5367 126.707 98.0182 126.095 98.0182C125.483 98.0182 125.03 97.5367 125.085 96.9419L125.678 90.3431C125.871 88.2114 124.242 86.4777 122.05 86.4777H119.621C117.427 86.4777 115.488 88.2114 115.295 90.3431L115.052 93.0372H112.837L113.08 90.3431C113.378 87.024 116.4 84.3252 119.814 84.3252H122.241C125.657 84.3229 128.191 87.024 127.893 90.3431Z" fill="#407BFF"/>
<g opacity="0.5">
<path opacity="0.5" d="M127.893 90.3431L127.3 96.9419C127.248 97.5367 126.707 98.0182 126.095 98.0182C125.483 98.0182 125.03 97.5367 125.085 96.9419L125.678 90.3431C125.871 88.2114 124.242 86.4777 122.05 86.4777H119.621C117.427 86.4777 115.488 88.2114 115.295 90.3431L115.052 93.0372H112.837L113.08 90.3431C113.378 87.024 116.4 84.3252 119.814 84.3252H122.241C125.657 84.3229 128.191 87.024 127.893 90.3431Z" fill="white"/>
</g>
<path d="M128.053 96.6991L126.895 109.554C126.822 110.367 126.086 111.026 125.249 111.026H112.02C111.184 111.026 110.564 110.369 110.638 109.554L111.796 96.6991C111.844 96.1737 112.17 95.7131 112.618 95.4516C112.863 95.3081 113.147 95.2271 113.442 95.2271H126.671C126.957 95.2271 127.219 95.3057 127.434 95.4377C127.851 95.6969 128.101 96.1645 128.053 96.6991Z" fill="#407BFF"/>
<path d="M114.294 102.314L117.732 107.455L129.068 96.4399C129.168 96.3426 129.029 96.1922 128.92 96.2778L118.118 104.506L116.079 101.31L114.294 102.314Z" fill="white"/>
</g>
<defs>
<linearGradient id="paint0_linear_1275_49484" x1="257.931" y1="132.174" x2="-51.4051" y2="35.8773" gradientUnits="userSpaceOnUse">
<stop stop-color="white"/>
<stop offset="1" stop-color="#BCDBFF"/>
</linearGradient>
<linearGradient id="paint1_linear_1275_49484" x1="79.1595" y1="91.8538" x2="39.7253" y2="81.3703" gradientUnits="userSpaceOnUse">
<stop stop-color="#ABDCFF"/>
<stop offset="1" stop-color="#73B2FF"/>
</linearGradient>
<linearGradient id="paint2_linear_1275_49484" x1="79.9568" y1="88.8529" x2="40.5226" y2="78.3695" gradientUnits="userSpaceOnUse">
<stop stop-color="#ABDCFF"/>
<stop offset="1" stop-color="#73B2FF"/>
</linearGradient>
<linearGradient id="paint3_linear_1275_49484" x1="78.6253" y1="86.5803" x2="49.2909" y2="58.875" gradientUnits="userSpaceOnUse">
<stop stop-color="#ABDCFF"/>
<stop offset="1" stop-color="#73B2FF"/>
</linearGradient>
<linearGradient id="paint4_linear_1275_49484" x1="80.781" y1="84.2969" x2="51.4465" y2="56.5915" gradientUnits="userSpaceOnUse">
<stop stop-color="#ABDCFF"/>
<stop offset="1" stop-color="#73B2FF"/>
</linearGradient>
<linearGradient id="paint5_linear_1275_49484" x1="163.973" y1="126.143" x2="198.045" y2="125.138" gradientUnits="userSpaceOnUse">
<stop stop-color="#ABDCFF"/>
<stop offset="1" stop-color="#73B2FF"/>
</linearGradient>
<linearGradient id="paint6_linear_1275_49484" x1="163.896" y1="123.559" x2="197.969" y2="122.554" gradientUnits="userSpaceOnUse">
<stop stop-color="#ABDCFF"/>
<stop offset="1" stop-color="#73B2FF"/>
</linearGradient>
<linearGradient id="paint7_linear_1275_49484" x1="165.607" y1="120.467" x2="194.8" y2="103.332" gradientUnits="userSpaceOnUse">
<stop stop-color="#ABDCFF"/>
<stop offset="1" stop-color="#73B2FF"/>
</linearGradient>
<linearGradient id="paint8_linear_1275_49484" x1="164.289" y1="118.222" x2="193.482" y2="101.087" gradientUnits="userSpaceOnUse">
<stop stop-color="#ABDCFF"/>
<stop offset="1" stop-color="#73B2FF"/>
</linearGradient>
<linearGradient id="paint9_linear_1275_49484" x1="173.047" y1="133.21" x2="177.731" y2="181.857" gradientUnits="userSpaceOnUse">
<stop offset="0.1885" stop-color="#FFBE69"/>
<stop offset="1" stop-color="#FF8F5C"/>
</linearGradient>
<linearGradient id="paint10_linear_1275_49484" x1="121.433" y1="5.15115" x2="121.433" y2="217.567" gradientUnits="userSpaceOnUse">
<stop stop-color="#ABDCFF"/>
<stop offset="1" stop-color="#73B2FF"/>
</linearGradient>
<linearGradient id="paint11_linear_1275_49484" x1="86.828" y1="5.15158" x2="86.828" y2="217.568" gradientUnits="userSpaceOnUse">
<stop stop-color="#ABDCFF"/>
<stop offset="1" stop-color="#73B2FF"/>
</linearGradient>
<linearGradient id="paint12_linear_1275_49484" x1="89.1947" y1="5.15096" x2="89.1947" y2="217.567" gradientUnits="userSpaceOnUse">
<stop stop-color="#ABDCFF"/>
<stop offset="1" stop-color="#73B2FF"/>
</linearGradient>
<linearGradient id="paint13_linear_1275_49484" x1="89.1947" y1="5.15148" x2="89.1947" y2="217.567" gradientUnits="userSpaceOnUse">
<stop stop-color="#ABDCFF"/>
<stop offset="1" stop-color="#73B2FF"/>
</linearGradient>
<linearGradient id="paint14_linear_1275_49484" x1="89.1947" y1="5.15108" x2="89.1947" y2="217.567" gradientUnits="userSpaceOnUse">
<stop stop-color="#ABDCFF"/>
<stop offset="1" stop-color="#73B2FF"/>
</linearGradient>
<linearGradient id="paint15_linear_1275_49484" x1="59.7502" y1="155.624" x2="62.9688" y2="155.624" gradientUnits="userSpaceOnUse">
<stop stop-color="#326AB3"/>
<stop offset="1" stop-color="#003780"/>
</linearGradient>
<linearGradient id="paint16_linear_1275_49484" x1="57.8954" y1="147.148" x2="61.9177" y2="147.148" gradientUnits="userSpaceOnUse">
<stop stop-color="#326AB3"/>
<stop offset="1" stop-color="#003780"/>
</linearGradient>
<linearGradient id="paint17_linear_1275_49484" x1="54.1539" y1="175.78" x2="68.1322" y2="167.809" gradientUnits="userSpaceOnUse">
<stop offset="0.1885" stop-color="#FFBE69"/>
<stop offset="1" stop-color="#FF8F5C"/>
</linearGradient>
<linearGradient id="paint18_linear_1275_49484" x1="87.2371" y1="175.983" x2="152.791" y2="175.983" gradientUnits="userSpaceOnUse">
<stop stop-color="#326AB3"/>
<stop offset="1" stop-color="#003780"/>
</linearGradient>
<linearGradient id="paint19_linear_1275_49484" x1="137.49" y1="161.024" x2="85.1452" y2="178.587" gradientUnits="userSpaceOnUse">
<stop stop-color="#326AB3"/>
<stop offset="1" stop-color="#003780"/>
</linearGradient>
<linearGradient id="paint20_linear_1275_49484" x1="62.0918" y1="169.54" x2="89.7022" y2="169.54" gradientUnits="userSpaceOnUse">
<stop offset="0.1885" stop-color="#FFBE69"/>
<stop offset="1" stop-color="#FF8F5C"/>
</linearGradient>
<linearGradient id="paint21_linear_1275_49484" x1="67.0041" y1="184.624" x2="81.616" y2="154.656" gradientUnits="userSpaceOnUse">
<stop offset="0.1885" stop-color="#FFBE69"/>
<stop offset="1" stop-color="#FF8F5C"/>
</linearGradient>
<linearGradient id="paint22_linear_1275_49484" x1="26.3525" y1="175.335" x2="61.0819" y2="175.335" gradientUnits="userSpaceOnUse">
<stop stop-color="#ABDCFF"/>
<stop offset="1" stop-color="#73B2FF"/>
</linearGradient>
<linearGradient id="paint23_linear_1275_49484" x1="53.2731" y1="134.54" x2="53.2731" y2="141.019" gradientUnits="userSpaceOnUse">
<stop stop-color="#326AB3"/>
<stop offset="1" stop-color="#003780"/>
</linearGradient>
<linearGradient id="paint24_linear_1275_49484" x1="154.769" y1="28.0106" x2="173.997" y2="54.7828" gradientUnits="userSpaceOnUse">
<stop stop-color="#326AB3"/>
<stop offset="1" stop-color="#003780"/>
</linearGradient>
<linearGradient id="paint25_linear_1275_49484" x1="128.571" y1="16.2044" x2="136.396" y2="16.2044" gradientUnits="userSpaceOnUse">
<stop stop-color="#ABDCFF"/>
<stop offset="1" stop-color="#73B2FF"/>
</linearGradient>
<linearGradient id="paint26_linear_1275_49484" x1="133.343" y1="17.6656" x2="145.98" y2="17.6656" gradientUnits="userSpaceOnUse">
<stop stop-color="#ABDCFF"/>
<stop offset="1" stop-color="#73B2FF"/>
</linearGradient>
<linearGradient id="paint27_linear_1275_49484" x1="130.289" y1="12.7591" x2="145.99" y2="12.7591" gradientUnits="userSpaceOnUse">
<stop stop-color="#ABDCFF"/>
<stop offset="1" stop-color="#73B2FF"/>
</linearGradient>
<linearGradient id="paint28_linear_1275_49484" x1="128.571" y1="15.2077" x2="145.98" y2="15.2077" gradientUnits="userSpaceOnUse">
<stop stop-color="#ABDCFF"/>
<stop offset="1" stop-color="#73B2FF"/>
</linearGradient>
<linearGradient id="paint29_linear_1275_49484" x1="202.187" y1="103.187" x2="204.662" y2="104.859" gradientUnits="userSpaceOnUse">
<stop stop-color="#96D3FF"/>
<stop offset="1" stop-color="#73B2FF"/>
</linearGradient>
<linearGradient id="paint30_linear_1275_49484" x1="33.0704" y1="83.3007" x2="35.5451" y2="84.9723" gradientUnits="userSpaceOnUse">
<stop stop-color="#96D3FF"/>
<stop offset="1" stop-color="#73B2FF"/>
</linearGradient>
<linearGradient id="paint31_linear_1275_49484" x1="34.4536" y1="146.831" x2="36.9283" y2="148.503" gradientUnits="userSpaceOnUse">
<stop stop-color="#96D3FF"/>
<stop offset="1" stop-color="#73B2FF"/>
</linearGradient>
<linearGradient id="paint32_linear_1275_49484" x1="80.171" y1="15.5" x2="82.6457" y2="17.1717" gradientUnits="userSpaceOnUse">
<stop stop-color="#96D3FF"/>
<stop offset="1" stop-color="#73B2FF"/>
</linearGradient>
<linearGradient id="paint33_linear_1275_49484" x1="176.642" y1="20.1509" x2="179.117" y2="21.8226" gradientUnits="userSpaceOnUse">
<stop stop-color="#96D3FF"/>
<stop offset="1" stop-color="#73B2FF"/>
</linearGradient>
<linearGradient id="paint34_linear_1275_49484" x1="176.594" y1="77.6863" x2="178.832" y2="77.6863" gradientUnits="userSpaceOnUse">
<stop offset="0.1885" stop-color="#FFBE69"/>
<stop offset="1" stop-color="#FF8F5C"/>
</linearGradient>
<linearGradient id="paint35_linear_1275_49484" x1="114.666" y1="24.3856" x2="116.903" y2="24.3856" gradientUnits="userSpaceOnUse">
<stop offset="0.1885" stop-color="#FFBE69"/>
<stop offset="1" stop-color="#FF8F5C"/>
</linearGradient>
<linearGradient id="paint36_linear_1275_49484" x1="38.9097" y1="71.3804" x2="41.0388" y2="73.6725" gradientUnits="userSpaceOnUse">
<stop offset="0.1885" stop-color="#FFBE69"/>
<stop offset="1" stop-color="#FF8F5C"/>
</linearGradient>
<linearGradient id="paint37_linear_1275_49484" x1="188.26" y1="135.107" x2="190.826" y2="135.107" gradientUnits="userSpaceOnUse">
<stop stop-color="#326AB3"/>
<stop offset="1" stop-color="#003780"/>
</linearGradient>
<linearGradient id="paint38_linear_1275_49484" x1="19.1436" y1="115.22" x2="21.7091" y2="115.22" gradientUnits="userSpaceOnUse">
<stop stop-color="#326AB3"/>
<stop offset="1" stop-color="#003780"/>
</linearGradient>
<linearGradient id="paint39_linear_1275_49484" x1="26.8511" y1="56.2373" x2="29.4166" y2="56.2373" gradientUnits="userSpaceOnUse">
<stop stop-color="#326AB3"/>
<stop offset="1" stop-color="#003780"/>
</linearGradient>
<linearGradient id="paint40_linear_1275_49484" x1="96.5648" y1="93.3965" x2="144.244" y2="102.076" gradientUnits="userSpaceOnUse">
<stop stop-color="#5EB4FA"/>
<stop offset="1" stop-color="#6188EA"/>
</linearGradient>
<linearGradient id="paint41_linear_1275_49484" x1="101.998" y1="95.1055" x2="138.555" y2="101.76" gradientUnits="userSpaceOnUse">
<stop stop-color="white"/>
<stop offset="1" stop-color="#E6F3FB"/>
</linearGradient>
<clipPath id="clip0_1275_49484">
<rect width="50.5669" height="58.0393" fill="white" transform="translate(97.3965 68.4961)"/>
</clipPath>
</defs>
</svg>
