<svg width="304" height="170" viewBox="0 0 304 170" fill="none" xmlns="http://www.w3.org/2000/svg">
<path d="M152 170C235.671 170 303.5 162.613 303.5 153.5C303.5 144.387 235.671 137 152 137C68.3289 137 0.5 144.387 0.5 153.5C0.5 162.613 68.3289 170 152 170Z" fill="url(#paint0_linear_576_45154)"/>
<path d="M221.053 75.5125C221.053 104.656 205.047 129.887 181.725 142.113C180.406 142.807 179.068 143.455 177.704 144.055C175.513 145.031 173.278 145.895 170.98 146.636H170.971C164.283 148.813 157.183 149.985 149.813 149.985C139.543 149.985 129.785 147.715 120.97 143.624L120.62 143.455C113.798 140.255 107.559 135.967 102.083 130.797C87.6391 117.173 78.5635 97.45 78.5635 75.5125C78.5635 34.3867 110.467 1.04883 149.813 1.04883C189.158 1.04883 221.053 34.3867 221.053 75.5125Z" fill="url(#paint1_linear_576_45154)"/>
<path d="M181.307 19.5302H179.094V17.2332C179.094 16.9815 178.902 16.7822 178.66 16.7822C178.417 16.7822 178.225 16.9815 178.225 17.2332V19.5302H176.012C175.769 19.5302 175.577 19.7295 175.577 19.9812C175.577 20.1071 175.628 20.2225 175.709 20.3064C175.79 20.3903 175.901 20.4427 176.022 20.4427H178.235V22.7397C178.235 22.8656 178.286 22.9809 178.367 23.0648C178.447 23.1487 178.559 23.2012 178.68 23.2012C178.922 23.2012 179.114 23.0019 179.114 22.7502V20.4532H181.328C181.57 20.4532 181.762 20.2539 181.762 20.0022C181.742 19.7295 181.55 19.5302 181.307 19.5302Z" fill="#BDDCFD"/>
<path d="M202.232 72.9685C185.638 90.1906 187.255 96.0746 188.064 106.364C188.862 116.433 167.559 118.457 174.795 140.189H170.248C170.248 140.189 139.89 134.515 143.528 118.551C147.166 102.588 170.045 121.289 170.44 109.94C170.844 98.5919 155.665 84.5268 161.739 78.2232C167.812 71.9196 171.046 92.7183 180.353 87.2433C189.66 81.7683 174.078 67.504 176.513 57.4245C178.938 47.3451 185.416 58.6832 197.361 62.889C208.356 66.7593 201.666 36.9615 210.508 40.2549C212.378 47.859 213.389 61.3787 202.232 72.9685Z" fill="#BDDCFD"/>
<path d="M213.82 95.1906C210.576 105.7 185.08 111.584 195.196 119.776C205.321 127.967 196.216 139.945 196.216 139.945H174.034C166.799 118.213 188.091 116.189 187.303 106.12C186.495 95.8199 184.878 89.9464 201.471 72.7242C212.638 61.1344 211.617 47.6148 209.758 40.0001C210.516 40.2833 211.395 40.8182 212.395 41.6258C225.149 51.9255 209.354 72.2942 206.12 77.1294C202.886 81.9646 217.054 84.6916 213.82 95.1906Z" fill="#E4ECF4"/>
<path d="M158.387 116.278C156.467 118.145 156.619 122.466 156.74 124.008C156.184 125.057 155.224 126.997 154.891 128.497C154.264 127.092 153.486 125.718 152.486 124.417C151.576 123.232 150.879 122.057 150.333 120.903C150.05 119.446 149.707 118.25 149.04 117.012C148.352 113.551 148.938 110.635 149.484 108.915C151.192 108.013 152.395 107.153 153.718 105.223C155.214 103.052 151.293 99.4545 149.424 101.741C147.716 103.828 148.625 108.391 148.787 109.146C148.332 110.719 147.928 113.016 148.221 115.712C148.069 115.491 147.908 115.271 147.726 115.04C145.907 112.722 141.006 116.058 142.835 118.827C144.361 121.134 148.656 121.606 150.05 121.711C150.576 122.739 151.212 123.777 152.021 124.826C155.022 128.749 156.113 133.406 156.396 137.381C155.74 136.773 154.719 136.29 153.9 135.933C152.698 133.857 151.677 132.493 149.363 131.067C146.887 129.535 143.38 134.402 146.008 136.353C148.181 137.968 152.314 136.93 153.688 136.51C154.689 136.94 156.063 137.601 156.417 138.346C156.427 138.367 156.447 138.377 156.457 138.398C156.639 142.929 155.841 146.359 155.82 146.422C155.78 146.59 155.881 146.758 156.043 146.8C156.063 146.81 156.093 146.81 156.113 146.81C156.245 146.81 156.366 146.716 156.407 146.579C156.437 146.474 158.438 137.905 155.426 129.808C155.426 129.798 155.426 129.787 155.416 129.766C155.123 128.885 156.235 126.305 157.215 124.438C159.428 123.609 160.934 122.833 162.743 120.746C164.663 118.502 160.742 113.981 158.387 116.278Z" fill="#E4ECF4"/>
<path d="M100.765 146.451C100.998 146.819 138.338 146.451 138.338 146.451C138.338 146.451 144.826 138.249 133.902 132.271C127.727 128.883 138.5 122.653 135.134 116.045C131.769 109.438 124.857 117.912 121.957 112.06C119.046 106.207 112.922 92.9916 110.406 101.215C107.88 109.438 120.128 114.545 112.084 120.65C104.039 126.754 94.0753 129.869 103.918 132.114C113.761 134.369 95.4799 138.249 100.765 146.451Z" fill="#BDDCFD"/>
<path d="M93.6685 121.624C93.3142 124.387 96.1076 127.72 97.1687 128.853C97.3767 130.066 97.8229 132.243 98.4889 133.643C97.1223 132.948 95.6474 132.379 94.0496 132.008C93.1617 131.803 92.3555 131.552 91.5874 131.266C92.6567 129.356 93.2789 127.766 93.4041 125.114C93.5472 122.069 87.6384 121.109 87.1966 124.507C86.9627 126.321 88.0861 128.367 89.183 129.883C88.4117 129.307 87.6316 128.825 86.7177 128.443C84.021 126.16 82.6781 123.465 82.0412 121.718C82.8425 119.857 83.2476 118.37 83.1069 115.959C82.9475 113.234 77.6024 113.009 77.5384 116.071C77.487 118.868 81.0268 121.882 81.6305 122.368C82.2455 123.917 83.3486 126.013 85.2678 127.955C85.0029 127.886 84.738 127.817 84.4512 127.755C81.5716 127.136 79.7512 133.051 82.9186 134.033C85.5526 134.845 89.2618 132.344 90.4257 131.494C91.4774 131.96 92.6271 132.351 93.9204 132.644C94.2566 132.718 94.5887 132.812 94.9108 132.904C93.9428 132.788 92.9081 132.798 91.6517 132.984C88.7437 133.42 88.9797 139.635 92.2758 139.423C94.9235 139.252 97.482 135.856 98.393 134.523C98.393 134.523 100.367 134.718 105.198 139.666C104.297 139.629 103.194 139.924 102.323 140.195C100.088 139.352 98.4226 138.956 95.6953 139.367C92.7874 139.803 93.0234 146.018 96.3195 145.806C99.0405 145.629 101.678 142.047 102.511 140.793C103.581 140.459 105.065 140.065 105.809 140.421C105.829 140.425 105.848 140.429 105.868 140.434C108.821 143.898 110.317 147.162 110.346 147.222C110.418 147.377 110.599 147.449 110.749 147.375C110.773 147.359 110.794 147.353 110.809 147.334C110.92 147.241 110.952 147.087 110.896 146.957C110.853 146.862 107.126 138.715 99.7073 134.306C99.6994 134.294 99.6916 134.281 99.6818 134.279C98.9037 133.787 98.1822 130.982 97.7989 128.851C99.0369 126.721 99.7486 125.097 99.888 122.223C100.029 119.188 94.1103 118.226 93.6685 121.624Z" fill="#E4ECF4"/>
<path d="M200.19 106.558C200.681 110.384 196.813 114.999 195.344 116.567C195.056 118.248 194.438 121.262 193.516 123.2C195.408 122.237 197.45 121.449 199.662 120.936C200.892 120.652 202.008 120.304 203.072 119.908C201.591 117.264 200.73 115.063 200.556 111.39C200.358 107.174 208.539 105.846 209.151 110.55C209.475 113.062 207.919 115.895 206.401 117.993C207.469 117.196 208.549 116.529 209.814 116C213.548 112.839 215.407 109.108 216.289 106.689C215.18 104.112 214.619 102.053 214.814 98.7152C215.034 94.9418 222.435 94.6295 222.524 98.8696C222.595 102.742 217.694 106.916 216.858 107.588C216.006 109.734 214.479 112.635 211.822 115.324C212.188 115.229 212.555 115.134 212.952 115.047C216.939 114.19 219.46 122.38 215.074 123.74C211.427 124.864 206.292 121.401 204.68 120.225C203.224 120.87 201.632 121.411 199.841 121.817C199.376 121.919 198.916 122.049 198.47 122.176C199.81 122.017 201.243 122.03 202.983 122.288C207.009 122.891 206.682 131.496 202.118 131.203C198.452 130.966 194.91 126.264 193.648 124.418C193.648 124.418 190.915 124.689 184.226 131.539C185.474 131.488 187.002 131.897 188.207 132.271C191.302 131.105 193.607 130.556 197.384 131.125C201.41 131.729 201.083 140.334 196.519 140.041C192.752 139.796 189.1 134.836 187.946 133.1C186.465 132.637 184.41 132.092 183.38 132.585C183.353 132.591 183.326 132.596 183.298 132.602C179.21 137.4 177.139 141.919 177.098 142.002C176.999 142.217 176.748 142.316 176.541 142.213C176.508 142.191 176.477 142.182 176.458 142.157C176.303 142.028 176.26 141.814 176.337 141.634C176.396 141.503 181.557 130.223 191.829 124.118C191.84 124.101 191.85 124.084 191.864 124.081C192.941 123.4 193.94 119.516 194.471 116.565C192.757 113.615 191.771 111.367 191.578 107.387C191.383 103.185 199.578 101.854 200.19 106.558Z" fill="#D3E7FC"/>
<path d="M221.822 78.7654H218.873V75.7053C218.873 75.37 218.617 75.1045 218.294 75.1045C217.971 75.1045 217.715 75.37 217.715 75.7053V78.7654H214.767C214.444 78.7654 214.188 79.0309 214.188 79.3663C214.188 79.5339 214.255 79.6876 214.363 79.7994C214.471 79.9112 214.619 79.9811 214.78 79.9811H217.729V83.0412C217.729 83.2089 217.796 83.3626 217.904 83.4743C218.011 83.5861 218.16 83.656 218.321 83.656C218.644 83.656 218.9 83.3905 218.9 83.0552V79.9951H221.848C222.172 79.9951 222.427 79.7296 222.427 79.3942C222.414 79.0449 222.145 78.7654 221.822 78.7654Z" fill="#BDDCFD"/>
<path d="M118.535 35.1277H115.586V32.0676C115.586 31.7323 115.331 31.4668 115.008 31.4668C114.684 31.4668 114.429 31.7323 114.429 32.0676V35.1277H111.48C111.157 35.1277 110.901 35.3932 110.901 35.7286C110.901 35.8963 110.969 36.05 111.076 36.1617C111.184 36.2735 111.332 36.3434 111.494 36.3434H114.442V39.4035C114.442 39.5712 114.509 39.7249 114.617 39.8366C114.725 39.9484 114.873 40.0183 115.035 40.0183C115.358 40.0183 115.613 39.7528 115.613 39.4175V36.3574H118.562C118.885 36.3574 119.141 36.0919 119.141 35.7565C119.127 35.4072 118.858 35.1277 118.535 35.1277Z" fill="#BDDCFD"/>
<path d="M87.2774 89.4112C84.7059 89.4112 82.6057 87.2314 82.6057 84.5625C82.6057 81.8937 84.7059 79.7139 87.2774 79.7139C89.8488 79.7139 91.949 81.8937 91.949 84.5625C91.949 87.2314 89.8488 89.4112 87.2774 89.4112ZM87.2774 81.5863C85.6887 81.5863 84.4098 82.9277 84.4098 84.5625C84.4098 86.2113 85.7022 87.5388 87.2774 87.5388C88.866 87.5388 90.145 86.1974 90.145 84.5625C90.145 82.9137 88.866 81.5863 87.2774 81.5863Z" fill="#BDDCFD"/>
<g clip-path="url(#clip0_576_45154)">
<path d="M188.317 139.626H131.113V22.3017L188.317 9.2998V139.626Z" fill="#B6D7FC"/>
<path d="M155.548 0L204.884 12.3412V138.955L155.548 149.986L154.729 148.115L154.524 0.567596L155.548 0Z" fill="#9CC4F8"/>
<path d="M155.548 0H152.898V149.986H155.548V0Z" fill="#6189DD"/>
<path d="M202.423 71.9169V16.0604L158.009 4.44421V70.6817L202.423 71.9169Z" fill="#6189DD"/>
<path d="M158.009 79.5083V145.608L202.423 135.226V80.7435L158.009 79.5083Z" fill="#6189DD"/>
<path opacity="0.1" d="M202.423 71.9169L177.981 49.5175L158.009 4.44421V70.6817L202.423 71.9169Z" fill="#AACEFA"/>
<path opacity="0.1" d="M158.009 79.5083V145.608L202.423 135.226L176.093 119.604L158.009 79.5083Z" fill="#AACEFA"/>
<path d="M162.209 75.234C162.209 77.3723 161.513 79.1073 160.751 79.1073C159.555 79.1073 157.878 78.4248 157.878 75.234C157.878 72.527 159.448 71.3608 160.644 71.3608C161.839 71.3608 162.209 73.0946 162.209 75.234Z" fill="#658CDD"/>
<path d="M162.589 75.234C162.589 77.3723 161.765 79.1073 160.751 79.1073C159.736 79.1073 158.914 77.3734 158.914 75.234C158.914 73.0946 159.736 71.3608 160.751 71.3608C161.765 71.3608 162.589 73.0946 162.589 75.234Z" fill="#547EB1"/>
<path d="M193.426 31.2752V22.2442L167.006 16.3453V27.055L193.426 31.2752Z" fill="#EEFBFF"/>
<path d="M175.865 23.8218L173.168 23.3151V25.427L176.173 25.9922V26.6265L172.273 25.8934V20.0348L176.019 20.7391V21.3734L173.168 20.8379V22.6889L175.865 23.1956V23.8218Z" fill="#FC6479"/>
<path d="M181.134 27.5595L180.248 26.098C179.888 25.535 179.662 25.1708 179.446 24.7904L179.425 24.787C179.23 25.0892 179.035 25.3661 178.674 25.8107L177.841 26.9402L176.811 26.7472L178.931 24.1815L176.894 20.9034L177.933 21.0988L178.849 22.6441C179.107 23.075 179.302 23.4071 179.487 23.7552L179.518 23.761C179.713 23.4496 179.888 23.2129 180.145 22.8877L181.091 21.6928L182.12 21.8858L180.01 24.34L182.172 27.7537L181.134 27.5595Z" fill="#FC6479"/>
<path d="M184.107 22.2592V28.1178L183.212 27.9501V22.0914L184.107 22.2592Z" fill="#FC6479"/>
<path d="M186.989 23.4438L184.879 23.0474V22.4039L190.013 23.3691V24.0125L187.894 23.6138V28.829L186.989 28.659V23.4438Z" fill="#FC6479"/>
</g>
<path d="M120.571 76.5047L100.791 63.2967L129.433 58.6698L129.227 56.0241C129.227 56.0241 99.967 46.6719 88.6096 59.35C77.2523 72.028 101.475 83.5642 101.475 83.5642C101.475 83.5642 120.661 88.9849 120.571 76.5047Z" fill="#F9CBCB"/>
<path d="M125.903 80.5115C125.903 80.5115 111.222 67.4389 107.516 66.6316C103.802 65.8331 91.7444 75.1073 93.0222 78.1929C94.3086 81.2697 106.785 91.1783 106.785 91.1783L125.903 80.5115Z" fill="url(#paint2_linear_576_45154)"/>
<path d="M128.555 56.3171L129.218 56.0342C129.218 56.0342 132.089 54.4258 133.977 55.8525C135.865 57.2793 134.956 58.1534 134.956 58.1534C134.956 58.1534 130.809 57.5583 131.557 58.2454C131.71 58.3863 131.787 58.6244 131.787 58.6244C131.787 58.6244 130.793 59.3576 129.425 58.6623C129.433 58.6711 127.605 57.7117 128.555 56.3171Z" fill="#F9CBCB"/>
<path d="M136.271 55.6011C136.271 55.6011 139.149 52.7315 138.341 52.0003C137.533 51.2691 136.271 55.6011 136.271 55.6011Z" fill="white"/>
<path d="M133.966 54.5211C133.966 54.5211 133.809 50.3759 132.747 50.527C131.685 50.6781 133.966 54.5211 133.966 54.5211Z" fill="white"/>
<path d="M135.038 54.9255C135.038 54.9255 137.404 49.9925 136.069 49.456C134.743 48.9106 135.038 54.9255 135.038 54.9255Z" fill="white"/>
<path d="M131.354 51.666C131.574 51.6754 132.8 55.6984 133.545 56.1163C134.289 56.5342 134.852 56.897 134.768 57.2164C134.671 57.537 134.18 57.5513 134.257 57.9987C134.334 58.4461 134.668 59.5382 134.668 59.5382C134.668 59.5382 133.466 65.8296 132.097 66.3173C130.742 66.8179 130.499 66.6829 130.437 67.7809C130.389 68.8778 134.667 72.7639 134.667 72.7639C134.667 72.7639 131.146 75.7371 125.487 74.9082C119.828 74.0794 124.829 67.2456 124.97 64.5798C125.112 61.928 128.954 51.5762 131.354 51.666Z" fill="#F9CBCB"/>
<path d="M128.395 56.181C128.395 56.181 131.104 60.7851 132.21 61.1007C133.315 61.4163 134.571 59.0086 134.571 59.0086C134.571 59.0086 137.572 65.0347 134.12 65.9727C130.681 66.9095 130.681 66.9095 130.681 66.9095C130.681 66.9095 132.418 63.8639 131.348 62.7932C130.277 61.7224 128.425 62.4933 128.425 62.4933C128.425 62.4933 129.145 69.3984 125.167 67.2033C121.203 65.007 113.197 62.1964 117.367 56.7545C121.523 51.3138 122.852 53.8947 125.391 49.6018C127.916 45.31 125.121 41.8346 129.747 43.9309C134.359 46.0283 137.45 54.0191 128.395 56.181Z" fill="#202234"/>
<path d="M134.964 62.0247C134.543 62.2315 134.057 61.9615 134.028 61.9498C133.929 61.9017 133.891 61.7772 133.951 61.6727C133.998 61.5693 134.118 61.5305 134.218 61.5927C134.318 61.6409 134.601 61.7582 134.798 61.656C134.941 61.5726 135.035 61.38 135.066 61.0793C135.084 60.9642 135.173 60.8855 135.284 60.9043C135.395 60.9231 135.471 61.0158 135.453 61.1309C135.406 61.5748 135.239 61.8732 134.978 62.0235C134.976 62.0095 134.978 62.0235 134.964 62.0247Z" fill="white"/>
<path d="M131.129 56.1718C131.129 56.1718 132.637 55.7146 132.758 55.5196C132.879 55.3246 132.316 55.1181 131.687 55.4564C131.058 55.7948 130.954 56.2012 131.129 56.1718Z" fill="#202234"/>
<path d="M132.688 56.5196C132.777 56.7673 132.688 57.0304 132.489 57.1044C132.29 57.1785 132.048 57.0576 131.96 56.8098C131.871 56.562 131.96 56.299 132.159 56.2249C132.212 56.2061 132.28 56.2002 132.335 56.2096C132.271 56.2578 132.252 56.3588 132.287 56.4551C132.323 56.5655 132.437 56.6265 132.53 56.5901C132.597 56.5701 132.632 56.4961 132.639 56.4104C132.641 56.4385 132.671 56.4785 132.688 56.5196Z" fill="#202234"/>
<path d="M132.673 70.7675C125.324 74.2431 128.918 72.5264 123.137 69.4945C121.594 68.6775 113.918 68.4352 112.894 69.3044C88.5856 90.031 90.1254 148.036 90.1254 148.036C90.1254 148.036 107.368 170.466 144.403 147.67C144.405 147.685 150.464 78.7746 132.673 70.7675Z" fill="url(#paint3_linear_576_45154)"/>
<path opacity="0.2" d="M143.014 105.803C142.986 108.842 144.169 111.649 144.397 114.651C144.634 117.597 143.537 120.274 142.662 122.99C142.247 124.289 141.904 125.638 141.81 127.009C141.723 128.308 141.828 129.618 141.946 130.913C142.17 133.349 142.509 135.86 141.839 138.245C141.179 140.573 139.59 142.229 137.823 143.716C136.222 145.061 134.453 146.35 133.46 148.281C132.573 150.004 132.503 152.025 132.138 153.944C135.966 152.406 140.04 150.364 144.417 147.671C144.417 147.671 146.618 122.703 144.466 101.079C143.492 102.398 143.035 104.027 143.014 105.803Z" fill="#1A2326"/>
<path d="M132.742 68.3913C132.742 68.3913 130.979 69.7646 127.01 69.5413C123.042 69.3321 123.2 68.0696 123.2 68.0696C123.2 68.0696 121.465 68.7734 120.9 72.1147C120.335 75.4559 128.521 75.0581 131.484 72.3035C134.448 69.5488 134.609 70.1876 134.609 70.1876L132.742 68.3913Z" fill="#2D305E"/>
<path d="M147.474 72.8775C153.146 69.5352 161.493 66.5685 161.493 66.5685L155.476 51.5802L157.281 50.3315C157.281 50.3315 175.788 58.2464 169.183 73.7243C162.757 88.7801 148.531 83.4471 148.531 83.4471C148.531 83.4471 143.747 75.0758 147.474 72.8775Z" fill="#F9CBCB"/>
<path d="M132.298 71.3532C133.723 68.5406 156.392 68.7683 156.403 68.7693C158.245 72.0724 154.797 74.6634 155.971 78.1274C156.446 79.5273 157.491 80.7463 157.522 82.2919C157.534 83.099 157.368 83.9251 157.269 84.7341C148.836 88.067 140.299 88.5471 140.299 88.5471C140.299 88.5471 130.295 75.29 132.298 71.3532Z" fill="url(#paint4_linear_576_45154)"/>
<path d="M153.267 47.2383C153.267 47.2383 152.928 48.4367 153.12 48.7358C153.552 49.4352 154.309 49.7281 154.563 49.6788C153.966 48.8977 153.267 47.2383 153.267 47.2383Z" fill="#F9CBCB"/>
<path d="M153.616 48.9234C153.463 48.8813 153.315 48.8142 153.164 48.7882C153.6 49.4465 154.333 49.7336 154.572 49.6859C154.42 49.4807 154.255 49.2197 154.095 48.9337C153.933 48.9577 153.769 48.9656 153.616 48.9234Z" fill="#F9CBCB"/>
<path d="M156.743 47.8283C156.682 47.5816 156.606 47.3527 156.523 47.1326C156.522 47.1164 156.502 47.0695 156.478 46.9741C156.456 46.911 156.425 46.8244 156.393 46.7378C156.393 46.7378 156.083 45.7412 155.783 45.7216C155.483 45.702 155.4 45.9138 155.4 45.9138C155.4 45.9138 155.214 45.6793 154.94 45.7713C154.665 45.8632 154.646 46.0851 154.646 46.0851C154.646 46.0851 154.484 45.8564 154.173 45.9764C153.861 46.0802 153.811 46.3948 153.811 46.3948C153.811 46.3948 153.546 46.0783 153.239 46.4994C152.932 46.9206 153.29 47.5864 153.302 47.6261C153.345 47.7523 153.396 47.8858 153.453 47.9943C153.471 48.0251 153.474 48.0574 153.493 48.0882C154.948 50.114 155.959 53.218 156.372 53.3489C156.372 53.3489 159.088 52.8233 159.143 52.3045C159.03 51.8347 156.548 49.3142 156.548 49.3142C156.548 49.3142 156.967 48.7355 156.743 47.8283Z" fill="#F9CBCB"/>
<path opacity="0.2" d="M156.517 47.1412C156.515 47.1251 156.502 47.0693 156.471 46.9827C156.449 46.9196 156.418 46.833 156.387 46.7465C156.387 46.7465 156.077 45.7499 155.776 45.7303C155.476 45.7106 155.393 45.9225 155.393 45.9225C155.393 45.9225 155.207 45.688 154.933 45.7799C154.659 45.8719 154.639 46.0938 154.639 46.0938C154.639 46.0938 154.477 45.8651 154.166 45.9851C153.854 46.0889 153.804 46.4035 153.804 46.4035C153.804 46.4035 153.54 46.087 153.232 46.5081C153.128 46.6568 153.097 46.8391 153.113 47.0168C153.216 46.8519 153.376 46.706 153.551 46.6481C153.596 46.6274 153.643 46.6229 153.691 46.6345C153.746 46.6372 153.803 46.6562 153.851 46.6678C153.963 46.6894 154.058 46.6069 154.145 46.5331C154.263 46.4402 154.381 46.3634 154.53 46.3571C154.639 46.3465 154.751 46.3682 154.854 46.3825C154.966 46.4042 155.083 46.4009 155.188 46.3418C155.285 46.2916 155.383 46.2413 155.492 46.2307C155.694 46.2109 155.853 46.3177 155.97 46.4775C156.058 46.583 156.108 46.7003 156.173 46.8162C156.25 46.9717 156.327 47.1272 156.404 47.2826C156.538 47.5467 156.671 47.8107 156.776 48.0939C156.761 48.022 156.754 47.9412 156.731 47.8619C156.675 47.5903 156.606 47.3525 156.517 47.1412Z" fill="#F9CBCB"/>
<defs>
<linearGradient id="paint0_linear_576_45154" x1="151.691" y1="121.882" x2="151.691" y2="159.095" gradientUnits="userSpaceOnUse">
<stop stop-color="#E8E8E8"/>
<stop offset="1" stop-color="#E8E8E8" stop-opacity="0"/>
</linearGradient>
<linearGradient id="paint1_linear_576_45154" x1="140.6" y1="143.168" x2="103.944" y2="18.9789" gradientUnits="userSpaceOnUse">
<stop stop-color="#EFF3F9"/>
<stop offset="1" stop-color="#D1E3FC"/>
</linearGradient>
<linearGradient id="paint2_linear_576_45154" x1="99.0219" y1="85.1354" x2="124.017" y2="72.8377" gradientUnits="userSpaceOnUse">
<stop offset="0.1885" stop-color="#FFBE69"/>
<stop offset="1" stop-color="#FF8F5C"/>
</linearGradient>
<linearGradient id="paint3_linear_576_45154" x1="113.97" y1="158.527" x2="158.036" y2="67.5894" gradientUnits="userSpaceOnUse">
<stop offset="0.209115" stop-color="#FF8F5C"/>
<stop offset="0.978173" stop-color="#FFBE69"/>
</linearGradient>
<linearGradient id="paint4_linear_576_45154" x1="146.587" y1="89.2141" x2="140.863" y2="63.1958" gradientUnits="userSpaceOnUse">
<stop offset="0.0234785" stop-color="#FF8F5C"/>
<stop offset="0.962168" stop-color="#FFBE69"/>
</linearGradient>
<clipPath id="clip0_576_45154">
<rect width="73.7711" height="149.986" fill="white" transform="translate(131.113)"/>
</clipPath>
</defs>
</svg>
