<svg width="304" height="175" viewBox="0 0 304 175" fill="none" xmlns="http://www.w3.org/2000/svg">
<path d="M152 175C235.671 175 303.5 167.613 303.5 158.5C303.5 149.387 235.671 142 152 142C68.3289 142 0.5 149.387 0.5 158.5C0.5 167.613 68.3289 175 152 175Z" fill="url(#paint0_linear_584_45011)"/>
<g clip-path="url(#clip0_584_45011)">
<path d="M225.5 78.8773C225.5 107.791 208.988 132.824 184.928 144.954C183.566 145.642 182.186 146.285 180.779 146.881C178.519 147.849 176.213 148.705 173.842 149.441H173.833C166.933 151.6 159.608 152.764 152.005 152.764C141.41 152.764 131.343 150.511 122.249 146.452L121.888 146.285C114.849 143.11 108.413 138.856 102.764 133.727C87.8629 120.21 78.5 100.642 78.5 78.8773C78.5 38.0753 111.414 5 152.005 5C192.596 5 225.5 38.0753 225.5 78.8773Z" fill="url(#paint1_linear_584_45011)"/>
<path d="M118.859 86.4175C118.304 90.1784 117.544 93.4552 116.498 95.3636C112.525 102.634 96.9941 152.633 96.9941 152.633L99.6057 153.49C99.6057 153.49 99.6057 153.48 99.6243 153.462C100.208 152.708 114.96 133.326 121.295 118.757C124.194 112.101 126.768 99.7295 128.722 88.1117C125.435 87.5439 122.147 86.9574 118.859 86.4175Z" fill="#F9CBCB"/>
<path opacity="0.55" d="M122.379 87.0137C121.888 89.9088 121.471 92.8598 121.517 95.4198C121.665 103.537 114.618 128.058 109.321 135.598C104.208 142.906 99.8743 152.848 99.615 153.462C100.198 152.708 114.951 133.327 121.286 118.758C124.184 112.102 126.759 99.7299 128.713 88.1121C126.611 87.7491 124.499 87.3767 122.379 87.0137Z" fill="#D0876A"/>
<path d="M133.797 64.6157C133.797 64.6157 110.645 84.109 111.951 102.327C111.951 102.327 133.223 110.845 135.122 106.944C137.011 103.044 133.797 64.6157 133.797 64.6157Z" fill="url(#paint2_linear_584_45011)"/>
<path d="M99.5965 153.49C99.5965 153.49 101.634 156.674 100.902 158.796C100.171 160.919 97.0034 166.523 94.79 162.678C92.5766 158.843 91.1504 153.658 96.9849 152.634L99.5965 153.49Z" fill="#F9CBCB"/>
<path d="M94.614 156.078C94.614 156.078 96.8367 156.078 97.522 154.645C97.5127 154.635 97.6424 157.4 94.614 156.078Z" fill="#D0876A"/>
<path d="M93.688 157.214C93.688 157.214 97.9851 156.171 98.513 156.823C99.0316 157.474 100.106 160.807 98.4852 162.129C98.4852 162.129 99.2446 158.712 98.124 157.363L93.688 157.214Z" fill="#D0876A"/>
<path opacity="0.5" d="M111.293 63.359C111.219 63.3403 111.173 63.3217 111.145 63.3124C106.866 62.0277 104.042 58.3599 102.958 52.7279C102.153 48.5481 102.588 44.7965 102.606 44.6383L102.671 44.117L103.19 44.1263C103.264 44.1263 103.329 44.1263 103.403 44.1263C107.135 44.1263 110.117 41.5942 110.95 40.8215L110.969 40.8029C110.978 40.8029 111.006 40.775 111.052 40.7191L111.451 40.3188L111.849 40.7191C111.895 40.7657 111.941 40.8029 111.941 40.8029C112.775 41.5849 115.766 44.117 119.498 44.117C119.572 44.117 119.637 44.117 119.711 44.117L120.23 44.1077L120.295 44.629C120.313 44.7872 120.739 48.5388 119.943 52.7186C118.859 58.3506 116.035 62.0091 111.765 63.3031C111.719 63.3217 111.673 63.331 111.599 63.3496L111.46 63.3869L111.293 63.359Z" fill="#E1EBF4"/>
<path d="M112.219 61.5158C111.997 61.5995 111.765 61.6833 111.534 61.7485C111.534 61.7485 111.515 61.7578 111.432 61.7764C111.358 61.7578 111.33 61.7485 111.33 61.7485C102.328 59.0488 103.949 45.3923 103.949 45.3923C107.616 45.4854 110.552 42.9999 111.33 42.2645C111.33 42.2645 111.367 42.2272 111.432 42.1714C111.432 42.1714 111.432 42.1807 111.441 42.1807C111.497 42.2272 111.534 42.2645 111.534 42.2645C112.312 42.9906 115.247 45.4854 118.924 45.3923C118.924 45.3923 120.452 58.3507 112.219 61.5158Z" fill="#93CAFF"/>
<path d="M195.078 31.6336H194.429C194.448 31.0006 194.374 29.8463 193.716 29.0922C193.309 28.6268 192.762 28.394 192.086 28.394C191.336 28.394 190.753 28.6454 190.336 29.1388C189.706 29.8928 189.66 31.0006 189.697 31.6243H189.049C188.715 31.6243 188.447 31.8943 188.447 32.2294V38.3269C188.447 38.662 188.715 38.932 189.049 38.932H195.078C195.411 38.932 195.68 38.662 195.68 38.3269V32.2294C195.689 31.9036 195.42 31.6336 195.078 31.6336ZM190.947 29.6601C191.207 29.3436 191.586 29.1946 192.096 29.1946C192.54 29.1946 192.883 29.3343 193.133 29.6228C193.624 30.1814 193.661 31.1309 193.651 31.6429H190.493C190.456 31.0844 190.503 30.1907 190.947 29.6601Z" fill="#93CAFF"/>
<path d="M180.779 146.881C178.519 147.849 176.213 148.705 173.842 149.441H173.833C166.933 151.6 159.608 152.764 152.005 152.764C141.41 152.764 131.343 150.511 122.249 146.452L121.888 146.285C120.212 139.703 119.36 131.781 119.063 123.552C118.193 99.6647 120.702 61.2924 149.745 56.461C160.858 54.6178 178.769 76.4849 179.816 90.1693C181.26 108.909 181.464 132.489 180.779 146.881Z" fill="url(#paint3_linear_584_45011)"/>
<path opacity="0.5" d="M137.872 136.622C137.872 136.622 147.532 142.98 152.532 140.643C157.533 138.297 180.343 141.314 180.843 139.47C181.343 137.627 181.51 132.274 181.51 132.274L137.872 136.622Z" fill="#574A9D"/>
<path d="M193.818 130.831C192.633 132.274 190.132 133.363 186.909 134.183C174.37 137.357 150.866 136.417 150.866 136.417C150.866 136.417 149.875 132.423 150.541 132.405C151.208 132.386 180.621 123.794 181.01 121.55C181.316 119.781 179.269 109.15 179.547 102.932C179.612 101.247 179.853 99.8972 180.353 99.1152C182.696 95.4753 192.262 95.8198 192.262 95.8198C192.262 95.8198 199.634 123.756 193.818 130.831Z" fill="#F9CBCB"/>
<path d="M150.245 135.886L150.903 135.831C150.903 135.831 150.727 133.969 146.004 129.23C141.29 124.492 141.049 125.814 139.91 125.926C138.771 126.047 131.853 130.003 133.696 132.228C135.557 134.453 150.245 135.886 150.245 135.886Z" fill="#312C58"/>
<path d="M143.679 137.99C143.679 137.99 135.14 134.332 133.705 132.526C132.269 130.729 139.197 126.4 141.345 126.707C143.494 127.005 151.319 135.225 150.893 135.83C150.486 136.426 144.753 138.353 143.679 137.99Z" fill="#242249"/>
<path d="M150.542 132.414C150.542 132.414 148.282 130.841 146.115 128.839C143.948 126.829 146.031 131.52 146.031 131.52C146.031 131.52 134.038 135.207 139.039 136.873C144.031 138.549 150.866 136.426 150.866 136.426L150.542 132.414Z" fill="#F9CBCB"/>
<path opacity="0.55" d="M193.818 130.831C192.633 132.274 190.132 133.363 186.909 134.183C184.64 132.879 188.965 129.705 192.67 127.573C197.337 124.892 194.337 103.137 192.503 104.645C190.669 106.144 180.843 104.142 180.843 104.142C180.232 103.854 179.815 103.435 179.547 102.941C179.612 101.256 179.852 99.9064 180.353 99.1245C182.696 95.4846 192.262 95.829 192.262 95.829C192.262 95.829 199.634 123.756 193.818 130.831Z" fill="#D0876A"/>
<path d="M158.441 58.751C158.441 58.751 189.836 66.9709 194.355 100.009C194.355 100.009 182.316 104.85 178.75 102.262C175.185 99.6739 158.441 58.751 158.441 58.751Z" fill="url(#paint4_linear_584_45011)"/>
<path d="M143.559 58.6949L145.17 50.7449L152.236 50.2329L154.468 57.2892C154.468 57.2892 154.579 61.8228 149.597 62.009C144.318 62.1951 143.577 59.3559 143.559 58.6949Z" fill="#F9CBCB"/>
<path opacity="0.55" d="M144.846 53.0817C144.846 53.0817 147.735 57.5594 149.393 55.893C151.051 54.2267 153.329 53.845 153.329 53.845L152.431 50.894L144.846 53.0817Z" fill="#D0876A"/>
<path d="M134.64 37.0607C134.64 37.0607 121.897 27.5282 137.715 18.2563C141.271 16.1803 149.421 17.3347 153.662 21.0397C160.988 19.8388 161.043 28.9897 159.423 32.9554C155.829 41.7712 159.043 49.926 150.375 50.8476C145.179 51.3968 134.64 37.0607 134.64 37.0607Z" fill="#1D2149"/>
<path d="M156.487 39.0903C155.635 42.3019 156.098 51.3318 147.022 53.929C137.928 56.5356 135.492 39.0251 135.576 37.8428C135.603 37.4891 134.316 35.1618 134.622 35.2177C142.762 36.7351 143.16 32.9649 148.569 32.9462C148.763 32.9462 153.505 38.6714 153.681 38.6714C153.431 32.9462 155.746 31.9502 155.746 31.9502C155.746 31.9502 157.561 30.3211 157.895 33.2814C158.219 36.2324 156.487 39.0903 156.487 39.0903Z" fill="#F9CBCB"/>
<path d="M143.077 45.5044C142.382 45.5044 141.901 44.8341 141.873 44.8062C141.78 44.6758 141.808 44.4897 141.938 44.3966C142.067 44.3035 142.253 44.3314 142.354 44.4617C142.447 44.5921 142.771 44.9179 143.095 44.9179C143.336 44.9086 143.568 44.7224 143.799 44.35C143.883 44.2104 144.068 44.1638 144.207 44.2569C144.346 44.3407 144.383 44.5269 144.299 44.6665C143.957 45.2158 143.558 45.495 143.114 45.5137C143.095 45.5044 143.086 45.5044 143.077 45.5044Z" fill="#1D2149"/>
<path d="M144.79 38.2152C144.79 38.2152 147.976 38.4852 148.337 38.2152C148.698 37.9453 147.8 37.154 146.355 37.3122C144.901 37.4798 144.429 38.1594 144.79 38.2152Z" fill="#1D2149"/>
<path d="M147.476 39.9934C147.476 40.5148 147.124 40.9337 146.689 40.9337C146.254 40.9337 145.902 40.5148 145.902 39.9934C145.902 39.4721 146.254 39.0532 146.689 39.0532C146.809 39.0532 146.93 39.0811 147.031 39.1463C146.874 39.1929 146.763 39.3604 146.763 39.5559C146.763 39.7886 146.92 39.9841 147.124 39.9841C147.272 39.9841 147.393 39.8817 147.448 39.7328C147.467 39.8166 147.476 39.9004 147.476 39.9934Z" fill="#1D2149"/>
<path d="M136.196 38.2152C136.196 38.2152 139.382 38.4852 139.743 38.2152C140.104 37.9453 139.206 37.154 137.761 37.3122C136.316 37.4798 135.835 38.1594 136.196 38.2152Z" fill="#1D2149"/>
<path d="M138.891 39.9934C138.891 40.5148 138.539 40.9337 138.104 40.9337C137.669 40.9337 137.317 40.5148 137.317 39.9934C137.317 39.4721 137.669 39.0532 138.104 39.0532C138.224 39.0532 138.345 39.0811 138.446 39.1463C138.289 39.1929 138.178 39.3604 138.178 39.5559C138.178 39.7886 138.335 39.9841 138.539 39.9841C138.687 39.9841 138.808 39.8817 138.863 39.7328C138.882 39.8166 138.891 39.9004 138.891 39.9934Z" fill="#1D2149"/>
<path d="M141.512 49.2467C141.512 49.2467 143.327 50.4755 146.883 48.6509C146.883 48.6509 143.984 52.7283 141.512 49.2467Z" fill="white"/>
<path d="M156.024 32.2852C156.024 32.2852 157.7 33.4209 157.274 34.2866C156.848 35.1524 156.339 36.1764 156.339 36.1764C156.339 36.1764 156.922 34.7986 156.765 34.0911C156.607 33.3929 155.598 32.6854 156.024 32.2852Z" fill="#1D2149"/>
<g opacity="0.9">
<path opacity="0.9" d="M218.508 71.4577L218.471 91.8354C217.888 95.6242 214.637 98.5286 210.701 98.5286H144.411C143.179 98.5286 142.012 98.24 140.975 97.728C138.474 96.4992 136.706 93.9672 136.548 91.0255V90.951L136.576 71.3925C136.585 68.8604 138.039 66.6728 140.16 65.6302C141.012 65.2112 141.966 64.9785 142.984 64.9785L212.118 65.0251C215.656 65.0251 218.508 67.9109 218.508 71.4577Z" fill="url(#paint5_linear_584_45011)"/>
<path opacity="0.9" d="M158.349 89.9365H144.355V90.7371H158.349V89.9365Z" fill="white"/>
<path opacity="0.9" d="M176.176 89.9365H162.183V90.7371H176.176V89.9365Z" fill="white"/>
<path opacity="0.9" d="M194.003 89.9365H180.01V90.7371H194.003V89.9365Z" fill="white"/>
<path opacity="0.9" d="M211.822 89.9365H197.828V90.7371H211.822V89.9365Z" fill="white"/>
<g opacity="0.9">
<path opacity="0.9" d="M153.551 75.8701L151.625 78.4208V78.458L154.69 78.0484V79.4355L151.625 79.0724V79.1096L153.579 81.5579L152.301 82.2934L151.079 79.4355H151.042L149.717 82.312L148.56 81.5766L150.486 79.0817V79.0445L147.476 79.4355V78.0484L150.458 78.4394V78.4021L148.55 75.9073L149.791 75.1905L151.051 78.0298H151.088L152.329 75.1719L153.551 75.8701Z" fill="white"/>
</g>
<g opacity="0.9">
<path opacity="0.9" d="M171.212 75.8701L169.286 78.4208V78.458L172.351 78.0484V79.4355L169.286 79.0724V79.1096L171.24 81.5579L169.962 82.2934L168.739 79.4355H168.702L167.378 82.312L166.22 81.5766L168.147 79.0817V79.0445L165.137 79.4355V78.0484L168.119 78.4394V78.4021L166.211 75.9073L167.452 75.1905L168.711 78.0298H168.749L169.989 75.1719L171.212 75.8701Z" fill="white"/>
</g>
<g opacity="0.9">
<path opacity="0.9" d="M188.882 75.8701L186.956 78.4208V78.458L190.021 78.0484V79.4355L186.956 79.0724V79.1096L188.91 81.5579L187.632 82.2934L186.409 79.4355H186.372L185.048 82.312L183.89 81.5766L185.817 79.0817V79.0445L182.807 79.4355V78.0484L185.789 78.4394V78.4021L183.881 75.9073L185.122 75.1905L186.382 78.0298H186.419L187.66 75.1719L188.882 75.8701Z" fill="white"/>
</g>
<g opacity="0.9">
<path opacity="0.9" d="M207.867 75.8701L205.941 78.4208V78.458L209.006 78.0484V79.4355L205.941 79.0724V79.1096L207.895 81.5579L206.617 82.2934L205.395 79.4355H205.357L204.033 82.312L202.876 81.5766L204.802 79.0817V79.0445L201.792 79.4355V78.0484L204.774 78.4394V78.4021L202.866 75.9073L204.107 75.1905L205.367 78.0298H205.404L206.645 75.1719L207.867 75.8701Z" fill="white"/>
</g>
</g>
</g>
<defs>
<linearGradient id="paint0_linear_584_45011" x1="151.691" y1="126.882" x2="151.691" y2="164.095" gradientUnits="userSpaceOnUse">
<stop stop-color="#E8E8E8"/>
<stop offset="1" stop-color="#E8E8E8" stop-opacity="0"/>
</linearGradient>
<linearGradient id="paint1_linear_584_45011" x1="142.5" y1="146" x2="107.314" y2="22.0422" gradientUnits="userSpaceOnUse">
<stop stop-color="#EFF3F9"/>
<stop offset="1" stop-color="#D1E3FC"/>
</linearGradient>
<linearGradient id="paint2_linear_584_45011" x1="121.319" y1="108.216" x2="148.295" y2="70.0143" gradientUnits="userSpaceOnUse">
<stop stop-color="#FF8F5C"/>
<stop offset="0.458333" stop-color="#FFBE69"/>
</linearGradient>
<linearGradient id="paint3_linear_584_45011" x1="143.541" y1="153.317" x2="177.964" y2="68.0307" gradientUnits="userSpaceOnUse">
<stop stop-color="#FF8F5C"/>
<stop offset="1" stop-color="#FFBE69"/>
</linearGradient>
<linearGradient id="paint4_linear_584_45011" x1="172.646" y1="103.277" x2="195.404" y2="55.6953" gradientUnits="userSpaceOnUse">
<stop offset="0.208333" stop-color="#FF8F5C"/>
<stop offset="0.786458" stop-color="#FFE869"/>
</linearGradient>
<linearGradient id="paint5_linear_584_45011" x1="136.549" y1="81.753" x2="218.507" y2="81.753" gradientUnits="userSpaceOnUse">
<stop stop-color="#BDDCFD"/>
<stop offset="1" stop-color="#5F98ED"/>
</linearGradient>
<clipPath id="clip0_584_45011">
<rect width="147" height="159" fill="white" transform="translate(78.5)"/>
</clipPath>
</defs>
</svg>
