<svg width="304" height="173" viewBox="0 0 304 173" fill="none" xmlns="http://www.w3.org/2000/svg">
<path d="M152 173C235.671 173 303.5 165.613 303.5 156.5C303.5 147.387 235.671 140 152 140C68.3289 140 0.5 147.387 0.5 156.5C0.5 165.613 68.3289 173 152 173Z" fill="url(#paint0_linear_624_45245)"/>
<path d="M225.925 102.709C223.341 96.7948 218.378 91.859 212.417 89.4304C206.208 86.9004 199.079 87.8207 192.539 86.9738C186.858 86.238 182.761 83.6865 179.368 79.1498C176.119 74.803 173.205 69.989 167.892 67.978C163.694 66.3888 158.92 66.83 154.748 68.485C147.059 71.5361 141.251 78.0223 136.36 84.4848C131.895 90.3852 128.253 96.8456 119.993 97.0559C111.728 97.2663 103.859 92.5225 95.5383 93.7794C84.5402 95.4409 75.3798 104.654 73.4607 115.622C71.6616 125.902 76.1754 135.873 83.9302 141.73H217.222C226.993 131.3 232.121 116.889 225.925 102.709Z" fill="#D6E4FC"/>
<path d="M105.432 141.73H105.799C108.345 138.913 110.34 135.496 111.608 131.703C113.66 125.563 113.574 119.119 111.364 113.558C110.248 110.748 108.636 108.13 107.076 105.596C105.494 103.028 103.859 100.371 102.75 97.5252C102.291 96.3482 101.952 95.0848 101.748 93.7955C101.656 93.7837 101.564 93.774 101.473 93.7621C101.677 95.0977 102.026 96.4064 102.501 97.6234C103.619 100.492 105.262 103.159 106.849 105.738C108.403 108.26 110.009 110.87 111.117 113.658C113.303 119.159 113.387 125.536 111.355 131.617C110.07 135.458 108.033 138.907 105.432 141.73Z" fill="white"/>
<path d="M216.577 130.033C219.324 130.622 221.97 131.15 224.529 131.482C224.573 131.397 224.616 131.311 224.659 131.226C222.078 130.896 219.407 130.364 216.633 129.769C212.409 128.863 207.837 127.883 203.302 127.883C200.494 127.883 197.701 128.258 195.014 129.261C193.997 129.64 193.015 130.121 192.081 130.695C189.655 129.655 187.215 128.519 184.8 127.272C186.553 125.943 188.325 124.642 190.116 123.384C203.408 114.044 215.676 108.749 227.527 107.246C227.503 107.159 227.479 107.071 227.454 106.984C215.571 108.499 203.277 113.808 189.963 123.163C188.134 124.448 186.326 125.778 184.536 127.135C181.819 125.723 179.135 124.17 176.536 122.457C171.823 119.35 166.217 114.915 161.322 109.021C180.294 106.879 199.608 104.181 215.382 93.5722C215.981 93.1698 216.645 92.694 217.332 92.1557C217.256 92.1017 217.179 92.0478 217.103 91.9938C216.444 92.5074 215.809 92.9605 215.234 93.3478C199.465 103.953 180.114 106.631 161.118 108.773C157.659 104.562 154.568 99.6161 152.42 93.8905C149.074 84.9714 149.251 76.2195 152.905 69.8768C153.063 69.6017 153.231 69.3298 153.403 69.0623C153.251 69.1324 153.1 69.2057 152.949 69.2791C152.854 69.4323 152.762 69.5866 152.673 69.7419C148.978 76.1548 148.795 84.9908 152.169 93.9855C154.306 99.6798 157.369 104.606 160.8 108.808C159.7 108.932 158.6 109.054 157.504 109.176C153.549 109.615 149.458 110.069 145.486 110.584C144.037 110.772 142.563 110.991 141.095 111.266C137.95 104.587 134.496 98.0712 130.03 92.4826C129.966 92.5462 129.902 92.6088 129.837 92.6725C134.264 98.2179 137.697 104.686 140.824 111.318C134.425 112.545 128.212 114.854 124.895 120.227C121.796 125.245 121.8 132.181 124.903 140.842C125.011 141.142 125.121 141.437 125.234 141.73H125.521C125.398 141.41 125.275 141.085 125.156 140.751C122.082 132.17 122.071 125.313 125.123 120.368C128.402 115.059 134.581 112.782 140.944 111.569C142.055 113.932 143.127 116.315 144.192 118.683L144.308 118.941C148.01 127.164 151.839 135.099 156.851 141.731H157.186C152.127 135.088 148.277 127.105 144.552 118.83L144.436 118.572C143.379 116.224 142.315 113.862 141.215 111.518C142.654 111.251 144.1 111.036 145.522 110.853C149.491 110.338 153.58 109.884 157.535 109.445C158.69 109.316 159.848 109.188 161.006 109.057C165.948 115.043 171.625 119.54 176.392 122.683C178.962 124.377 181.617 125.915 184.302 127.315C179.743 130.786 175.308 134.437 170.978 138.002C169.478 139.236 167.962 140.483 166.433 141.73H166.858C168.3 140.553 169.731 139.376 171.147 138.211C175.508 134.621 179.974 130.944 184.566 127.453C186.969 128.697 189.394 129.831 191.807 130.87C188.506 132.983 185.815 136.255 184.189 140.227C183.985 140.725 183.807 141.227 183.643 141.731H183.925C184.081 141.262 184.247 140.794 184.436 140.33C186.067 136.347 188.781 133.078 192.108 130.999C198.854 133.882 205.483 136.023 211.18 137.719L211.394 137.783C213.795 138.497 216.25 139.229 218.422 140.404C218.484 140.334 218.545 140.265 218.605 140.195C216.397 138.99 213.907 138.248 211.471 137.524L211.256 137.46C205.618 135.781 199.064 133.667 192.391 130.826C193.26 130.305 194.17 129.866 195.112 129.514C202.063 126.92 209.774 128.574 216.577 130.033Z" fill="white"/>
<path d="M84.6025 112.562C85.7861 117.438 85.2586 122.704 83.1529 127.01C81.7741 129.83 79.7832 132.384 77.3312 134.576C77.3794 134.653 77.4298 134.728 77.4791 134.804C79.9708 132.582 81.9939 129.992 83.3931 127.129C85.5256 122.767 86.0606 117.434 84.8619 112.497C83.9259 108.64 82.0433 105.373 79.4412 103.009C79.3833 103.078 79.3254 103.147 79.2685 103.216C81.8267 105.543 83.6794 108.762 84.6025 112.562Z" fill="white"/>
<path d="M145.267 50.7893C147.602 53.1898 148.648 57.2356 147.36 60.9642C146.114 64.5752 143.381 67.5659 140.098 69.4895C137.456 71.0366 134.01 71.89 131.412 70.2695C129.471 69.059 128.464 66.6833 128.408 64.3864C128.352 62.0884 129.12 59.8497 130.069 57.7588C131.407 54.8124 133.207 51.9545 135.89 50.1625C139.586 47.6929 143.021 48.4816 145.267 50.7893Z" fill="#D6E4FC"/>
<path d="M114.315 8.69146H94.9797V0H114.315V8.69146ZM95.3818 8.28688H113.913V0.40458H95.3818V8.28688Z" fill="#E9DDCA"/>
<path d="M101.736 17.0042H82.4014V8.31165H101.736V17.0042ZM82.8034 16.5996H101.334V8.71623H82.8034V16.5996Z" fill="#E9DDCA"/>
<path d="M224.327 26.2652C223.074 22.0759 220.872 18.2297 217.72 14.7137C214.561 11.1976 210.254 8.29433 204.796 5.99847C199.339 3.70262 192.406 2.55469 183.996 2.55469C177.286 2.55469 170.449 3.46526 163.483 5.28641C156.511 7.11403 150.463 9.71305 145.334 13.091L152.011 31.5377L148.433 34.455L153.623 35.9902C158.746 33.292 163.414 31.3327 167.625 30.1125C171.83 28.8988 176.299 28.2914 181.037 28.2914C185.768 28.2914 189.351 29.4393 191.784 31.7351C194.216 34.0375 195.43 36.8016 195.43 40.0479C195.43 43.9664 194.178 47.4436 191.687 50.485C189.184 53.5264 186.423 56.6001 183.398 59.7073C181.299 61.865 179.258 64.094 177.286 66.3898C175.316 68.6922 173.569 71.1531 172.061 73.792C170.546 76.4245 169.332 79.2609 168.414 82.3022C167.49 85.3436 167.034 88.7539 167.034 92.5343C167.034 93.7546 167.06 95.2056 167.131 96.8952C167.143 97.207 167.159 97.5101 167.177 97.8101H162.271L167.625 101.453H193.659C193.524 100.642 193.46 99.6981 193.46 98.6171C193.46 97.535 193.46 96.7236 193.46 96.1831C193.46 93.8873 193.922 91.6248 194.839 89.3948C195.757 87.1648 196.913 85.0404 198.294 83.0089C199.674 80.9839 201.215 79.057 202.929 77.2369C204.637 75.4093 206.28 73.6874 207.86 72.0648C209.959 69.907 212.129 67.6122 214.363 65.1772C216.597 62.7432 218.575 60.1831 220.282 57.4783C221.99 54.7735 223.402 51.8379 224.52 48.6585C225.637 45.4855 226.202 42.0082 226.202 38.2214C226.202 34.4399 225.572 30.4545 224.327 26.2652Z" fill="#D38E50"/>
<path d="M175.525 27.0043C170.843 27.0043 166.426 27.5912 162.271 28.7661C158.109 29.9475 153.496 31.8431 148.433 34.455L140.241 12.2938C145.311 9.02478 151.288 6.50883 158.178 4.74055C165.063 2.97873 171.819 2.09729 178.45 2.09729C186.761 2.09729 193.614 3.20854 199.007 5.42995C204.4 7.65136 208.657 10.4608 211.779 13.8636C214.895 17.2663 217.07 20.9885 218.308 25.0429C219.538 29.0973 220.16 32.9532 220.16 36.6117C220.16 40.2767 219.602 43.6417 218.498 46.7122C217.394 49.7892 215.998 52.6309 214.311 55.2483C212.623 57.8657 210.669 60.3428 208.461 62.699C206.253 65.0553 204.108 67.2767 202.034 69.3644C200.472 70.9352 198.848 72.601 197.161 74.3704C195.467 76.1322 193.944 77.9965 192.579 79.9568C191.216 81.9236 190.073 83.9789 189.166 86.1366C188.259 88.2944 187.802 90.4845 187.802 92.7059C187.802 93.2292 187.802 94.0146 187.802 95.0622C187.802 96.1098 187.865 97.0225 187.998 97.8079H162.271C162.004 96.4993 161.846 95.0309 161.782 93.3964C161.712 91.7619 161.687 90.3572 161.687 89.1758C161.687 85.5173 162.137 82.2171 163.05 79.2728C163.957 76.3296 165.157 73.5839 166.654 71.0366C168.145 68.4829 169.87 66.1018 171.818 63.8729C173.766 61.6515 175.784 59.4926 177.859 57.405C180.847 54.3981 183.575 51.4226 186.05 48.4794C188.512 45.5362 189.749 42.1712 189.749 38.3789C189.749 35.2372 188.55 32.5627 186.145 30.3348C183.742 28.1156 180.2 27.0043 175.525 27.0043Z" fill="url(#paint1_linear_624_45245)"/>
<path d="M195.44 126.882C195.44 131.605 193.921 135.249 190.881 137.82C187.843 140.397 184.407 141.68 180.572 141.68C176.732 141.68 173.298 140.397 170.259 137.82C167.225 135.249 165.706 131.605 165.706 126.882C165.706 122.164 167.225 118.519 170.259 115.943C174.937 111.97 181.858 111.086 187.334 113.874C192.194 116.348 195.44 121.372 195.44 126.882Z" fill="#D38E50"/>
<path d="M190.347 126.882C190.347 131.605 188.828 135.249 185.788 137.82C182.75 140.397 179.315 141.68 175.48 141.68C171.639 141.68 168.205 140.397 165.167 137.82C162.133 135.249 160.613 131.605 160.613 126.882C160.613 122.164 162.133 118.519 165.167 115.943C168.205 113.372 171.64 112.084 175.48 112.084C179.315 112.084 182.749 113.372 185.788 115.943C188.828 118.519 190.347 122.164 190.347 126.882Z" fill="url(#paint2_linear_624_45245)"/>
<path d="M113.276 59.922C113.561 58.3905 112.559 56.9163 111.037 56.6293C109.515 56.3423 108.05 57.3511 107.765 58.8826C107.479 60.4141 108.482 61.8883 110.004 62.1753C111.526 62.4623 112.991 61.4535 113.276 59.922Z" fill="#D3DFFF"/>
<path d="M114.616 65.2233C114.777 64.3618 114.208 63.5317 113.346 63.3691C112.484 63.2066 111.655 63.7732 111.495 64.6347C111.335 65.4962 111.903 66.3264 112.765 66.4889C113.627 66.6514 114.456 66.0848 114.616 65.2233Z" fill="#D3DFFF"/>
<path d="M111.407 53.0542C115.718 48.7162 115.718 41.683 111.407 37.345C107.096 33.0071 100.107 33.0071 95.7961 37.345C91.4853 41.683 91.4853 48.7162 95.7961 53.0542C100.107 57.3921 107.096 57.3921 111.407 53.0542Z" fill="#D3DFFF"/>
<path d="M99.3636 46.5989C100.132 46.5989 100.754 45.9724 100.754 45.1996C100.754 44.4268 100.132 43.8003 99.3636 43.8003C98.5956 43.8003 97.973 44.4268 97.973 45.1996C97.973 45.9724 98.5956 46.5989 99.3636 46.5989Z" fill="white"/>
<path d="M103.602 46.5989C104.37 46.5989 104.992 45.9724 104.992 45.1996C104.992 44.4268 104.37 43.8003 103.602 43.8003C102.834 43.8003 102.211 44.4268 102.211 45.1996C102.211 45.9724 102.834 46.5989 103.602 46.5989Z" fill="white"/>
<path d="M107.841 46.5989C108.609 46.5989 109.232 45.9724 109.232 45.1996C109.232 44.4268 108.609 43.8003 107.841 43.8003C107.073 43.8003 106.45 44.4268 106.45 45.1996C106.45 45.9724 107.073 46.5989 107.841 46.5989Z" fill="white"/>
<path d="M95.6937 136.119L96.7251 140.121C96.9942 141.164 97.9967 141.869 99.1063 141.793C102.488 141.562 109.515 140.728 113.548 137.736L112.402 131.97C106.857 131.655 101.672 131.965 97.1808 133.485C96.0561 133.867 95.4064 135.001 95.6937 136.119Z" fill="#3A4E7A"/>
<path d="M102.157 139.304C102.098 139.304 102.044 139.265 102.028 139.206L100.643 134.216C100.622 134.144 100.664 134.07 100.736 134.05C100.808 134.03 100.882 134.071 100.901 134.144L102.286 139.133C102.307 139.206 102.265 139.279 102.193 139.3C102.181 139.302 102.168 139.304 102.157 139.304Z" fill="white"/>
<path d="M105.15 138.63C105.091 138.63 105.037 138.591 105.021 138.531L103.636 133.542C103.616 133.469 103.658 133.396 103.729 133.375C103.801 133.355 103.875 133.397 103.895 133.469L105.28 138.459C105.3 138.531 105.258 138.605 105.186 138.625C105.174 138.627 105.162 138.63 105.15 138.63Z" fill="white"/>
<path d="M108.626 114.49L95.7388 118.338L105.31 131.535L119.05 132.634L138.003 124.57L130.8 113.664L108.626 114.49Z" fill="url(#paint3_linear_624_45245)"/>
<path d="M124.514 116.323C152.817 107.892 157.365 133.063 113.206 137.645C111.646 135.878 109.824 132.814 109.1 130.252L132.419 119.408L124.514 116.323Z" fill="url(#paint4_linear_624_45245)"/>
<path d="M125.717 134.362C124.393 133.935 123.125 133.093 123.125 133.093L118.577 134.529L119.619 139.508L124.344 140.473C125.784 137.824 125.867 135.649 125.717 134.362Z" fill="#F9B384"/>
<path d="M109.201 130.427L108.999 130.077C113.865 127.232 126.325 120.398 136.942 118.381L137.018 118.779C126.461 120.783 114.048 127.592 109.201 130.427Z" fill="#D38E50"/>
<path d="M108.626 114.49C82.2823 109.449 75.4591 134.926 119.619 139.508C121.179 137.742 122.401 135.655 123.125 133.093C116.341 128.526 108.757 124.184 100.446 120.049L108.626 114.49Z" fill="url(#paint5_linear_624_45245)"/>
<path d="M123.016 133.263C121.763 132.461 120.457 131.613 119.075 130.714C112.135 126.205 104.27 121.095 97.5872 118.18L97.7469 117.809C104.46 120.736 112.34 125.857 119.293 130.374C120.675 131.272 121.98 132.12 123.232 132.922L123.016 133.263Z" fill="#D38E50"/>
<path d="M89.2984 127.121L88.9468 126.926C89.9353 125.124 91.5199 123.909 93.6546 123.315L93.7618 123.704C91.7054 124.277 90.2462 125.395 89.2984 127.121Z" fill="#D38E50"/>
<path d="M144.281 125.587C143.333 123.861 141.873 122.743 139.818 122.17L139.925 121.781C142.06 122.375 143.644 123.591 144.633 125.392L144.281 125.587Z" fill="#D38E50"/>
<path d="M117.152 139.283L116.858 139.007C118.966 136.736 120.26 134.339 120.815 131.677L121.209 131.76C120.637 134.496 119.311 136.957 117.152 139.283Z" fill="#D38E50"/>
<path d="M138.855 132.879C135.48 130.781 128.937 134.407 127.294 134.59C126.815 134.644 126.262 134.538 125.717 134.363C125.867 135.65 125.784 137.825 124.344 140.474L125.147 140.638C125.147 140.638 130.695 142.685 136.581 141.494C142.014 140.394 141.509 134.528 138.855 132.879Z" fill="#3A4E7A"/>
<path d="M134.255 139.742C134.242 139.742 134.228 139.74 134.214 139.735C134.143 139.713 134.104 139.637 134.126 139.566C134.527 138.289 134.702 135.775 133.54 134.086C133.499 134.025 133.514 133.941 133.575 133.899C133.636 133.857 133.72 133.872 133.761 133.933C134.977 135.701 134.799 138.319 134.382 139.647C134.364 139.705 134.311 139.742 134.255 139.742Z" fill="white"/>
<path d="M131.607 140.248C131.595 140.248 131.581 140.246 131.567 140.241C131.496 140.219 131.457 140.143 131.479 140.072C131.88 138.795 132.055 136.281 130.893 134.592C130.852 134.531 130.867 134.447 130.928 134.405C130.989 134.363 131.072 134.378 131.114 134.439C132.33 136.207 132.152 138.825 131.735 140.153C131.717 140.211 131.664 140.248 131.607 140.248Z" fill="white"/>
<path d="M103.965 81.642C103.965 81.642 110.6 75.965 110.354 74.8861C110.178 74.1147 108.299 75.2453 108.299 75.2453C108.299 75.2453 110.934 72.0982 110.8 71.7163C110.561 71.0334 108.738 72.3065 108.738 72.3065C108.738 72.3065 109.969 70.522 109.381 70.2307C108.792 69.9394 107.508 71.0399 107.508 71.0399C107.508 71.0399 108.258 70.0495 107.906 69.7894C107.553 69.5294 106.032 70.5986 106.032 70.5986C106.032 70.5986 106.578 69.3493 105.419 69.8229C104.26 70.2965 96.1312 77.8034 96.1312 77.8034L103.965 81.642Z" fill="#F9B384"/>
<path d="M106.68 74.9076C106.648 74.9076 106.616 74.8958 106.59 74.872C105.451 73.8244 104.949 73.5709 103.693 73.1814C103.622 73.1599 103.583 73.0843 103.604 73.0131C103.626 72.9419 103.701 72.902 103.771 72.9236C105.073 73.326 105.593 73.5892 106.771 74.6724C106.826 74.7232 106.83 74.8084 106.78 74.8634C106.753 74.8936 106.717 74.9076 106.68 74.9076Z" fill="#E28B6D"/>
<path d="M104.682 77.9878C104.675 77.9878 104.669 77.9878 104.663 77.9867C104.59 77.9759 104.539 77.908 104.549 77.8346C104.679 76.896 104.973 76.3091 105.446 76.0415C105.851 75.8128 106.378 75.8354 107.012 76.1116C107.08 76.1408 107.112 76.2206 107.082 76.2886C107.053 76.3565 106.974 76.3889 106.906 76.3587C106.353 76.1181 105.906 76.09 105.578 76.2767C105.188 76.4979 104.93 77.0341 104.815 77.8724C104.805 77.9382 104.747 77.9878 104.682 77.9878Z" fill="#E28B6D"/>
<path d="M104.369 72.3118C104.333 72.3118 104.298 72.2978 104.271 72.2698C104.221 72.2158 104.223 72.1306 104.276 72.0788L105.941 70.5004C105.995 70.4486 106.08 70.4518 106.131 70.5058C106.182 70.5597 106.179 70.645 106.126 70.6968L104.461 72.2751C104.434 72.3 104.402 72.3118 104.369 72.3118Z" fill="#E28B6D"/>
<path d="M105.909 72.8513C105.876 72.8513 105.843 72.8384 105.816 72.8136C105.762 72.7618 105.761 72.6765 105.812 72.6226L107.411 70.946C107.463 70.8921 107.547 70.8899 107.601 70.9417C107.655 70.9935 107.656 71.0787 107.605 71.1327L106.006 72.8092C105.98 72.8373 105.945 72.8513 105.909 72.8513Z" fill="#E28B6D"/>
<path d="M107.484 73.7953C107.451 73.7953 107.419 73.7835 107.393 73.7587C107.339 73.708 107.336 73.6227 107.387 73.5677L108.641 72.2137C108.691 72.1598 108.776 72.1565 108.831 72.2072C108.884 72.2579 108.888 72.3432 108.837 72.3982L107.583 73.7522C107.556 73.7813 107.521 73.7953 107.484 73.7953Z" fill="#E28B6D"/>
<path d="M129.028 119.613L104.771 120.557L102.09 98.3054C102.09 98.3054 110.211 90.5547 113.335 87.7L118.61 87.4281C134.974 94.9134 132.295 104.262 129.028 119.613Z" fill="#6890E0"/>
<path d="M118.61 87.4281C118.61 87.4281 137.332 89.0389 143.234 101.947C149.009 114.577 125.275 119.074 125.275 119.074L118.61 87.4281Z" fill="#6890E0"/>
<path d="M97.2087 90.1944L104.945 80.7207L97.7104 76.3092C94.6923 78.4206 88.8567 83.2032 83.9108 88.6192C82.8194 89.8146 81.966 91.2107 81.5371 92.7481C81.1704 94.06 81.104 95.3557 81.3098 96.6245C81.847 99.9324 84.4319 102.484 87.8831 102.891C90.8305 103.238 102.089 102.351 111.202 99.654L113.883 89.2439C112.506 88.4574 102.269 88.3215 97.2087 90.1944Z" fill="#6890E0"/>
<g opacity="0.8">
<path opacity="0.8" d="M134.233 92.5506C134.274 92.5409 134.314 92.5323 134.354 92.5226C134.27 92.4718 134.185 92.4233 134.1 92.3737C132.728 92.6919 131.313 93.0167 129.917 93.1861C129.078 93.2875 126.276 93.4741 125.458 91.5958C125.05 90.6615 125.359 89.6214 125.819 88.8921C125.751 88.8727 125.685 88.8533 125.618 88.8339C125.147 89.6063 124.843 90.6906 125.273 91.6767C126.147 93.6834 129.068 93.4935 129.941 93.3867C131.377 93.212 132.83 92.8764 134.233 92.5506Z" fill="white"/>
<path opacity="0.8" d="M142.971 107.108C142.077 106.761 141.153 106.4 140.181 106.493C138.478 106.655 137.02 108.351 136.931 110.272C136.871 111.583 137.368 112.957 138.316 114.164C138.373 114.128 138.43 114.092 138.486 114.055C137.559 112.881 137.072 111.549 137.131 110.281C137.215 108.456 138.591 106.846 140.2 106.694C141.123 106.607 141.986 106.941 142.898 107.296C143.224 107.422 143.555 107.55 143.892 107.658C143.909 107.594 143.926 107.528 143.941 107.462C143.613 107.357 143.29 107.232 142.971 107.108Z" fill="white"/>
<path opacity="0.8" d="M95.7162 100.675C94.5476 99.7015 92.7314 99.4415 90.734 99.9615C88.9542 100.424 87.4275 101.342 86.3789 102.556C86.4475 102.579 86.5151 102.604 86.5848 102.624C87.6054 101.472 89.0754 100.601 90.7844 100.157C92.7174 99.653 94.4693 99.8989 95.5876 100.83C96.1194 101.272 96.4957 101.847 96.7691 102.467C96.8377 102.459 96.9074 102.45 96.9771 102.443C96.6908 101.776 96.292 101.154 95.7162 100.675Z" fill="white"/>
<path opacity="0.8" d="M85.1492 87.2954C87.3396 86.7474 89.4764 85.9781 91.448 84.8356C92.1932 84.404 93.0337 83.8538 93.6256 83.0457C94.2549 82.1858 94.464 81.162 94.1852 80.3075C94.0759 79.972 93.8818 79.6775 93.6395 79.4423C93.588 79.4843 93.5366 79.5275 93.4851 79.5696C93.7113 79.7864 93.8925 80.0594 93.9944 80.3712C94.2528 81.1642 94.0555 82.119 93.4647 82.926C92.8954 83.7038 92.0752 84.24 91.3483 84.6608C89.4892 85.7386 87.4779 86.4841 85.4118 87.0225C85.3239 87.1131 85.2371 87.2048 85.1492 87.2954Z" fill="white"/>
</g>
<path d="M120.323 82.4814L120.32 82.8267L120.265 88.1919L120.259 88.7734C120.248 89.6829 119.878 90.5072 119.28 91.106C118.685 91.7004 117.866 92.0737 116.959 92.0802C115.131 92.091 113.635 90.6129 113.618 88.7702L113.554 82.1394L120.323 82.4814Z" fill="#F9B384"/>
<path d="M120.32 82.8267L120.265 88.1919C117.302 86.9782 116.082 83.7502 116.082 83.7502L120.32 82.8267Z" fill="#3A4E7A"/>
<path d="M121.492 73.4642C122.553 74.747 125.655 82.0132 122.511 84.4925C118.974 87.2825 113.591 82.6972 113.591 82.6972L112.868 74.2334L117.541 72.9938L121.492 73.4642Z" fill="#F9B384"/>
<path d="M110.488 72.998C110.488 72.998 100.124 78.4378 108.574 94.1171C109.66 96.1314 112.064 97.0096 114.121 96.0278C116.327 94.9737 117.162 92.2614 115.964 90.1199C114.582 87.6492 113.247 84.4665 113.817 82.0995L110.488 72.998Z" fill="#3A4E7A"/>
<path d="M113.449 77.5671C114.544 76.4653 114.544 74.679 113.449 73.5772C112.354 72.4755 110.579 72.4755 109.484 73.5772C108.389 74.679 108.389 76.4653 109.484 77.5671C110.579 78.6688 112.354 78.6688 113.449 77.5671Z" fill="url(#paint6_linear_624_45245)"/>
<path d="M114.916 78.9621C114.613 77.2025 114.428 75.9952 116.196 75.0879C116.196 75.0879 122.427 76.2283 123.616 73.8623C124.805 71.4974 122.993 67.7645 119.198 70.357C109.485 68.4474 108.182 77.5952 111.127 80.6441L114.034 80.1953C114.619 80.1058 115.017 79.5491 114.916 78.9621Z" fill="#3A4E7A"/>
<path d="M119.74 79.3839C119.968 79.3839 120.154 79.1975 120.154 78.9675C120.154 78.7375 119.968 78.551 119.74 78.551C119.511 78.551 119.326 78.7375 119.326 78.9675C119.326 79.1975 119.511 79.3839 119.74 79.3839Z" fill="#3A4E7A"/>
<path d="M122.543 77.9944C122.772 77.9944 122.957 77.8079 122.957 77.5779C122.957 77.3479 122.772 77.1615 122.543 77.1615C122.315 77.1615 122.13 77.3479 122.13 77.5779C122.13 77.8079 122.315 77.9944 122.543 77.9944Z" fill="#3A4E7A"/>
<path d="M122.256 80.2503C122.227 80.2503 122.198 80.2395 122.176 80.2179C122.129 80.1726 122.126 80.0982 122.171 80.0507C122.338 79.8748 122.52 79.6278 122.443 79.4476C122.363 79.261 122.028 79.1811 121.873 79.1811C121.543 79.1811 121.384 78.5899 121.356 78.4712C121.341 78.4076 121.379 78.3439 121.442 78.3288C121.506 78.3126 121.569 78.3525 121.584 78.4162C121.644 78.6665 121.781 78.9459 121.873 78.9459C122.032 78.9459 122.516 79.0214 122.658 79.3559C122.76 79.5943 122.654 79.8835 122.341 80.2147C122.318 80.2373 122.287 80.2503 122.256 80.2503Z" fill="#3A4E7A"/>
<path d="M122.278 81.8309C122.255 81.8309 122.233 81.8244 122.212 81.8104C121.433 81.2807 120.645 81.7252 120.637 81.7295C120.581 81.7618 120.51 81.7424 120.477 81.6863C120.445 81.6302 120.465 81.5579 120.52 81.5256C120.558 81.504 121.443 81.0045 122.344 81.6151C122.398 81.6518 122.412 81.7252 122.375 81.7791C122.353 81.8136 122.315 81.8309 122.278 81.8309Z" fill="#3A4E7A"/>
<path d="M119.559 77.1626C119.795 77.6092 119.384 77.6988 118.903 77.9556C118.421 78.2123 117.929 78.3073 117.816 78.0937C117.704 77.8811 118.003 77.5003 118.484 77.2424C118.966 76.9846 119.376 76.8163 119.559 77.1626Z" fill="#3A4E7A"/>
<path d="M121.313 76.3566C121.417 76.7547 121.711 76.581 122.14 76.4677C122.569 76.3545 122.917 76.1376 122.867 75.9477C122.818 75.7578 122.43 75.6953 122 75.8085C121.571 75.9207 121.232 76.0481 121.313 76.3566Z" fill="#3A4E7A"/>
<path opacity="0.4" d="M118.659 81.8149C119.154 81.3548 119.186 80.5773 118.728 80.0784C118.271 79.5796 117.499 79.5481 117.003 80.0083C116.507 80.4684 116.476 81.2459 116.933 81.7448C117.39 82.2436 118.163 82.2751 118.659 81.8149Z" fill="#EB5D60"/>
<path d="M114.678 82.0675C115.236 81.3396 115.023 80.2323 114.201 79.5942C113.379 78.9561 112.26 79.0289 111.702 79.7568C111.144 80.4846 111.358 81.592 112.18 82.2301C113.001 82.8682 114.12 82.7954 114.678 82.0675Z" fill="#F9B384"/>
<path d="M113.917 81.5331C113.853 81.5331 113.8 81.4803 113.8 81.4155C113.8 81.0671 113.632 80.7456 113.349 80.5535C113.108 80.3895 112.819 80.3518 112.578 80.4499C112.518 80.4737 112.449 80.4456 112.425 80.3852C112.4 80.3248 112.429 80.2557 112.489 80.2309C112.802 80.1025 113.172 80.1489 113.478 80.3572C113.826 80.5924 114.034 80.9872 114.034 81.4145C114.035 81.4803 113.982 81.5331 113.917 81.5331Z" fill="#3A4E7A"/>
<path d="M97.109 90.1003L92.8777 94.7063L93.0745 94.8894L97.3058 90.2834L97.109 90.1003Z" fill="#3A4E7A"/>
<path d="M126.922 109.898L126.844 109.64C129.924 108.695 132.914 107.565 135.624 104.155L135.833 104.323C133.076 107.794 130.045 108.941 126.922 109.898Z" fill="#3A4E7A"/>
<path d="M128.795 99.4532H102.59C101.647 99.4532 100.883 100.285 100.883 101.311V120.139C100.883 121.165 101.647 121.996 102.59 121.996H128.795C129.738 121.996 130.502 121.165 130.502 120.139V101.311C130.502 100.285 129.738 99.4532 128.795 99.4532Z" fill="#D3DFFF"/>
<path d="M117.077 109.534C117.176 109.534 117.257 109.622 117.257 109.731V111.718C117.257 111.826 117.176 111.914 117.077 111.914H114.309C114.21 111.914 114.129 111.827 114.129 111.718V109.731C114.129 109.623 114.21 109.534 114.309 109.534H117.077ZM117.077 108.995H114.309C113.915 108.995 113.593 109.325 113.593 109.731V111.718C113.593 112.124 113.915 112.454 114.309 112.454H117.077C117.471 112.454 117.793 112.124 117.793 111.718V109.731C117.793 109.325 117.471 108.995 117.077 108.995Z" fill="#1F3C88"/>
<defs>
<linearGradient id="paint0_linear_624_45245" x1="151.691" y1="124.882" x2="151.691" y2="162.095" gradientUnits="userSpaceOnUse">
<stop stop-color="#E8E8E8"/>
<stop offset="1" stop-color="#E8E8E8" stop-opacity="0"/>
</linearGradient>
<linearGradient id="paint1_linear_624_45245" x1="180.201" y1="2.09729" x2="180.201" y2="97.8079" gradientUnits="userSpaceOnUse">
<stop stop-color="#FFB467"/>
<stop offset="1" stop-color="#FF905D"/>
</linearGradient>
<linearGradient id="paint2_linear_624_45245" x1="175.48" y1="112.084" x2="175.48" y2="141.68" gradientUnits="userSpaceOnUse">
<stop stop-color="#FFB467"/>
<stop offset="1" stop-color="#FF905D"/>
</linearGradient>
<linearGradient id="paint3_linear_624_45245" x1="116.871" y1="113.664" x2="116.871" y2="132.634" gradientUnits="userSpaceOnUse">
<stop stop-color="#FFB467"/>
<stop offset="1" stop-color="#FF905D"/>
</linearGradient>
<linearGradient id="paint4_linear_624_45245" x1="127.596" y1="114.609" x2="127.596" y2="137.645" gradientUnits="userSpaceOnUse">
<stop stop-color="#FFB467"/>
<stop offset="1" stop-color="#FF905D"/>
</linearGradient>
<linearGradient id="paint5_linear_624_45245" x1="105.393" y1="113.833" x2="105.393" y2="139.508" gradientUnits="userSpaceOnUse">
<stop stop-color="#FFB467"/>
<stop offset="1" stop-color="#FF905D"/>
</linearGradient>
<linearGradient id="paint6_linear_624_45245" x1="109.484" y1="73.5772" x2="113.474" y2="77.5421" gradientUnits="userSpaceOnUse">
<stop stop-color="#FFB467"/>
<stop offset="1" stop-color="#FF905D"/>
</linearGradient>
</defs>
</svg>
