<svg width="32" height="31" viewBox="0 0 32 31" fill="none" xmlns="http://www.w3.org/2000/svg">
<g clip-path="url(#clip0_687_45781)">
<path d="M27.596 15.8754C27.596 16.0328 27.596 16.2059 27.5803 16.3633C27.5174 18.7083 27.3757 21.1792 26.2426 23.2881C25.3927 24.8934 24.0235 25.8377 22.3238 26.3571C20.1519 27.0338 17.8384 27.144 15.5721 27.0967C13.3372 27.0495 11.0552 26.9551 8.94629 26.1682C6.99476 25.4285 5.75144 24.0278 5.12191 22.0605C4.80715 21.0848 4.64976 20.0775 4.5396 19.0545C4.36648 17.402 4.35074 15.7338 4.39795 14.0655C4.46091 12.4917 4.58681 10.9179 5.01174 9.37554C5.37372 8.06927 5.95603 6.88891 7.01049 5.99183C7.89183 5.2364 8.91481 4.79573 10.0165 4.51244C12.0152 3.97734 14.0927 3.85144 16.1386 3.88291C18.1689 3.91439 20.2463 4.00882 22.2136 4.59113C23.4412 4.95311 24.5271 5.53542 25.3927 6.49545C26.0694 7.23515 26.4944 8.11649 26.7934 9.06078C27.5016 11.2484 27.6433 13.5934 27.596 15.8754ZM11.8264 15.6551C11.8264 17.2132 11.8264 18.7712 11.8264 20.3293C11.8264 20.77 12.031 21.0218 12.4716 21.069C12.692 21.1005 12.9595 21.0533 13.1641 20.9431C15.9026 19.4795 18.641 18.0001 21.3952 16.5207C21.7257 16.3476 21.8831 16.0643 21.8988 15.718C21.9146 15.3561 21.7414 15.0728 21.4109 14.8839C21.0647 14.6951 20.7185 14.4905 20.3565 14.3016C18.7354 13.4045 17.1301 12.5074 15.5091 11.6104C14.7222 11.1697 13.951 10.7448 13.1641 10.3041C12.9123 10.1625 12.6448 10.131 12.3772 10.1939C11.9838 10.2884 11.8264 10.5244 11.8264 11.0438C11.8264 12.5861 11.8264 14.1127 11.8264 15.6551Z" fill="#FF8413"/>
<path d="M11.8281 15.6555C11.8281 14.1289 11.8281 12.5866 11.8281 11.06C11.8281 10.5406 11.9855 10.2888 12.379 10.2101C12.6465 10.1472 12.9141 10.1786 13.1659 10.3203C13.937 10.761 14.724 11.2016 15.5109 11.6266C17.1319 12.5236 18.7372 13.4364 20.3582 14.3335C20.7045 14.5224 21.0507 14.727 21.4127 14.9158C21.7432 15.1047 21.9163 15.388 21.9006 15.75C21.8848 16.0962 21.7274 16.3795 21.3969 16.5526C18.6585 18.0163 15.9201 19.5114 13.1659 20.975C12.9613 21.0852 12.6937 21.1324 12.4734 21.1009C12.0327 21.0537 11.8439 20.7862 11.8281 20.3612C11.8281 18.7717 11.8439 17.2136 11.8281 15.6555Z" fill="white"/>
</g>
<defs>
<clipPath id="clip0_687_45781">
<rect width="31" height="31" fill="white" transform="translate(0.5)"/>
</clipPath>
</defs>
</svg>
