<svg width="32" height="31" viewBox="0 0 32 31" fill="none" xmlns="http://www.w3.org/2000/svg">
<g clip-path="url(#clip0_687_45824)">
<path d="M15.5 11H26.0987C27.6603 11 28.9262 12.1663 28.9262 13.6049V23.6661C28.9262 25.1047 27.6603 26.271 26.0987 26.271H15.5984" fill="#FF8413"/>
<path d="M15.5 11H26.0987C27.6603 11 28.9262 12.1663 28.9262 13.6049V23.6661C28.9262 25.1047 27.6603 26.271 26.0987 26.271H15.5984" stroke="#FF8413" stroke-width="0.848801"/>
<path fill-rule="evenodd" clip-rule="evenodd" d="M20.3738 22.9087L26.1656 19.224C26.3702 19.0938 26.4982 18.8442 26.5 18.5728V18.5671C26.5 18.2975 26.3757 18.0485 26.174 17.9157L20.3822 14.0972C20.1833 13.9659 19.9396 13.9678 19.7419 14.1019C19.5444 14.236 19.5 14.4823 19.5 14.7484V22.2515C19.5 22.5159 19.5426 22.7604 19.7377 22.8954C19.933 23.0299 20.1746 23.0351 20.3738 22.9087Z" fill="white"/>
<path d="M4.5 5.95877C4.5 4.87697 5.37697 4 6.45877 4H11.7945C12.8763 4 13.7533 4.87697 13.7533 5.95877V24.8936C13.7533 25.9754 12.8763 26.8523 11.7945 26.8523H6.45877C5.37697 26.8523 4.5 25.9754 4.5 24.8936V5.95877Z" fill="#FFC793" stroke="#FF8413" stroke-width="0.848801"/>
<path d="M4.5 15.3955H13.7533V24.8943C13.7533 25.9761 12.8763 26.853 11.7945 26.853H6.45877C5.37697 26.853 4.5 25.9761 4.5 24.8943V15.3955Z" fill="#FF8413"/>
<path d="M8.48242 6.6329C8.48242 6.2723 8.77475 5.97998 9.13535 5.97998H11.6893C12.0499 5.97998 12.3423 6.2723 12.3423 6.6329V7.65981C12.3423 8.02041 12.0499 8.31274 11.6893 8.31274H9.13535C8.77475 8.31274 8.48242 8.02041 8.48242 7.65981V6.6329Z" fill="white"/>
<rect x="6.15039" y="17.5815" width="2.33276" height="2.33276" rx="0.652924" fill="white"/>
<rect x="6.15039" y="21.0503" width="2.33276" height="2.33276" rx="0.652924" fill="white"/>
<rect x="9.78711" y="17.5815" width="2.33276" height="2.33276" rx="0.652924" fill="white"/>
<rect x="9.78711" y="21.0503" width="2.33276" height="2.33276" rx="0.652924" fill="white"/>
</g>
<defs>
<clipPath id="clip0_687_45824">
<rect width="31" height="31" fill="white" transform="translate(0.5)"/>
</clipPath>
</defs>
</svg>
