<svg width="304" height="175" viewBox="0 0 304 175" fill="none" xmlns="http://www.w3.org/2000/svg">
<path d="M152 175C235.671 175 303.5 167.613 303.5 158.5C303.5 149.387 235.671 142 152 142C68.3289 142 0.5 149.387 0.5 158.5C0.5 167.613 68.3289 175 152 175Z" fill="url(#paint0_linear_226_45305)"/>
<g clip-path="url(#clip0_226_45305)">
<path d="M222.5 75.9955C222.5 103.782 206.662 127.838 183.584 139.494C182.278 140.156 180.954 140.774 179.604 141.346C177.437 142.277 175.225 143.1 172.951 143.806H172.942C166.324 145.882 159.297 147 152.004 147C141.842 147 132.186 144.835 123.463 140.935L123.117 140.774C116.366 137.723 110.192 133.635 104.773 128.705C90.4807 115.716 81.5 96.9113 81.5 75.9955C81.5 36.7852 113.07 5 152.004 5C190.939 5 222.5 36.7852 222.5 75.9955Z" fill="url(#paint1_linear_226_45305)"/>
<path d="M183.17 22.62H180.98V20.43C180.98 20.19 180.79 20 180.55 20C180.31 20 180.12 20.19 180.12 20.43V22.62H177.93C177.69 22.62 177.5 22.81 177.5 23.05C177.5 23.17 177.55 23.28 177.63 23.36C177.71 23.44 177.82 23.49 177.94 23.49H180.13V25.68C180.13 25.8 180.18 25.91 180.26 25.99C180.34 26.07 180.45 26.12 180.57 26.12C180.81 26.12 181 25.93 181 25.69V23.5H183.19C183.43 23.5 183.62 23.31 183.62 23.07C183.6 22.81 183.41 22.62 183.17 22.62Z" fill="#BDDCFD"/>
<path d="M203.89 78.4329C187.47 94.8529 189.07 100.463 189.87 110.273C190.66 119.873 169.58 121.803 176.74 142.523H172.24C172.24 142.523 142.2 137.113 145.8 121.893C149.4 106.673 172.04 124.503 172.43 113.683C172.83 102.863 157.81 89.4529 163.82 83.4429C169.83 77.4329 173.03 97.2629 182.24 92.0429C191.45 86.8229 176.03 73.2229 178.44 63.6129C180.84 54.0029 187.25 64.8129 199.07 68.8229C209.95 72.5129 203.33 44.1029 212.08 47.2429C213.93 54.4929 214.93 67.3829 203.89 78.4329Z" fill="#BDDCFD"/>
<path d="M215.357 99.62C212.147 109.64 186.917 115.25 196.927 123.06C206.947 130.87 197.937 142.29 197.937 142.29H175.987C168.827 121.57 189.897 119.64 189.117 110.04C188.317 100.22 186.717 94.62 203.137 78.2C214.187 67.15 213.177 54.26 211.337 47C212.087 47.27 212.957 47.78 213.947 48.55C226.567 58.37 210.937 77.79 207.737 82.4C204.537 87.01 218.557 89.61 215.357 99.62Z" fill="#E4ECF4"/>
<path d="M160.49 114.863C158.59 116.643 158.74 120.763 158.86 122.233C158.31 123.233 157.36 125.083 157.03 126.513C156.41 125.173 155.64 123.863 154.65 122.623C153.75 121.493 153.06 120.373 152.52 119.273C152.24 117.883 151.9 116.743 151.24 115.563C150.56 112.263 151.14 109.483 151.68 107.843C153.37 106.983 154.56 106.163 155.87 104.323C157.35 102.253 153.47 98.8228 151.62 101.003C149.93 102.993 150.83 107.343 150.99 108.063C150.54 109.563 150.14 111.753 150.43 114.323C150.28 114.113 150.12 113.903 149.94 113.683C148.14 111.473 143.29 114.653 145.1 117.293C146.61 119.493 150.86 119.943 152.24 120.043C152.76 121.023 153.39 122.013 154.19 123.013C157.16 126.753 158.24 131.193 158.52 134.983C157.87 134.403 156.86 133.943 156.05 133.603C154.86 131.623 153.85 130.323 151.56 128.963C149.11 127.503 145.64 132.143 148.24 134.003C150.39 135.543 154.48 134.553 155.84 134.153C156.83 134.563 158.19 135.193 158.54 135.903C158.55 135.923 158.57 135.933 158.58 135.953C158.76 140.273 157.97 143.543 157.95 143.603C157.91 143.763 158.01 143.923 158.17 143.963C158.19 143.973 158.22 143.973 158.24 143.973C158.37 143.973 158.49 143.883 158.53 143.753C158.56 143.653 160.54 135.483 157.56 127.763C157.56 127.753 157.56 127.743 157.55 127.723C157.26 126.883 158.36 124.423 159.33 122.643C161.52 121.853 163.01 121.113 164.8 119.123C166.7 116.983 162.82 112.673 160.49 114.863Z" fill="#E4ECF4"/>
<path d="M103.47 143.631C103.7 143.981 140.65 143.631 140.65 143.631C140.65 143.631 147.07 135.811 136.26 130.111C130.15 126.881 140.81 120.941 137.48 114.641C134.15 108.341 127.31 116.421 124.44 110.841C121.56 105.261 115.5 92.6605 113.01 100.501C110.51 108.341 122.63 113.211 114.67 119.031C106.71 124.851 96.8498 127.821 106.59 129.961C116.33 132.111 98.2398 135.811 103.47 143.631Z" fill="#BDDCFD"/>
<path d="M96.4472 119.959C96.0966 122.593 98.8608 125.771 99.9108 126.851C100.117 128.008 100.558 130.084 101.217 131.418C99.8649 130.755 98.4054 130.213 96.8243 129.859C95.9457 129.664 95.148 129.424 94.3878 129.152C95.446 127.331 96.0616 125.815 96.1856 123.286C96.3272 120.383 90.4802 119.468 90.043 122.707C89.8115 124.437 90.9231 126.388 92.0086 127.833C91.2454 127.284 90.4735 126.825 89.5691 126.46C86.9006 124.283 85.5717 121.714 84.9415 120.049C85.7344 118.274 86.1353 116.856 85.9961 114.558C85.8383 111.96 80.549 111.745 80.4858 114.664C80.4349 117.331 83.9377 120.205 84.5351 120.668C85.1436 122.145 86.2352 124.143 88.1343 125.995C87.8722 125.929 87.6101 125.864 87.3263 125.804C84.4767 125.214 82.6754 130.854 85.8097 131.79C88.4161 132.564 92.0866 130.179 93.2383 129.369C94.2791 129.813 95.4167 130.186 96.6965 130.466C97.0292 130.536 97.3578 130.625 97.6766 130.713C96.7186 130.603 95.6948 130.612 94.4515 130.79C91.574 131.206 91.8074 137.131 95.0691 136.929C97.6891 136.766 100.221 133.528 101.122 132.257C101.122 132.257 103.076 132.443 107.856 137.16C106.964 137.125 105.873 137.407 105.011 137.664C102.799 136.861 101.152 136.483 98.4528 136.875C95.5753 137.291 95.8088 143.217 99.0705 143.015C101.763 142.846 104.373 139.431 105.197 138.235C106.256 137.916 107.725 137.541 108.461 137.88C108.48 137.884 108.5 137.888 108.519 137.893C111.441 141.196 112.921 144.308 112.95 144.365C113.021 144.513 113.201 144.581 113.349 144.51C113.373 144.495 113.394 144.489 113.408 144.472C113.519 144.383 113.55 144.236 113.494 144.112C113.452 144.021 109.764 136.254 102.423 132.05C102.415 132.038 102.407 132.027 102.398 132.024C101.628 131.556 100.914 128.881 100.534 126.849C101.76 124.818 102.464 123.27 102.602 120.53C102.741 117.636 96.8844 116.719 96.4472 119.959Z" fill="#E4ECF4"/>
<path d="M202.24 112.019C202.726 115.667 198.898 120.067 197.445 121.562C197.16 123.164 196.548 126.038 195.636 127.886C197.508 126.968 199.529 126.217 201.718 125.727C202.935 125.457 204.039 125.125 205.092 124.748C203.627 122.226 202.774 120.128 202.602 116.626C202.407 112.607 210.502 111.34 211.108 115.825C211.428 118.22 209.889 120.921 208.386 122.922C209.443 122.161 210.512 121.526 211.764 121.021C215.459 118.007 217.299 114.45 218.171 112.144C217.073 109.687 216.518 107.723 216.711 104.542C216.929 100.944 224.253 100.646 224.341 104.689C224.411 108.381 219.561 112.36 218.734 113.002C217.891 115.047 216.38 117.813 213.75 120.377C214.113 120.286 214.476 120.195 214.869 120.113C218.815 119.295 221.309 127.104 216.969 128.401C213.36 129.472 208.278 126.171 206.683 125.049C205.242 125.664 203.667 126.18 201.895 126.567C201.434 126.664 200.98 126.789 200.538 126.91C201.864 126.758 203.282 126.77 205.004 127.016C208.988 127.592 208.665 135.796 204.148 135.516C200.521 135.29 197.015 130.807 195.767 129.047C195.767 129.047 193.062 129.305 186.443 135.836C187.679 135.788 189.19 136.178 190.383 136.535C193.445 135.422 195.727 134.899 199.463 135.442C203.447 136.018 203.124 144.222 198.608 143.943C194.88 143.709 191.266 138.98 190.125 137.325C188.659 136.884 186.625 136.364 185.606 136.833C185.579 136.839 185.552 136.845 185.525 136.851C181.48 141.424 179.43 145.733 179.39 145.812C179.292 146.017 179.043 146.112 178.838 146.014C178.805 145.992 178.775 145.984 178.756 145.96C178.603 145.837 178.56 145.633 178.637 145.462C178.695 145.336 183.802 134.582 193.966 128.761C193.977 128.745 193.988 128.728 194.001 128.726C195.067 128.077 196.056 124.373 196.581 121.56C194.885 118.748 193.91 116.604 193.719 112.81C193.526 108.804 201.635 107.534 202.24 112.019Z" fill="#D3E7FC"/>
<path d="M153.025 58.0061L127.54 63.5082L146.524 37.5831L144.366 35.7446C144.366 35.7446 114.351 51.5848 115.004 70.0628C115.656 88.5407 143.367 78.2959 143.367 78.2959C143.367 78.2959 162.511 67.3717 153.025 58.0061Z" fill="#F9CBCB"/>
<path d="M160.233 56.8606C160.233 56.8606 138.851 58.4726 135.334 60.764C131.816 63.0688 129.352 79.5218 132.682 80.854C136.013 82.1729 153.279 79.8948 153.279 79.8948L160.233 56.8606Z" fill="url(#paint2_linear_226_45305)"/>
<path d="M144.06 36.4912L144.366 35.7585C144.366 35.7585 145.405 32.2947 147.963 31.895C150.521 31.4953 150.468 32.8675 150.468 32.8675C150.468 32.8675 146.764 35.6652 147.87 35.5986C148.096 35.5853 148.336 35.7052 148.336 35.7052C148.336 35.7052 148.11 37.0374 146.511 37.5836C146.524 37.5836 144.366 38.2897 144.06 36.4912Z" fill="#F9CBCB"/>
<path d="M149.575 29.9096C149.575 29.9096 149.668 25.4866 148.483 25.5665C147.297 25.6464 149.575 29.9096 149.575 29.9096Z" fill="white"/>
<path d="M146.95 30.8958C146.95 30.8958 143.7 27.885 142.98 28.8309C142.261 29.7767 146.95 30.8958 146.95 30.8958Z" fill="white"/>
<path d="M148.096 30.363C148.096 30.363 146.231 24.7809 144.779 25.4204C143.327 26.0466 148.096 30.363 148.096 30.363Z" fill="white"/>
<path d="M172.596 41.0735C172.942 40.7405 173.262 40.3675 173.529 39.9545C175.46 36.9969 174.634 33.0269 171.677 31.0952C170.518 30.3358 169.212 30.0161 167.933 30.056C167.587 29.1102 166.961 28.2575 166.041 27.658C164.842 26.872 163.417 26.6988 162.138 27.0452C162.058 26.9786 161.991 26.912 161.911 26.8587C160.752 26.0993 159.207 26.4324 158.448 27.5781C158.288 27.8179 158.195 28.0843 158.128 28.3508C157.955 28.2042 157.808 28.0577 157.608 27.9378C154.891 26.1526 151.227 26.9253 149.455 29.643C147.67 32.3608 148.443 36.0244 151.16 37.7963C153.878 39.5815 157.542 38.8088 159.314 36.091C159.54 35.7446 159.713 35.3983 159.86 35.0386C160.113 35.3183 160.406 35.5715 160.726 35.7846C161.059 35.9978 161.405 36.1576 161.765 36.2909C161.738 37.3033 161.951 38.3025 162.391 39.2084C162.045 39.5415 161.725 39.9145 161.459 40.3275C159.527 43.285 160.353 47.2551 163.31 49.1868C166.268 51.1185 170.238 50.2925 172.17 47.335C173.462 45.4033 173.528 43.0319 172.596 41.0735Z" fill="#1D2149"/>
<path d="M182.977 129.219C178.41 141.888 171.085 142.18 156.636 145C148.88 146.505 141.21 146.359 135.307 144.226C118.373 138.147 136.14 68.1964 154.74 59.3704C154.74 59.3704 167.882 51.5527 172.823 56.8278C178.424 62.819 185.491 122.249 182.977 129.219Z" fill="url(#paint3_linear_226_45305)"/>
<path opacity="0.1" d="M181.775 122.593C177.539 134.143 170.744 134.409 157.342 136.981C184.32 120.608 178.138 77.6433 178.138 77.6433C178.138 77.6433 184.106 116.238 181.775 122.593Z" fill="#000107"/>
<path d="M159.394 47.4283L160.459 58.5124C160.459 58.5124 162.591 61.2435 165.402 59.2052C168.213 57.1536 168.866 55.1286 168.866 55.1286L163.87 45.7764L159.394 47.4283Z" fill="#F9CBCB"/>
<path opacity="0.18" d="M160.033 52.5437C160.713 53.1832 162.151 53.01 163.124 52.8635C164.39 52.6636 167.587 53.1565 167.64 53.1299L163.883 45.7627L159.407 47.428L159.887 52.4505C159.927 52.4904 159.98 52.5038 160.033 52.5437Z" fill="#000107"/>
<path d="M167.547 40.2342C167.547 40.2342 167.534 40.9003 167.467 41.9128C167.867 41.9261 168.346 42.0727 168.812 42.5389C169.692 43.4315 167.986 45.4432 167.014 45.723C166.441 49.1201 163.963 52.091 161.432 52.1842C158.315 52.3041 156.423 51.0918 155.557 46.9886C155.517 46.8154 154.198 46.0027 154.171 45.8162C154.078 45.2833 154.984 44.1909 154.944 43.6047C154.811 42.0727 154.837 40.3674 155.024 38.5289C155.024 38.5289 159.647 32.2808 167.547 40.2342Z" fill="#F9CBCB"/>
<path d="M157.382 47.7344C157.968 47.8809 158.235 48.547 158.248 48.587C158.301 48.7202 158.235 48.8667 158.101 48.92C157.968 48.9733 157.822 48.9067 157.768 48.7735C157.715 48.6403 157.515 48.3072 157.235 48.2273C157.036 48.1873 156.796 48.2939 156.516 48.547C156.409 48.6403 156.25 48.6403 156.156 48.5337C156.063 48.4271 156.063 48.2673 156.17 48.174C156.569 47.7876 156.969 47.6411 157.355 47.721C157.355 47.7344 157.369 47.7344 157.382 47.7344Z" fill="#1D2149"/>
<path d="M155.837 40.7408C155.837 40.7408 158.448 41.7266 158.821 41.5801C159.194 41.4335 158.621 40.5676 157.369 40.3544C156.116 40.1546 155.557 40.5942 155.837 40.7408Z" fill="#1D2149"/>
<path d="M158.221 42.6991C158.221 43.1521 157.915 43.5118 157.528 43.5118C157.142 43.5118 156.836 43.1521 156.836 42.6991C156.836 42.2462 157.142 41.8865 157.528 41.8865C157.635 41.8865 157.742 41.9131 157.822 41.9664C157.688 42.0064 157.582 42.1529 157.582 42.3261C157.582 42.5259 157.728 42.6991 157.901 42.6991C158.035 42.6991 158.141 42.6059 158.181 42.486C158.221 42.5526 158.221 42.6192 158.221 42.6991Z" fill="#1D2149"/>
<path opacity="0.18" d="M167.467 41.9127C167.467 41.9127 161.858 41.4864 160.939 39.6879C160.02 37.8893 161.085 38.6221 161.085 38.6221C161.085 38.6221 167.067 39.4081 167.547 40.2341C168.013 41.06 167.467 41.9127 167.467 41.9127Z" fill="#000107"/>
<path opacity="0.18" d="M163.284 38.2358C163.284 38.2358 161.392 37.6363 160.26 38.036C159.127 38.4356 156.17 40.6471 155.024 38.5289C153.878 36.4106 160.766 35.6646 162.911 36.2241C165.042 36.7837 163.284 38.2358 163.284 38.2358Z" fill="#000107"/>
<path d="M163.377 32.5336C159.74 31.1747 153.812 38.2222 153.812 38.2222C153.812 38.2222 157.515 38.7418 159.047 37.8492C160.579 36.9566 163.35 37.8492 163.35 37.8492C162.271 38.7817 160.646 38.3687 160.646 38.3687C162.218 40.487 167.547 40.2205 167.547 40.2205C167.547 40.2205 167.014 33.8925 163.377 32.5336Z" fill="#1D2149"/>
<path d="M167.547 40.2336C167.547 40.2336 165.588 41.5525 164.842 43.7108C164.842 43.7108 165.775 41.9789 167.707 41.9389C169.612 41.8856 167.547 40.2336 167.547 40.2336Z" fill="#1D2149"/>
<path opacity="0.18" d="M167.453 42.5515C167.453 42.5515 168.359 42.7513 168.426 43.2043C168.492 43.6573 168.199 44.7364 167.4 44.9362C167.4 44.9362 168.492 43.9237 168.159 43.5906C167.813 43.2709 166.801 42.7114 167.453 42.5515Z" fill="#000107"/>
<path d="M204.383 132.171L143.78 102.343C137.092 99.0522 128.992 101.81 125.688 108.498C122.398 115.185 125.155 123.285 131.843 126.589L192.446 156.418C199.134 159.708 207.234 156.951 210.538 150.263C213.828 143.562 211.071 135.462 204.383 132.171Z" fill="url(#paint4_linear_226_45305)"/>
<path d="M147.497 117.824C146.87 119.09 145.698 119.343 144.712 118.996C144.353 118.863 144.086 118.743 143.686 118.543L142.94 118.17L141.835 120.435L140.156 119.609L143.327 113.161L145.751 114.36C146.151 114.56 146.404 114.693 146.737 114.906C147.603 115.479 148.123 116.558 147.497 117.824ZM145.738 116.958C145.978 116.478 145.845 116.092 145.432 115.852C145.312 115.786 145.165 115.706 144.992 115.626L144.339 115.306L143.567 116.878L144.219 117.198C144.392 117.291 144.552 117.358 144.672 117.411C145.125 117.584 145.498 117.451 145.738 116.958Z" fill="white"/>
<path d="M147.99 121.407L146.631 122.806L144.845 121.927L150.348 116.625L152.399 117.637L151.547 125.231L149.721 124.325L150.001 122.38L147.99 121.407ZM149.055 120.302L150.254 120.888L150.627 118.61L149.055 120.302Z" fill="white"/>
<path d="M159.047 123.379L157.368 122.553C157.555 121.98 157.448 121.487 156.902 121.221C156.516 121.034 156.169 121.087 155.969 121.487C155.77 121.9 155.943 122.3 156.889 123.072C158.141 124.111 158.367 125.097 157.888 126.096C157.248 127.389 155.703 127.429 154.397 126.789C152.759 125.99 151.986 124.791 152.599 123.285L154.278 124.111C154.091 124.778 154.451 125.284 154.957 125.524C155.423 125.75 155.903 125.683 156.076 125.337C156.236 125.004 156.143 124.591 155.45 124.005C154.158 122.926 153.532 122.033 154.158 120.754C154.77 119.515 156.276 119.382 157.555 120.008C159.247 120.847 159.5 122.126 159.047 123.379Z" fill="white"/>
<path d="M164.895 126.256L163.217 125.43C163.403 124.858 163.297 124.365 162.75 124.098C162.364 123.912 162.018 123.965 161.818 124.365C161.618 124.778 161.791 125.177 162.737 125.95C163.989 126.989 164.216 127.975 163.736 128.974C163.097 130.266 161.551 130.306 160.246 129.667C158.607 128.868 157.835 127.669 158.447 126.163L160.126 126.989C159.939 127.655 160.299 128.161 160.805 128.401C161.272 128.628 161.751 128.561 161.924 128.215C162.084 127.882 161.991 127.469 161.298 126.883C160.006 125.803 159.38 124.911 160.006 123.632C160.619 122.393 162.124 122.26 163.403 122.886C165.082 123.725 165.335 124.991 164.895 126.256Z" fill="white"/>
<path d="M170.957 134.783L168.719 133.677L170.371 128.268L167.04 132.851L164.789 131.745L166.414 124.538L168.199 125.417L166.534 130.973L169.865 126.35L172.276 127.536L170.597 132.998L174.074 128.308L175.793 129.161L170.957 134.783Z" fill="white"/>
<path d="M181.148 135.795C180.136 137.86 178.204 138.513 176.206 137.527C174.194 136.541 173.541 134.61 174.554 132.558C175.58 130.48 177.498 129.84 179.496 130.826C181.508 131.812 182.174 133.717 181.148 135.795ZM179.43 134.943C180.109 133.571 179.87 132.518 178.897 132.052C177.924 131.572 176.952 132.025 176.273 133.397C175.606 134.756 175.833 135.822 176.805 136.288C177.778 136.768 178.764 136.315 179.43 134.943Z" fill="white"/>
<path d="M186.078 142.217L184.253 141.311C184.333 140.778 184.412 140.365 184.586 139.872C184.852 139.126 184.772 138.567 184.359 138.327C184.173 138.22 184.013 138.154 183.826 138.06L183.453 137.874L182.254 140.325L180.576 139.499L183.746 133.051L186.304 134.317C186.704 134.517 186.957 134.65 187.29 134.863C188.169 135.436 188.756 136.289 188.196 137.434C187.796 138.247 187.09 138.567 186.104 138.407C186.664 138.98 186.651 139.592 186.371 140.418C186.091 141.191 186.011 141.711 186.078 142.217ZM184.666 136.981C184.839 137.075 184.999 137.141 185.119 137.194C185.572 137.368 186.038 137.408 186.304 136.875C186.571 136.329 186.304 136.009 185.891 135.769C185.771 135.702 185.625 135.622 185.452 135.543L184.799 135.223L184.066 136.702L184.666 136.981Z" fill="white"/>
<path d="M194.551 142.284C193.552 144.295 191.793 144.775 190.221 144.215C189.875 144.095 189.728 144.015 189.382 143.842L186.944 142.643L190.115 136.195L192.553 137.394C192.899 137.568 193.045 137.634 193.352 137.834C194.764 138.74 195.55 140.272 194.551 142.284ZM192.779 141.444C193.339 140.299 193.072 139.393 192.259 138.9C192.06 138.78 191.9 138.7 191.66 138.58L191.14 138.327L189.262 142.15L189.781 142.403C190.021 142.523 190.168 142.59 190.394 142.683C191.274 143.043 192.219 142.603 192.779 141.444Z" fill="white"/>
<path d="M164.829 82.6794L171.53 114.2L163.417 137.82L168 139.525C168 139.525 179.351 122.153 182.042 115.679C184.733 109.204 183.201 73.8201 183.201 73.8201L164.829 82.6794Z" fill="#F9CBCB"/>
<path d="M165.216 90.6193C165.216 90.6193 157.542 73.6734 163.324 61.7367C165.482 57.2737 167.893 53.8099 171.863 55.5418C174.275 56.5943 187.49 76.9374 183.281 81.6934C174.195 81.0939 165.216 90.6193 165.216 90.6193Z" fill="url(#paint5_linear_226_45305)"/>
<path d="M163.417 137.807L162.977 138.993C162.977 138.993 159.74 139.792 160.166 140.645C160.593 141.497 162.618 140.911 162.618 140.911C162.618 140.911 160.579 143.162 163.417 145.787C164.469 146.759 165.549 147.572 167.054 144.215C168.546 140.871 168 139.499 168 139.499L163.417 137.807Z" fill="#F9CBCB"/>
<path d="M193.419 29.0174V28.1648C193.419 25.1406 194.404 22.4495 198.628 18.6926C201.572 16.0548 202.131 14.0299 202.131 11.8583C202.131 9.34042 200.573 6.59603 196.736 6.59603C192.912 6.59603 191.181 9.02068 190.674 12.5244H185.425C185.638 8.96739 187.996 2.25298 196.842 2.27962C204.942 2.30626 207.58 7.835 207.58 11.9782C207.58 15.6951 206.381 18.1464 202.411 21.7434C199.773 24.1548 198.934 26.0066 198.934 28.5245V29.0041H193.419V29.0174ZM193.419 40.4745V32.721H198.907V40.4745H193.419Z" fill="#BDDCFD"/>
<path d="M120.453 31.6153V31.0424C120.453 29.0307 121.106 27.2589 123.903 24.7676C125.862 23.0224 126.221 21.6769 126.221 20.238C126.221 18.5728 125.196 16.7476 122.638 16.7476C120.106 16.7476 118.961 18.3463 118.614 20.6777H115.137C115.284 18.3196 116.842 13.87 122.704 13.8833C128.073 13.8967 129.818 17.5736 129.818 20.318C129.818 22.7826 129.019 24.4079 126.395 26.7926C124.649 28.3913 124.09 29.6169 124.09 31.2955V31.6153H120.453ZM120.453 39.2089V34.0666H124.103V39.2089H120.453Z" fill="#BDDCFD"/>
<path d="M95.6174 17.4311V17.098C95.6174 15.9257 96.0038 14.8732 97.6424 13.4078C98.7881 12.3819 99.0013 11.5959 99.0013 10.7433C99.0013 9.75746 98.4018 8.69168 96.8963 8.69168C95.4043 8.69168 94.7381 9.63756 94.5383 10.9964H92.5C92.5799 9.61092 93.4992 6.99976 96.9496 6.99976C100.107 7.01308 101.133 9.17128 101.133 10.7833C101.133 12.2354 100.667 13.1813 99.1212 14.5934C98.0954 15.526 97.7623 16.2587 97.7623 17.2313V17.4178H95.6174V17.4311ZM95.6174 21.894V18.8699H97.7623V21.894H95.6174Z" fill="#BDDCFD"/>
<path d="M223.261 79.0961H220.343V76.1786C220.343 75.8588 220.09 75.6057 219.77 75.6057C219.45 75.6057 219.197 75.8588 219.197 76.1786V79.0961H216.28C215.96 79.0961 215.707 79.3493 215.707 79.669C215.707 79.8289 215.773 79.9754 215.88 80.082C215.987 80.1886 216.133 80.2552 216.293 80.2552H219.211V83.1728C219.211 83.3326 219.277 83.4792 219.384 83.5857C219.49 83.6923 219.637 83.7589 219.797 83.7589C220.116 83.7589 220.37 83.5058 220.37 83.1861V80.2685H223.287C223.607 80.2685 223.86 80.0154 223.86 79.6956C223.847 79.3626 223.58 79.0961 223.261 79.0961Z" fill="#BDDCFD"/>
<path d="M90.1228 89.2459C87.5783 89.2459 85.5 87.1676 85.5 84.6231C85.5 82.0785 87.5783 80.0002 90.1228 80.0002C92.6674 80.0002 94.7456 82.0785 94.7456 84.6231C94.7456 87.1676 92.6674 89.2459 90.1228 89.2459ZM90.1228 81.7854C88.5508 81.7854 87.2852 83.0644 87.2852 84.6231C87.2852 86.1951 88.5641 87.4607 90.1228 87.4607C91.6949 87.4607 92.9605 86.1818 92.9605 84.6231C92.9605 83.051 91.6949 81.7854 90.1228 81.7854Z" fill="#BDDCFD"/>
</g>
<defs>
<linearGradient id="paint0_linear_226_45305" x1="151.691" y1="126.882" x2="151.691" y2="164.095" gradientUnits="userSpaceOnUse">
<stop stop-color="#E8E8E8"/>
<stop offset="1" stop-color="#E8E8E8" stop-opacity="0"/>
</linearGradient>
<linearGradient id="paint1_linear_226_45305" x1="142.888" y1="140.5" x2="109.02" y2="21.411" gradientUnits="userSpaceOnUse">
<stop stop-color="#EFF3F9"/>
<stop offset="1" stop-color="#D1E3FC"/>
</linearGradient>
<linearGradient id="paint2_linear_226_45305" x1="142.628" y1="81.405" x2="152.104" y2="52.2569" gradientUnits="userSpaceOnUse">
<stop offset="0.1885" stop-color="#FFBE69"/>
<stop offset="1" stop-color="#FF8F5C"/>
</linearGradient>
<linearGradient id="paint3_linear_226_45305" x1="150.254" y1="146.522" x2="204.888" y2="61.4176" gradientUnits="userSpaceOnUse">
<stop stop-color="#FF8F5C"/>
<stop offset="0.78126" stop-color="#FFB466"/>
<stop offset="1" stop-color="#FFBE69"/>
</linearGradient>
<linearGradient id="paint4_linear_226_45305" x1="125.695" y1="108.499" x2="210.535" y2="150.257" gradientUnits="userSpaceOnUse">
<stop stop-color="#BDDCFD"/>
<stop offset="1" stop-color="#5F98ED"/>
</linearGradient>
<linearGradient id="paint5_linear_226_45305" x1="170.239" y1="90.8233" x2="190.959" y2="56.3534" gradientUnits="userSpaceOnUse">
<stop offset="0.266928" stop-color="#FF8F5C"/>
<stop offset="0.776015" stop-color="#FFBE69"/>
</linearGradient>
<clipPath id="clip0_226_45305">
<rect width="147" height="159" fill="white" transform="translate(78.5)"/>
</clipPath>
</defs>
</svg>
