<svg width="304" height="175" viewBox="0 0 304 175" fill="none" xmlns="http://www.w3.org/2000/svg">
<path d="M152 175C235.671 175 303.5 167.613 303.5 158.5C303.5 149.387 235.671 142 152 142C68.3289 142 0.5 149.387 0.5 158.5C0.5 167.613 68.3289 175 152 175Z" fill="url(#paint0_linear_600_46289)"/>
<g clip-path="url(#clip0_600_46289)">
<path d="M222.5 74.9955C222.5 102.782 206.662 126.838 183.584 138.494C182.278 139.156 180.954 139.774 179.604 140.346C177.437 141.277 175.225 142.1 172.951 142.806H172.942C166.324 144.882 159.297 146 152.004 146C141.842 146 132.186 143.835 123.463 139.935L123.117 139.774C116.366 136.723 110.192 132.635 104.773 127.705C90.4807 114.716 81.5 95.9113 81.5 74.9955C81.5 35.7852 113.07 4 152.004 4C190.939 4 222.5 35.7852 222.5 74.9955Z" fill="url(#paint1_linear_600_46289)"/>
<path opacity="0.5" d="M131.321 41.0401C131.247 41.0215 131.2 41.0029 131.173 40.9936C126.894 39.7089 124.069 36.0411 122.986 30.4091C122.18 26.2293 122.615 22.4777 122.634 22.3194L122.699 21.7981L123.217 21.8074C123.291 21.8074 123.356 21.8074 123.43 21.8074C127.163 21.8074 130.145 19.2754 130.978 18.5027L130.997 18.4841C131.006 18.4841 131.034 18.4561 131.08 18.4003L131.478 18L131.876 18.4003C131.923 18.4468 131.969 18.4841 131.969 18.4841C132.802 19.266 135.794 21.7981 139.526 21.7981C139.6 21.7981 139.665 21.7981 139.739 21.7981L140.258 21.7888L140.322 22.3101C140.341 22.4684 140.767 26.22 139.971 30.3998C138.887 36.0318 136.062 39.6903 131.793 40.9843C131.747 41.0029 131.7 41.0122 131.626 41.0308L131.487 41.068L131.321 41.0401Z" fill="#E1EBF4"/>
<path d="M132.247 39.1969C132.024 39.2807 131.793 39.3645 131.561 39.4296C131.561 39.4296 131.543 39.439 131.46 39.4576C131.385 39.439 131.358 39.4296 131.358 39.4296C122.356 36.73 123.977 23.0735 123.977 23.0735C127.644 23.1666 130.58 20.6811 131.358 19.9456C131.358 19.9456 131.395 19.9084 131.46 19.8525C131.46 19.8525 131.46 19.8618 131.469 19.8618C131.524 19.9084 131.561 19.9456 131.561 19.9456C132.339 20.6717 135.275 23.1666 138.952 23.0735C138.952 23.0735 140.48 36.0318 132.247 39.1969Z" fill="#93CAFF"/>
<path d="M120.131 109.24H119.483C119.501 108.607 119.427 107.452 118.77 106.698C118.362 106.233 117.816 106 117.14 106C116.389 106 115.806 106.251 115.389 106.745C114.759 107.499 114.713 108.607 114.75 109.23H114.102C113.769 109.23 113.5 109.5 113.5 109.835V115.933C113.5 116.268 113.769 116.538 114.102 116.538H120.131C120.464 116.538 120.733 116.268 120.733 115.933V109.835C120.742 109.51 120.474 109.24 120.131 109.24ZM116 107.266C116.26 106.95 116.639 106.801 117.149 106.801C117.593 106.801 117.936 106.94 118.186 107.229C118.677 107.787 118.714 108.737 118.705 109.249H115.547C115.51 108.69 115.556 107.797 116 107.266Z" fill="#93CAFF"/>
<path d="M183.17 22.62H180.98V20.43C180.98 20.19 180.79 20 180.55 20C180.31 20 180.12 20.19 180.12 20.43V22.62H177.93C177.69 22.62 177.5 22.81 177.5 23.05C177.5 23.17 177.55 23.28 177.63 23.36C177.71 23.44 177.82 23.49 177.94 23.49H180.13V25.68C180.13 25.8 180.18 25.91 180.26 25.99C180.34 26.07 180.45 26.12 180.57 26.12C180.81 26.12 181 25.93 181 25.69V23.5H183.19C183.43 23.5 183.62 23.31 183.62 23.07C183.6 22.81 183.41 22.62 183.17 22.62Z" fill="#BDDCFD"/>
<path d="M216.17 72.62H213.98V70.43C213.98 70.19 213.79 70 213.55 70C213.31 70 213.12 70.19 213.12 70.43V72.62H210.93C210.69 72.62 210.5 72.81 210.5 73.05C210.5 73.17 210.55 73.28 210.63 73.36C210.71 73.44 210.82 73.49 210.94 73.49H213.13V75.68C213.13 75.8 213.18 75.91 213.26 75.99C213.34 76.07 213.45 76.12 213.57 76.12C213.81 76.12 214 75.93 214 75.69V73.5H216.19C216.43 73.5 216.62 73.31 216.62 73.07C216.6 72.81 216.41 72.62 216.17 72.62Z" fill="#BDDCFD"/>
<path d="M101.17 105.62H98.98V103.43C98.98 103.19 98.79 103 98.55 103C98.31 103 98.12 103.19 98.12 103.43V105.62H95.93C95.69 105.62 95.5 105.81 95.5 106.05C95.5 106.17 95.55 106.28 95.63 106.36C95.71 106.44 95.82 106.49 95.94 106.49H98.13V108.68C98.13 108.8 98.18 108.91 98.26 108.99C98.34 109.07 98.45 109.12 98.57 109.12C98.81 109.12 99 108.93 99 108.69V106.5H101.19C101.43 106.5 101.62 106.31 101.62 106.07C101.6 105.81 101.41 105.62 101.17 105.62Z" fill="#BDDCFD"/>
<path d="M189.89 79.4329C173.47 95.8529 175.07 101.463 175.87 111.273C176.66 120.873 155.58 122.803 162.74 143.523H158.24C158.24 143.523 128.2 138.113 131.8 122.893C135.4 107.673 158.04 125.503 158.43 114.683C158.83 103.863 143.81 90.4529 149.82 84.4429C155.83 78.4329 159.03 98.2629 168.24 93.0429C177.45 87.8229 162.03 74.2229 164.44 64.6129C166.84 55.0029 173.25 65.8129 185.07 69.8229C195.95 73.5129 189.33 45.1029 198.08 48.2429C199.93 55.4929 200.93 68.3829 189.89 79.4329Z" fill="#BDDCFD"/>
<path d="M202.11 100.853C198.9 110.873 173.67 116.483 183.68 124.293C193.7 132.103 184.69 143.523 184.69 143.523H162.74C155.58 122.803 176.65 120.873 175.87 111.273C175.07 101.453 173.47 95.8529 189.89 79.4329C200.94 68.3829 199.93 55.4929 198.09 48.2329C198.84 48.5029 199.71 49.0129 200.7 49.7829C213.32 59.6029 197.69 79.0229 194.49 83.6329C191.29 88.2429 205.31 90.8429 202.11 100.853Z" fill="#E4ECF4"/>
<path d="M160.49 114.863C158.59 116.643 158.74 120.763 158.86 122.233C158.31 123.233 157.36 125.083 157.03 126.513C156.41 125.173 155.64 123.863 154.65 122.623C153.75 121.493 153.06 120.373 152.52 119.273C152.24 117.883 151.9 116.743 151.24 115.563C150.56 112.263 151.14 109.483 151.68 107.843C153.37 106.983 154.56 106.163 155.87 104.323C157.35 102.253 153.47 98.8231 151.62 101.003C149.93 102.993 150.83 107.343 150.99 108.063C150.54 109.563 150.14 111.753 150.43 114.323C150.28 114.113 150.12 113.903 149.94 113.683C148.14 111.473 143.29 114.653 145.1 117.293C146.61 119.493 150.86 119.943 152.24 120.043C152.76 121.023 153.39 122.013 154.19 123.013C157.16 126.753 158.24 131.193 158.52 134.983C157.87 134.403 156.86 133.943 156.05 133.603C154.86 131.623 153.85 130.323 151.56 128.963C149.11 127.503 145.64 132.143 148.24 134.003C150.39 135.543 154.48 134.553 155.84 134.153C156.83 134.563 158.19 135.193 158.54 135.903C158.55 135.923 158.57 135.933 158.58 135.953C158.76 140.273 157.97 143.543 157.95 143.603C157.91 143.763 158.01 143.923 158.17 143.963C158.19 143.973 158.22 143.973 158.24 143.973C158.37 143.973 158.49 143.883 158.53 143.753C158.56 143.653 160.54 135.483 157.56 127.763C157.56 127.753 157.56 127.743 157.55 127.723C157.26 126.883 158.36 124.423 159.33 122.643C161.52 121.853 163.01 121.113 164.8 119.123C166.7 116.983 162.82 112.673 160.49 114.863Z" fill="#E4ECF4"/>
<path d="M168.589 143.373C168.819 143.723 205.769 143.373 205.769 143.373C205.769 143.373 212.189 135.553 201.379 129.853C195.269 126.623 205.929 120.683 202.599 114.383C199.269 108.083 192.429 116.163 189.559 110.583C186.679 105.003 180.619 92.4027 178.129 100.243C175.629 108.083 187.749 112.953 179.789 118.773C171.829 124.593 161.969 127.563 171.709 129.703C181.449 131.853 163.359 135.553 168.589 143.373Z" fill="#BDDCFD"/>
<path d="M216.299 121.603C213.649 121.803 211.109 125.163 210.269 126.413C209.179 126.853 207.239 127.713 206.069 128.633C206.439 127.173 206.669 125.633 206.689 124.013C206.699 123.113 206.769 122.283 206.879 121.483C208.879 122.143 210.489 122.433 212.989 122.033C215.859 121.573 215.549 115.663 212.289 115.903C210.549 116.033 208.869 117.523 207.679 118.883C208.059 118.023 208.349 117.173 208.519 116.213C210.099 113.153 212.339 111.323 213.839 110.363C215.739 110.773 217.209 110.873 219.429 110.263C221.939 109.573 221.059 104.353 218.189 104.893C215.569 105.393 213.479 109.413 213.149 110.093C211.829 110.993 210.099 112.473 208.679 114.713C208.689 114.443 208.699 114.173 208.699 113.883C208.689 110.973 202.799 110.373 202.529 113.633C202.309 116.343 205.399 119.443 206.429 120.403C206.209 121.513 206.079 122.703 206.069 124.013C206.069 124.353 206.049 124.693 206.029 125.023C205.939 124.063 205.719 123.063 205.289 121.883C204.289 119.153 198.539 120.603 199.409 123.753C200.109 126.283 203.799 128.093 205.229 128.713C205.229 128.713 205.449 130.663 201.819 136.313C201.669 135.433 201.169 134.423 200.739 133.633C201.069 131.303 201.099 129.613 200.159 127.053C199.159 124.323 193.409 125.773 194.279 128.923C194.999 131.523 198.879 133.373 200.219 133.933C200.749 134.903 201.419 136.263 201.239 137.053C201.239 137.073 201.239 137.093 201.239 137.113C198.609 140.653 195.869 142.743 195.819 142.783C195.689 142.883 195.659 143.073 195.759 143.203C195.779 143.223 195.789 143.243 195.809 143.253C195.919 143.343 196.069 143.343 196.179 143.263C196.259 143.203 203.099 137.993 205.699 129.943C205.709 129.933 205.719 129.923 205.719 129.913C206.019 129.063 208.489 127.813 210.399 127.023C212.639 127.803 214.299 128.173 217.009 127.743C219.869 127.283 219.559 121.363 216.299 121.603Z" fill="#E4ECF4"/>
<path d="M214.113 14.7421L99.7821 14.8786C97.6581 14.8857 95.3824 17.2914 94.6873 20.258L83.9964 65.8021C83.3013 68.7688 84.386 71.4162 86.4443 71.71L197.005 87.6357C200.432 88.1332 203.985 85.3821 204.887 81.4893L218.894 21.7843C219.818 17.8896 217.646 14.7422 214.113 14.7421Z" fill="url(#paint2_linear_600_46289)"/>
<path opacity="0.55" d="M100.396 24.3938C108.197 24.2076 115.964 23.479 124.764 19.8804C126.763 19.0657 128.782 18.0676 130.824 16.9426L98.8545 16.8309C97.5363 16.8274 96.116 18.3209 95.6801 20.1751L94.6657 24.4864C96.5612 24.4643 98.468 24.4413 100.396 24.3938Z" fill="white"/>
<path opacity="0.18" d="M193.905 57.7523C176.742 69.2189 157.501 73.9059 141.439 76.9411C140.667 77.0852 139.895 77.2179 139.133 77.3497L196.404 85.345C199.451 85.7721 202.608 83.3154 203.421 79.8504L212.711 40.2518C207.429 47.0557 200.986 53.025 193.905 57.7523Z" fill="#55358D"/>
<path d="M108.297 36.2766C108.551 36.0621 108.919 35.9746 109.374 35.982C110.263 36.0213 111.241 36.4395 112.298 37.26L114.282 33.5381C113.048 32.6301 111.748 32.1707 110.381 32.1258C108.844 32.0839 107.539 32.5111 106.465 33.3961C105.392 34.2811 104.656 35.5356 104.28 37.1576C104.08 38.0264 103.996 38.7834 104.049 39.4265C104.103 40.0696 104.276 40.6459 104.581 41.1658C104.885 41.6744 105.396 42.2224 106.114 42.7873C106.916 43.4133 107.394 43.8279 107.57 44.029C107.746 44.2302 107.853 44.4258 107.914 44.6138C107.964 44.8028 107.971 45.0181 107.911 45.2616C107.819 45.6556 107.629 45.9669 107.319 46.1973C107.02 46.4268 106.608 46.5294 106.083 46.4938C105.477 46.4535 104.85 46.29 104.199 45.9809C103.549 45.6717 102.947 45.2675 102.404 44.7561L101.408 49.0091C101.934 49.465 102.462 49.7958 103.002 50.0007C103.541 50.2055 104.234 50.3408 105.103 50.4045C106.143 50.4766 107.106 50.3053 107.991 49.8904C108.887 49.4633 109.641 48.8322 110.264 47.9962C110.888 47.1602 111.327 46.1691 111.587 45.0567C111.871 43.84 111.888 42.816 111.626 41.9972C111.365 41.1783 110.753 40.3886 109.782 39.6404C108.773 38.8499 108.172 38.3207 107.977 38.0302C107.771 37.7407 107.711 37.4276 107.796 37.0797C107.871 36.7553 108.041 36.4797 108.297 36.2766Z" fill="white"/>
<path d="M116.609 32.5596L112.353 50.696L116.022 50.9574L120.311 32.6706L116.609 32.5596Z" fill="white"/>
<path d="M126.267 44.534L128.824 44.6725L128.138 47.6156C127.614 47.7276 127.072 47.7729 126.5 47.7298C125.449 47.6586 124.76 47.1595 124.419 46.2108C124.09 45.2613 124.115 43.9299 124.526 42.1913C124.946 40.4179 125.561 39.0713 126.404 38.1487C127.246 37.2149 128.221 36.7812 129.36 36.811C130.602 36.8549 131.667 37.2317 132.567 37.9404L134.76 33.9965C134.23 33.6318 133.58 33.3339 132.82 33.0793C132.061 32.836 131.221 32.7017 130.309 32.6756C127.93 32.6132 125.904 33.3846 124.211 35.0145C122.527 36.6208 121.344 38.9125 120.649 41.8791C119.938 44.9266 119.967 47.3101 120.746 49.0287C121.539 50.7576 123.005 51.7144 125.199 51.8719C127.21 52.0105 129.156 51.7684 131.034 51.1343L133.431 40.9358L127.181 40.6515L126.267 44.534Z" fill="white"/>
<path d="M150.695 33.5287L149.192 33.4839L148.789 35.1877L147.123 42.3142C146.837 43.5084 146.526 45.0909 146.157 47.0645L146.088 47.0589L144.615 38.8086L143.635 33.3348L138.293 33.1791L134.75 48.2905L133.83 52.2304L137.396 52.489L139.433 43.8317C139.46 43.7386 139.475 43.6465 139.5 43.5421C139.749 42.442 140.041 40.9065 140.377 38.9469L140.468 38.9507L141.015 42.0975L142.859 52.8732L148.392 53.2743L153.007 33.5968L150.695 33.5287Z" fill="white"/>
<path d="M172.276 34.1332L170.792 40.4379L170.045 43.602L169.45 46.1399C169.108 47.6114 168.65 48.6608 168.066 49.2891C167.483 49.9173 166.733 50.1958 165.785 50.1387C164.918 50.0862 164.33 49.715 164.035 49.0465C163.741 48.3781 163.766 47.3194 164.1 45.8826L166.889 33.9813L162.334 33.8507L159.469 46.0652C158.848 48.6961 158.985 50.7411 159.859 52.2246C160.745 53.7184 162.325 54.552 164.622 54.7123C165.96 54.8163 167.186 54.6571 168.3 54.2573C169.094 53.975 169.831 53.5498 170.5 52.994C170.543 52.9564 170.586 52.93 170.628 52.8924C171.658 52.0224 172.483 50.8855 173.116 49.4919C173.49 48.6653 173.799 47.7419 174.045 46.733L174.556 44.5543L176.968 34.2637L172.276 34.1332Z" fill="white"/>
<path d="M191.888 36.4709C190.979 35.2516 189.347 34.6155 187.012 34.5493L180.726 34.3703L177.565 47.8024L176.341 53.006L175.823 55.2307L178.554 55.4228L180.669 55.5755L181.49 52.0758L182.312 48.5986L183.705 48.6753C185.931 48.8074 187.816 48.2522 189.338 47.0229C189.562 46.8451 189.774 46.6571 189.972 46.4473C190.087 46.3241 190.202 46.2122 190.305 46.0787C191.322 44.9257 192.048 43.4221 192.484 41.5678C193.006 39.3882 192.808 37.6892 191.888 36.4709ZM184.553 39.1063L185.829 39.1586C187.209 39.2138 187.725 39.9546 187.39 41.38C187.188 42.2263 186.812 42.894 186.259 43.3492C185.707 43.8157 185.055 44.0293 184.313 43.989L183.412 43.9507L184.553 39.1063Z" fill="white"/>
<path d="M137.658 65.2714C137.84 65.2789 138.859 68.4999 139.478 68.8345C140.097 69.1691 140.564 69.4595 140.495 69.7153C140.414 69.972 140.006 69.9834 140.07 70.3416C140.134 70.6998 140.411 71.5741 140.411 71.5741C140.411 71.5741 139.412 76.6113 138.275 77.0017C137.149 77.4026 136.947 77.2945 136.895 78.1736C136.855 79.0518 140.41 82.1632 140.41 82.1632C140.41 82.1632 137.485 84.5436 132.782 83.88C128.08 83.2164 132.236 77.745 132.353 75.6107C132.471 73.4876 135.663 65.1995 137.658 65.2714Z" fill="#F9CBCB"/>
<path d="M135.199 68.8851C135.199 68.8851 137.45 72.5713 138.369 72.824C139.287 73.0767 140.33 71.1489 140.33 71.1489C140.33 71.1489 142.824 75.9737 139.956 76.7247C137.098 77.4747 137.098 77.4747 137.098 77.4747C137.098 77.4747 138.542 75.0363 137.652 74.1791C136.763 73.3218 135.224 73.9389 135.224 73.9389C135.224 73.9389 135.822 79.4674 132.517 77.71C129.223 75.9515 122.57 73.7013 126.035 69.3443C129.488 64.9883 130.592 67.0546 132.702 63.6176C134.801 60.1814 132.478 57.3988 136.322 59.0772C140.155 60.7565 142.723 67.1542 135.199 68.8851Z" fill="#202234"/>
<path d="M140.657 73.5654C140.308 73.731 139.903 73.5148 139.88 73.5054C139.797 73.4669 139.766 73.3673 139.816 73.2836C139.854 73.2008 139.954 73.1698 140.038 73.2196C140.12 73.2581 140.356 73.3521 140.519 73.2702C140.639 73.2034 140.717 73.0492 140.742 72.8085C140.757 72.7164 140.831 72.6534 140.923 72.6684C141.015 72.6834 141.078 72.7577 141.063 72.8498C141.025 73.2052 140.886 73.4441 140.669 73.5645C140.668 73.5532 140.669 73.5645 140.657 73.5654Z" fill="white"/>
<path d="M137.471 68.8777C137.471 68.8777 138.724 68.5116 138.825 68.3555C138.925 68.1994 138.457 68.034 137.934 68.3049C137.411 68.5759 137.325 68.9012 137.471 68.8777Z" fill="#202234"/>
<path d="M138.766 69.1557C138.84 69.354 138.766 69.5647 138.601 69.6239C138.436 69.6832 138.234 69.5864 138.161 69.3881C138.088 69.1897 138.161 68.979 138.326 68.9198C138.37 68.9047 138.427 68.9 138.473 68.9075C138.419 68.9461 138.403 69.0269 138.433 69.104C138.463 69.1924 138.558 69.2413 138.635 69.2121C138.69 69.1961 138.719 69.1369 138.725 69.0682C138.727 69.0908 138.752 69.1228 138.766 69.1557Z" fill="#202234"/>
<path d="M116.969 82.5428C111.16 79.2448 101.179 77.4091 101.179 77.4091L88.8278 51.6964L87.6313 53.8301C87.6313 53.8301 87.9723 68.1057 94.7363 83.3783C101.318 98.2344 115.887 92.9722 115.887 92.9722C115.887 92.9722 120.786 84.7119 116.969 82.5428Z" fill="#F9CBCB"/>
<path d="M132.511 81.0393C131.052 78.264 107.836 78.4886 107.825 78.4896C105.939 81.7489 109.47 84.3055 108.267 87.7236C107.781 89.1049 106.711 90.3078 106.679 91.8328C106.666 92.6292 106.837 93.4444 106.938 94.2426C115.575 97.5314 124.317 98.0051 124.317 98.0051C124.317 98.0051 134.562 84.9238 132.511 81.0393Z" fill="url(#paint3_linear_600_46289)"/>
<path d="M138.754 80.5627C132.647 83.3454 135.634 81.971 130.829 79.5435C129.548 78.8894 123.169 78.6954 122.318 79.3914C102.118 95.9858 103.398 142.427 103.398 142.427C103.398 142.427 117.726 160.385 148.501 142.134C148.502 142.145 153.537 86.9735 138.754 80.5627Z" fill="url(#paint4_linear_600_46289)"/>
<path opacity="0.2" d="M147.347 108.612C147.323 111.046 148.306 113.293 148.496 115.697C148.693 118.055 147.781 120.199 147.054 122.373C146.709 123.413 146.425 124.493 146.346 125.59C146.274 126.63 146.361 127.68 146.459 128.717C146.645 130.667 146.927 132.677 146.371 134.587C145.822 136.45 144.501 137.776 143.033 138.967C141.703 140.044 140.232 141.076 139.407 142.622C138.67 144.001 138.613 145.619 138.309 147.156C141.49 145.924 144.875 144.289 148.512 142.134C148.512 142.134 150.341 122.144 148.553 104.83C147.744 105.886 147.364 107.191 147.347 108.612Z" fill="#1A2326"/>
<path d="M87.5476 49.2925C87.5476 49.2925 88.7164 49.6833 88.8463 50.0133C89.1595 50.7711 88.9538 51.5722 88.7649 51.7584C88.4816 50.8164 87.5476 49.2925 87.5476 49.2925Z" fill="#F9CBCB"/>
<path d="M88.7081 50.5361C88.7635 50.3838 88.7955 50.2221 88.8631 50.0801C89.1407 50.8181 88.9444 51.5957 88.7658 51.7697C88.6886 51.5262 88.5738 51.2404 88.4355 50.9452C88.5502 50.822 88.6527 50.6885 88.7081 50.5361Z" fill="#F9CBCB"/>
<path d="M85.9903 52.5472C85.8267 52.3563 85.6856 52.1636 85.5558 51.97C85.5436 51.9596 85.5172 51.9164 85.4542 51.8421C85.4156 51.7885 85.3639 51.7133 85.3122 51.6381C85.3122 51.6381 84.6867 50.8155 84.8465 50.5522C85.0063 50.2889 85.2263 50.3387 85.2263 50.3387C85.2263 50.3387 85.1454 50.0501 85.3804 49.8714C85.6154 49.6927 85.8063 49.8017 85.8063 49.8017C85.8063 49.8017 85.716 49.5366 85.9952 49.3428C86.2622 49.1387 86.5461 49.274 86.5461 49.274C86.5461 49.274 86.4445 48.8735 86.9654 48.8527C87.4863 48.8319 87.8155 49.5088 87.8409 49.5408C87.918 49.6479 87.9961 49.7664 88.0507 49.8754C88.0648 49.9083 88.0892 49.929 88.1034 49.9619C88.8918 52.3274 90.8134 54.9276 90.6781 55.348C90.6781 55.348 88.6627 57.3342 88.2104 57.088C87.8962 56.728 87.3077 53.221 87.3077 53.221C87.3077 53.221 86.5941 53.2466 85.9903 52.5472Z" fill="#F9CBCB"/>
<path opacity="0.2" d="M85.567 51.969C85.5548 51.9586 85.5172 51.9163 85.4654 51.8411C85.4269 51.7875 85.3751 51.7123 85.3234 51.6371C85.3234 51.6371 84.6979 50.8146 84.8577 50.5513C85.0175 50.288 85.2375 50.3377 85.2375 50.3377C85.2375 50.3377 85.1566 50.0491 85.3916 49.8704C85.6266 49.6917 85.8175 49.8007 85.8175 49.8007C85.8175 49.8007 85.7272 49.5356 86.0064 49.3418C86.2734 49.1377 86.5574 49.2731 86.5574 49.2731C86.5574 49.2731 86.4557 48.8725 86.9766 48.8517C87.1581 48.8479 87.3236 48.925 87.4581 49.0387C87.2644 49.0322 87.0528 49.084 86.9034 49.1987C86.8601 49.225 86.8291 49.2617 86.8103 49.3087C86.7802 49.3567 86.7624 49.415 86.7436 49.462C86.6957 49.5683 86.5734 49.6012 86.4625 49.6332C86.3187 49.6793 86.187 49.7358 86.0949 49.8571C86.0225 49.9426 85.9746 50.0489 85.9257 50.1439C85.8778 50.2501 85.8064 50.347 85.6973 50.4016C85.5996 50.4552 85.5018 50.5088 85.4294 50.5944C85.295 50.7533 85.2885 50.947 85.3496 51.135C85.3835 51.2685 85.4493 51.3767 85.5048 51.497C85.5857 51.6493 85.6666 51.8016 85.7475 51.9539C85.883 52.2152 86.0184 52.4766 86.1868 52.7238C86.137 52.6712 86.0758 52.6195 86.025 52.5556C85.8379 52.3554 85.6855 52.1636 85.567 51.969Z" fill="#F9CBCB"/>
<path d="M138.811 78.6609C138.811 78.6609 137.346 79.7604 134.048 79.5816C130.75 79.4141 130.882 78.4033 130.882 78.4033C130.882 78.4033 129.441 78.9668 128.971 81.6419C128.502 84.317 135.303 83.9985 137.766 81.7931C140.229 79.5876 140.363 80.0991 140.363 80.0991L138.811 78.6609Z" fill="#2D305E"/>
<path d="M207.256 70.8166C207.256 70.8166 206.026 70.783 205.785 71.0304C205.222 71.6342 205.144 72.4588 205.254 72.6882C205.859 71.9104 207.256 70.8166 207.256 70.8166Z" fill="#F9CBCB"/>
<path d="M205.74 71.5683C205.738 71.4094 205.77 71.2477 205.756 71.0784C205.226 71.6794 205.145 72.4701 205.255 72.6995C205.408 72.4936 205.628 72.2707 205.848 72.0478C205.79 71.8936 205.742 71.7272 205.74 71.5683Z" fill="#F9CBCB"/>
<path d="M207.578 74.4019C207.796 74.2815 208 74.1507 208.182 74.0106C208.192 73.9984 208.247 73.9711 208.323 73.9306C208.376 73.8921 208.452 73.8403 208.527 73.7886C208.527 73.7886 209.401 73.2384 209.342 72.9366C209.294 72.6338 209.053 72.6085 209.053 72.6085C209.053 72.6085 209.237 72.3659 209.069 72.1186C208.912 71.8704 208.699 71.9109 208.699 71.9109C208.699 71.9109 208.874 71.6918 208.692 71.4116C208.509 71.1315 208.205 71.157 208.205 71.157C208.205 71.157 208.449 70.8184 207.966 70.6088C207.495 70.4096 206.935 70.9222 206.903 70.9476C206.796 71.0247 206.689 71.1018 206.583 71.1902C206.551 71.2156 206.529 71.2288 206.497 71.2542C204.921 73.1924 201.113 74.8058 201.094 75.2506C201.094 75.2506 201.745 77.1958 202.251 77.1308C202.663 76.9032 206.095 74.594 206.095 74.594C206.095 74.594 206.775 74.8553 207.578 74.4019Z" fill="#F9CBCB"/>
<path opacity="0.2" d="M208.182 74.0112C208.192 73.999 208.247 73.9717 208.323 73.9312C208.377 73.8927 208.452 73.8409 208.527 73.7892C208.527 73.7892 209.401 73.239 209.342 72.9372C209.294 72.6344 209.053 72.6091 209.053 72.6091C209.053 72.6091 209.238 72.3665 209.069 72.1192C208.912 71.871 208.7 71.9115 208.7 71.9115C208.7 71.9115 208.874 71.6924 208.692 71.4122C208.509 71.1321 208.205 71.1576 208.205 71.1576C208.205 71.1576 208.449 70.819 207.966 70.6095C207.789 70.5333 207.61 70.5597 207.455 70.618C207.642 70.6819 207.823 70.8032 207.916 70.9658C207.942 71.0091 207.958 71.0532 207.974 71.1087C207.978 71.1651 207.972 71.2225 207.976 71.2789C207.987 71.403 208.094 71.4622 208.18 71.5346C208.29 71.6277 208.401 71.732 208.446 71.8646C208.489 71.9746 208.487 72.0883 208.496 72.1899C208.505 72.3027 208.537 72.4136 208.613 72.5095C208.688 72.5941 208.764 72.6787 208.795 72.7784C208.867 72.9655 208.793 73.1648 208.68 73.3106C208.598 73.4197 208.503 73.5071 208.397 73.5956C208.27 73.7084 208.143 73.8213 208.017 73.9454C207.796 74.1457 207.573 74.3348 207.337 74.5022C207.403 74.474 207.48 74.4448 207.555 74.3931C207.796 74.2821 208.001 74.1513 208.182 74.0112Z" fill="#F9CBCB"/>
<path d="M205.23 72.4055L175.915 82.57C175.915 82.57 161.342 84.6627 150.704 84.3361L152.841 98.9047C159.531 96.6982 170.114 94.723 176.59 93.5001C188.077 91.3357 205.602 76.8622 206.225 74.5264C205.821 73.3559 205.23 72.4055 205.23 72.4055Z" fill="#F9CBCB"/>
<path d="M158.238 82.7296C150.687 82.6449 143.896 82.1332 140.543 81.1749C134.979 79.5722 148.248 102.266 148.248 102.266C148.248 102.266 151.505 100.585 158.888 98.2519C158.321 93.107 158.658 87.8867 158.238 82.7296Z" fill="url(#paint5_linear_600_46289)"/>
</g>
<defs>
<linearGradient id="paint0_linear_600_46289" x1="151.691" y1="126.882" x2="151.691" y2="164.095" gradientUnits="userSpaceOnUse">
<stop stop-color="#E8E8E8"/>
<stop offset="1" stop-color="#E8E8E8" stop-opacity="0"/>
</linearGradient>
<linearGradient id="paint1_linear_600_46289" x1="142.888" y1="139.5" x2="109.02" y2="20.411" gradientUnits="userSpaceOnUse">
<stop stop-color="#EFF3F9"/>
<stop offset="1" stop-color="#D1E3FC"/>
</linearGradient>
<linearGradient id="paint2_linear_600_46289" x1="89.3452" y1="43.0215" x2="207.418" y2="70.7279" gradientUnits="userSpaceOnUse">
<stop stop-color="#BDDCFD"/>
<stop offset="1" stop-color="#5F98ED"/>
</linearGradient>
<linearGradient id="paint3_linear_600_46289" x1="117.877" y1="98.6632" x2="123.338" y2="72.9048" gradientUnits="userSpaceOnUse">
<stop offset="0.0234785" stop-color="#FF8F5C"/>
<stop offset="0.962168" stop-color="#FFBE69"/>
</linearGradient>
<linearGradient id="paint4_linear_600_46289" x1="123.212" y1="150.826" x2="157.675" y2="77.0122" gradientUnits="userSpaceOnUse">
<stop offset="0.209115" stop-color="#FF8F5C"/>
<stop offset="0.978173" stop-color="#FFBE69"/>
</linearGradient>
<linearGradient id="paint5_linear_600_46289" x1="148.375" y1="102.38" x2="157.036" y2="77.5689" gradientUnits="userSpaceOnUse">
<stop offset="0.109386" stop-color="#FF8F5C"/>
<stop offset="0.881345" stop-color="#FFBE69"/>
</linearGradient>
<clipPath id="clip0_600_46289">
<rect width="147" height="159" fill="white" transform="translate(78.5)"/>
</clipPath>
</defs>
</svg>
