<svg width="303" height="191" viewBox="0 0 303 191" fill="none" xmlns="http://www.w3.org/2000/svg">
<path d="M151.5 191C235.171 191 303 184.956 303 177.5C303 170.044 235.171 164 151.5 164C67.8289 164 0 170.044 0 177.5C0 184.956 67.8289 191 151.5 191Z" fill="url(#paint0_linear_226_45881)"/>
<g clip-path="url(#clip0_226_45881)">
<path d="M54.4533 167.125C54.4533 167.125 33.421 152.347 43.0876 133.77C52.7608 115.192 72.1006 86.673 62.4207 72.1292C52.7608 57.5921 51.7774 11.0173 107.389 3.87248C151.748 -1.8206 165.227 21.6073 172.104 37.5961C181.175 58.6893 173.068 97.1895 215.48 102.267C257.899 107.345 282.129 128.317 251.745 162.509C238.466 177.454 54.4533 167.125 54.4533 167.125Z" fill="url(#paint1_linear_226_45881)"/>
<path d="M130.401 155.498C99.1 162.342 73.6057 152.842 82.3023 136.68C90.9988 120.517 85.6672 118.477 78.9642 113.392C72.2544 108.308 57.1893 94.1522 71.8664 78.6049C86.5636 63.0643 75.3986 58.5554 70.8095 49.4103C57.4034 22.7311 111.764 11.7731 97.053 36.3316C86.0084 54.7622 86.5904 68.8711 100.318 78.2503C114.051 87.6295 116.787 92.5733 116.185 104.167C115.577 115.76 110.834 140.393 124.828 139.362C138.816 138.339 146.456 151.986 130.401 155.498Z" fill="#EBF2FF"/>
<path d="M73.5388 45.7709C72.0872 43.008 71.746 29.4677 84.8845 30.1702C92.8786 30.5983 88.731 41.5162 86.9181 49.9187C85.1119 58.3211 86.3428 71.5136 89.6876 76.9457C95.8622 86.9672 94.5376 91.1818 86.8981 99.7849C86.8981 99.7849 82.9311 106.174 90.2496 113.024C97.5681 119.875 94.7383 138.747 103.241 141.804C111.743 144.861 116.547 151.377 110.72 151.986C104.907 152.595 80.7904 154.943 87.1389 139.061C96.3907 115.948 78.3554 109.097 73.8599 103.966C69.7391 99.2631 66.2136 88.76 78.1681 75.581C87.4132 65.3856 78.0008 54.2805 73.5388 45.7709Z" fill="#CBDBF4"/>
<path d="M104.726 165.266L104.244 167.386C103.79 167.273 92.8854 164.53 81.1383 156.99C65.4979 146.949 55.9919 133.168 53.6639 117.099L55.6909 116.751C61.1028 154.06 104.291 165.159 104.726 165.266Z" fill="url(#paint2_linear_226_45881)"/>
<path d="M55.1423 119.246C55.1423 119.246 43.7833 113.218 48.4928 99.3369C48.4928 99.3369 58.5741 107.525 55.1423 119.246Z" fill="url(#paint3_linear_226_45881)"/>
<path d="M58.7815 130.592C58.7815 130.592 43.295 135.77 37 118.283C37 118.283 45.2617 115.252 58.7815 130.592Z" fill="url(#paint4_linear_226_45881)"/>
<path d="M58.253 130.659C58.253 130.659 72.6291 122.638 65.4645 105.552C65.4645 105.552 57.6175 109.619 58.253 130.659Z" fill="url(#paint5_linear_226_45881)"/>
<path d="M66.8426 143.604C66.8426 143.604 51.9112 150.434 43.9506 133.743C43.9506 133.743 51.8711 129.823 66.8426 143.604Z" fill="url(#paint6_linear_226_45881)"/>
<path d="M66.3141 143.724C66.3141 143.724 79.8472 134.191 71.0436 117.982C71.0503 117.975 63.6248 122.885 66.3141 143.724Z" fill="url(#paint7_linear_226_45881)"/>
<path d="M79.6934 154.91C79.6934 154.91 66.0665 164.322 55.5103 149.344C55.5169 149.344 62.6883 144.045 79.6934 154.91Z" fill="url(#paint8_linear_226_45881)"/>
<path d="M79.1916 155.124C79.1916 155.124 90.9922 143.289 79.6934 128.933C79.6934 128.926 73.1643 135.101 79.1916 155.124Z" fill="url(#paint9_linear_226_45881)"/>
<path d="M92.9054 162.001C92.9054 162.001 82.0615 174.825 68.147 163.299C68.147 163.299 73.7864 156.221 92.9054 162.001Z" fill="url(#paint10_linear_226_45881)"/>
<path d="M92.484 162.342C92.484 162.342 100.993 147.698 86.5168 136.974C86.5168 136.981 81.727 144.714 92.484 162.342Z" fill="url(#paint11_linear_226_45881)"/>
<path d="M186.507 165.873C216.483 174.055 241.636 166.121 234.017 150.032C226.397 133.949 231.655 132.244 238.405 127.648C245.155 123.058 260.441 110.1 246.995 94.312C233.542 78.5239 244.573 74.7173 249.47 66.0874C263.766 40.9134 211.673 27.6073 224.698 52.119C234.478 70.5161 233.221 84.1434 219.453 92.5458C205.699 100.948 202.803 105.604 202.816 116.857C202.829 128.109 206.201 152.199 192.701 150.514C179.208 148.841 171.141 161.679 186.507 165.873Z" fill="url(#paint12_linear_226_45881)"/>
<path opacity="0.2" d="M247.008 62.4347C248.553 59.8323 249.557 46.7335 236.8 46.7603C229.04 46.7804 232.518 57.5577 233.856 65.7863C235.187 74.0148 233.341 86.7256 229.836 91.8232C223.36 101.223 224.43 105.37 231.408 114.074C231.408 114.074 234.926 120.463 227.494 126.731C220.069 133.006 221.875 151.417 213.493 153.959C205.104 156.494 200.127 162.575 205.74 163.445C211.345 164.321 234.585 167.793 229.214 152.099C221.407 129.253 239.208 123.513 243.817 118.77C248.038 114.422 251.972 104.42 241.054 91.074C232.605 80.7448 242.278 70.4558 247.008 62.4347Z" fill="#F6F5F7"/>
<path d="M178.607 164.985L178.152 162.209C222.263 154.997 241.349 120.451 241.543 120.096L244.025 121.434C243.824 121.788 224.13 157.553 178.607 164.985Z" fill="url(#paint13_linear_226_45881)"/>
<path d="M241.355 122.458C241.355 122.458 247.115 107.559 254.628 112.316C257.825 114.336 256.099 121.568 241.355 122.458Z" fill="url(#paint14_linear_226_45881)"/>
<path d="M238.017 127.328C238.017 127.328 252.701 118.838 254.233 127.421C254.875 131.081 248.44 135.877 238.017 127.328Z" fill="url(#paint15_linear_226_45881)"/>
<path d="M238.044 128.913C238.044 128.913 247.035 115.199 237.776 113.881C233.836 113.306 228.725 119.32 238.044 128.913Z" fill="url(#paint16_linear_226_45881)"/>
<path d="M228.264 138.855C228.264 138.855 237.944 125.475 228.799 123.735C224.906 122.986 219.52 128.78 228.264 138.855Z" fill="url(#paint17_linear_226_45881)"/>
<path d="M219.688 146.427C219.688 146.427 229.294 133.034 220.149 131.308C216.256 130.566 210.891 136.386 219.688 146.427Z" fill="url(#paint18_linear_226_45881)"/>
<path d="M207.706 153.88C207.706 153.88 219.567 142.052 211.085 138.801C207.466 137.416 201.171 142.36 207.706 153.88Z" fill="url(#paint19_linear_226_45881)"/>
<path d="M197.324 158.61C197.324 158.61 208.844 146.494 200.221 143.49C196.568 142.219 190.4 147.31 197.324 158.61Z" fill="url(#paint20_linear_226_45881)"/>
<path d="M183.115 162.691C183.115 162.691 197.471 153.646 190.36 148.448C187.33 146.227 180.065 149.685 183.115 162.691Z" fill="url(#paint21_linear_226_45881)"/>
<path d="M230.839 136.306C230.839 136.306 245.55 127.816 247.068 136.406C247.711 140.059 241.289 144.835 230.839 136.306Z" fill="url(#paint22_linear_226_45881)"/>
<path d="M222.062 144.22C222.062 144.22 236.766 135.744 238.285 144.327C238.94 147.973 232.505 152.763 222.062 144.22Z" fill="url(#paint23_linear_226_45881)"/>
<path d="M212.423 150.655C212.423 150.655 228.458 145.31 227.782 154.201C227.508 157.994 220.216 161.413 212.423 150.655Z" fill="url(#paint24_linear_226_45881)"/>
<path d="M201.037 156.696C201.037 156.696 217.42 152.883 215.734 161.767C215.018 165.54 207.479 168.27 201.037 156.696Z" fill="url(#paint25_linear_226_45881)"/>
<path d="M188.962 160.924C188.962 160.924 205.492 159.285 202.475 168.002C201.171 171.708 193.404 173.441 188.962 160.924Z" fill="url(#paint26_linear_226_45881)"/>
<path d="M226.444 98.233C226.444 137.262 194.809 168.891 155.781 168.891C116.754 168.891 85.1187 137.255 85.1187 98.233C85.1187 59.2043 116.754 27.5679 155.781 27.5679C194.802 27.5679 226.444 59.2043 226.444 98.233Z" fill="url(#paint27_linear_226_45881)"/>
<path d="M162.083 124.498C164.137 127.836 162.063 132.846 157.454 135.676C152.845 138.506 147.439 138.091 145.392 134.746L121.798 96.3198C119.744 92.9749 121.811 87.9708 126.427 85.141C131.036 82.3112 136.442 82.726 138.489 86.0642L162.083 124.498Z" fill="#F6F5F7"/>
<path d="M161.227 132.887C158.397 137.496 152.363 138.941 147.761 136.111C143.145 133.281 141.706 127.247 144.536 122.638L177.048 69.6472C179.878 65.0379 185.912 63.5929 190.521 66.4227C195.13 69.2525 196.575 75.2801 193.745 79.8961L161.227 132.887Z" fill="#F6F5F7"/>
<path d="M103.923 88.4392C104.907 87.9843 108.124 87.7368 109.804 90.2789C112.071 93.6841 112.847 101.966 117.905 104.468C122.975 106.957 126.133 104.829 128.428 103.679C130.722 102.535 131.103 100.989 132.528 100.468C133.933 99.9525 134.488 101.658 131.237 104.388C129.672 105.692 122.781 113.071 116.206 111.225C107.583 108.79 98.1234 91.0884 103.923 88.4392Z" fill="#F9CBCB"/>
<path d="M111.422 141.931C110.011 150.575 108.867 168.898 112.66 168.751C116.46 168.604 118.493 167.206 116.266 166.67C114.025 166.135 113.944 165.881 113.964 165.192C114.138 160.87 117.477 152.642 118.741 146.34C120.206 139.041 112.673 134.378 111.422 141.931Z" fill="#F9CBCB"/>
<path d="M110.934 167.018C110.934 167.018 114.339 168.249 116.266 166.677C116.266 166.677 120.025 166.991 117.744 168.135C115.476 169.286 111.008 170.397 110.934 167.018Z" fill="#6E86CC"/>
<path d="M97.5079 106.401C97.5079 106.401 117.068 120.136 119.885 127.16C122.413 133.475 116.547 158.924 116.547 158.924C116.547 158.924 112.426 160.569 108.639 158.248L109.135 138.459L92.6245 123.353L97.5079 106.401Z" fill="#FF8B34"/>
<path d="M84.8845 143.002C77.6597 148.969 63.8322 162.924 67.0031 165.48C70.1673 168.028 72.7963 168.336 71.3647 166.349C69.9465 164.336 70.0469 164.061 70.5553 163.533C73.7395 160.174 82.2086 155.886 87.6473 151.712C93.9824 146.868 91.1995 137.797 84.8845 143.002Z" fill="#F9CBCB"/>
<path d="M66.8291 162.871C66.8291 162.871 68.7089 166.256 71.3647 166.349C71.3647 166.349 74.1677 169.239 71.532 168.557C68.8963 167.881 64.5279 165.647 66.8291 162.871Z" fill="#6E86CC"/>
<path d="M94.6046 106.301C94.6046 106.301 104.753 129.421 102.077 137.054C99.6753 143.925 77.0509 160.295 77.0509 160.295C77.0509 160.295 72.5688 158.716 71.1506 154.18L85.4799 138.586C85.4799 138.586 79.7535 120.564 82.5632 113.881C82.6635 113.653 82.1685 115.473 82.1685 115.473L94.6046 106.301Z" fill="#FF9E55"/>
<path d="M106.813 116.537C110.559 111.593 112.68 103.926 112.827 97.9722C113.035 89.7169 105.743 87.5895 101.107 87.1546C96.471 86.7064 88.8916 85.81 89.206 96.099C89.4134 103.277 86.8044 107.024 83.1653 113.098C83.0649 113.259 82.9713 113.392 82.8709 113.539C82.8575 113.539 82.8508 113.519 82.8508 113.519C82.8575 113.533 82.8575 113.539 82.8709 113.539C77.7399 119.835 102.559 122.143 106.813 116.537Z" fill="#AEC3FF"/>
<path d="M83.1653 113.085C83.0649 113.245 82.9713 113.379 82.8709 113.526C82.8575 113.526 82.8509 113.506 82.8509 113.506C82.8575 113.52 82.8575 113.526 82.8709 113.526C78.8973 118.403 92.8385 120.878 101.328 119.172C102.646 117.199 96.2636 116.677 93.9022 114.764C88.4568 110.349 107.87 109.974 104.525 108.348C100.913 106.609 95.5411 107.305 97.9093 102.02C100.264 96.728 98.2371 90.3994 95.996 88.2586C93.6613 86.0175 89.7546 88.6466 89.3264 93.5168C89.2194 94.2929 89.1592 95.1358 89.1926 96.0924C89.4134 103.271 86.8044 107.017 83.1653 113.085Z" fill="#94B0ED"/>
<path d="M101.769 81.1003C101.769 81.1003 102.793 85.0139 99.9028 86.4589C96.9393 87.9307 106.024 95.1691 106.171 93.0217C106.358 90.2521 105.261 88.3856 107.174 85.5223L101.769 81.1003Z" fill="#EFA9A9"/>
<path d="M108.753 75.3538C110.66 77.9562 111.362 87.9709 108.553 89.6367C107.322 90.3458 103.174 88.5128 101.207 83.7964C100.391 81.863 99.6018 78.3709 101.95 75.4475C103.014 74.1095 106.539 72.3233 108.753 75.3538Z" fill="#F9CBCB"/>
<path d="M100.498 75.3002C98.0163 78.4177 99.1068 81.4215 99.2807 81.9767C99.9229 83.9971 101.569 85.8769 102.07 85.2949C102.666 84.5992 100.411 83.87 101.448 81.8697C102.485 79.8694 101.167 79.1603 101.856 77.3674C102.525 75.5812 103.843 76.1967 108.024 76.3238C109.737 76.3773 110.165 75.7953 110.105 75.0862C107.971 72.049 103.1 72.0222 100.498 75.3002Z" fill="#062440"/>
<path d="M110.432 77.5213C111.449 75.1062 115.082 75.6816 113.924 73.9756C113.148 72.8317 113.142 73.6947 104.499 71.9285C100.465 71.1057 99.6686 72.8317 98.8993 75.1062C98.1835 77.2068 98.411 82.3714 101.174 85.4086C103.93 88.4391 101.087 83.3883 102.144 81.1003C103.201 78.8191 103.896 79.7824 105.422 80.1638C106.934 80.5317 108.787 81.4148 110.432 77.5213Z" fill="#353A66"/>
<path d="M81.9478 119.935L89.2729 130.431L148.209 89.282L155.781 76.1899L140.877 78.7856L81.9478 119.935Z" fill="#49557F"/>
<path d="M144.947 84.6073L86.0054 125.753L89.2716 130.432L148.214 89.2866L144.947 84.6073Z" fill="#373F66"/>
<path d="M155.781 76.1899L153.734 79.7356L151.754 76.8924L155.781 76.1899Z" fill="#1F1440"/>
<path d="M94.3035 87.6229C95.4006 87.7099 97.3139 89.369 97.5614 92.4463C97.9093 96.5673 95.5746 103.98 98.8257 108.663C102.09 113.359 105.93 113.024 108.526 113.131C111.135 113.245 112.225 112.068 113.73 112.288C115.235 112.516 114.888 114.309 110.666 115.132C108.653 115.526 98.9261 118.671 94.0092 113.807C87.5671 107.438 87.8815 87.1145 94.3035 87.6229Z" fill="#F9CBCB"/>
</g>
<defs>
<linearGradient id="paint0_linear_226_45881" x1="151.191" y1="151.631" x2="151.191" y2="182.078" gradientUnits="userSpaceOnUse">
<stop stop-color="#E8E8E8"/>
<stop offset="1" stop-color="#E8E8E8" stop-opacity="0"/>
</linearGradient>
<linearGradient id="paint1_linear_226_45881" x1="53.7242" y1="32.4382" x2="271.476" y2="152.515" gradientUnits="userSpaceOnUse">
<stop stop-color="#B1D1F2"/>
<stop offset="1" stop-color="#F6FAFF"/>
</linearGradient>
<linearGradient id="paint2_linear_226_45881" x1="100.259" y1="147.528" x2="42.8378" y2="139.917" gradientUnits="userSpaceOnUse">
<stop stop-color="#ABDCFF"/>
<stop offset="1" stop-color="#71B1FF"/>
</linearGradient>
<linearGradient id="paint3_linear_226_45881" x1="55.1106" y1="111.438" x2="45.4084" y2="110.893" gradientUnits="userSpaceOnUse">
<stop stop-color="#ABDCFF"/>
<stop offset="1" stop-color="#71B1FF"/>
</linearGradient>
<linearGradient id="paint4_linear_226_45881" x1="56.8759" y1="126.105" x2="33.0604" y2="120.966" gradientUnits="userSpaceOnUse">
<stop stop-color="#ABDCFF"/>
<stop offset="1" stop-color="#71B1FF"/>
</linearGradient>
<linearGradient id="paint5_linear_226_45881" x1="66.6565" y1="120.813" x2="56.0974" y2="120.301" gradientUnits="userSpaceOnUse">
<stop stop-color="#ABDCFF"/>
<stop offset="1" stop-color="#71B1FF"/>
</linearGradient>
<linearGradient id="paint6_linear_226_45881" x1="64.8398" y1="140.375" x2="40.2544" y2="134.084" gradientUnits="userSpaceOnUse">
<stop stop-color="#ABDCFF"/>
<stop offset="1" stop-color="#71B1FF"/>
</linearGradient>
<linearGradient id="paint7_linear_226_45881" x1="73.294" y1="133.629" x2="63.8222" y2="133.228" gradientUnits="userSpaceOnUse">
<stop stop-color="#ABDCFF"/>
<stop offset="1" stop-color="#71B1FF"/>
</linearGradient>
<linearGradient id="paint8_linear_226_45881" x1="77.5777" y1="153.995" x2="52.5508" y2="145.858" gradientUnits="userSpaceOnUse">
<stop stop-color="#ABDCFF"/>
<stop offset="1" stop-color="#71B1FF"/>
</linearGradient>
<linearGradient id="paint9_linear_226_45881" x1="83.8926" y1="144.852" x2="74.8085" y2="144.49" gradientUnits="userSpaceOnUse">
<stop stop-color="#ABDCFF"/>
<stop offset="1" stop-color="#71B1FF"/>
</linearGradient>
<linearGradient id="paint10_linear_226_45881" x1="90.7394" y1="164.821" x2="66.125" y2="155.257" gradientUnits="userSpaceOnUse">
<stop stop-color="#ABDCFF"/>
<stop offset="1" stop-color="#71B1FF"/>
</linearGradient>
<linearGradient id="paint11_linear_226_45881" x1="94.1361" y1="152.393" x2="83.2751" y2="151.858" gradientUnits="userSpaceOnUse">
<stop stop-color="#ABDCFF"/>
<stop offset="1" stop-color="#71B1FF"/>
</linearGradient>
<linearGradient id="paint12_linear_226_45881" x1="245.861" y1="118.149" x2="161.429" y2="111.814" gradientUnits="userSpaceOnUse">
<stop stop-color="#ABDCFF"/>
<stop offset="1" stop-color="#0150CA"/>
</linearGradient>
<linearGradient id="paint13_linear_226_45881" x1="238.262" y1="147.381" x2="165.588" y2="133.362" gradientUnits="userSpaceOnUse">
<stop stop-color="#CAE9FF"/>
<stop offset="1" stop-color="#50A0FF"/>
</linearGradient>
<linearGradient id="paint14_linear_226_45881" x1="254.702" y1="118.113" x2="238.455" y2="115.293" gradientUnits="userSpaceOnUse">
<stop stop-color="#CAE9FF"/>
<stop offset="1" stop-color="#50A0FF"/>
</linearGradient>
<linearGradient id="paint15_linear_226_45881" x1="252.855" y1="128.767" x2="235.348" y2="124.38" gradientUnits="userSpaceOnUse">
<stop stop-color="#CAE9FF"/>
<stop offset="1" stop-color="#50A0FF"/>
</linearGradient>
<linearGradient id="paint16_linear_226_45881" x1="241.159" y1="123.003" x2="230.722" y2="122.168" gradientUnits="userSpaceOnUse">
<stop stop-color="#CAE9FF"/>
<stop offset="1" stop-color="#50A0FF"/>
</linearGradient>
<linearGradient id="paint17_linear_226_45881" x1="231.926" y1="132.9" x2="221.493" y2="132.071" gradientUnits="userSpaceOnUse">
<stop stop-color="#CAE9FF"/>
<stop offset="1" stop-color="#50A0FF"/>
</linearGradient>
<linearGradient id="paint18_linear_226_45881" x1="223.295" y1="140.473" x2="212.869" y2="139.646" gradientUnits="userSpaceOnUse">
<stop stop-color="#CAE9FF"/>
<stop offset="1" stop-color="#50A0FF"/>
</linearGradient>
<linearGradient id="paint19_linear_226_45881" x1="213.33" y1="147.877" x2="202.782" y2="147.037" gradientUnits="userSpaceOnUse">
<stop stop-color="#CAE9FF"/>
<stop offset="1" stop-color="#50A0FF"/>
</linearGradient>
<linearGradient id="paint20_linear_226_45881" x1="202.615" y1="152.605" x2="192.111" y2="151.772" gradientUnits="userSpaceOnUse">
<stop stop-color="#CAE9FF"/>
<stop offset="1" stop-color="#50A0FF"/>
</linearGradient>
<linearGradient id="paint21_linear_226_45881" x1="191.467" y1="156.86" x2="180.162" y2="155.865" gradientUnits="userSpaceOnUse">
<stop stop-color="#CAE9FF"/>
<stop offset="1" stop-color="#50A0FF"/>
</linearGradient>
<linearGradient id="paint22_linear_226_45881" x1="245.689" y1="137.74" x2="228.172" y2="133.342" gradientUnits="userSpaceOnUse">
<stop stop-color="#CAE9FF"/>
<stop offset="1" stop-color="#50A0FF"/>
</linearGradient>
<linearGradient id="paint23_linear_226_45881" x1="236.907" y1="145.661" x2="219.396" y2="141.265" gradientUnits="userSpaceOnUse">
<stop stop-color="#CAE9FF"/>
<stop offset="1" stop-color="#50A0FF"/>
</linearGradient>
<linearGradient id="paint24_linear_226_45881" x1="226.457" y1="154.425" x2="209.736" y2="150.593" gradientUnits="userSpaceOnUse">
<stop stop-color="#CAE9FF"/>
<stop offset="1" stop-color="#50A0FF"/>
</linearGradient>
<linearGradient id="paint25_linear_226_45881" x1="214.559" y1="161.437" x2="198.339" y2="157.98" gradientUnits="userSpaceOnUse">
<stop stop-color="#CAE9FF"/>
<stop offset="1" stop-color="#50A0FF"/>
</linearGradient>
<linearGradient id="paint26_linear_226_45881" x1="201.629" y1="166.83" x2="186.265" y2="164.004" gradientUnits="userSpaceOnUse">
<stop stop-color="#CAE9FF"/>
<stop offset="1" stop-color="#50A0FF"/>
</linearGradient>
<linearGradient id="paint27_linear_226_45881" x1="141.018" y1="169.703" x2="203.956" y2="7.48679" gradientUnits="userSpaceOnUse">
<stop offset="0.1885" stop-color="#FFBE69"/>
<stop offset="1" stop-color="#FF8F5C"/>
</linearGradient>
<clipPath id="clip0_226_45881">
<rect width="227" height="173" fill="white" transform="translate(38)"/>
</clipPath>
</defs>
</svg>
