<svg width="304" height="135" viewBox="0 0 304 135" fill="none" xmlns="http://www.w3.org/2000/svg">
<path d="M152 135C235.671 135 303.5 127.613 303.5 118.5C303.5 109.387 235.671 102 152 102C68.3289 102 0.5 109.387 0.5 118.5C0.5 127.613 68.3289 135 152 135Z" fill="url(#paint0_linear_667_45385)"/>
<g clip-path="url(#clip0_667_45385)">
<path d="M92.8579 104.637C92.8579 104.637 68.368 83.4997 86.9849 63.4657C106.806 42.1366 89.2452 14.7538 116.152 3.70558C145.241 -8.23913 152.725 12.7987 164.904 9.56854C189.193 3.12538 220.002 6.2982 214.876 37.595C208.442 76.8817 234.843 71.8707 219.162 104.769L92.8579 104.637Z" fill="url(#paint1_linear_667_45385)"/>
<path d="M164.904 40.9766C164.904 40.9766 168.969 23.5614 182.681 21.6471C182.681 21.6471 185.349 21.3162 186.238 24.2854C187.126 27.2553 181.821 27.2766 178.543 28.4712C175.263 29.6651 167.619 34.7291 164.904 40.9766Z" fill="#BDDCFD"/>
<path d="M164.592 37.7172C164.592 37.7172 163.167 23.292 173.174 18.1726C173.174 18.1726 175.131 17.2084 176.586 19.2465C178.041 21.2851 173.982 22.7143 171.781 24.503C169.581 26.2918 165.044 32.2077 164.592 37.7172Z" fill="#BDDCFD"/>
<g opacity="0.8">
<path d="M133.757 51.1801C133.757 51.1801 139.639 47.8507 136.894 43.3322C136.894 43.3322 134.698 40.5579 132.346 39.8443C132.346 39.8443 133.601 46.5824 132.346 46.7409C131.091 46.8993 131.483 39.1312 131.483 39.1312C131.483 39.1312 125.288 36.1193 122.857 36.357C122.857 36.357 126.699 42.936 125.445 42.7776C124.19 42.6191 119.877 35.9602 119.877 35.9602C119.877 35.9602 113.525 34.7712 112.506 38.576C111.486 42.3808 113.133 44.2835 114.074 44.5212C115.015 44.7589 121.053 44.6797 120.896 45.4726C120.74 46.2655 116.662 47.5338 114.388 46.8201C114.388 46.8201 116.897 53.0822 120.191 52.7653C123.485 52.4484 124.504 50.3872 126.543 50.2288C128.582 50.0703 130.072 50.6249 129.052 51.1801C128.033 51.7347 124.582 51.3617 122.935 52.7769C121.289 54.1921 119.955 55.0642 123.014 55.698C126.072 56.3325 131.561 55.9357 132.659 53.5576C133.757 51.1801 133.757 51.1801 133.757 51.1801Z" fill="#BDDCFD"/>
<path d="M115.407 39.7656C115.407 39.7656 131.875 45.1563 133.757 51.1807C133.757 51.1807 133.679 53.8757 135.325 56.9675V58.1565C135.325 58.1565 133.601 54.114 132.659 53.5588C132.659 53.5582 136.345 48.3266 115.407 39.7656Z" fill="#BDDCFD"/>
<path d="M135.325 56.9669C135.325 56.9669 137.865 60.8656 136.417 65.6108L135.764 65.4335C135.764 65.4335 136.398 60.2068 135.069 57.5782C133.741 54.949 135.325 56.9669 135.325 56.9669Z" fill="#BDDCFD"/>
</g>
<g opacity="0.5">
<path d="M137.024 78.0601C137.024 78.0601 140.877 66.3921 131.782 63.7288C131.782 63.7288 125.516 62.7201 121.517 64.6564C121.517 64.6564 131.289 72.1131 129.804 73.8659C128.319 75.618 119.507 64.763 119.507 64.763C119.507 64.763 107.615 68.3479 104.654 71.6505C104.654 71.6505 117.692 75.718 115.826 77.0466C113.96 78.3752 100.199 74.7807 100.199 74.7807C100.199 74.7807 90.2874 80.9928 93.4992 87.3257C96.7103 93.6585 101.196 94.1766 102.738 93.3386C104.281 92.5006 112.249 84.9799 112.992 86.2311C113.735 87.4823 109.814 94.1833 105.92 96.0232C105.92 96.0232 116.797 101.304 120.814 96.8362C124.831 92.3683 123.716 88.3642 126.247 85.6491C128.78 82.9339 131.436 81.8448 130.741 83.8378C130.047 85.8307 124.991 89.5697 124.493 93.4812C123.994 97.3933 123.262 100.195 128.108 97.286C132.955 94.3771 139.809 87.1075 138.417 82.5835C137.024 78.0601 137.024 78.0601 137.024 78.0601Z" fill="#BDDCFD"/>
<path d="M98.8024 85.3504C98.8024 85.3504 127.271 72.3264 137.024 78.0601C137.024 78.0601 140.34 82.1691 138.416 82.5841C138.416 82.5841 137.05 71.0715 98.8024 85.3504Z" fill="#BDDCFD"/>
</g>
<path d="M179.126 79.307C179.126 79.307 180.261 72.3288 185.593 73.4392C185.593 73.4392 189.047 74.6246 190.567 76.6931C190.567 76.6931 183.619 77.837 183.91 79.1309C184.2 80.4248 191.561 77.2922 191.561 77.2922C191.561 77.2922 196.658 82.3385 197.288 84.8202C197.288 84.8202 189.578 83.3556 190.175 84.5374C190.771 85.7191 198.723 87.62 198.723 87.62C198.723 87.62 202.117 93.4653 198.804 95.816C195.491 98.1666 193.072 97.2147 192.51 96.3706C191.948 95.5265 189.89 89.5422 189.18 89.9774C188.47 90.4125 188.687 94.8829 190.18 96.874C190.18 96.874 183.247 96.6119 182.389 93.2514C181.531 89.8902 183.16 88.1563 182.593 86.0891C182.026 84.0218 180.963 82.748 180.788 83.9499C180.612 85.1517 182.192 88.4233 181.408 90.5478C180.624 92.6724 180.254 94.2954 178.561 91.5028C176.868 88.7103 175.31 83.1557 177.217 81.2317C179.126 79.307 179.126 79.307 179.126 79.307Z" fill="#BDDCFD"/>
<path d="M196.631 93.3727C196.631 93.3727 185.607 79.034 179.126 79.3071C179.126 79.3071 176.552 80.337 172.985 79.8056L171.838 80.2261C171.838 80.2261 176.35 80.4992 177.218 81.2311C177.218 81.2305 180.966 75.7454 196.631 93.3727Z" fill="#BDDCFD"/>
<path d="M172.986 79.805C172.986 79.805 168.324 78.6775 164.255 81.7833L164.657 82.3653C164.657 82.3653 169.479 79.8921 172.486 80.2736C175.494 80.6552 172.986 79.805 172.986 79.805Z" fill="#BDDCFD"/>
<path d="M177.053 50.406C177.053 50.406 169.864 46.3361 173.219 40.8132C173.219 40.8132 175.903 37.4216 178.778 36.5495C178.778 36.5495 177.244 44.7857 178.778 44.9795C180.312 45.1733 179.833 35.6773 179.833 35.6773C179.833 35.6773 187.405 31.995 190.377 32.2857C190.377 32.2857 185.68 40.3281 187.214 40.1343C188.748 39.9405 194.019 31.8012 194.019 31.8012C194.019 31.8012 201.784 30.3477 203.03 34.999C204.276 39.6504 202.263 41.9755 201.113 42.2662C199.962 42.5569 192.582 42.46 192.773 43.429C192.965 44.398 197.949 45.9485 200.729 45.0764C200.729 45.0764 197.662 52.7311 193.636 52.3435C189.61 51.9559 188.364 49.4364 185.872 49.2426C183.379 49.0488 181.558 49.7271 182.804 50.4054C184.05 51.0838 188.268 50.6279 190.281 52.3575C192.294 54.0872 193.924 55.1531 190.185 55.9283C186.446 56.7035 179.736 56.219 178.394 53.3119C177.053 50.406 177.053 50.406 177.053 50.406Z" fill="#BDDCFD"/>
<path d="M199.484 36.4525C199.484 36.4525 179.354 43.0413 177.053 50.406C177.053 50.406 177.149 53.7007 175.136 57.4793V58.9329C175.136 58.9329 177.245 53.9914 178.395 53.3131C178.395 53.3131 173.89 46.9175 199.484 36.4525Z" fill="#D2E0FF"/>
<path d="M175.137 57.4793C175.137 57.4793 172.032 62.2446 173.802 68.0454L174.601 67.8285C174.601 67.8285 173.826 61.4395 175.45 58.2259C177.074 55.0128 175.137 57.4793 175.137 57.4793Z" fill="#D2E0FF"/>
<path d="M182.567 30.2538H128.83V104.538H182.567V30.2538Z" fill="#739AF0"/>
<path d="M180.278 32.2583H131.119V102.491H180.278V32.2583Z" fill="#F3FAFF"/>
<path d="M145.507 30.2538V32.7842C145.507 34.1817 146.627 35.3147 148.008 35.3147H161.441C162.823 35.3147 163.942 34.1817 163.942 32.7842V30.2538H145.507Z" fill="#2B478B"/>
<path d="M142.908 92.5498H136.826V93.1721H142.908V92.5498Z" fill="#BDDCFD"/>
<path d="M150.398 92.5498H144.316V93.1721H150.398V92.5498Z" fill="#BDDCFD"/>
<path d="M145.26 93.9302H136.826V94.5524H145.26V93.9302Z" fill="#BDDCFD"/>
<path d="M143.889 40.7437H146.115C146.734 40.7437 147.214 40.9192 147.535 41.2428C147.806 41.5171 147.952 41.9041 147.952 42.3819C147.952 43.1766 147.527 43.6757 146.908 43.9079L148.098 45.6662H146.845L145.788 44.0908H144.96V45.6662H143.889V40.7437ZM146.046 43.1345C146.567 43.1345 146.867 42.853 146.867 42.4239C146.867 41.9595 146.547 41.7206 146.025 41.7206H144.961V43.1339H146.046V43.1345Z" fill="#699FEF"/>
<path d="M148.843 43.5569V40.7437H149.914V43.5289C149.914 44.3309 150.311 44.7453 150.965 44.7453C151.619 44.7453 152.015 44.3443 152.015 43.5636V40.7437H153.086V43.5215C153.086 45.0123 152.258 45.7436 150.95 45.7436C149.643 45.7436 148.843 45.0056 148.843 43.5569Z" fill="#699FEF"/>
<path d="M154.179 40.7437H155.251V44.682H157.679V45.6668H154.179V40.7437Z" fill="#699FEF"/>
<path d="M158.486 40.7437H162.159V41.7072H159.551V42.7061H161.847V43.6696H159.551V44.7033H162.194V45.6668H158.487V40.7437H158.486Z" fill="#699FEF"/>
<path d="M162.814 44.9489L163.447 44.1822C163.885 44.5479 164.344 44.7801 164.901 44.7801C165.339 44.7801 165.604 44.604 165.604 44.3017C165.604 44.0274 165.437 43.8866 164.623 43.6758C163.642 43.4228 163.009 43.1486 163.009 42.1564C163.009 41.2635 163.719 40.6724 164.713 40.6724C165.423 40.6724 166.028 40.8973 166.522 41.2983L165.966 42.1143C165.535 41.812 165.11 41.6292 164.7 41.6292C164.289 41.6292 164.073 41.8194 164.073 42.0723C164.073 42.3959 164.282 42.5013 165.123 42.7195C166.111 42.9798 166.668 43.3381 166.668 44.2103C166.668 45.1878 165.931 45.7363 164.88 45.7363C164.142 45.7369 163.398 45.4767 162.814 44.9489Z" fill="#699FEF"/>
<path d="M168.484 46.8273H142.073V47.1716H168.484V46.8273Z" fill="#699FEF"/>
<path d="M175.36 58.357H166.47V49.37H175.36V58.357ZM166.888 57.9335H174.941V49.793H166.888V57.9335Z" fill="#AFCDFB"/>
<path d="M171.136 56.5505C170.949 56.5505 170.772 56.4664 170.652 56.3202L167.908 52.9651C167.687 52.6945 167.725 52.2947 167.992 52.071C168.259 51.8474 168.655 51.8858 168.877 52.1558L171.053 54.8166L174.988 48.1388C175.166 47.8378 175.552 47.739 175.849 47.9182C176.147 48.098 176.245 48.4874 176.068 48.7885L171.675 56.2403C171.571 56.4177 171.388 56.5323 171.184 56.5481C171.168 56.5499 171.152 56.5505 171.136 56.5505Z" fill="url(#paint2_linear_667_45385)"/>
<path d="M159.609 50.6962H139.858V51.5732H159.609V50.6962Z" fill="#BDDCFD"/>
<path d="M158.06 54.6125H139.858V55.4896H158.06V54.6125Z" fill="#BDDCFD"/>
<path d="M159.609 52.6543H154.224V53.5313H159.609V52.6543Z" fill="#BDDCFD"/>
<path d="M152.733 52.6543H139.858V53.5313H152.733V52.6543Z" fill="#BDDCFD"/>
<path d="M135.436 51.4799L134.552 51.7279L134.37 51.0191L135.688 50.5938H136.291V55.5913H135.436V51.4799Z" fill="#BDDCFD"/>
<path d="M136.856 55.2761C136.856 55.1018 136.996 54.9604 137.169 54.9604C137.341 54.9604 137.481 55.1018 137.481 55.2761C137.481 55.4505 137.341 55.5918 137.169 55.5918C136.996 55.5918 136.856 55.4505 136.856 55.2761Z" fill="#BDDCFD"/>
<path d="M175.429 71.7821H166.539V62.795H175.429V71.7821ZM166.957 71.3591H175.01V63.2186H166.957V71.3591Z" fill="#AFCDFB"/>
<path d="M171.204 69.9756C171.018 69.9756 170.84 69.8915 170.72 69.7452L167.977 66.3902C167.756 66.1196 167.794 65.7198 168.061 65.4961C168.328 65.2724 168.724 65.3108 168.945 65.5808L171.121 68.2417L175.057 61.5639C175.235 61.2628 175.62 61.1641 175.918 61.3433C176.216 61.5231 176.314 61.9125 176.136 62.2136L171.744 69.6654C171.64 69.8427 171.457 69.9573 171.253 69.9731C171.236 69.975 171.221 69.9756 171.204 69.9756Z" fill="url(#paint3_linear_667_45385)"/>
<path d="M134.332 68.3343L136.01 66.8912C136.679 66.3207 136.923 66.0044 136.923 65.5607C136.923 65.075 136.581 64.7934 136.136 64.7934C135.69 64.7934 135.384 65.0396 135.008 65.5327L134.402 65.0543C134.868 64.3924 135.328 64.0194 136.198 64.0194C137.152 64.0194 137.807 64.6106 137.807 65.5047C137.807 66.2793 137.396 66.6943 136.54 67.4122L135.537 68.2569H137.856V69.0169H134.332V68.3343H134.332Z" fill="#BDDCFD"/>
<path d="M138.435 68.7036C138.435 68.5306 138.574 68.3904 138.745 68.3904C138.916 68.3904 139.055 68.5306 139.055 68.7036C139.055 68.8767 138.916 69.0169 138.745 69.0169C138.574 69.0169 138.435 68.8767 138.435 68.7036Z" fill="#BDDCFD"/>
<path d="M160.776 64.1212H140.021V64.9982H160.776V64.1212Z" fill="#BDDCFD"/>
<path d="M159.149 68.0382H140.021V68.9152H159.149V68.0382Z" fill="#BDDCFD"/>
<path d="M160.776 66.08H155.118V66.957H160.776V66.08Z" fill="#BDDCFD"/>
<path d="M153.55 66.08H140.021V66.957H153.55V66.08Z" fill="#BDDCFD"/>
<path d="M175.429 85.3065H166.539V76.3195H175.429V85.3065ZM166.957 84.8835H175.01V76.743H166.957V84.8835Z" fill="#AFCDFB"/>
<path d="M171.204 83.5C171.018 83.5 170.84 83.4159 170.72 83.2696L167.977 79.9146C167.756 79.6446 167.794 79.2442 168.061 79.0205C168.328 78.7968 168.724 78.8352 168.945 79.1052L171.121 81.7661L175.057 75.0883C175.235 74.7872 175.62 74.6885 175.918 74.8677C176.216 75.0469 176.314 75.4369 176.136 75.738L171.744 83.1898C171.64 83.3671 171.457 83.4823 171.253 83.4982C171.236 83.4994 171.221 83.5 171.204 83.5Z" fill="url(#paint4_linear_667_45385)"/>
<path d="M160.776 77.6462H140.021V78.5232H160.776V77.6462Z" fill="#BDDCFD"/>
<path d="M159.149 81.562H140.021V82.439H159.149V81.562Z" fill="#BDDCFD"/>
<path d="M160.776 79.6038H155.118V80.4808H160.776V79.6038Z" fill="#BDDCFD"/>
<path d="M153.55 79.6038H140.021V80.4808H153.55V79.6038Z" fill="#BDDCFD"/>
<path d="M134.27 81.6472L134.856 81.0963C135.196 81.5028 135.578 81.7301 136.11 81.7301C136.58 81.7301 136.935 81.4406 136.935 80.986C136.935 80.5106 136.505 80.2418 135.837 80.2418H135.449L135.313 79.7116L136.601 78.3269H134.536V77.5901H137.691V78.2239L136.362 79.6019C137.118 79.7122 137.765 80.1047 137.765 80.9726C137.765 81.8612 137.084 82.495 136.096 82.495C135.265 82.4944 134.672 82.1433 134.27 81.6472Z" fill="#BDDCFD"/>
<path d="M138.006 82.1878C138.006 82.0184 138.142 81.8812 138.309 81.8812C138.477 81.8812 138.613 82.0184 138.613 82.1878C138.613 82.3572 138.477 82.4943 138.309 82.4943C138.142 82.4943 138.006 82.3572 138.006 82.1878Z" fill="#BDDCFD"/>
<path d="M159.317 94.5367C157.533 94.5367 155.98 93.2569 155.623 91.4931C155.594 91.3517 155.684 91.214 155.824 91.1853C155.963 91.1567 156.1 91.2475 156.129 91.3889C156.437 92.9107 157.777 94.015 159.317 94.015C160.841 94.015 162.179 92.9235 162.498 91.42C162.528 91.2792 162.666 91.1896 162.805 91.2195C162.944 91.2499 163.034 91.3883 163.004 91.5297C162.633 93.2721 161.083 94.5367 159.317 94.5367Z" fill="#BDDCFD"/>
<path d="M155.869 90.3071C155.852 90.3071 155.836 90.3059 155.819 90.3023C155.679 90.2748 155.588 90.1377 155.615 89.9963C155.957 88.21 157.514 86.9131 159.317 86.9131C161.049 86.9131 162.553 88.0979 162.974 89.794C163.009 89.9335 162.925 90.0756 162.787 90.1109C162.648 90.1456 162.508 90.0609 162.473 89.9214C162.109 88.4575 160.811 87.4354 159.317 87.4354C157.761 87.4354 156.417 88.5544 156.122 90.0957C156.098 90.2206 155.99 90.3071 155.869 90.3071Z" fill="#BDDCFD"/>
<path d="M159.317 96.1439C156.361 96.1439 153.956 93.7133 153.956 90.7252C153.956 87.7376 156.361 85.3065 159.317 85.3065C162.273 85.3065 164.677 87.737 164.677 90.7252C164.677 93.7127 162.273 96.1439 159.317 96.1439ZM159.317 86.0488C156.766 86.0488 154.691 88.1466 154.691 90.7252C154.691 93.3038 156.766 95.4015 159.317 95.4015C161.868 95.4015 163.943 93.3038 163.943 90.7252C163.943 88.1466 161.868 86.0488 159.317 86.0488Z" fill="#BDDCFD"/>
<path d="M160.378 90.0463H158.255V90.39H160.378V90.0463Z" fill="#BDDCFD"/>
<path d="M160.378 91.4523H158.255V91.796H160.378V91.4523Z" fill="#BDDCFD"/>
<path d="M160.879 90.7252H157.755V91.069H160.879V90.7252Z" fill="#BDDCFD"/>
<path d="M128.161 54.4552C128.161 54.4552 128.386 53.9442 128.531 53.7022C128.677 53.4602 129.299 52.7515 129.404 52.9123C129.51 53.073 129.933 54.1525 129.709 54.4552C129.484 54.7579 129.723 55.2836 128.605 55.6027L128.161 54.4552Z" fill="#F9CBCB"/>
<path d="M115.731 51.2301C115.731 51.2301 121.456 56.0614 123.689 55.6144C125.435 55.265 128.114 54.3356 128.114 54.3356L128.65 55.721C128.65 55.721 126.247 59.016 123.742 59.0373C119.826 59.0709 116.933 57.3238 116.933 57.3238L115.731 51.2301Z" fill="#81B1F3"/>
<path d="M105.689 102.191C105.689 102.191 105.855 104.901 106.374 104.94C106.443 104.945 109.004 104.945 109.004 104.945L112.275 104.927C112.275 104.927 112.254 104.13 111.298 103.962C110.342 103.794 108.741 103.115 108.162 101.837C107.553 100.493 105.689 102.191 105.689 102.191Z" fill="#1C4B8E"/>
<path d="M105.5 102.38C105.5 102.38 106.495 102.716 107.271 102.716C108.137 102.716 108.924 102.477 108.924 102.477C108.924 102.477 109.111 100.647 110.141 96.6156C110.682 94.5026 111.453 91.7851 112.55 88.4089C115.584 79.0776 116.505 73.6188 116.59 73.1021C116.595 73.075 116.596 73.0611 116.596 73.0611L116.587 73.057L107.26 68.9171C107.26 68.9171 108.413 81.7771 106.942 86.7134C106.736 87.4033 106.559 88.2071 106.408 89.0782C105.479 94.4402 105.5 102.38 105.5 102.38Z" fill="url(#paint5_linear_667_45385)"/>
<path d="M110.141 96.6156C110.682 94.5026 111.453 91.7851 112.55 88.4089C115.584 79.0776 116.506 73.6188 116.59 73.1021C116.589 73.0865 116.588 73.0725 116.587 73.057L107.26 68.9171C107.26 68.9171 108.413 81.7771 106.942 86.7134C106.736 87.4041 110.141 96.6156 110.141 96.6156Z" fill="#F4904D"/>
<path d="M112.974 102.191C112.974 102.191 113.14 104.901 113.659 104.94C113.728 104.945 116.29 104.945 116.29 104.945L119.561 104.927C119.561 104.927 119.54 104.13 118.584 103.962C117.628 103.794 116.028 103.115 115.448 101.837C114.839 100.493 112.974 102.191 112.974 102.191Z" fill="#1C4B8E"/>
<path d="M118.262 69.2207C118.262 69.2207 118.382 77.5545 116.956 87.7864C115.529 98.0183 116.013 102.362 116.013 102.362C116.013 102.362 115.033 102.683 114.638 102.716C113.63 102.799 112.597 102.477 112.597 102.477C112.597 102.477 110.555 92.2412 111.14 87.1195C111.725 81.9979 108.345 69.5455 108.345 69.5455L118.262 69.2207Z" fill="url(#paint6_linear_667_45385)"/>
<path d="M111.648 49.7183L113.469 50.9249L115.128 50.4508C115.431 50.0136 115.511 49.1712 115.515 48.4412C115.52 47.7169 115.451 47.1025 115.451 47.1025L112.994 46.0066L112.078 45.5981C112.081 45.6129 112.15 46.3585 112.159 46.4676C112.33 48.4034 111.648 49.7183 111.648 49.7183Z" fill="#F9CBCB"/>
<path d="M118.304 71.536C116.037 73.7474 107.462 73.3759 106.933 70.9389C106.405 68.5019 107.509 50.1954 111.38 49.0454C112.184 48.8067 116.478 50.2102 116.478 50.2102C116.478 50.2102 117.151 51.9918 117.594 54.2606C117.68 54.7019 117.93 59.3806 118.117 63.7567C118.205 65.8032 118.279 67.785 118.316 69.236C118.351 70.5952 118.352 71.4876 118.304 71.536Z" fill="#699FEF"/>
<path d="M112.342 46.502C112.84 47.3534 114.589 48.099 115.515 48.4403C115.519 47.716 115.45 47.1016 115.45 47.1016L112.994 46.0057C112.451 45.9992 112.12 46.1222 112.342 46.502Z" fill="#FF8840"/>
<path d="M116.376 46.9519C116.376 46.9519 112.419 48.1995 111.688 45.6969C110.957 43.1935 109.954 41.6686 112.45 40.7663C114.946 39.864 115.718 40.672 116.163 41.4471C116.608 42.2223 117.387 46.5623 116.376 46.9519Z" fill="#F9CBCB"/>
<path d="M116.007 41.2051C116.007 41.2051 115.755 44.1178 115.158 43.9915C114.563 43.8652 113.906 43.5945 113.994 44.473C114.082 45.3515 113.415 46.8567 112.555 46.8526C110.712 46.8452 108.71 42.0639 109.214 41.1575C110.67 38.5417 118.111 38.0143 116.007 41.2051Z" fill="#163560"/>
<path d="M115.425 49.1094C115.374 49.0881 112.479 47.7748 112.141 47.888C111.802 48.0012 111.38 49.0462 111.38 49.0462L116.478 50.211C116.478 50.2118 116.076 49.3866 115.425 49.1094Z" fill="#81B1F3"/>
<path d="M134.851 58.527L127.6 75.7677C127.457 76.1056 127.183 76.3136 126.989 76.2296L126.373 75.9628C126.18 75.8791 126.138 75.5337 126.28 75.1958L133.531 57.9544C133.674 57.6165 133.948 57.4085 134.142 57.4925L134.758 57.7593C134.952 57.8434 134.994 58.1891 134.851 58.527Z" fill="#1F4D84"/>
<path d="M130.782 68.2018L127.599 75.7675C127.457 76.1054 127.183 76.3135 126.989 76.2294L126.373 75.9626C126.18 75.8789 126.138 75.5335 126.28 75.1956L129.462 67.6299L130.782 68.2018Z" fill="#739AF0"/>
<path d="M130.048 55.3128C131.219 56.692 132.751 57.7934 134.565 58.4528C140.106 60.4644 146.182 57.5831 148.135 52.0177C150.063 46.5249 147.256 40.4711 141.857 38.3796C141.785 38.3511 141.712 38.324 141.639 38.2976C136.099 36.2856 130.024 39.1654 128.07 44.7314C126.756 48.4749 127.642 52.48 130.048 55.3128ZM128.863 45.0189C129.999 41.7796 132.652 39.5279 135.739 38.7769C137.537 38.3391 139.483 38.4105 141.361 39.0924C146.465 40.9455 149.143 46.6034 147.343 51.73C146.681 53.6174 145.504 55.1686 144.028 56.284C141.491 58.1995 138.07 58.8283 134.845 57.6571C129.742 55.804 127.063 50.1464 128.863 45.0189Z" fill="#1F4D84"/>
<g opacity="0.5">
<path d="M147.344 51.73C146.681 53.6173 145.505 55.1686 144.027 56.2849C141.491 58.1994 138.07 58.8285 134.845 57.6573C129.741 55.8042 127.063 50.1463 128.862 45.0191C129.999 41.7798 132.651 39.5281 135.738 38.7772C137.537 38.3393 139.482 38.4107 141.361 39.0926C146.464 40.9457 149.143 46.6034 147.344 51.73Z" fill="#B3CFF9"/>
</g>
<path d="M126.9 70.8652C127.421 70.9748 127.892 70.7782 127.984 70.7483C127.984 70.7483 128.181 70.8526 127.762 71.1553C127.727 71.1806 127.643 71.2487 127.582 71.2963C127.558 71.3157 127.563 71.3537 127.592 71.3694C127.856 71.5119 128.178 71.5333 128.658 71.8743C128.724 71.9213 128.671 72.0956 128.636 72.1647C128.578 72.2816 128.527 72.4192 128.299 72.5363C128.167 72.6045 127.878 72.6117 127.26 72.5756C127.024 72.5619 126.476 72.2458 126.016 71.828L125.671 71.4455L126.145 70.748L126.243 70.8179C126.401 70.9296 126.703 70.8265 126.9 70.8652Z" fill="#F9CBCB"/>
<path d="M113.363 55.0002C113.363 55.0002 105.597 56.4904 115.647 67.8269C117.255 69.6397 125.939 72.0002 125.939 72.0002C125.939 72.0002 126.819 71.2445 126.375 70.6334C126.375 70.6334 120.396 66.2561 119.081 65.5604C118.488 65.2474 116.784 58.5743 115.819 56.9671C114.854 55.3599 113.363 55.0002 113.363 55.0002Z" fill="#699FEF"/>
<path d="M118.316 69.2364C109.374 62.7949 110.117 54.1995 110.117 54.1995C113.385 56.0631 116.629 60.1832 118.117 63.7571C118.205 65.8045 118.279 67.7862 118.316 69.2364Z" fill="#81B1F3"/>
<path d="M128.379 54.5977C128.379 54.5977 128.642 54.0899 128.693 53.8217C128.744 53.5543 129.075 52.7726 129.211 52.6356C129.266 52.5806 129.446 52.652 129.467 52.8882C129.476 52.9916 129.426 53.1786 129.338 53.4017C129.194 53.7651 129.218 54.2581 129.168 54.4221C129.043 54.8322 128.379 54.5977 128.379 54.5977Z" fill="#F9CBCB"/>
<path d="M144.42 102.088C144.42 102.19 144.426 102.292 144.438 102.391C144.476 102.71 144.574 103.009 144.719 103.279C144.832 103.489 144.975 103.68 145.141 103.849C145.587 104.299 146.202 104.578 146.883 104.578H181.522C182.882 104.578 183.986 103.463 183.986 102.088C183.986 101.4 183.71 100.778 183.264 100.327C182.818 99.8762 182.203 99.5977 181.522 99.5977H146.883C145.523 99.5977 144.42 100.712 144.42 102.088Z" fill="#2B478B"/>
<path d="M147.062 99.1473H158.939C159.147 99.1473 159.317 98.9754 159.317 98.7652C159.317 98.5549 159.147 98.3831 158.939 98.3831H147.062C146.854 98.3831 146.684 98.5549 146.684 98.7652C146.684 98.9748 146.854 99.1473 147.062 99.1473Z" fill="#2B478B"/>
<path d="M147.718 99.5975H149.005V99.1465H147.718V99.5975Z" fill="#233862"/>
<path d="M144.719 103.279C144.832 103.489 144.975 103.68 145.141 103.849C145.587 104.299 146.202 104.578 146.883 104.578H154.22V103.279H144.719Z" fill="#233862"/>
<path d="M188.571 101.358V102.817C188.571 102.976 188.55 103.132 188.51 103.279C188.31 104.027 187.633 104.578 186.83 104.578H150.747C149.943 104.578 149.267 104.027 149.067 103.279C149.027 103.132 149.006 102.976 149.006 102.817V101.358C149.006 100.386 149.785 99.5977 150.747 99.5977H186.83C187.792 99.5977 188.571 100.386 188.571 101.358Z" fill="url(#paint7_linear_667_45385)"/>
<path d="M188.51 103.279C188.31 104.027 187.633 104.578 186.83 104.578H150.747C149.943 104.578 149.267 104.027 149.067 103.279H188.51Z" fill="#EF873A"/>
<path d="M184.987 102.096C184.987 102.87 185.265 103.561 185.703 104.019C185.714 104.029 185.723 104.039 185.733 104.049C186.072 104.39 186.502 104.595 186.969 104.595C187.7 104.595 189.51 103.48 190.632 102.741C191.191 102.372 191.579 102.096 191.579 102.096C191.579 102.096 191.191 101.82 190.632 101.451C189.51 100.711 187.699 99.5964 186.969 99.5964C186.757 99.5964 186.554 99.6385 186.362 99.7153C186.04 99.8463 185.753 100.078 185.527 100.381C185.278 100.715 185.101 101.134 185.026 101.6C185.025 101.605 185.024 101.611 185.024 101.616C185 101.772 184.987 101.932 184.987 102.096Z" fill="#699FEF"/>
<path d="M184.987 102.096C184.987 102.87 185.265 103.561 185.703 104.019L191.257 102.087L185.023 101.617C185 101.772 184.987 101.932 184.987 102.096Z" fill="#81B1F3"/>
<path d="M185.527 100.383L191.068 101.912L186.362 99.7159C186.04 99.847 185.754 100.079 185.527 100.383Z" fill="#9FB1FF"/>
<path d="M190.271 102.096C190.271 102.394 190.421 102.647 190.632 102.741C191.191 102.373 191.58 102.096 191.58 102.096C191.58 102.096 191.191 101.82 190.632 101.452C190.421 101.545 190.271 101.798 190.271 102.096Z" fill="#182D4C"/>
<path d="M198.74 40.3699C197.494 39.7168 196.496 40.1274 196.496 40.1274C192.683 39.6746 191.571 44.1697 191.622 45.7157C191.673 47.2618 191.848 48.9229 190.146 50.9325C185.228 56.736 195.529 56.9918 195.529 56.9918C195.615 52.3552 201.114 54.0469 200.874 54.5162C207.922 56.227 201.574 41.8563 198.74 40.3699Z" fill="#163560"/>
<path d="M184.033 58.773C184.033 58.773 183.362 57.7409 182.822 57.721C182.282 57.7011 181.281 57.4173 181.361 57.62C181.442 57.822 182.062 57.8427 182.122 57.9643C182.182 58.086 181.202 58.2681 180.921 58.288C180.641 58.3078 179.98 58.288 180 58.4295C180.02 58.571 181.191 59.1578 182.016 59.0767C182.842 58.9956 183.863 59.3192 183.863 59.3192L184.033 58.773Z" fill="#F9CBCB"/>
<path d="M193.73 59.1069C193.73 59.1069 193.365 59.8361 192.704 60.6745C191.907 61.6834 190.679 62.8488 189.136 63.0789C188.4 63.1889 187.679 63.0284 187.017 62.7312C187.015 62.7304 187.014 62.7304 187.014 62.7304C185.141 61.8895 183.732 59.9569 183.732 59.9569C183.403 59.0465 183.943 58.4291 183.943 58.4291C183.943 58.4291 187.726 59.289 188.086 59.1069C188.446 58.9248 190.661 53.958 191.06 53.1304C191.908 51.3716 193.253 50.8676 193.253 50.8676L193.73 59.1069Z" fill="url(#paint8_linear_667_45385)"/>
<path d="M192.704 60.6741C191.907 61.683 190.679 62.8484 189.136 63.0785C188.399 63.1886 187.679 63.028 187.017 62.7309C187.09 62.7408 188.961 62.9742 189.706 61.6259C190.467 60.2504 191.29 58.0653 192.42 58.7937C192.908 59.1065 192.886 59.8878 192.704 60.6741Z" fill="#F4904D"/>
<path d="M207.842 100.382C207.842 100.382 208.997 101.447 208.772 102.204C208.547 102.96 207.505 103.465 207.364 104.39C207.223 105.314 206.66 105.819 206.154 105.819C205.647 105.819 203.738 105.819 203.738 105.819C203.738 105.819 203.364 105.169 204.266 104.972C205.167 104.776 205.506 103.69 205.45 102.681C205.393 101.672 205.534 100.327 205.534 100.327L207.449 99.8782L207.842 100.382Z" fill="#1C4B8E"/>
<path d="M198.073 100.834C198.073 100.834 198.488 105.345 197.981 105.597L191.496 105.584C191.496 105.584 191.496 104.828 192.538 104.66C193.579 104.492 195.409 103.875 195.719 102.502C196.028 101.128 198.073 100.834 198.073 100.834Z" fill="#1C4B8E"/>
<path d="M203.061 56.0638C203.061 56.0638 203.158 57.441 203.061 59.0938C202.997 60.1896 201.901 61.6571 201.746 62.0196C201.355 62.93 200.915 63.0782 200.915 63.0782L197.51 63.9216L196.313 64.2179L192.538 63.0782C192.538 63.0782 190.818 58.2264 191.508 55.4952C192.199 52.7639 193.254 50.8669 193.254 50.8669C193.254 50.8669 195.814 49.8456 200.346 50.6087L203.061 56.0638Z" fill="url(#paint9_linear_667_45385)"/>
<path d="M202.065 59.5409C202 60.6367 201.901 61.6563 201.746 62.0197C201.355 62.9301 200.915 63.0783 200.915 63.0783L197.51 63.9217L196.031 63.4822C196.031 63.4822 200.968 62.7257 200.421 58.4326L202.065 59.5409Z" fill="#F2CCAA"/>
<path d="M192.778 63.8141C192.778 63.8141 190.908 69.6971 190.788 71.7C190.668 73.703 194.362 100.153 194.511 101.075C194.651 101.945 195.72 102.5 195.72 102.5C195.72 102.5 196.211 102.793 196.913 102.592C197.886 102.314 198.193 101.982 198.193 101.982C198.193 101.982 199.648 83.1176 198.747 76.3796C197.847 69.6408 197.836 63.8141 197.836 63.8141H192.778Z" fill="#81B1F3"/>
<path d="M200.698 63.6399C200.698 63.6399 203.55 67.5084 203.816 70.123C204.082 72.7375 204.233 81.9229 204.8 84.4721C205.366 87.0213 207.448 91.9268 207.448 99.8773C207.448 99.8773 207.232 100.333 206.563 100.576C206.35 100.654 206.064 100.729 205.786 100.794C205.234 100.921 204.67 100.649 204.418 100.137C203.012 97.2735 198.529 88.0377 198.299 86.12C198.136 84.7634 196.722 75.7833 193.635 70.5144C192.894 69.2498 194.089 64.2184 194.089 64.2184L200.698 63.6399Z" fill="#699FEF"/>
<path d="M192.479 62.9073C192.479 62.9073 193.23 63.5074 194.721 63.538C196.501 63.5744 200.915 63.0787 200.915 63.0787C200.915 63.0787 201.11 63.6324 201.103 64.2175C201.103 64.2175 195.713 65.5914 192.59 64.4178C192.589 64.4178 192.186 63.6522 192.479 62.9073Z" fill="#233862"/>
<path d="M194.293 65.0888C193.845 65.0888 193.48 64.6716 193.48 64.1593C193.48 63.6462 193.845 63.2299 194.293 63.2299C194.741 63.2299 195.106 63.647 195.106 64.1593C195.106 64.6716 194.741 65.0888 194.293 65.0888ZM194.293 63.5013C193.994 63.5013 193.75 63.796 193.75 64.1585C193.75 64.521 193.994 64.8157 194.293 64.8157C194.593 64.8157 194.836 64.521 194.836 64.1585C194.836 63.7968 194.593 63.5013 194.293 63.5013Z" fill="white"/>
<path d="M206.144 64.4754L201.767 68.3281C201.451 68.6062 200.971 68.5731 200.696 68.2537L195.111 61.7706C194.836 61.4511 194.869 60.9661 195.185 60.688L199.562 56.8353C199.878 56.5572 200.358 56.5903 200.633 56.9098L206.218 63.3928C206.494 63.7123 206.461 64.1965 206.144 64.4754Z" fill="#2B478B"/>
<path d="M199.669 63.9883C199.607 64.0048 197.344 64.2738 197.344 64.7464C197.344 65.2927 198.007 66.0251 198.633 65.9904C198.886 65.9763 200.053 64.8913 200.053 64.8913L199.669 63.9883Z" fill="#F9CBCB"/>
<path d="M198.507 50.3589C198.25 49.7274 198.1 48.7665 198.104 47.5763L197.933 47.6102L195.058 48.1855C195.058 48.1855 195.123 49.1 195.125 49.9608C195.125 49.9682 195.125 49.9748 195.125 49.9823C195.128 50.7305 194.625 51.4812 195.812 51.7775C196.18 51.8702 199.048 51.684 198.507 50.3589Z" fill="#F9CBCB"/>
<path d="M195.059 48.1852C195.059 48.1852 195.124 49.0997 195.126 49.9605C196.734 49.915 197.585 48.4318 197.933 47.6091L195.059 48.1852Z" fill="#E8945B"/>
<path d="M194.521 49.0014C194.521 49.0014 198.327 49.0652 198.33 46.6691C198.332 44.273 198.825 42.6673 196.396 42.525C193.966 42.3835 193.493 43.2972 193.3 44.0967C193.106 44.8962 193.532 48.9228 194.521 49.0014Z" fill="#F9CBCB"/>
<path d="M194.662 42.4676C194.662 42.4676 195.705 45.2791 197.304 45.6946C198.903 46.1101 199.596 45.6772 199.596 45.6772C199.596 45.6772 198.37 44.6923 198.115 42.9733C198.114 42.9724 195.448 41.1301 194.662 42.4676Z" fill="#163560"/>
<path d="M194.92 42.6945C194.92 42.6945 194.147 42.9866 193.83 43.5561C193.519 44.1131 193.254 44.8505 193.316 45.756C193.316 45.756 192.53 43.8449 193.413 42.764C194.348 41.6177 194.92 42.6945 194.92 42.6945Z" fill="#163560"/>
<path d="M199.669 63.9885C199.669 63.9885 199.127 63.8122 198.765 63.8635C198.402 63.9148 198.134 63.856 198.134 63.9587C198.134 64.0613 198.602 64.1093 198.702 64.1581C198.801 64.2078 199.669 63.9885 199.669 63.9885Z" fill="#F9CBCB"/>
<path d="M200.346 50.6083C200.346 50.6083 203.047 50.7995 204.082 53.3445C205.118 55.8896 207.082 60.1611 207.082 60.8804C207.082 61.5996 205.985 63.8144 200.091 65.0882C200.091 65.0882 199.482 64.4401 199.519 63.927C199.519 63.927 203.198 60.7322 203.188 60.3589C203.169 59.6529 202.585 58.7202 199.355 55.4542C198.476 54.567 200.346 50.6083 200.346 50.6083Z" fill="url(#paint10_linear_667_45385)"/>
<path d="M96.0574 104.559H101.602C101.899 104.304 101.396 103.726 100.871 103.687C100.643 103.669 100.354 103.718 100.025 103.788C99.948 102.764 99.5127 98.1587 97.8704 98.3439C96.0242 98.5512 97.8704 100.372 98.3925 101.45C98.7789 102.248 99.1871 103.393 99.3734 103.933C99.2233 103.966 99.0684 103.998 98.9098 104.028C98.665 103.268 97.7546 100.713 96.5964 100.862C95.2368 101.037 95.7831 102.061 96.7471 102.669C97.4543 103.116 98.3219 103.752 98.7349 104.058C98.3852 104.116 98.0205 104.154 97.6509 104.146C96.7007 104.124 96.237 104.407 96.0574 104.559Z" fill="#A8D29F"/>
<path d="M216.056 104.546H209.921C209.593 104.265 210.149 103.624 210.73 103.582C210.983 103.562 211.302 103.616 211.666 103.694C211.751 102.56 212.233 97.4658 214.05 97.6706C216.092 97.8997 214.05 99.914 213.472 101.107C213.044 101.99 212.593 103.257 212.387 103.855C212.553 103.891 212.724 103.927 212.9 103.96C213.171 103.119 214.178 100.292 215.459 100.457C216.964 100.65 216.359 101.783 215.293 102.456C214.511 102.951 213.55 103.654 213.094 103.994C213.48 104.058 213.884 104.1 214.294 104.091C215.343 104.065 215.857 104.378 216.056 104.546Z" fill="#A8D29F"/>
</g>
<defs>
<linearGradient id="paint0_linear_667_45385" x1="151.691" y1="86.8822" x2="151.691" y2="124.095" gradientUnits="userSpaceOnUse">
<stop stop-color="#E8E8E8"/>
<stop offset="1" stop-color="#E8E8E8" stop-opacity="0"/>
</linearGradient>
<linearGradient id="paint1_linear_667_45385" x1="169.202" y1="99.2518" x2="102.521" y2="15.8743" gradientUnits="userSpaceOnUse">
<stop stop-color="#E4ECF4"/>
<stop offset="1" stop-color="#D2E3FC"/>
</linearGradient>
<linearGradient id="paint2_linear_667_45385" x1="171.084" y1="56.6006" x2="175.079" y2="46.6935" gradientUnits="userSpaceOnUse">
<stop offset="0.1885" stop-color="#FFBE69"/>
<stop offset="1" stop-color="#FF8F5C"/>
</linearGradient>
<linearGradient id="paint3_linear_667_45385" x1="171.152" y1="70.0257" x2="175.147" y2="60.1186" gradientUnits="userSpaceOnUse">
<stop offset="0.1885" stop-color="#FFBE69"/>
<stop offset="1" stop-color="#FF8F5C"/>
</linearGradient>
<linearGradient id="paint4_linear_667_45385" x1="171.152" y1="83.5501" x2="175.147" y2="73.643" gradientUnits="userSpaceOnUse">
<stop offset="0.1885" stop-color="#FFBE69"/>
<stop offset="1" stop-color="#FF8F5C"/>
</linearGradient>
<linearGradient id="paint5_linear_667_45385" x1="109.889" y1="102.91" x2="131.899" y2="84.2869" gradientUnits="userSpaceOnUse">
<stop offset="0.1885" stop-color="#FFBE69"/>
<stop offset="1" stop-color="#FF8F5C"/>
</linearGradient>
<linearGradient id="paint6_linear_667_45385" x1="112.268" y1="102.922" x2="133.609" y2="86.6403" gradientUnits="userSpaceOnUse">
<stop offset="0.1885" stop-color="#FFBE69"/>
<stop offset="1" stop-color="#FF8F5C"/>
</linearGradient>
<linearGradient id="paint7_linear_667_45385" x1="164.655" y1="104.606" x2="164.975" y2="98.0452" gradientUnits="userSpaceOnUse">
<stop offset="0.1885" stop-color="#FFBE69"/>
<stop offset="1" stop-color="#FF8F5C"/>
</linearGradient>
<linearGradient id="paint8_linear_667_45385" x1="187.622" y1="63.184" x2="193.85" y2="49.9401" gradientUnits="userSpaceOnUse">
<stop offset="0.1885" stop-color="#FFBE69"/>
<stop offset="1" stop-color="#FF8F5C"/>
</linearGradient>
<linearGradient id="paint9_linear_667_45385" x1="195.996" y1="64.2976" x2="202.946" y2="49.1365" gradientUnits="userSpaceOnUse">
<stop offset="0.1885" stop-color="#FFBE69"/>
<stop offset="1" stop-color="#FF8F5C"/>
</linearGradient>
<linearGradient id="paint10_linear_667_45385" x1="202.269" y1="65.1713" x2="211.277" y2="52.4046" gradientUnits="userSpaceOnUse">
<stop offset="0.1885" stop-color="#FFBE69"/>
<stop offset="1" stop-color="#FF8F5C"/>
</linearGradient>
<clipPath id="clip0_667_45385">
<rect width="145" height="105" fill="white" transform="translate(79.5)"/>
</clipPath>
</defs>
</svg>
