<?xml version="1.0" standalone="no"?><svg xmlns="http://www.w3.org/2000/svg" viewBox="0 0 1440 320"><path fill="#FF8840" fill-opacity="1" d="M0,96L17.1,85.3C34.3,75,69,53,103,53.3C137.1,53,171,75,206,117.3C240,160,274,224,309,208C342.9,192,377,96,411,90.7C445.7,85,480,171,514,176C548.6,181,583,107,617,101.3C651.4,96,686,160,720,165.3C754.3,171,789,117,823,96C857.1,75,891,85,926,122.7C960,160,994,224,1029,213.3C1062.9,203,1097,117,1131,74.7C1165.7,32,1200,32,1234,69.3C1268.6,107,1303,181,1337,208C1371.4,235,1406,213,1423,202.7L1440,192L1440,320L1422.9,320C1405.7,320,1371,320,1337,320C1302.9,320,1269,320,1234,320C1200,320,1166,320,1131,320C1097.1,320,1063,320,1029,320C994.3,320,960,320,926,320C891.4,320,857,320,823,320C788.6,320,754,320,720,320C685.7,320,651,320,617,320C582.9,320,549,320,514,320C480,320,446,320,411,320C377.1,320,343,320,309,320C274.3,320,240,320,206,320C171.4,320,137,320,103,320C68.6,320,34,320,17,320L0,320Z"></path></svg>